<?xml version="1.0" encoding="utf-8"?>
<!-- Generator: Adobe Illustrator 15.1.0, SVG Export Plug-In . SVG Version: 6.00 Build 0)  -->
<!DOCTYPE svg PUBLIC "-//W3C//DTD SVG 1.1//EN" "http://www.w3.org/Graphics/SVG/1.1/DTD/svg11.dtd">
<svg version="1.1" id="Layer_1" xmlns="http://www.w3.org/2000/svg" xmlns:xlink="http://www.w3.org/1999/xlink" x="0px" y="0px"
	 width="306.922px" height="412.309px" viewBox="0 0 306.922 412.309" enable-background="new 0 0 306.922 412.309"
	 xml:space="preserve">
<g id="skeleton">
	<g id="arms">
		<g id="core_1_">
			<path fill="#D6D6D6" d="M211.193,259.678c0,0,38.935,39.266,42.182,63.163L247,323.707c0,0-5.512-29.654-38.271-58.273
				L211.193,259.678z"/>
			<path fill="#D6D6D6" d="M79.898,264.482c0,0-42.23,35.695-47.562,59.216l6.273,1.423c0,0,8.092-29.053,43.237-54.686
				L79.898,264.482z"/>
		</g>
		<g id="hands">
			<path fill="#D6D6D6" d="M27.7,319.041c0,0-13.894,10.036-11.856,22.862c2.039,12.828,2.592,0.588,2.592,0.588
				s3.15-14.323,8.487-20.021C32.26,316.775,27.7,319.041,27.7,319.041z"/>
			<path fill="#D6D6D6" d="M35.435,328.209c0,0-1.58,12.421,9.468,18.222l0.533-2.351c0,0-10.052-13.821-6.473-15.071
				L35.435,328.209z"/>
			<path fill="#D6D6D6" d="M31.41,331.418c0,0,1.523,11.47,7.867,16.209l-3.759,2.033c0,0-10.037-17.525-6.067-18.688
				C33.421,329.813,31.41,331.418,31.41,331.418z"/>
			<path fill="#D6D6D6" d="M22.717,348.96c0,0-2.236-15.897,3.385-22.867c5.622-6.969,1.712,0.389,1.712,0.389l-2.689,20.822
				L22.717,348.96z"/>
			<path fill="#D6D6D6" d="M256.645,320.586c0,0,12.961,11.221,9.805,23.818c-3.156,12.601-2.635,0.357-2.635,0.357
				s-1.881-14.544-6.694-20.688C252.305,317.93,256.645,320.586,256.645,320.586z"/>
			<path fill="#D6D6D6" d="M248.135,329.039c0,0,0.484,12.515-11.031,17.32l-0.324-2.39c0,0,11.228-12.887,7.771-14.444
				L248.135,329.039z"/>
			<path fill="#D6D6D6" d="M251.861,332.589c0,0-2.521,11.298-9.258,15.455l3.566,2.362c0,0,11.536-16.583,7.684-18.088
				C250.002,330.813,251.861,332.589,251.861,332.589z"/>
			<path fill="#D6D6D6" d="M258.982,350.825c0,0,3.623-15.638-1.363-23.075c-4.988-7.435-1.74,0.236-1.74,0.236l0.854,20.983
				L258.982,350.825z"/>
		</g>
	</g>
	<g id="body">
		<g id="panva_1_">
			<path fill="#D6D6D6" d="M197.917,328.448c-27.856-20.57-40.667-3.149-40.667-3.149c-13.342-12.323-19.775,0.816-19.775,0.816
				c-33.376-17.93-42.69-3.064-42.69-3.064c-11.906,23.356,23.802,37.637,23.802,37.637c35.501-20.781,44.024-1.817,44.024-1.817
				C215.43,351.86,197.917,328.448,197.917,328.448z M130.246,352.969c-4.596,0.189-8.411-1.813-8.521-4.477
				c-0.11-2.663,3.527-4.974,8.123-5.162c4.598-0.19,8.412,1.812,8.522,4.475C138.479,350.469,134.843,352.779,130.246,352.969z
				 M163.566,351.593c-4.596,0.189-8.41-1.813-8.521-4.477c-0.11-2.663,3.526-4.974,8.122-5.162c4.598-0.19,8.412,1.812,8.521,4.475
				C171.8,349.093,168.164,351.403,163.566,351.593z"/>
			<path fill="#7C461D" d="M171.209,345.052"/>
		</g>
		<g id="ribs">
			<path fill="#D6D6D6" d="M151.126,306.293c0,0,28.667-13.669,67.253,22.507v-7.234c0,0-29.197-30.55-67.253-21.705"/>
			<path fill="#D6D6D6" d="M140.995,306.293c0,0-28.667-13.669-67.257,22.507v-7.234c0,0,29.197-30.55,67.257-21.705"/>
			<path fill="#D6D6D6" d="M154.227,284.585c0,0,27.978-8.036,54.502,13.668v4.823c0,0-28.662-22.77-54.502-13.668V284.585
				L154.227,284.585z"/>
			<path fill="#D6D6D6" d="M139.66,284.563c0,0-27.971-7.903-54.503,13.435v4.745c0,0,28.667-22.391,54.503-13.44V284.563z"/>
			<path fill="#D6D6D6" d="M155.211,275.384c22.07-4.772,42.617,8.541,42.617,8.541l-0.545-3.825
				c-21.572-14.63-43.917-9.324-43.917-9.324L155.211,275.384z"/>
			<path fill="#D6D6D6" d="M137.626,275.384c-22.067-4.772-42.621,8.541-42.621,8.541l0.55-3.825
				c21.574-14.63,43.917-9.324,43.917-9.324L137.626,275.384z"/>
		</g>
	</g>
	<g id="head">
		<g id="core">
			<path fill="#D6D6D6" d="M139.621,35.377c0,0,102.098-4.824,109.329,146.313c0,0-48.234,23.312-54.664,24.117
				c-6.431,0.805,8.241,40.194,8.241,40.194s-66.125,31.353-112.75,0l6.43-32.957c0,0-46.625-17.687-51.445-26.531
				C39.933,177.67,9.386,56.275,139.621,35.377z"/>
		</g>
		<g id="teeth">
			
				<rect x="111.738" y="210.646" transform="matrix(0.9999 0.0111 -0.0111 0.9999 2.4778 -1.2558)" fill="#584A4C" width="4.561" height="22.509"/>
			<rect x="127.432" y="210.632" fill="#584A4C" width="3.835" height="22.511"/>
			<polygon fill="#584A4C" points="140.288,209.866 145.536,209.598 146.694,232.081 141.442,232.348 			"/>
			
				<rect x="156.226" y="210.719" transform="matrix(0.9952 -0.0976 0.0976 0.9952 -20.9073 16.5029)" fill="#584A4C" width="4.043" height="22.514"/>
			<polygon fill="#584A4C" points="170.59,210.074 174.926,209.48 178.002,231.781 173.668,232.373 			"/>
		</g>
		<g id="nose">
			<path fill="#584A4C" d="M137.187,189.729c0,0,7.67-36.176,16.294,0H137.187z"/>
		</g>
		<g id="eyes">
			<path fill="#584A4C" d="M200.738,161.623c-8.069,8.974-25.161,6.751-38.174-4.954c-13.008-11.713-17.004-28.474-8.931-37.452
				c8.08-8.973,25.171-6.756,38.173,4.958C204.82,135.885,208.82,152.65,200.738,161.623z"/>
			<path fill="#584A4C" d="M85.773,161.247c-7.938-9.095-3.67-25.797,9.515-37.303c13.198-11.501,30.319-13.448,38.256-4.349
				c7.937,9.103,3.674,25.801-9.522,37.298C110.832,168.399,93.706,170.35,85.773,161.247z"/>
		</g>
	</g>
</g>
</svg>
