<?xml version="1.0" encoding="utf-8"?>
<!-- Generator: Adobe Illustrator 15.1.0, SVG Export Plug-In . SVG Version: 6.00 Build 0)  -->
<!DOCTYPE svg PUBLIC "-//W3C//DTD SVG 1.1//EN" "http://www.w3.org/Graphics/SVG/1.1/DTD/svg11.dtd">
<svg version="1.1" xmlns="http://www.w3.org/2000/svg" xmlns:xlink="http://www.w3.org/1999/xlink" x="0px" y="0px" width="253px"
	 height="303px" viewBox="0 0 253 303" enable-background="new 0 0 253 303" xml:space="preserve">
<g id="jpg">
	
		<image overflow="visible" opacity="0.4" width="400" height="300" xlink:href="../../sketches/jimbo bazooka.gif"  transform="matrix(1 0 0 1 -69.5 -311.7715)">
	</image>
</g>
<g id="jimbofr">
	<path fill="#987758" d="M-275.992,185.378c0,0-44.711,10.924-86.485-1.801c0,0,3.874,63.354,3.597,63.629
		c-0.277,0.277,45.566-4.15,78.527,0L-275.992,185.378z"/>
	
		<line fill="none" stroke="#000000" stroke-width="1.5" stroke-miterlimit="10" x1="-319.255" y1="200.921" x2="-319.122" y2="245.919"/>
	<ellipse fill="#1E1D1B" cx="-318.986" cy="249.144" rx="48.61" ry="3.875"/>
	<polygon fill="#EF9D32" points="-283.039,188.263 -319.255,190.201 -355.255,188.263 -350.276,82.797 -285.674,85.841 	"/>
	<path fill="#EF9D32" d="M-360.604,91.649c0,0,19.948,10.749-9.263,55.586c0,0,1.12-1.137-7.406,23.096c0,0-8.526-6.805-15.166,0
		c0,0,0.145-51.293,29.12-78.682H-360.604z"/>
	<path fill="#F8E0BC" d="M-381.649,173.068c0,0,8.576,8.854,0,11.482c0,0-15.314,7.596-12.449-11.482c0,0,2.213-8.877,12.172-4.992
		c0,0,5.813,1.77,4.088,4.717C-377.838,172.792-384.336,169.398-381.649,173.068z"/>
	<path fill="#EF9D32" d="M-275.855,91.649c0,0-19.947,10.749,9.264,55.586c0,0-1.121-1.137,7.405,23.096c0,0,8.526-6.805,15.165,0
		c0,0-0.144-51.293-29.119-78.682H-275.855z"/>
	<path fill="#F8E0BC" d="M-254.811,173.539c0,0-8.576,8.852,0,11.48c0,0,15.315,7.596,12.449-11.48c0,0-2.213-8.879-12.172-4.992
		c0,0-5.813,1.768-4.088,4.715C-258.621,173.261-252.123,169.867-254.811,173.539z"/>
	<path fill="#236654" d="M-347.709,81.852c0,0,14.95,1.499,22.797,17.683c0,0,7.091,62.247,0,89.633c0,0-43.609,2.906-52.738-10.789
		c0,0-2.075-9.129,0-28.217c0,0,22.775-21.994,22.384-34.443c0,0,0.396-15.769-6.637-24.069c0,0-7.863-3.319-8.693-0.829
		C-370.595,90.82-353.872,79.522-347.709,81.852z"/>
	<path fill="#236654" d="M-287.819,81.852c0,0-14.95,1.499-22.798,17.683c0,0-7.091,62.247,0,89.633c0,0,43.608,2.906,52.738-10.789
		c0,0,2.074-9.129,0-28.217c0,0-22.775-21.994-22.385-34.443c0,0-0.396-15.769,6.638-24.069c0,0,7.862-3.319,8.692-0.829
		C-264.934,90.82-281.657,79.522-287.819,81.852z"/>
	
		<rect x="-308.461" y="104.1" fill="none" stroke="#000000" stroke-width="1.5" stroke-miterlimit="10" width="16.806" height="26.972"/>
	
		<rect x="-364.791" y="152.029" fill="none" stroke="#000000" stroke-width="1.5" stroke-miterlimit="10" width="16.806" height="26.973"/>
	
		<rect x="-346.328" y="118.416" fill="none" stroke="#000000" stroke-width="1.5" stroke-miterlimit="10" width="16.807" height="24.691"/>
	
		<rect x="-341.202" y="158.875" fill="none" stroke="#000000" stroke-width="1.5" stroke-miterlimit="10" width="12.993" height="19.09"/>
	
		<rect x="-306.036" y="149.332" fill="none" stroke="#000000" stroke-width="1.5" stroke-miterlimit="10" width="11.062" height="36.518"/>
	
		<rect x="-287.09" y="166.625" fill="none" stroke="#000000" stroke-width="1.5" stroke-miterlimit="10" width="18.373" height="10.926"/>
	
		<rect x="-304.576" y="136.31" fill="none" stroke="#000000" stroke-width="1.5" stroke-miterlimit="10" width="15.826" height="10.926"/>
	
		<rect x="-346.908" y="96.991" transform="matrix(0.0012 1 -1 0.0012 -235.0387 447.1351)" fill="none" stroke="#000000" stroke-width="1.5" stroke-miterlimit="10" width="11.112" height="17.835"/>
	<circle cx="-299.628" cy="112.431" r="0.956"/>
	<circle cx="-341.227" cy="103.104" r="0.956"/>
	<circle cx="-356.388" cy="158.876" r="0.956"/>
	<circle cx="-300.505" cy="156.259" r="0.956"/>
	<circle cx="-296.537" cy="139.082" r="0.955"/>
	<circle cx="-276.948" cy="169.375" r="0.956"/>
	
		<line fill="none" stroke="#000000" stroke-width="1.5" stroke-miterlimit="10" x1="-350.276" y1="100.363" x2="-341.227" y2="106.921"/>
	
		<line fill="none" stroke="#000000" stroke-width="1.5" stroke-miterlimit="10" x1="-341.227" y1="106.921" x2="-332.441" y2="100.342"/>
	
		<line fill="none" stroke="#000000" stroke-width="1.5" stroke-miterlimit="10" x1="-346.017" y1="127.503" x2="-329.833" y2="127.503"/>
	
		<line fill="none" stroke="#000000" stroke-width="1.5" stroke-miterlimit="10" x1="-341.353" y1="165.515" x2="-328.208" y2="165.515"/>
	
		<line fill="none" stroke="#000000" stroke-width="1.5" stroke-miterlimit="10" x1="-308.461" y1="104.1" x2="-299.629" y2="119.371"/>
	
		<line fill="none" stroke="#000000" stroke-width="1.5" stroke-miterlimit="10" x1="-299.629" y1="119.371" x2="-291.655" y2="104.1"/>
	
		<line fill="none" stroke="#000000" stroke-width="1.5" stroke-miterlimit="10" x1="-304.576" y1="136.31" x2="-296.664" y2="141.773"/>
	
		<line fill="none" stroke="#000000" stroke-width="1.5" stroke-miterlimit="10" x1="-296.664" y1="141.773" x2="-288.75" y2="136.31"/>
	
		<line fill="none" stroke="#000000" stroke-width="1.5" stroke-miterlimit="10" x1="-306.036" y1="149.332" x2="-300.621" y2="168.419"/>
	
		<line fill="none" stroke="#000000" stroke-width="1.5" stroke-miterlimit="10" x1="-300.621" y1="168.419" x2="-294.975" y2="149.332"/>
	
		<line fill="none" stroke="#000000" stroke-width="1.5" stroke-miterlimit="10" x1="-364.791" y1="154.228" x2="-356.388" y2="166.625"/>
	
		<line fill="none" stroke="#000000" stroke-width="1.5" stroke-miterlimit="10" x1="-356.388" y1="166.625" x2="-347.984" y2="155.304"/>
	
		<line fill="none" stroke="#000000" stroke-width="1.5" stroke-miterlimit="10" x1="-287.09" y1="166.625" x2="-276.947" y2="173.15"/>
	
		<line fill="none" stroke="#000000" stroke-width="1.5" stroke-miterlimit="10" x1="-276.947" y1="173.15" x2="-268.717" y2="166.625"/>
	<path fill="#F8E0BC" d="M-360.526,25.905c0,0,34.844,2.669,73.437,1.009c0,0,4.979,52.287-3.735,56.437
		c0,0-4.149,1.245-14.524,2.49c0,0-39.007,0-46.892-1.66c0,0-8.285,1.659-8.285-28.309
		C-360.526,25.905-360.526,25.905-360.526,25.905z"/>
	
		<ellipse transform="matrix(0.8531 0.5218 -0.5218 0.8531 -23.8961 168.507)" fill="#FFFFFF" cx="-311.187" cy="41.818" rx="11.975" ry="10.352"/>
	
		<ellipse transform="matrix(-0.8531 0.5218 -0.5218 -0.8531 -597.9623 252.0023)" fill="#FFFFFF" cx="-334.459" cy="41.818" rx="11.975" ry="10.352"/>
	<circle cx="-317.401" cy="41.801" r="1.854"/>
	<circle cx="-329.832" cy="41.818" r="1.854"/>
	
		<line fill="none" stroke="#000000" stroke-width="1.5" stroke-miterlimit="10" x1="-340.729" y1="24.812" x2="-325.12" y2="32.48"/>
	
		<line fill="none" stroke="#000000" stroke-width="1.5" stroke-miterlimit="10" x1="-303.492" y1="25.265" x2="-319.431" y2="32.224"/>
	<path fill="none" stroke="#000000" stroke-width="1.5" stroke-miterlimit="10" d="M-348.506,72.977
		c0-0.459,32.367,20.748,54.776-0.83"/>
	<path fill="none" stroke="#000000" stroke-width="1.5" stroke-miterlimit="10" d="M-311.195,74.221"/>
	<path fill="none" stroke="#000000" stroke-width="1.5" stroke-miterlimit="10" d="M-328.808,75.79c0,0,9.483-5.395,16.782,0"/>
	<path fill="#F8E0BC" d="M-285.674,31.894c0,0,16.867-11.16,8.128,13.694s-7.853,7.503-8.128,14.109V31.894z"/>
	<path fill="#F8E0BC" d="M-360.526,31.894c0,0-16.867-11.16-8.127,13.694c8.738,24.854,7.853,7.503,8.127,14.109V31.894z"/>
	<path fill="none" stroke="#000000" stroke-width="1.5" stroke-miterlimit="10" d="M-280.354,35.214
		c0,6.651-1.179,12.034-2.635,12.034"/>
	<path fill="none" stroke="#000000" stroke-width="1.5" stroke-miterlimit="10" d="M-367.252,34.384
		c0,6.651,1.179,12.034,2.635,12.034"/>
	<path id="hatCore_1_" fill="#EF9D32" d="M-363.86-22.052c0,0,0-4.149,22.408,0c0,0,9.544-3.735,26.143,0
		c0,0,3.32,6.04,25.729-0.922c0,0,9.96-7.792,5.395,16.691c0,0-4.149,6.64-2.075,29.463c0,0-35.688-1.245-73.865,0
		C-360.125,23.18-364.69-8.773-363.86-22.052z"/>
	<path fill="none" stroke="#000000" stroke-width="1.5" stroke-miterlimit="10" d="M-348.506-11.771
		c0-0.458,21.786-11.111,45.232-0.83"/>
	<path fill="none" stroke="#000000" stroke-width="1.5" stroke-miterlimit="10" d="M-335.605,10.2
		c2.49-14.409,29.191-0.363,23.656-2.789"/>
	<path fill="none" stroke="#000000" stroke-width="1.5" stroke-miterlimit="10" d="M-352.241,23.18
		c0-0.459,35.212-17.844,58.512-0.83"/>
	<ellipse cx="-321.948" cy="24.632" rx="46.477" ry="2.282"/>
</g>
<g id="bazooka">
	<path fill="#353936" d="M99.587,115.933l-26.392,8.835c0,0,8.253-0.145,2.358,33.236c0,0,17.31,18.788,14.55-17.246
		C90.104,140.758,102.469,125.854,99.587,115.933"/>
	<path fill="#353936" d="M205.772,84.499l-9.367,2.358v15.498C196.406,102.355,211.603,100.234,205.772,84.499z"/>
	<path fill="#3E613F" d="M208.196,38.968c0,0-156.814,44.533-168.604,50.429c-11.791,5.895,9.433,43.625,9.433,43.625
		l169.193-48.523L208.196,38.968z"/>
	<path fill="#3E6253" d="M236.493,25.496c0,0-37.14,2.59-36.925,16.541c6.27,12.578,1.554,55.966,22.776,50.484
		S253,82.397,253,82.397L236.493,25.496z"/>
	<path fill="#3E6253" d="M4.949,92.042c0,0,32.682-17.833,40.019-5.967c1.497,13.975,28.853,47.981,8.021,54.8
		c-20.832,6.82-31.278,7.994-31.278,7.994L4.949,92.042z"/>
</g>
<g id="jimbo">
	<g id="body">
		<g id="legs">
			<path fill="#987758" d="M168.111,296.32c0,0-38.911,0-60.134,0l-8.253-63.669l73.663-3.482L168.111,296.32z"/>
		</g>
		<g id="core_2_">
			<path fill="#EF9D32" d="M99.134,230.883l-5.502-92.593c0,0,64.848,9.666,84.892-8.806c0,0,3.93,18.08,8.253,25.547
				c0,0,20.831,29.082,18.865,59.345C205.642,214.376,165.947,245.032,99.134,230.883z"/>
		</g>
		<g id="vest">
			<path id="core_3_" fill="#236654" d="M93.632,133.021c0,0,65.724,5.152,67.402,4.715s46.966,57.775,37.14,88.824
				c0,0-83.098,18.465-111.506,8.054c0,0,12.688-24.561,0-68.579C86.668,166.035,82.628,137.738,93.632,133.021z"/>
			<g id="pockets">
				<rect x="112.01" y="191.581" fill="none" stroke="#000000" stroke-miterlimit="10" width="23.085" height="13.756"/>
				
					<rect x="133.327" y="212.411" transform="matrix(-0.993 0.1177 -0.1177 -0.993 307.7675 418.8275)" fill="none" stroke="#000000" stroke-miterlimit="10" width="16.376" height="12.183"/>
				
					<rect x="154.517" y="152.672" transform="matrix(-0.9962 0.0874 -0.0874 -0.9962 337.6183 319.9365)" fill="none" stroke="#000000" stroke-miterlimit="10" width="14.573" height="29.377"/>
				
					<rect x="172.235" y="185.409" transform="matrix(-0.9918 0.1276 -0.1276 -0.9918 379.01 385.7186)" fill="none" stroke="#000000" stroke-miterlimit="10" width="9.825" height="39.186"/>
				<line fill="none" stroke="#000000" stroke-miterlimit="10" x1="168.111" y1="155.869" x2="161.034" y2="169.572"/>
				<line fill="none" stroke="#000000" stroke-miterlimit="10" x1="161.034" y1="169.572" x2="153.718" y2="158.572"/>
				<line fill="none" stroke="#000000" stroke-miterlimit="10" x1="179.519" y1="184.942" x2="177.148" y2="205.001"/>
				<line fill="none" stroke="#000000" stroke-miterlimit="10" x1="177.148" y1="205.001" x2="169.774" y2="186.196"/>
				<line fill="none" stroke="#000000" stroke-miterlimit="10" x1="148.928" y1="211.49" x2="141.514" y2="218.503"/>
				<line fill="none" stroke="#000000" stroke-miterlimit="10" x1="141.514" y1="218.503" x2="132.666" y2="213.417"/>
				<line fill="none" stroke="#000000" stroke-miterlimit="10" x1="135.095" y1="191.581" x2="123.552" y2="198.459"/>
				<line fill="none" stroke="#000000" stroke-miterlimit="10" x1="123.552" y1="198.459" x2="112.01" y2="191.581"/>
			</g>
		</g>
	</g>
	<g id="head">
		<g id="face">
			<path id="core_1_" fill="#F8E0BC" d="M165.091,53.669c0,0-65.438,14.655-78.407,25.708c0,0-1.781,68.025,32.712,64.824
				c0,0,58.075-12.328,54.538-33.698S165.091,60.994,165.091,53.669z"/>
			<g id="lines_1_">
				<path fill="none" stroke="#000000" stroke-miterlimit="10" d="M164.571,71.122c-2.948-5.306-20.108,8.253-20.108,8.253"/>
				<path fill="none" stroke="#000000" stroke-miterlimit="10" d="M146.821,72.274c0,0-5.96,9.095,0,12.224"/>
				<path fill="none" stroke="#000000" stroke-miterlimit="10" d="M173.387,102.372c0,0-5.278-4.722-12.353,1.763"/>
			</g>
		</g>
		<g id="hair">
			<path fill="#584B4D" d="M138.632,62.278c0,0-28.583,14.239-19.755,43.036l-32.209,6.485c0,0-2.892-32.897,0.016-34.754
				C89.592,75.188,135.095,59.331,138.632,62.278z"/>
		</g>
		<path id="ear" fill="#F8E0BC" stroke="#000000" stroke-miterlimit="10" d="M123.166,102.643c0,0-21.618-20.246-5.607-20.246"/>
		<g id="hat">
			<path id="core_5_" fill="#F39200" d="M152.191,5.935c0,0-78.997,7.673-77.817,26.858c1.179,19.184,11.791,45.403,11.791,45.403
				l79.586-22.575c0,0-17.096-27.944-12.97-33.06C156.908,17.445,155.109,5.621,152.191,5.935z"/>
			<g id="lines">
				<path fill="none" stroke="#000000" stroke-miterlimit="10" d="M157.368,37.811c-4.698-9.328-25.81,10.909-25.81,10.909"/>
				<path fill="none" stroke="#000000" stroke-miterlimit="10" d="M151.253,20.705c-3.778-6.768-12.621,11.111-12.621,11.111"/>
			</g>
		</g>
	</g>
	<g id="arm">
		<g id="hand">
			<path fill="#F8E0BC" d="M197.702,91.283c0,0,11.319,6.213,12.026,11.36c0.708,5.147-14.542,11.68-18.236,1.221
				S197.702,91.283,197.702,91.283z"/>
		</g>
		<path fill="#F39200" d="M98.348,134.116c0,0-14.748,14.448,16.507,47.933c0,0,5.502-10.958,12.184-18.749
			c0,0,40.35-2.052,78.734-54.517c0,0-14.28,1.64-14.28-4.919s-26.921,20.494-26.921,20.494S130.968,134.854,98.348,134.116z"/>
	</g>
</g>
<g id="rocket">
	<path fill="#6F6B84" d="M325.162,72.092l7.014,27.764l43.666-9.993c0,0,29.595-22.688-5.637-28.414L325.162,72.092z"/>
</g>
<g id="Layer_19">
</g>
</svg>
