<?xml version="1.0" encoding="utf-8"?>
<!-- Generator: Adobe Illustrator 15.1.0, SVG Export Plug-In . SVG Version: 6.00 Build 0)  -->
<!DOCTYPE svg PUBLIC "-//W3C//DTD SVG 1.1//EN" "http://www.w3.org/Graphics/SVG/1.1/DTD/svg11.dtd">
<svg version="1.1" id="Layer_1" xmlns="http://www.w3.org/2000/svg" xmlns:xlink="http://www.w3.org/1999/xlink" x="0px" y="0px"
	 width="355px" height="291.5px" viewBox="56.5 4.5 355 291.5" enable-background="new 56.5 4.5 355 291.5" xml:space="preserve">
<g id="Body_2_" display="none">
	<path display="inline" fill="#672A12" d="M51.174,355C50,369,70,414.667,70,414.667s317.666,9,325.333,0
		c4.972-11.775,16.001-69.333,15.334-55S51.174,355,51.174,355z"/>
	<path display="inline" fill="#12100B" d="M60,423.667c-0.333-7.667,6-10.333,8.667-9.333s62.667-9.001,82-8.334
		s72.122,3.667,84.728,11.667c50.939-12.667,142.003-9.032,156.138-2.85c4.928-0.892,6.154,0,8.802,0
		c2.916,0,5.937,7.517,3.136,8.85"/>
	<path display="inline" fill="#CB1528" d="M41.5,350c14,29,93,54.5,129.5,46.5s61.798-0.95,76-3c17.283-4.029,57-5,76-15.5
		s69.5,6,83-10c19-2.5,31-13.5,30.5-42s20.378-67.585,3.166-71.277c-22-4.722-12-36.056-48.134-44.957
		c-18.839-4.641-314.394-0.988-314.394-0.988S61.5,210,53,223s-25.5,34.333-25,38.666C28.5,266,37.5,350.5,41.5,350z"/>
	<ellipse display="inline" fill="#12100B" cx="242.755" cy="299.364" rx="4.495" ry="4.386"/>
	<ellipse display="inline" fill="#12100B" cx="246.755" cy="338.364" rx="4.495" ry="4.386"/>
	<ellipse display="inline" fill="#12100B" cx="242.755" cy="374.364" rx="4.495" ry="4.386"/>
	<path display="inline" fill="none" stroke="#12100B" stroke-width="3" stroke-linecap="round" stroke-miterlimit="10" d="
		M253,390.25c-1.75-9.5,2-42.25,2-42.25s1.25-34.25,0-40.25s-1.93-16-2.465-17.25"/>
	<path display="inline" fill="#EEBF00" d="M5.296,279.833C1.216,306.229,22.333,316.5,31.5,320.167s31,3.5,53.667-3.167
		s7.333-21,7.333-21s-38.333-29.833-58.167-33.166C34.333,262.834,8.655,258.104,5.296,279.833z"/>
	<path display="inline" fill="#EEBF00" d="M418.167,312c1.334,4.5,11.25,10.197,16,11.5c8.315,2.281,25.834,2.333,33.667-7.5
		s1.167-41.167,0-44.667s-9.333-17-16.333-17.667c-7-0.666-22.334,0.168-26.667,4.168S405.771,273.5,403.469,283
		c-4.892,8.425-10.969,10.999-11.802,18.333s2.334,11.5,5.667,12.167S417.167,313.833,418.167,312z"/>
</g>
<g id="Head_2_">
	<path fill="#F5DBB4" d="M403.334,162.834C398.832,236.242,328.117,296,235.334,296c-92.784,0-169.158-59.63-168-133.166
		c0.171-10.857,5.269-6.829,4.333-18.834c-2-25.666,44.021-113.443,163.667-116.666C340.5,24.5,395,114.5,393,124.334
		C390.611,136.077,405,135.667,403.334,162.834z"/>
	<g id="Olhos">
		<path fill="#FFFFFF" d="M242.667,160.5c-1.835,25.781-22.846,49.266-43.833,49.266s-39.167-13.752-39.167-39.599
			s22.804-55.694,43.333-57.5C223.906,110.828,246,113.667,242.667,160.5z"/>
		<path fill="#FFFFFF" d="M327.334,164.834c4.563,31.168-17.334,44.932-29.5,44.932c-21.702,0-48.167-17.432-55.167-49.266
			c-5.63-25.604,13.167-49.666,46-46C313.549,117.278,323.334,137.5,327.334,164.834z"/>
		<ellipse fill="#12100B" cx="218.5" cy="165" rx="4.667" ry="4.834"/>
		<ellipse fill="#12100B" cx="270.167" cy="166.917" rx="4.833" ry="4.583"/>
	</g>
	<path fill="none" stroke="#12100B" stroke-width="3" stroke-linecap="round" stroke-miterlimit="10" d="M264.25,254.917
		c-7.5,5.667-32.916,4.031-39.661-1.251"/>
	<path fill="none" stroke="#12100B" stroke-width="3" stroke-linecap="round" stroke-miterlimit="10" d="M369.75,228.25
		c-12.25,18-143.25,106.5-260.25,5.084"/>
	<path fill="none" stroke="#12100B" stroke-width="3" stroke-linecap="round" stroke-miterlimit="10" d="M275,262.834
		c-20.166,10.166-58.667,4.114-65.411-1.168"/>
	<path fill="#1A9DB6" stroke="#199DB6" stroke-width="2" stroke-miterlimit="10" d="M392.742,126.75
		c0.004-0.469,0.033-0.953,0.101-1.465l0.156-2.257c-1.825-14.636-56.126-98.431-157.665-95.694
		c-119.646,3.223-165.581,92.094-163.581,117.76c0.01,0.135,0.016,0.255,0.025,0.385C124.284,120.233,234.274,67.01,392.742,126.75z
		"/>
	<path fill="#EEBF00" d="M211.333,35.5c0,0-1.334,5.834,2.833,7.667s13.833-0.667,15-2.667c1.668,2.167,5.959,3.125,11.001,3.305
		c3.474,0.125,5.834,1.195,13.5-3.305c6,2.667,15.909,3.031,20.666,1c3.433-1.466,7.166-5.964,4.5-14.232
		s-31.083-15.101-41.5-15.101c-21.583,0-57.5,7.499-58.667,22.333c-0.667,9,3.167,9,7,10.167S207,43.833,211.333,35.5z"/>
	<path fill="#EEBF00" d="M65.5,157.75c211.75-107.5,298.5-9.25,333.5-18c4.279-1.07,5.25-7.25,1-10.75
		c-93.75-38.75-234.75-47.75-334.5,18.75C60.499,151.084,62.391,159.656,65.5,157.75z"/>
</g>
</svg>
