<?xml version="1.0" encoding="utf-8"?>
<!-- Generator: Adobe Illustrator 15.1.0, SVG Export Plug-In . SVG Version: 6.00 Build 0)  -->
<!DOCTYPE svg PUBLIC "-//W3C//DTD SVG 1.1//EN" "http://www.w3.org/Graphics/SVG/1.1/DTD/svg11.dtd">
<svg version="1.1" id="Layer_1" xmlns="http://www.w3.org/2000/svg" xmlns:xlink="http://www.w3.org/1999/xlink" x="0px" y="0px"
	 width="980px" height="600px" viewBox="0 -50 980 600" enable-background="new 0 -50 980 600" xml:space="preserve">
<g id="sky">
	<rect x="0.281" y="-74.5" fill="#6FBFD0" width="980" height="622.9"/>
</g>
<g id="sea">
	<rect x="0.281" y="269.2" fill="#60708D" width="980" height="280"/>
	<g>
		<g>
			<path fill="#4F4797" d="M47.845,331.619c20.709-12.604,48.683-14.571,68.769,0c-0.23-0.167,0.245-1.321,0-1.5
				c-20.086-14.571-48.059-12.604-68.769,0C47.615,330.259,48.059,331.489,47.845,331.619L47.845,331.619z"/>
		</g>
	</g>
	<g>
		<g>
			<path fill="#4F4797" d="M354.322,341.112c23.121-11.176,54.294-14.441,75.959,1.301c-0.269-0.195,0.286-1.542,0-1.75
				c-21.665-15.743-52.838-12.477-75.959-1.301C354.083,339.478,354.54,341.007,354.322,341.112L354.322,341.112z"/>
		</g>
	</g>
	<g>
		<g>
			<path fill="#4F4797" d="M286.335,471.058c16.006-14.207,39.277-10.393,55.332,1.301c-0.461-0.336,0.49-2.644,0-3
				c-16.056-11.691-39.326-15.508-55.332-1.301C285.826,468.509,286.818,470.629,286.335,471.058L286.335,471.058z"/>
		</g>
	</g>
	<g>
		<g>
			<path fill="#4F4797" d="M933.43,298.524c4.395-5.937,10.594-10.925,17.291-13.976c15.453-7.039,29.104,3.02,38.041,15.275
				c-0.193-0.268,0.201-0.975,0-1.25c-9.178-12.587-22.35-21.887-38.041-15.275c-6.697,2.822-12.969,8.137-17.291,13.976
				C933.227,297.549,933.625,298.26,933.43,298.524L933.43,298.524z"/>
		</g>
	</g>
	<g>
		<g>
			<path fill="#4F4797" d="M578.281,364.986c24.203-11.206,57.934-16.61,80.787,0c-0.293-0.212,0.311-1.675,0-1.899
				c-22.855-16.609-56.584-11.205-80.787,0C578.027,363.203,578.51,364.88,578.281,364.986L578.281,364.986z"/>
		</g>
	</g>
	<g>
		<g>
			<path fill="#4F4797" d="M486.982,309.193c16.008-14.207,39.276-10.391,55.334,1.301c-0.193-0.14,0.203-1.103,0-1.25
				c-16.059-11.691-39.326-15.507-55.334-1.301C486.77,308.132,487.184,309.015,486.982,309.193L486.982,309.193z"/>
		</g>
	</g>
	<g>
		<g>
			<path fill="#4F4797" d="M326.655,394.231c2.968-3.45,7.903-5.313,12.155-6.411c14.467-3.74,30.175,1.678,43.178,7.712
				c-0.303-0.141,0.333-2.346,0-2.5c-13.043-6.053-27.898-10.941-42.391-7.896c-4.487,0.942-9.846,2.996-12.943,6.598
				C326.235,392.22,327.058,393.763,326.655,394.231L326.655,394.231z"/>
		</g>
	</g>
	<g>
		<g>
			<path fill="#4F4797" d="M750.07,330.443c4.004-2.951,9.328-4.349,14.121-5.237c13.963-2.591,28.395,1.102,41.213,6.538
				c-0.199-0.084,0.221-1.655,0-1.75c-13.002-5.515-27.09-8.88-41.213-6.538c-4.77,0.79-10.158,2.314-14.121,5.237
				C749.783,328.905,750.34,330.244,750.07,330.443L750.07,330.443z"/>
		</g>
	</g>
	<g>
		<g>
			<path fill="#4F4797" d="M668.844,467.024c22.719-11.772,53.771-15.737,75.438-0.001c-0.459-0.335,0.49-2.645,0-3
				c-21.666-15.736-52.719-11.771-75.438,0.001C668.418,464.245,669.234,466.822,668.844,467.024L668.844,467.024z"/>
		</g>
	</g>
	<g>
		<g>
			<path fill="#4F4797" d="M507.322,419.818c16.008-14.206,39.277-10.393,55.334,1.301c-0.385-0.278,0.408-2.202,0-2.5
				c-16.057-11.69-39.326-15.507-55.334-1.301C506.898,417.694,507.725,419.461,507.322,419.818L507.322,419.818z"/>
		</g>
	</g>
	<g>
		<g>
			<path fill="#4F4797" d="M928.281,527.786c0.967-2.935,3.99-4.933,6.691-6.021c10.604-4.271,24.182,1.698,33.684,6.021
				c-0.299-0.136,0.328-2.351,0-2.5c-9.771-4.443-22.211-9.674-33.105-6.229c-2.912,0.922-6.262,3.159-7.27,6.229
				C928.031,526.043,928.527,527.04,928.281,527.786L928.281,527.786z"/>
		</g>
	</g>
	<g>
		<g>
			<path fill="#4F4797" d="M240.739,358.45c16.008-14.206,39.278-10.391,55.333,1.301c-0.323-0.233,0.343-1.85,0-2.1
				c-16.057-11.691-39.326-15.508-55.333-1.301C240.383,356.667,241.077,358.15,240.739,358.45L240.739,358.45z"/>
		</g>
	</g>
	<g>
		<g>
			<path fill="#4F4797" d="M135.039,404.267c23.272-9.1,52.962-11.188,75.242,1.302c-0.341-0.191,0.37-2.293,0-2.5
				c-22.28-12.489-51.97-10.399-75.242-1.302C134.74,401.886,135.305,404.163,135.039,404.267L135.039,404.267z"/>
		</g>
	</g>
	<g>
		<g>
			<path fill="#4F4797" d="M17.41,497.795c18.091-10.415,42.358-8.043,60.871-0.621c-0.543-0.218,0.608-4.756,0-5
				c-18.513-7.422-42.78-9.794-60.871,0.621C16.661,493.226,18.102,497.396,17.41,497.795L17.41,497.795z"/>
		</g>
	</g>
	<g>
		<g>
			<path fill="#4F4797" d="M862.69,333.853c15.771-12.127,39.35-7.013,55.334,1.301c-0.262-0.137,0.283-1.852,0-2
				c-15.984-8.313-39.563-13.428-55.334-1.301C862.358,332.107,863.003,333.612,862.69,333.853L862.69,333.853z"/>
		</g>
	</g>
</g>
<g id="mountains">
	<path id="core_2_" fill="#79664F" d="M1.281,148.226c0,0,30.723-20.519,71.684-23.712c40.962-3.193,55.042-15.96,72.963-21.89
		c0,0,35.842,16.871,80.004,29.641c0,0,25.601,32.378,105.605,48.339c0,0,13.439,14.592,75.521,0
		c62.084-14.591,88.276-23.258,88.276-23.258s26.932-13.122,63.412-12.49c0,0,17.283,16.591,88.324,3.824
		c0,0,62.08-5.015,179.207-43.777c0,0,16-9.123,51.201,10.031c35.203,19.154,81.74,40.129,103.043,40.129V266.79H1.281V160.54
		V148.226z"/>
	<path id="darker1_2_" fill="#62513F" d="M1.283,160.084c0,0,36.479,12.312,27.52,17.784c0,0,104.326,35.572,30.082,30.555
		c0,0-37.76,5.473-12.8,11.4c0,0,30.729,1.824,44.166,20.064c0,0,14.716,5.472,28.797,5.928c0,0-12.16,8.663,10.24,9.12
		l20.482,10.49H1.283V160.084z"/>
	<path id="darker2_2_" fill="#62513F" d="M217.61,265.428h138.248c0,0-22.402-13.683-27.522-23.259
		c-5.121-9.577-1.277-17.328-38.4-31.465c0,0-28.161-13.225-26.881-16.417c0,0,14.719,3.647,23.68-2.736
		c8.962-6.385-19.2-20.522-19.2-20.522s-12.8-6.386,3.201-7.296c16-0.911-23.041-10.945-23.041-10.945l-26.882-14.224l-45.436-6.753
		c0,0,4.487-17.787-15.041,0c0,0,80.957,59.288,33.595,65.672c-3.57,0.481-21.888,12.474-16,27.362
		C185.242,243.331,217.61,265.428,217.61,265.428z"/>
	<path id="darker3_2_" fill="#62513F" d="M890.275,265.428c0,0-130.564-44.238-129.924-48.798
		c0.639-4.56-31.361-29.183-66.564-39.217c0,0-7.68-4.103-2.559-13.68c0,0-23.043-6.384-41.605,0c0,0-8.961,3.903-12.158-2.837
		c-3.199-6.74-71.043,5.166-71.043,5.166s7.041,17.277,19.844,18.646c0,0-21.766,32.953-94.727,27.422
		c0,0-14.081,7.691,19.84,15.901c0,0,31.361,5.927,10.881,14.137c0,0,32.643,7.752,13.439,10.034
		c-19.199,2.28-20.48,13.227-20.48,13.227H890.275L890.275,265.428z"/>
	<path id="darker4_2_" fill="#62513F" d="M893.477,265.428c0,0,16.643-19.158-16.643-32.381c0,0-31.357-26.905-52.48-33.289
		c0,0,76.166,2.28,73.283-2.281c0,0-15.043-8.664-28.482-13.68c0,0,37.764,2.507,2.563-24.968c0,0,6.146-19.379-8.324-20.635
		c-14.465-1.256,52.48-5.012,52.48-5.012l63.365,21.799l3.842,110.446L893.477,265.428L893.477,265.428z"/>
	<path id="white_2_" fill="#FFFFFF" d="M90.25,127.159h69.764c0,0,18.561-13.678,15.36,3.65c0,0,44.796,11.033,50.557,1.456
		c0,0-67.816-23.942-79.004-30.641l-45.822,18.471c0,0,7.067,2.417,8.346-0.275C110.731,117.128,99.21,122.599,90.25,127.159z"/>
	<path id="white2_2_" fill="#FFFFFF" d="M495.336,157.347c0,0,56.154-23.836,72.262-8.042c0,0,23.086,5.675,84.775-1.196
		c0,0-8.51,13.34-37.313,16.533c-28.801,3.193-78.725,0-78.725,0s3.84-5.93-14.721-2.737c0,0-14.078,4.56-23.041,2.28
		c0,0,24.445-6.834,7.682-5.927L495.336,157.347z"/>
	<g id="white3">
		<path fill="#FFFFFF" d="M717.463,133.181l115.41-30.556c0,0,18.355-7.292,83.002,30.556c0,0-21.76,5.476-32.637,0
			c-10.883-5.476-1.924,5.012-1.924,5.012l-12.799-2.736c0,0,1.916,4.104-5.123,2.736c-7.039-1.368-14.721-5.928-14.721-5.928
			s1.926,6.847-3.199,11.632c-5.117,4.786-40.961-5.705-40.961-5.705s-56.322,0.458-60.16-0.911
			C740.508,135.913,717.455,139.113,717.463,133.181z"/>
	</g>
</g>
<g id="grass">
	<path fill="#006633" d="M0.281,266.533v-13.792c0,0,4.312,5.397,6.467,6.896c2.156,1.5,7.546,6.896,7.546,6.896v-6.896l8.623,6.896
		c0,0,3.231-13.792,8.622-13.792c5.391,0,7.546,10.793,7.546,10.793l8.623-7.195l5.391,10.194l8.623-13.792
		c0,0-2.155,5.997,6.467,10.193c8.622,4.197,18.323,3.599,18.323,3.599l11.857-2.999l17.246,3.029h31.259v-6.911l6.468,6.911
		c0,0,2.156-7.196,6.467-6.911c4.311,0.284,7.543,6.911,7.543,6.911s3.234-16.821,7.546-13.822s7.545,10.193,7.545,10.193
		l11.856-10.551v7.09l5.39-4.332l4.311,4.332v-9.729c0,0,2.156,11.392,11.856,11.991c9.7,0.6,12.935,4.828,12.935,4.828
		l36.647-2.428c0,0,24.791-3.599,29.103-1.8c4.313,1.8,5.389-9.595,8.623-9.595c3.233,0,9.701,9.595,9.701,9.595l8.623-19.188
		l5.389,16.789c0,0,2.155-4.764,8.622-5.08c6.468-0.316,4.313,8.678,4.313,8.678s12.936-8.361,7.546-8.678
		c-5.392-0.316,8.622,6.279,8.622,6.279s15.089,2.998,18.322,0.6s0-6.879,0-6.879s24.793,8.111,30.182,5.396
		c5.388-2.714-8.623-17.105,59.283,3.882c0,0,41.942,2.398,36.602-1.199c-5.344-3.599-4.266-8.08-4.266-8.08l15.088,5.082
		l7.547,4.197v-9.279l21.559,11.707c0,0-5.391-7.793,5.391-11.707l15.09,7.48l7.545-7.48l15.092,8.679l9.699-12.592
		c0,0,6.469,10.194,9.701,6.597s5.391-9.593,5.391-9.593l20.479,14.391l18.322,0.599c0,0,6.467-6.564,0-8.078
		s18.322,8.078,18.322,8.078l126.111-1.199l6.467-6.879l6.467,8.078l7.545-8.078l6.467,8.678c0,0,17.248-7.193,8.623-13.79
		c-8.623-6.597,10.779,11.392,10.779,11.392l8.625-11.993c0,0-3.232,12.594,11.855,13.193s54.973,4.228,54.973,4.228
		s3.234-15.021,9.699-15.021c6.469,0,21.557,15.021,21.557,15.021l7.549-11.707l10.775,7.479c0,0,19.406-5.997,11.855-11.394
		c-7.547-5.396,9.701,15.621,9.701,15.621v2.367H0.281V266.533z"/>
</g>
<g id="hq">
	<polygon id="core_1_" fill="#FFFFFF" points="207.293,340.676 392.173,340.676 366.846,424.251 366.214,473.444 207.293,476.698 	
		"/>
	<rect id="top_1_" x="184.5" y="334.345" fill="#FFFFFF" width="216.537" height="6.331"/>
	<g id="window">
		<path opacity="0.5" fill="#A0B7C3" stroke="#000000" stroke-width="2" stroke-miterlimit="10" enable-background="new    " d="
			M357.349,397.026c0,8.392-6.481,15.194-14.474,15.194H231.899c-7.996,0-14.476-6.803-14.476-15.194v-33.558
			c0-8.393,6.48-15.196,14.476-15.196h132.502c4.618,0,0.546,8.07,0.546,16.463L357.349,397.026z"/>
	</g>
</g>
<polygon fill="#485F99" points="126.059,483.383 126.059,494.273 192.609,495.444 192.822,484.428 "/>
<g>
	<g>
		<defs>
			<rect id="SVGID_1_" x="107.494" y="339.653" width="105.12" height="161.599"/>
		</defs>
		<clipPath id="SVGID_2_">
			<use xlink:href="#SVGID_1_"  overflow="visible"/>
		</clipPath>
		<path clip-path="url(#SVGID_2_)" fill="#12100B" d="M200.824,497.317c-1.054,0.352-53.983-1.347-78.809,0.41
			c-2.788,0.199-1.142-2.282,9.383-2.928c10.524-0.643,27.024-1.497,30.279,0.042C176.398,491.111,203.225,494.977,200.824,497.317"
			/>
	</g>
	<g>
		<defs>
			<rect id="SVGID_3_" x="107.494" y="339.653" width="105.12" height="161.599"/>
		</defs>
		<clipPath id="SVGID_4_">
			<use xlink:href="#SVGID_3_"  overflow="visible"/>
		</clipPath>
		<path clip-path="url(#SVGID_4_)" fill="#9B5B45" d="M194.021,439.705c0,0,12.656,20.404,12.335,31.207
			c-0.319,10.803-8.167,10.188-8.167,10.188l-0.176,2.02c0,0-29.274,11.798-72.895,0.79c-11.768-4.039-7.289-12.646-7.289-12.646
			s-0.902-12.227,11.258-28.772C141.248,425.944,194.021,439.705,194.021,439.705"/>
	</g>
	<g>
		<defs>
			<rect id="SVGID_5_" x="107.494" y="339.653" width="105.12" height="161.599"/>
		</defs>
		<clipPath id="SVGID_6_">
			<use xlink:href="#SVGID_5_"  overflow="visible"/>
		</clipPath>
		<path clip-path="url(#SVGID_6_)" fill="#12100B" d="M132.313,460.775c0,0-0.07,0.195-0.196,0.539
			c-0.127,0.345-0.286,0.843-0.476,1.442c-0.198,0.597-0.395,1.302-0.608,2.06c-0.097,0.38-0.198,0.772-0.299,1.173
			c-0.099,0.401-0.212,0.806-0.297,1.218c-0.094,0.409-0.189,0.818-0.282,1.222c-0.046,0.203-0.094,0.403-0.14,0.601
			c-0.04,0.2-0.066,0.398-0.096,0.594c-0.051,0.392-0.091,0.771-0.109,1.134c-0.023,0.361-0.046,0.703-0.027,1.021
			c0.032,1.273,0.202,2.117,0.202,2.117l0.105,0.005c0,0,0.302-0.819,0.533-2.038c0.052-0.307,0.133-0.635,0.199-0.985
			c0.076-0.347,0.132-0.717,0.184-1.101c0.041-0.386,0.082-0.783,0.125-1.188c0.045-0.406,0.091-0.817,0.137-1.229
			c0.044-0.413,0.118-0.821,0.178-1.226c0.063-0.404,0.126-0.802,0.186-1.187c0.148-0.764,0.252-1.486,0.375-2.099
			c0.113-0.614,0.219-1.124,0.292-1.482l0.116-0.562L132.313,460.775z"/>
	</g>
	<g>
		<defs>
			<rect id="SVGID_7_" x="107.494" y="339.653" width="105.12" height="161.599"/>
		</defs>
		<clipPath id="SVGID_8_">
			<use xlink:href="#SVGID_7_"  overflow="visible"/>
		</clipPath>
		<path clip-path="url(#SVGID_8_)" fill="#12100B" d="M194.611,473.671c0,0-0.075-0.899-0.216-2.242
			c-0.071-0.672-0.146-1.457-0.254-2.294c-0.103-0.839-0.213-1.732-0.324-2.627c-0.053-0.447-0.106-0.895-0.159-1.335
			c-0.045-0.442-0.107-0.876-0.179-1.293c-0.079-0.416-0.163-0.815-0.262-1.191c-0.09-0.376-0.204-0.732-0.307-1.057
			c-0.102-0.325-0.208-0.621-0.302-0.882c-0.095-0.262-0.214-0.49-0.3-0.672c-0.179-0.366-0.296-0.559-0.296-0.559l-0.099,0.037
			c0,0,0.003,0.239,0.034,0.632c0.011,0.198,0.046,0.424,0.062,0.699c0.019,0.275,0.04,0.585,0.078,0.919
			c0.019,0.167,0.037,0.341,0.058,0.521c0.025,0.178,0.051,0.363,0.072,0.555c0.042,0.385,0.107,0.784,0.183,1.197
			c0.082,0.413,0.185,0.834,0.287,1.266c0.099,0.431,0.199,0.868,0.3,1.306c0.377,1.76,0.754,3.517,1.038,4.837
			c0.289,1.319,0.482,2.199,0.482,2.199L194.611,473.671z"/>
	</g>
	<g>
		<defs>
			<rect id="SVGID_9_" x="107.494" y="339.653" width="105.12" height="161.599"/>
		</defs>
		<clipPath id="SVGID_10_">
			<use xlink:href="#SVGID_9_"  overflow="visible"/>
		</clipPath>
		<path clip-path="url(#SVGID_10_)" fill="#CB1528" d="M115.59,476.84c0,4.074,3.539,7.377,7.904,7.377
			c4.365,0,7.904-3.303,7.904-7.377s-3.539-7.729-7.904-7.729C119.128,469.111,115.59,472.766,115.59,476.84"/>
	</g>
	<g>
		<defs>
			<rect id="SVGID_11_" x="107.494" y="339.653" width="105.12" height="161.599"/>
		</defs>
		<clipPath id="SVGID_12_">
			<use xlink:href="#SVGID_11_"  overflow="visible"/>
		</clipPath>
		<path clip-path="url(#SVGID_12_)" fill="#CB1528" d="M125.909,474.534c0,1.879,1.261,3.403,3.25,3.403
			c1.989,0,3.601-1.524,3.601-3.403s-1.612-3.403-3.601-3.403C127.17,471.131,125.909,472.655,125.909,474.534"/>
	</g>
	<g>
		<defs>
			<rect id="SVGID_13_" x="107.494" y="339.653" width="105.12" height="161.599"/>
		</defs>
		<clipPath id="SVGID_14_">
			<use xlink:href="#SVGID_13_"  overflow="visible"/>
		</clipPath>
		<path clip-path="url(#SVGID_14_)" fill="none" stroke="#541F21" stroke-miterlimit="10" d="M125.909,474.534
			c0,1.879,1.261,3.403,3.25,3.403c1.989,0,3.601-1.524,3.601-3.403s-1.612-3.403-3.601-3.403
			C127.17,471.131,125.909,472.655,125.909,474.534z"/>
	</g>
	<g>
		<defs>
			<rect id="SVGID_15_" x="107.494" y="339.653" width="105.12" height="161.599"/>
		</defs>
		<clipPath id="SVGID_16_">
			<use xlink:href="#SVGID_15_"  overflow="visible"/>
		</clipPath>
		<path clip-path="url(#SVGID_16_)" fill="#CB1528" d="M192.334,474.015c0,4.349,3.417,7.056,7.904,7.056
			c4.486,0,6.792-2.02,7.406-6.235c0.628-4.304-3.477-8.139-7.962-8.139C195.195,466.696,192.334,469.666,192.334,474.015"/>
	</g>
	<g>
		<defs>
			<rect id="SVGID_17_" x="107.494" y="339.653" width="105.12" height="161.599"/>
		</defs>
		<clipPath id="SVGID_18_">
			<use xlink:href="#SVGID_17_"  overflow="visible"/>
		</clipPath>
		<path clip-path="url(#SVGID_18_)" fill="#CB1528" d="M191.222,471.907c0,1.988,1.319,3.162,3.162,3.162
			c1.843,0,3.513-1.174,3.513-3.162s-1.634-3.273-3.477-3.273C192.576,468.634,191.222,469.919,191.222,471.907"/>
	</g>
	<g>
		<defs>
			<rect id="SVGID_19_" x="107.494" y="339.653" width="105.12" height="161.599"/>
		</defs>
		<clipPath id="SVGID_20_">
			<use xlink:href="#SVGID_19_"  overflow="visible"/>
		</clipPath>
		<path clip-path="url(#SVGID_20_)" fill="none" stroke="#541F21" stroke-miterlimit="10" d="M191.222,471.907
			c0,1.988,1.319,3.162,3.162,3.162c1.843,0,3.513-1.174,3.513-3.162s-1.634-3.273-3.477-3.273
			C192.576,468.634,191.222,469.919,191.222,471.907z"/>
	</g>
	<g>
		<defs>
			<rect id="SVGID_21_" x="107.494" y="339.653" width="105.12" height="161.599"/>
		</defs>
		<clipPath id="SVGID_22_">
			<use xlink:href="#SVGID_21_"  overflow="visible"/>
		</clipPath>
		<path clip-path="url(#SVGID_22_)" fill="#CB1528" d="M191.933,441.69c0.929,4.513-20.442,19.092-29.869,16.282
			c-2.037-0.607-1.171-4.1-0.059-4.1L191.933,441.69z"/>
	</g>
	<g>
		<defs>
			<rect id="SVGID_23_" x="107.494" y="339.653" width="105.12" height="161.599"/>
		</defs>
		<clipPath id="SVGID_24_">
			<use xlink:href="#SVGID_23_"  overflow="visible"/>
		</clipPath>
		<path clip-path="url(#SVGID_24_)" fill="#CB1528" d="M129.735,443.025c-4.617,3.471,14.002,17.347,29.689,15.65
			c1.134-0.123,2.571-2.167,0-4.567C156.853,451.707,129.735,443.025,129.735,443.025"/>
	</g>
	<g>
		<defs>
			<rect id="SVGID_25_" x="107.494" y="339.653" width="105.12" height="161.599"/>
		</defs>
		<clipPath id="SVGID_26_">
			<use xlink:href="#SVGID_25_"  overflow="visible"/>
		</clipPath>
		<path clip-path="url(#SVGID_26_)" fill="#12100B" d="M163.235,461.493c0,0.738,0.58,1.338,1.295,1.338s1.295-0.6,1.295-1.338
			c0-0.74-0.58-1.34-1.295-1.34S163.235,460.753,163.235,461.493"/>
	</g>
	<g>
		<defs>
			<rect id="SVGID_27_" x="107.494" y="339.653" width="105.12" height="161.599"/>
		</defs>
		<clipPath id="SVGID_28_">
			<use xlink:href="#SVGID_27_"  overflow="visible"/>
		</clipPath>
		<path clip-path="url(#SVGID_28_)" fill="#12100B" d="M163.938,471.329c0,0.739,0.579,1.339,1.295,1.339
			c0.715,0,1.296-0.6,1.296-1.339s-0.581-1.34-1.296-1.34C164.517,469.989,163.938,470.59,163.938,471.329"/>
	</g>
	<g>
		<defs>
			<rect id="SVGID_29_" x="107.494" y="339.653" width="105.12" height="161.599"/>
		</defs>
		<clipPath id="SVGID_30_">
			<use xlink:href="#SVGID_29_"  overflow="visible"/>
		</clipPath>
		<path clip-path="url(#SVGID_30_)" fill="#12100B" d="M164.289,481.868c0,0.739,0.58,1.34,1.295,1.34
			c0.716,0,1.296-0.601,1.296-1.34s-0.58-1.34-1.296-1.34C164.869,480.528,164.289,481.129,164.289,481.868"/>
	</g>
	<g>
		<defs>
			<rect id="SVGID_31_" x="107.494" y="339.653" width="105.12" height="161.599"/>
		</defs>
		<clipPath id="SVGID_32_">
			<use xlink:href="#SVGID_31_"  overflow="visible"/>
		</clipPath>
		
			<path clip-path="url(#SVGID_32_)" fill="none" stroke="#12100B" stroke-width="3" stroke-linecap="round" stroke-miterlimit="10" d="
			M161.677,487.773c0,0-1.472-28.499-1.472-29.991"/>
	</g>
	<g>
		<defs>
			<rect id="SVGID_33_" x="107.494" y="339.653" width="105.12" height="161.599"/>
		</defs>
		<clipPath id="SVGID_34_">
			<use xlink:href="#SVGID_33_"  overflow="visible"/>
		</clipPath>
		<path clip-path="url(#SVGID_34_)" fill="#F5DBB4" d="M111.652,405.512c0,26.483,22.002,48.361,48.421,48.361
			c26.418,0,47.835-21.469,47.835-47.952c0-26.482-22.412-51.23-48.831-51.23C132.659,354.69,111.652,379.028,111.652,405.512"/>
	</g>
	<g>
		<defs>
			<rect id="SVGID_35_" x="107.494" y="339.653" width="105.12" height="161.599"/>
		</defs>
		<clipPath id="SVGID_36_">
			<use xlink:href="#SVGID_35_"  overflow="visible"/>
		</clipPath>
		
			<path clip-path="url(#SVGID_36_)" fill="none" stroke="#12100B" stroke-width="1.5" stroke-linecap="round" stroke-miterlimit="10" d="
			M166.865,439.705c-2.635,2.226-14.169,1.229-14.169,0.293"/>
	</g>
	<g>
		<defs>
			<rect id="SVGID_37_" x="107.494" y="339.653" width="105.12" height="161.599"/>
		</defs>
		<clipPath id="SVGID_38_">
			<use xlink:href="#SVGID_37_"  overflow="visible"/>
		</clipPath>
		<path clip-path="url(#SVGID_38_)" fill="#FFFFFF" d="M132.848,411.522c-0.863,7.988,4.455,15.805,11.677,14.423
			c7.186-1.375,14.261-7.377,14.898-14.549c0.116-11.915-5.884-16.263-14.898-14.551
			C137.443,398.192,133.667,403.93,132.848,411.522"/>
	</g>
	<g>
		<defs>
			<rect id="SVGID_39_" x="107.494" y="339.653" width="105.12" height="161.599"/>
		</defs>
		<clipPath id="SVGID_40_">
			<use xlink:href="#SVGID_39_"  overflow="visible"/>
		</clipPath>
		<path clip-path="url(#SVGID_40_)" fill="#FFFFFF" d="M159.078,408.731c0,7.162,8.224,16.569,15.984,16.569
			c7.761,0,10.656-5.181,10.656-15.515c0-7.163-8.554-13.774-16.314-13.774C161.643,396.012,159.078,401.57,159.078,408.731"/>
	</g>
	<g>
		<defs>
			<rect id="SVGID_41_" x="107.494" y="339.653" width="105.12" height="161.599"/>
		</defs>
		<clipPath id="SVGID_42_">
			<use xlink:href="#SVGID_41_"  overflow="visible"/>
		</clipPath>
		<path clip-path="url(#SVGID_42_)" fill="#12100B" d="M163.331,411.277c0,0.856,0.68,1.553,1.519,1.553
			c0.839,0,1.519-0.696,1.519-1.553c0-0.859-0.68-1.556-1.519-1.556C164.011,409.722,163.331,410.418,163.331,411.277"/>
	</g>
	<g>
		<defs>
			<rect id="SVGID_43_" x="107.494" y="339.653" width="105.12" height="161.599"/>
		</defs>
		<clipPath id="SVGID_44_">
			<use xlink:href="#SVGID_43_"  overflow="visible"/>
		</clipPath>
		<path clip-path="url(#SVGID_44_)" fill="#12100B" d="M136.983,411.628c0,0.858,0.68,1.553,1.519,1.553
			c0.839,0,1.519-0.694,1.519-1.553s-0.68-1.554-1.519-1.554C137.663,410.074,136.983,410.77,136.983,411.628"/>
	</g>
	<g>
		<defs>
			<rect id="SVGID_45_" x="107.494" y="339.653" width="105.12" height="161.599"/>
		</defs>
		<clipPath id="SVGID_46_">
			<use xlink:href="#SVGID_45_"  overflow="visible"/>
		</clipPath>
		<path clip-path="url(#SVGID_46_)" fill="#485F99" d="M113.618,391.512c5.799-20.477,23.81-36.821,45.46-36.821
			c20.99,0,40.634,14.285,46.15,35.326C161.83,377.009,124.268,387.824,113.618,391.512"/>
	</g>
	<g>
		<defs>
			<rect id="SVGID_47_" x="107.494" y="339.653" width="105.12" height="161.599"/>
		</defs>
		<clipPath id="SVGID_48_">
			<use xlink:href="#SVGID_47_"  overflow="visible"/>
		</clipPath>
		<path clip-path="url(#SVGID_48_)" fill="none" stroke="#485F99" stroke-miterlimit="10" d="M113.618,391.512
			c5.799-20.477,23.81-36.821,45.46-36.821c20.99,0,40.634,14.285,46.15,35.326C161.83,377.009,124.268,387.824,113.618,391.512z"/>
	</g>
	<g>
		<defs>
			<rect id="SVGID_49_" x="107.494" y="339.653" width="105.12" height="161.599"/>
		</defs>
		<clipPath id="SVGID_50_">
			<use xlink:href="#SVGID_49_"  overflow="visible"/>
		</clipPath>
		<path clip-path="url(#SVGID_50_)" fill="#CB1528" d="M208.729,391.108l-0.49,10.283c0,0-46.936-16.021-97.055,2.129
			c-0.703-4.801-0.585-10.89-0.585-10.89S155.799,373.777,208.729,391.108"/>
	</g>
	<g>
		<defs>
			<rect id="SVGID_51_" x="107.494" y="339.653" width="105.12" height="161.599"/>
		</defs>
		<clipPath id="SVGID_52_">
			<use xlink:href="#SVGID_51_"  overflow="visible"/>
		</clipPath>
		<path clip-path="url(#SVGID_52_)" fill="#CB1528" d="M153.083,348.02c-0.466,0.492-0.446,1.271,0.047,1.738l14.787,14.018
			c0.491,0.468,1.271,0.447,1.737-0.046c0.467-0.493,0.446-1.271-0.046-1.738l-14.786-14.018
			C154.329,347.507,153.55,347.526,153.083,348.02"/>
	</g>
	<g>
		<defs>
			<rect id="SVGID_53_" x="107.494" y="339.653" width="105.12" height="161.599"/>
		</defs>
		<clipPath id="SVGID_54_">
			<use xlink:href="#SVGID_53_"  overflow="visible"/>
		</clipPath>
		<path clip-path="url(#SVGID_54_)" fill="none" stroke="#552618" stroke-miterlimit="10" d="M153.083,348.02
			c-0.466,0.492-0.446,1.271,0.047,1.738l14.787,14.018c0.491,0.468,1.271,0.447,1.737-0.046c0.467-0.493,0.446-1.271-0.046-1.738
			l-14.786-14.018C154.329,347.507,153.55,347.526,153.083,348.02z"/>
	</g>
	<g>
		<defs>
			<rect id="SVGID_55_" x="107.494" y="339.653" width="105.12" height="161.599"/>
		</defs>
		<clipPath id="SVGID_56_">
			<use xlink:href="#SVGID_55_"  overflow="visible"/>
		</clipPath>
		<path clip-path="url(#SVGID_56_)" fill="#CB1528" d="M156.295,346.272c-0.615,0.287-0.882,1.019-0.595,1.634l8.611,18.467
			c0.287,0.614,1.019,0.881,1.634,0.595c0.616-0.287,0.882-1.018,0.595-1.635l-8.611-18.465
			C157.642,346.252,156.911,345.986,156.295,346.272"/>
	</g>
	<g>
		<defs>
			<rect id="SVGID_57_" x="107.494" y="339.653" width="105.12" height="161.599"/>
		</defs>
		<clipPath id="SVGID_58_">
			<use xlink:href="#SVGID_57_"  overflow="visible"/>
		</clipPath>
		<path clip-path="url(#SVGID_58_)" fill="none" stroke="#552618" stroke-miterlimit="10" d="M156.295,346.272
			c-0.615,0.287-0.882,1.019-0.595,1.634l8.611,18.467c0.287,0.614,1.019,0.881,1.634,0.595c0.616-0.287,0.882-1.018,0.595-1.635
			l-8.611-18.465C157.642,346.252,156.911,345.986,156.295,346.272z"/>
	</g>
	<g>
		<defs>
			<rect id="SVGID_59_" x="107.494" y="339.653" width="105.12" height="161.599"/>
		</defs>
		<clipPath id="SVGID_60_">
			<use xlink:href="#SVGID_59_"  overflow="visible"/>
		</clipPath>
		<path clip-path="url(#SVGID_60_)" fill="#CB1528" d="M161.377,344.458c-0.679,0-1.229,0.55-1.229,1.229v20.375
			c0,0.68,0.55,1.229,1.229,1.229s1.229-0.55,1.229-1.229v-20.376C162.607,345.008,162.057,344.458,161.377,344.458"/>
	</g>
	<g>
		<defs>
			<rect id="SVGID_61_" x="107.494" y="339.653" width="105.12" height="161.599"/>
		</defs>
		<clipPath id="SVGID_62_">
			<use xlink:href="#SVGID_61_"  overflow="visible"/>
		</clipPath>
		<path clip-path="url(#SVGID_62_)" fill="none" stroke="#552618" stroke-miterlimit="10" d="M161.377,344.458
			c-0.679,0-1.229,0.55-1.229,1.229v20.375c0,0.68,0.55,1.229,1.229,1.229s1.229-0.55,1.229-1.229v-20.376
			C162.607,345.008,162.057,344.458,161.377,344.458z"/>
	</g>
	<g>
		<defs>
			<rect id="SVGID_63_" x="107.494" y="339.653" width="105.12" height="161.599"/>
		</defs>
		<clipPath id="SVGID_64_">
			<use xlink:href="#SVGID_63_"  overflow="visible"/>
		</clipPath>
		<path clip-path="url(#SVGID_64_)" fill="#CB1528" d="M173.025,355.66c0.028,0.679-0.5,1.252-1.178,1.278l-20.36,0.826
			c-0.678,0.026-1.25-0.501-1.278-1.179c-0.027-0.679,0.5-1.251,1.178-1.279l20.359-0.824
			C172.425,354.454,172.998,354.981,173.025,355.66"/>
	</g>
	<g>
		<defs>
			<rect id="SVGID_65_" x="107.494" y="339.653" width="105.12" height="161.599"/>
		</defs>
		<clipPath id="SVGID_66_">
			<use xlink:href="#SVGID_65_"  overflow="visible"/>
		</clipPath>
		<path clip-path="url(#SVGID_66_)" fill="none" stroke="#552618" stroke-miterlimit="10" d="M173.025,355.66
			c0.028,0.679-0.5,1.252-1.178,1.278l-20.36,0.826c-0.678,0.026-1.25-0.501-1.278-1.179c-0.027-0.679,0.5-1.251,1.178-1.279
			l20.359-0.824C172.425,354.454,172.998,354.981,173.025,355.66z"/>
	</g>
	<g>
		<defs>
			<rect id="SVGID_67_" x="107.494" y="339.653" width="105.12" height="161.599"/>
		</defs>
		<clipPath id="SVGID_68_">
			<use xlink:href="#SVGID_67_"  overflow="visible"/>
		</clipPath>
		<path clip-path="url(#SVGID_68_)" fill="#CB1528" d="M171.879,359.944c-0.228,0.641-0.93,0.974-1.57,0.746l-19.201-6.818
			c-0.64-0.227-0.974-0.93-0.747-1.57c0.227-0.639,0.93-0.975,1.57-0.746l19.201,6.818
			C171.771,358.602,172.106,359.305,171.879,359.944"/>
	</g>
	<g>
		<defs>
			<rect id="SVGID_69_" x="107.494" y="339.653" width="105.12" height="161.599"/>
		</defs>
		<clipPath id="SVGID_70_">
			<use xlink:href="#SVGID_69_"  overflow="visible"/>
		</clipPath>
		<path clip-path="url(#SVGID_70_)" fill="none" stroke="#552618" stroke-miterlimit="10" d="M171.879,359.944
			c-0.228,0.641-0.93,0.974-1.57,0.746l-19.201-6.818c-0.64-0.227-0.974-0.93-0.747-1.57c0.227-0.639,0.93-0.975,1.57-0.746
			l19.201,6.818C171.771,358.602,172.106,359.305,171.879,359.944z"/>
	</g>
	<g>
		<defs>
			<rect id="SVGID_71_" x="107.494" y="339.653" width="105.12" height="161.599"/>
		</defs>
		<clipPath id="SVGID_72_">
			<use xlink:href="#SVGID_71_"  overflow="visible"/>
		</clipPath>
		<path clip-path="url(#SVGID_72_)" fill="#CB1528" d="M164.675,345.605c-0.64-0.225-1.343,0.109-1.569,0.751l-6.788,19.211
			c-0.226,0.641,0.109,1.343,0.75,1.57c0.64,0.225,1.343-0.11,1.569-0.751l6.787-19.211
			C165.65,346.536,165.315,345.833,164.675,345.605"/>
	</g>
	<g>
		<defs>
			<rect id="SVGID_73_" x="107.494" y="339.653" width="105.12" height="161.599"/>
		</defs>
		<clipPath id="SVGID_74_">
			<use xlink:href="#SVGID_73_"  overflow="visible"/>
		</clipPath>
		<path clip-path="url(#SVGID_74_)" fill="none" stroke="#552618" stroke-miterlimit="10" d="M164.675,345.605
			c-0.64-0.225-1.343,0.109-1.569,0.751l-6.788,19.211c-0.226,0.641,0.109,1.343,0.75,1.57c0.64,0.225,1.343-0.11,1.569-0.751
			l6.787-19.211C165.65,346.536,165.315,345.833,164.675,345.605z"/>
	</g>
	<g>
		<defs>
			<rect id="SVGID_75_" x="107.494" y="339.653" width="105.12" height="161.599"/>
		</defs>
		<clipPath id="SVGID_76_">
			<use xlink:href="#SVGID_75_"  overflow="visible"/>
		</clipPath>
		<path clip-path="url(#SVGID_76_)" fill="#CB1528" d="M169.472,347.832c-0.478-0.481-1.257-0.485-1.739-0.007l-14.461,14.354
			c-0.482,0.477-0.485,1.256-0.006,1.737c0.478,0.482,1.257,0.485,1.738,0.007l14.461-14.353
			C169.947,349.092,169.95,348.313,169.472,347.832"/>
	</g>
	<g>
		<defs>
			<rect id="SVGID_77_" x="107.494" y="339.653" width="105.12" height="161.599"/>
		</defs>
		<clipPath id="SVGID_78_">
			<use xlink:href="#SVGID_77_"  overflow="visible"/>
		</clipPath>
		<path clip-path="url(#SVGID_78_)" fill="none" stroke="#552618" stroke-miterlimit="10" d="M169.472,347.832
			c-0.478-0.481-1.257-0.485-1.739-0.007l-14.461,14.354c-0.482,0.477-0.485,1.256-0.006,1.737c0.478,0.482,1.257,0.485,1.738,0.007
			l14.461-14.353C169.947,349.092,169.95,348.313,169.472,347.832z"/>
	</g>
	<g>
		<defs>
			<rect id="SVGID_79_" x="107.494" y="339.653" width="105.12" height="161.599"/>
		</defs>
		<clipPath id="SVGID_80_">
			<use xlink:href="#SVGID_79_"  overflow="visible"/>
		</clipPath>
		<path clip-path="url(#SVGID_80_)" fill="#CB1528" d="M171.604,351.313c-0.3-0.608-1.038-0.857-1.646-0.557l-18.268,9.024
			c-0.609,0.302-0.859,1.039-0.558,1.647c0.301,0.608,1.038,0.858,1.647,0.558l18.268-9.024
			C171.656,352.66,171.905,351.924,171.604,351.313"/>
	</g>
	<g>
		<defs>
			<rect id="SVGID_81_" x="107.494" y="339.653" width="105.12" height="161.599"/>
		</defs>
		<clipPath id="SVGID_82_">
			<use xlink:href="#SVGID_81_"  overflow="visible"/>
		</clipPath>
		<path clip-path="url(#SVGID_82_)" fill="none" stroke="#552618" stroke-miterlimit="10" d="M171.604,351.313
			c-0.3-0.608-1.038-0.857-1.646-0.557l-18.268,9.024c-0.609,0.302-0.859,1.039-0.558,1.647c0.301,0.608,1.038,0.858,1.647,0.558
			l18.268-9.024C171.656,352.66,171.905,351.924,171.604,351.313z"/>
	</g>
</g>
<g id="Body_2_">
	<path fill="#672A12" d="M3.569,468.103c-0.377,4.495,6.044,19.159,6.044,19.159s101.995,2.889,104.457,0
		c1.596-3.782,5.137-22.263,4.923-17.659C118.779,474.203,3.569,468.103,3.569,468.103z"/>
	<path fill="#12100B" d="M6.403,490.15c-0.107-2.462,1.926-3.317,2.782-2.997c0.856,0.322,20.121-2.89,26.328-2.675
		c6.208,0.214,23.157,1.177,27.204,3.746c16.355-4.068,45.594-2.9,50.132-0.915c1.582-0.286,1.977,0,2.826,0
		c0.937,0,1.906,2.412,1.007,2.841"/>
	<path fill="#CB1528" d="M0.463,466.498c4.495,9.311,29.859,17.499,41.579,14.93c11.72-2.568,19.842-0.305,24.402-0.963
		c5.549-1.294,18.301-1.605,24.401-4.977c6.101-3.371,22.315,1.926,26.649-3.211c6.1-0.804,9.954-4.335,9.792-13.485
		c-0.16-9.151,6.543-21.699,1.017-22.885c-7.063-1.517-3.853-11.577-15.455-14.435c-6.048-1.49-100.944-0.317-100.944-0.317
		s-5.021,0.392-7.75,4.566c-2.729,4.174-8.187,11.023-8.027,12.414C-3.711,439.527-0.821,466.658,0.463,466.498z"/>
	<ellipse fill="#12100B" cx="65.081" cy="450.24" rx="1.443" ry="1.408"/>
	<ellipse fill="#12100B" cx="66.365" cy="462.762" rx="1.443" ry="1.408"/>
	<ellipse fill="#12100B" cx="65.081" cy="474.321" rx="1.443" ry="1.409"/>
	<path fill="none" stroke="#12100B" stroke-width="3" stroke-linecap="round" stroke-miterlimit="10" d="M68.37,479.421
		c-0.562-3.051,0.643-13.565,0.643-13.565s0.401-10.996,0-12.923c-0.402-1.926-0.62-5.137-0.792-5.539"/>
	<path fill="#EEBF00" d="M-11.161,443.969c-1.31,8.475,5.47,11.773,8.413,12.951c2.944,1.177,9.954,1.123,17.231-1.018
		s2.354-6.742,2.354-6.742S4.53,439.581-1.838,438.511C-1.838,438.511-10.083,436.992-11.161,443.969z"/>
	<path fill="#EEBF00" d="M121.401,454.297c0.428,1.445,3.612,3.274,5.137,3.692c2.67,0.732,8.295,0.749,10.81-2.408
		c2.515-3.158,0.375-13.218,0-14.341c-0.375-1.124-2.997-5.459-5.245-5.673c-2.247-0.213-7.17,0.054-8.562,1.338
		c-1.391,1.284-6.12,5.03-6.859,8.08c-1.571,2.706-3.522,3.532-3.789,5.887c-0.268,2.354,0.749,3.691,1.819,3.906
		C115.783,454.992,121.08,454.886,121.401,454.297z"/>
</g>
<g id="Head_2_">
	<path fill="#F5DBB4" d="M116.639,406.404c-1.446,23.568-24.15,42.756-53.94,42.756c-29.791,0-54.313-19.146-53.941-42.756
		c0.056-3.487,1.692-2.194,1.391-6.048c-0.642-8.241,14.134-36.424,52.55-37.458c33.766-0.91,51.265,27.986,50.623,31.144
		C112.553,397.813,117.173,397.682,116.639,406.404z"/>
	<g id="Olhos">
		<path fill="#FFFFFF" d="M65.053,405.653c-0.589,8.278-7.335,15.819-14.074,15.819s-12.576-4.416-12.576-12.715
			s7.322-17.882,13.914-18.462C59.029,389.706,66.123,390.617,65.053,405.653z"/>
		<path fill="#FFFFFF" d="M92.237,407.046c1.464,10.007-5.566,14.427-9.472,14.427c-6.968,0-15.465-5.597-17.712-15.819
			c-1.808-8.22,4.227-15.946,14.77-14.769C87.811,391.776,90.953,398.27,92.237,407.046z"/>
		<ellipse fill="#12100B" cx="57.293" cy="407.099" rx="1.499" ry="1.552"/>
		<ellipse fill="#12100B" cx="73.882" cy="407.715" rx="1.552" ry="1.472"/>
	</g>
	<path fill="none" stroke="#12100B" stroke-width="1.5" stroke-linecap="round" stroke-miterlimit="10" d="M71.982,435.97
		c-2.408,1.818-10.568,1.294-12.734-0.402"/>
	<path fill="none" stroke="#12100B" stroke-width="1.5" stroke-linecap="round" stroke-miterlimit="10" d="M105.856,427.407
		c-3.934,5.778-45.994,34.194-83.56,1.632"/>
	<path fill="none" stroke="#12100B" stroke-width="1.5" stroke-linecap="round" stroke-miterlimit="10" d="M75.434,438.511
		c-6.475,3.265-18.836,1.321-21.002-0.375"/>
	<path fill="#1A9DB6" stroke="#199DB6" stroke-width="2" stroke-miterlimit="10" d="M113.238,394.817
		c0.001-0.149,0.011-0.306,0.033-0.47l0.05-0.725c-0.586-4.698-18.021-31.604-50.623-30.725
		c-38.416,1.034-53.164,29.568-52.522,37.81c0.003,0.043,0.005,0.082,0.008,0.123C27.043,392.726,62.357,375.637,113.238,394.817z"
		/>
	<path fill="#EEBF00" d="M54.992,365.521c0,0-0.428,1.872,0.91,2.461s4.441-0.214,4.816-0.856c0.536,0.696,1.914,1.003,3.532,1.062
		c1.115,0.04,1.873,0.384,4.334-1.062c1.927,0.856,5.108,0.974,6.636,0.321c1.102-0.47,2.3-1.915,1.444-4.569
		c-0.856-2.655-9.98-4.849-13.325-4.849c-6.93,0-18.461,2.408-18.836,7.171c-0.214,2.889,1.017,2.889,2.248,3.264
		S53.601,368.195,54.992,365.521z"/>
	<path fill="#EEBF00" d="M8.169,404.771c67.987-34.516,95.841-2.971,107.078-5.779c1.374-0.345,1.686-2.328,0.321-3.451
		c-30.101-12.443-75.373-15.332-107.399,6.02C6.563,402.631,7.17,405.383,8.169,404.771z"/>
</g>
<g>
	<g>
		<defs>
			<rect id="SVGID_83_" x="521.031" y="304.092" width="122.296" height="164.288"/>
		</defs>
		<clipPath id="SVGID_84_">
			<use xlink:href="#SVGID_83_"  overflow="visible"/>
		</clipPath>
		<path clip-path="url(#SVGID_84_)" fill="#E65012" d="M533.782,435.537c0.199-5.279,5.262-18.856,10-25.018l78.4-1.236
			c0,0,9.016,13.105,9.912,26.254c0.896,13.149-9.861,12.95-9.861,12.95s0.206,1.395,0.007,2.092s-50.298,10.161-76.597-1.693
			v-2.889L533.782,435.537z"/>
	</g>
	<g>
		<defs>
			<rect id="SVGID_85_" x="521.031" y="304.092" width="122.296" height="164.288"/>
		</defs>
		<clipPath id="SVGID_86_">
			<use xlink:href="#SVGID_85_"  overflow="visible"/>
		</clipPath>
		<polygon clip-path="url(#SVGID_86_)" fill="#E65012" points="549.229,462.334 549.229,448.786 617.366,448.455 617.366,461.936 		
			"/>
	</g>
	<g>
		<defs>
			<rect id="SVGID_87_" x="521.031" y="304.092" width="122.296" height="164.288"/>
		</defs>
		<clipPath id="SVGID_88_">
			<use xlink:href="#SVGID_87_"  overflow="visible"/>
		</clipPath>
		<path clip-path="url(#SVGID_88_)" fill="#12100B" d="M547.654,465.057c-1.677,0-2.191-2.507,0.116-3.055
			c2.922-0.694,67.688,0.266,71.674-0.465c2.015,0.225,2.191,3.254,0,3.254C617.252,464.791,561.567,464.625,547.654,465.057"/>
	</g>
	<g>
		<defs>
			<rect id="SVGID_89_" x="521.031" y="304.092" width="122.296" height="164.288"/>
		</defs>
		<clipPath id="SVGID_90_">
			<use xlink:href="#SVGID_89_"  overflow="visible"/>
		</clipPath>
		
			<line clip-path="url(#SVGID_90_)" fill="none" stroke="#12100B" stroke-width="3" stroke-miterlimit="10" x1="584.095" y1="425.715" x2="584.095" y2="455.2"/>
	</g>
	<g>
		<defs>
			<rect id="SVGID_91_" x="521.031" y="304.092" width="122.296" height="164.288"/>
		</defs>
		<clipPath id="SVGID_92_">
			<use xlink:href="#SVGID_91_"  overflow="visible"/>
		</clipPath>
		<path clip-path="url(#SVGID_92_)" fill="#12100B" d="M549.372,430.406c0,0-0.113,0.697-0.301,1.739
			c-0.178,1.043-0.432,2.43-0.695,3.811c-0.057,0.347-0.122,0.692-0.169,1.037c-0.048,0.343-0.104,0.678-0.173,0.999
			c-0.15,0.638-0.346,1.221-0.527,1.715c-0.184,0.493-0.357,0.904-0.479,1.185c-0.031,0.071-0.061,0.136-0.085,0.19
			c-0.021,0.052-0.036,0.096-0.05,0.131c-0.029,0.079-0.045,0.121-0.045,0.121l-0.01,0.028c-0.011,0.029-0.043,0.045-0.072,0.033
			c-0.016-0.005-0.027-0.019-0.033-0.033c0,0-0.018-0.046-0.049-0.131c-0.037-0.098-0.063-0.23-0.082-0.39
			c-0.027-0.166-0.039-0.362-0.046-0.584c-0.007-0.225-0.006-0.475,0.013-0.743c0.012-0.271,0.041-0.559,0.082-0.862
			c0.033-0.306,0.097-0.619,0.17-0.943c0.079-0.321,0.184-0.648,0.297-0.979c0.108-0.331,0.219-0.667,0.329-1.003
			c0.209-0.675,0.415-1.351,0.628-1.978c0.205-0.629,0.41-1.213,0.584-1.712c0.347-1.002,0.598-1.663,0.598-1.663
			c0.012-0.031,0.047-0.047,0.077-0.035C549.362,430.352,549.377,430.379,549.372,430.406"/>
	</g>
	<g>
		<defs>
			<rect id="SVGID_93_" x="521.031" y="304.092" width="122.296" height="164.288"/>
		</defs>
		<clipPath id="SVGID_94_">
			<use xlink:href="#SVGID_93_"  overflow="visible"/>
		</clipPath>
		<path clip-path="url(#SVGID_94_)" fill="#12100B" d="M617.511,430.983c0,0,0.133,0.631,0.332,1.578
			c0.209,0.944,0.484,2.201,0.785,3.441c0.084,0.309,0.166,0.616,0.26,0.915c0.098,0.298,0.188,0.59,0.261,0.875
			c0.069,0.285,0.13,0.561,0.175,0.824c0.051,0.261,0.094,0.51,0.137,0.736c0.045,0.225,0.08,0.435,0.124,0.609
			c0.019,0.092,0.039,0.176,0.063,0.248c0.02,0.078,0.04,0.146,0.063,0.202c0.021,0.063,0.041,0.115,0.066,0.155
			c0.022,0.042,0.042,0.085,0.063,0.107c0.045,0.056,0.069,0.085,0.069,0.085l0.018,0.021c0.02,0.024,0.017,0.061-0.009,0.081
			c-0.012,0.011-0.027,0.015-0.043,0.013c0,0-0.048-0.006-0.138-0.017c-0.052-0.003-0.099-0.026-0.16-0.056
			c-0.064-0.025-0.132-0.063-0.194-0.113c-0.142-0.095-0.28-0.235-0.419-0.404c-0.139-0.171-0.275-0.37-0.399-0.598
			c-0.129-0.225-0.245-0.476-0.351-0.744c-0.113-0.268-0.199-0.556-0.275-0.856c-0.066-0.303-0.112-0.619-0.146-0.94
			c-0.033-0.321-0.068-0.646-0.104-0.972c-0.075-0.647-0.144-1.294-0.181-1.901c-0.047-0.606-0.068-1.174-0.086-1.659
			c-0.037-0.971-0.028-1.619-0.028-1.619c0-0.034,0.028-0.061,0.061-0.06C617.481,430.935,617.505,430.956,617.511,430.983"/>
	</g>
	<g>
		<defs>
			<rect id="SVGID_95_" x="521.031" y="304.092" width="122.296" height="164.288"/>
		</defs>
		<clipPath id="SVGID_96_">
			<use xlink:href="#SVGID_95_"  overflow="visible"/>
		</clipPath>
		<path clip-path="url(#SVGID_96_)" fill="#6F401E" d="M546.791,442.544c0,4.934-3.876,8.003-8.966,8.003
			c-5.088,0-7.702-2.291-8.4-7.073c-0.712-4.882,3.943-9.231,9.031-9.231C543.546,434.242,546.791,437.61,546.791,442.544"/>
	</g>
	<g>
		<defs>
			<rect id="SVGID_97_" x="521.031" y="304.092" width="122.296" height="164.288"/>
		</defs>
		<clipPath id="SVGID_98_">
			<use xlink:href="#SVGID_97_"  overflow="visible"/>
		</clipPath>
		<path clip-path="url(#SVGID_98_)" fill="#6F401E" d="M636.378,443.739c0,4.621-2.569,7.587-7.521,7.587
			c-4.952,0-8.966-3.745-8.966-8.367c0-4.621,4.014-8.767,8.966-8.767C633.809,434.192,636.378,439.118,636.378,443.739"/>
	</g>
	<g>
		<defs>
			<rect id="SVGID_99_" x="521.031" y="304.092" width="122.296" height="164.288"/>
		</defs>
		<clipPath id="SVGID_100_">
			<use xlink:href="#SVGID_99_"  overflow="visible"/>
		</clipPath>
		<path clip-path="url(#SVGID_100_)" fill="#6F401E" d="M626.118,440.345c0,2.132-1.432,3.86-3.686,3.86
			c-2.256,0-4.084-1.729-4.084-3.86c0-2.133,1.828-3.861,4.084-3.861C624.688,436.483,626.118,438.212,626.118,440.345"/>
	</g>
	<g>
		<defs>
			<rect id="SVGID_101_" x="521.031" y="304.092" width="122.296" height="164.288"/>
		</defs>
		<clipPath id="SVGID_102_">
			<use xlink:href="#SVGID_101_"  overflow="visible"/>
		</clipPath>
		<path clip-path="url(#SVGID_102_)" fill="none" stroke="#12100B" stroke-miterlimit="10" d="M626.118,440.345
			c0,2.132-1.432,3.86-3.686,3.86c-2.256,0-4.084-1.729-4.084-3.86c0-2.133,1.828-3.861,4.084-3.861
			C624.688,436.483,626.118,438.212,626.118,440.345z"/>
	</g>
	<g>
		<defs>
			<rect id="SVGID_103_" x="521.031" y="304.092" width="122.296" height="164.288"/>
		</defs>
		<clipPath id="SVGID_104_">
			<use xlink:href="#SVGID_103_"  overflow="visible"/>
		</clipPath>
		<path clip-path="url(#SVGID_104_)" fill="#6F401E" d="M548.054,440.153c0,2.255-1.496,3.586-3.587,3.586s-3.984-1.331-3.984-3.586
			c0-2.256,1.853-3.713,3.942-3.713C546.517,436.44,548.054,437.897,548.054,440.153"/>
	</g>
	<g>
		<defs>
			<rect id="SVGID_105_" x="521.031" y="304.092" width="122.296" height="164.288"/>
		</defs>
		<clipPath id="SVGID_106_">
			<use xlink:href="#SVGID_105_"  overflow="visible"/>
		</clipPath>
		<path clip-path="url(#SVGID_106_)" fill="none" stroke="#12100B" stroke-miterlimit="10" d="M548.054,440.153
			c0,2.255-1.496,3.586-3.587,3.586s-3.984-1.331-3.984-3.586c0-2.256,1.853-3.713,3.942-3.713
			C546.517,436.44,548.054,437.897,548.054,440.153z"/>
	</g>
	<g>
		<defs>
			<rect id="SVGID_107_" x="521.031" y="304.092" width="122.296" height="164.288"/>
		</defs>
		<clipPath id="SVGID_108_">
			<use xlink:href="#SVGID_107_"  overflow="visible"/>
		</clipPath>
		
			<path clip-path="url(#SVGID_108_)" fill="none" stroke="#D43C17" stroke-width="2" stroke-linecap="round" stroke-miterlimit="10" d="
			M545.729,448.886c6.076,3.586,33.271,10.759,76.556,1.693"/>
	</g>
	<g>
		<defs>
			<rect id="SVGID_109_" x="521.031" y="304.092" width="122.296" height="164.288"/>
		</defs>
		<clipPath id="SVGID_110_">
			<use xlink:href="#SVGID_109_"  overflow="visible"/>
		</clipPath>
		<path clip-path="url(#SVGID_110_)" fill="#E65012" d="M640.03,368.594c0,31.616-26.697,56.535-57.909,56.535
			s-56.714-24.551-56.714-56.167c0-33.604,26.1-59.237,57.312-59.237C613.932,309.725,640.03,336.979,640.03,368.594"/>
	</g>
	<g>
		<defs>
			<rect id="SVGID_111_" x="521.031" y="304.092" width="122.296" height="164.288"/>
		</defs>
		<clipPath id="SVGID_112_">
			<use xlink:href="#SVGID_111_"  overflow="visible"/>
		</clipPath>
		<path clip-path="url(#SVGID_112_)" fill="none" stroke="#12100B" stroke-width="3" stroke-miterlimit="10" d="M622.532,373.378
			c0,19.118-18.285,34.965-40.594,34.965s-40.394-15.498-40.394-34.616c0-19.117,16.54-36.808,38.85-36.808
			C605.099,336.919,622.532,354.261,622.532,373.378z"/>
	</g>
	<g>
		<defs>
			<rect id="SVGID_113_" x="521.031" y="304.092" width="122.296" height="164.288"/>
		</defs>
		<clipPath id="SVGID_114_">
			<use xlink:href="#SVGID_113_"  overflow="visible"/>
		</clipPath>
		<path clip-path="url(#SVGID_114_)" fill="#6F401E" d="M617.85,369.792c0.798,20.222-16.636,31.677-35.131,29.187
			c-26.495,1.444-36.069-10.8-37.389-28.19c-1.594-21.019,14.991-36.03,36.708-34.735
			C610.15,337.729,617.162,352.365,617.85,369.792"/>
	</g>
	<g>
		<defs>
			<rect id="SVGID_115_" x="521.031" y="304.092" width="122.296" height="164.288"/>
		</defs>
		<clipPath id="SVGID_116_">
			<use xlink:href="#SVGID_115_"  overflow="visible"/>
		</clipPath>
		<path clip-path="url(#SVGID_116_)" fill="#F5DBB4" d="M582.719,398.979c0,0-55.519-28.688-1.169-62.06
			C581.55,336.919,635.78,366.903,582.719,398.979"/>
	</g>
</g>
<g>
	<g>
		<defs>
			<path id="SVGID_117_" d="M582.719,398.979c53.062-32.075-1.169-62.06-1.169-62.06
				C527.201,370.29,582.719,398.979,582.719,398.979"/>
		</defs>
		<clipPath id="SVGID_118_">
			<use xlink:href="#SVGID_117_"  overflow="visible"/>
		</clipPath>
		<path clip-path="url(#SVGID_118_)" fill="#FFFFFF" d="M618.181,366.771c0,8.949-8.133,16.204-18.166,16.204
			s-18.167-7.255-18.167-16.204s2.199-18.329,18.167-16.204C609.961,351.891,618.181,357.821,618.181,366.771"/>
	</g>
	<g>
		<defs>
			<path id="SVGID_119_" d="M582.719,398.979c53.062-32.075-1.169-62.06-1.169-62.06
				C527.201,370.29,582.719,398.979,582.719,398.979"/>
		</defs>
		<clipPath id="SVGID_120_">
			<use xlink:href="#SVGID_119_"  overflow="visible"/>
		</clipPath>
		<path clip-path="url(#SVGID_120_)" fill="#FFFFFF" d="M581.55,365.94c-0.361,9.033-6.252,16.191-13.959,16.37
			c-17.146,0.398-13.959-7.329-13.959-16.37s6.236-15.772,13.945-15.772C575.287,350.168,582.038,353.754,581.55,365.94"/>
	</g>
	<g>
		<defs>
			<path id="SVGID_121_" d="M582.719,398.979c53.062-32.075-1.169-62.06-1.169-62.06
				C527.201,370.29,582.719,398.979,582.719,398.979"/>
		</defs>
		<clipPath id="SVGID_122_">
			<use xlink:href="#SVGID_121_"  overflow="visible"/>
		</clipPath>
		<path clip-path="url(#SVGID_122_)" fill="#12100B" d="M574.019,366.057c0,1.21-0.958,2.191-2.141,2.191
			c-1.184,0-2.143-0.981-2.143-2.191s0.959-2.191,2.143-2.191C573.061,363.865,574.019,364.847,574.019,366.057"/>
	</g>
	<g>
		<defs>
			<path id="SVGID_123_" d="M582.719,398.979c53.062-32.075-1.169-62.06-1.169-62.06
				C527.201,370.29,582.719,398.979,582.719,398.979"/>
		</defs>
		<clipPath id="SVGID_124_">
			<use xlink:href="#SVGID_123_"  overflow="visible"/>
		</clipPath>
		<path clip-path="url(#SVGID_124_)" fill="#12100B" d="M594.59,365.432c0,1.223-1.005,2.214-2.241,2.214
			c-1.238,0-2.242-0.991-2.242-2.214s1.004-2.214,2.242-2.214C593.585,363.218,594.59,364.209,594.59,365.432"/>
	</g>
</g>
<g>
	<g>
		<defs>
			<rect id="SVGID_125_" x="521.031" y="304.092" width="122.296" height="164.288"/>
		</defs>
		<clipPath id="SVGID_126_">
			<use xlink:href="#SVGID_125_"  overflow="visible"/>
		</clipPath>
		
			<path clip-path="url(#SVGID_126_)" fill="none" stroke="#12100B" stroke-width="3" stroke-linecap="round" stroke-miterlimit="10" d="
			M582.719,399.316c4.648,2.352-0.681,17.194,4.648,20.581"/>
	</g>
	<g>
		<defs>
			<rect id="SVGID_127_" x="521.031" y="304.092" width="122.296" height="164.288"/>
		</defs>
		<clipPath id="SVGID_128_">
			<use xlink:href="#SVGID_127_"  overflow="visible"/>
		</clipPath>
		
			<path clip-path="url(#SVGID_128_)" fill="none" stroke="#12100B" stroke-width="3" stroke-linecap="round" stroke-miterlimit="10" d="
			M577.704,416.013c2.871-3.279,1.195-10.658,5.015-16.696"/>
	</g>
	<g>
		<defs>
			<rect id="SVGID_129_" x="521.031" y="304.092" width="122.296" height="164.288"/>
		</defs>
		<clipPath id="SVGID_130_">
			<use xlink:href="#SVGID_129_"  overflow="visible"/>
		</clipPath>
		
			<path clip-path="url(#SVGID_130_)" fill="none" stroke="#D43C17" stroke-width="2" stroke-linecap="round" stroke-miterlimit="10" d="
			M543.804,410.52c1.42,3.602,40.376,30.829,78.389-1.236"/>
	</g>
</g>
<g id="handrails">
	<path fill="#553E39" d="M157.907,463.506c0,0-33.556-24.06-32.923-24.692c0.633-0.632-137.394,0-139.293,0
		c-1.899,0,0,4.432,0,4.432h8.231l0.018,22.056h5.68l1.267-22.056h12.03v21.894h5.699v-21.894h20.261v21.676h5.699v-21.676h76.611
		l27.858,20.895L157.907,463.506z"/>
</g>
<rect x="400.06" y="462.162" fill="#326C2E" width="64.575" height="13.576"/>
<g>
	<g>
		<defs>
			<rect id="SVGID_131_" x="368.393" y="322.316" width="126.158" height="158.897"/>
		</defs>
		<clipPath id="SVGID_132_">
			<use xlink:href="#SVGID_131_"  overflow="visible"/>
		</clipPath>
		<path clip-path="url(#SVGID_132_)" fill="#E65012" d="M401.147,417.478c0,0-15.777,17.041-16.327,37.588
			c8.622,14.767,88.057,17.978,92.827,1.467c1.308-13.985-6.237-27.059-13.419-37.664
			C450.972,426.34,424.779,433.13,401.147,417.478"/>
	</g>
	<g>
		<defs>
			<rect id="SVGID_133_" x="368.393" y="322.316" width="126.158" height="158.897"/>
		</defs>
		<clipPath id="SVGID_134_">
			<use xlink:href="#SVGID_133_"  overflow="visible"/>
		</clipPath>
		<path clip-path="url(#SVGID_134_)" fill="#12100B" d="M396.858,474.802c2.233-0.645,32.204-2.156,73.236,0.596
			c0.908,0.062,1.04,1.903-0.366,1.965c-1.407,0.063-72.653-0.287-73.233-0.396C395.392,476.758,394.68,475.428,396.858,474.802"/>
	</g>
	<g>
		<defs>
			<rect id="SVGID_135_" x="368.393" y="322.316" width="126.158" height="158.897"/>
		</defs>
		<clipPath id="SVGID_136_">
			<use xlink:href="#SVGID_135_"  overflow="visible"/>
		</clipPath>
		<path clip-path="url(#SVGID_136_)" fill="#12100B" d="M401.319,440.585c0,0-0.057,0.19-0.159,0.523
			c-0.1,0.331-0.24,0.807-0.396,1.382c-0.166,0.57-0.318,1.248-0.513,1.965c-0.084,0.36-0.17,0.733-0.257,1.113
			c-0.083,0.381-0.185,0.763-0.251,1.153c-0.071,0.39-0.142,0.777-0.211,1.159c-0.07,0.382-0.134,0.759-0.189,1.123
			c-0.065,0.363-0.135,0.713-0.214,1.043c-0.072,0.332-0.158,0.643-0.209,0.933c-0.229,1.158-0.487,1.934-0.487,1.934l-0.073-0.006
			c0,0-0.072-0.803-0.022-2.01c0.002-0.303,0.047-0.624,0.091-0.967c0.04-0.342,0.098-0.7,0.162-1.069
			c0.037-0.186,0.07-0.373,0.115-0.561c0.05-0.187,0.102-0.374,0.154-0.564c0.103-0.38,0.207-0.767,0.312-1.151
			c0.095-0.389,0.224-0.768,0.334-1.145c0.114-0.376,0.228-0.745,0.336-1.104c0.241-0.707,0.456-1.37,0.674-1.927
			c0.209-0.56,0.385-1.024,0.522-1.346c0.135-0.321,0.212-0.505,0.212-0.505L401.319,440.585z"/>
	</g>
	<g>
		<defs>
			<rect id="SVGID_137_" x="368.393" y="322.316" width="126.158" height="158.897"/>
		</defs>
		<clipPath id="SVGID_138_">
			<use xlink:href="#SVGID_137_"  overflow="visible"/>
		</clipPath>
		<path clip-path="url(#SVGID_138_)" fill="#12100B" d="M462.824,440.383c0,0,0.209,0.939,0.497,2.354
			c0.295,1.415,0.631,3.313,0.924,5.22c0.142,0.954,0.299,1.91,0.388,2.813c0.033,0.452,0.071,0.889,0.069,1.308
			c0.006,0.418,0.013,0.812-0.011,1.177c-0.018,0.365-0.032,0.699-0.076,0.997c-0.042,0.297-0.065,0.553-0.121,0.764
			c-0.099,0.42-0.168,0.652-0.168,0.652l-0.072-0.014c0,0-0.014-0.245-0.017-0.661c-0.003-0.208-0.037-0.464-0.051-0.753
			c-0.01-0.287-0.056-0.616-0.083-0.971c-0.026-0.355-0.076-0.742-0.111-1.149c-0.039-0.409-0.079-0.839-0.122-1.284
			c-0.031-0.447-0.063-0.91-0.095-1.38c-0.028-0.472-0.076-0.948-0.114-1.427c-0.176-1.911-0.424-3.817-0.594-5.25
			c-0.178-1.432-0.316-2.385-0.316-2.385L462.824,440.383z"/>
	</g>
	<g>
		<defs>
			<rect id="SVGID_139_" x="368.393" y="322.316" width="126.158" height="158.897"/>
		</defs>
		<clipPath id="SVGID_140_">
			<use xlink:href="#SVGID_139_"  overflow="visible"/>
		</clipPath>
		<path clip-path="url(#SVGID_140_)" fill="#75B72B" d="M399.68,455.592c0,4.421-3.833,8.232-8.278,8.232
			c-4.446,0-8.049-3.812-8.049-8.232c0-4.42,3.948-8.232,8.393-8.232C396.19,447.359,399.68,451.172,399.68,455.592"/>
	</g>
	<g>
		<defs>
			<rect id="SVGID_141_" x="368.393" y="322.316" width="126.158" height="158.897"/>
		</defs>
		<clipPath id="SVGID_142_">
			<use xlink:href="#SVGID_141_"  overflow="visible"/>
		</clipPath>
		<path clip-path="url(#SVGID_142_)" fill="#75B72B" d="M401.055,453.139c0,2.001-1.55,3.623-3.462,3.623s-3.463-1.622-3.463-3.623
			s1.551-3.084,3.463-3.084C399.505,450.054,401.055,451.137,401.055,453.139"/>
	</g>
	<g>
		<defs>
			<rect id="SVGID_143_" x="368.393" y="322.316" width="126.158" height="158.897"/>
		</defs>
		<clipPath id="SVGID_144_">
			<use xlink:href="#SVGID_143_"  overflow="visible"/>
		</clipPath>
		<path clip-path="url(#SVGID_144_)" fill="none" stroke="#33A938" stroke-miterlimit="10" d="M401.055,453.139
			c0,2.001-1.55,3.623-3.462,3.623s-3.463-1.622-3.463-3.623s1.551-3.084,3.463-3.084
			C399.505,450.054,401.055,451.137,401.055,453.139z"/>
	</g>
	<g>
		<defs>
			<rect id="SVGID_145_" x="368.393" y="322.316" width="126.158" height="158.897"/>
		</defs>
		<clipPath id="SVGID_146_">
			<use xlink:href="#SVGID_145_"  overflow="visible"/>
		</clipPath>
		<path clip-path="url(#SVGID_146_)" fill="#75B72B" d="M479.817,457.908c0,4.332-4.075,8.409-8.423,8.409
			c-4.348,0-7.598-3.512-7.598-7.844c0-4.33,2.537-8.606,7.598-7.842C475.693,451.281,479.817,453.577,479.817,457.908"/>
	</g>
	<g>
		<defs>
			<rect id="SVGID_147_" x="368.393" y="322.316" width="126.158" height="158.897"/>
		</defs>
		<clipPath id="SVGID_148_">
			<use xlink:href="#SVGID_147_"  overflow="visible"/>
		</clipPath>
		<path clip-path="url(#SVGID_148_)" fill="#75B72B" d="M469.024,455.83c0,2.01-1.539,3.638-3.439,3.638s-3.165-1.628-3.165-3.638
			c0-2.011,1.219-3.394,3.119-3.394C467.439,452.437,469.024,453.819,469.024,455.83"/>
	</g>
	<g>
		<defs>
			<rect id="SVGID_149_" x="368.393" y="322.316" width="126.158" height="158.897"/>
		</defs>
		<clipPath id="SVGID_150_">
			<use xlink:href="#SVGID_149_"  overflow="visible"/>
		</clipPath>
		<path clip-path="url(#SVGID_150_)" fill="none" stroke="#33A938" stroke-miterlimit="10" d="M469.024,455.83
			c0,2.01-1.539,3.638-3.439,3.638s-3.165-1.628-3.165-3.638c0-2.011,1.219-3.394,3.119-3.394
			C467.439,452.437,469.024,453.819,469.024,455.83z"/>
	</g>
	<g>
		<defs>
			<rect id="SVGID_151_" x="368.393" y="322.316" width="126.158" height="158.897"/>
		</defs>
		<clipPath id="SVGID_152_">
			<use xlink:href="#SVGID_151_"  overflow="visible"/>
		</clipPath>
		<path clip-path="url(#SVGID_152_)" fill="#33A938" d="M398.601,415.531c-2.345,1.946,6.601,14.533,29.776,19.232
			c4.826,0.978,5.07-2.294,5.07-2.294v-3.363L398.601,415.531z"/>
	</g>
	<g>
		<defs>
			<rect id="SVGID_153_" x="368.393" y="322.316" width="126.158" height="158.897"/>
		</defs>
		<clipPath id="SVGID_154_">
			<use xlink:href="#SVGID_153_"  overflow="visible"/>
		</clipPath>
		<path clip-path="url(#SVGID_154_)" fill="#12100B" d="M399.088,418.766c0,0,0.1,0.124,0.288,0.354
			c0.187,0.232,0.462,0.569,0.824,0.984c0.363,0.414,0.823,0.896,1.375,1.421c0.277,0.263,0.578,0.533,0.905,0.806
			c0.329,0.271,0.632,0.603,0.994,0.899c1.412,1.229,3.208,2.496,5.239,3.68c1.011,0.601,2.091,1.163,3.196,1.719
			c1.109,0.547,2.252,1.072,3.41,1.564c1.156,0.495,2.328,0.956,3.487,1.394c0.583,0.21,1.161,0.421,1.732,0.626
			c0.575,0.197,1.143,0.392,1.702,0.582c0.562,0.183,1.115,0.361,1.656,0.536c0.543,0.167,1.075,0.329,1.594,0.487
			c1.034,0.317,2.009,0.573,2.924,0.718c0.228,0.038,0.451,0.063,0.669,0.091c0.218,0.014,0.431,0.026,0.638,0.039
			c0.412,0.041,0.804,0.06,1.167,0.031c0.727-0.05,1.327-0.297,1.71-0.652c0.382-0.358,0.569-0.76,0.683-1.029
			c0.109-0.276,0.167-0.423,0.167-0.423s-0.033,0.156-0.093,0.447c-0.072,0.285-0.177,0.737-0.551,1.199
			c-0.368,0.462-1.029,0.854-1.829,1.022c-0.398,0.088-0.83,0.138-1.281,0.147c-0.451-0.01-0.917-0.076-1.396-0.148
			c-0.961-0.151-1.977-0.421-3.019-0.74c-0.521-0.16-1.056-0.323-1.604-0.49c-0.544-0.175-1.101-0.355-1.666-0.538
			c-0.563-0.192-1.135-0.389-1.714-0.587c-0.576-0.208-1.158-0.419-1.746-0.631c-1.169-0.442-2.351-0.906-3.519-1.407
			c-1.169-0.496-2.324-1.028-3.447-1.581c-1.119-0.563-2.212-1.133-3.24-1.742c-2.063-1.203-3.898-2.496-5.348-3.759
			c-0.357-0.32-0.727-0.602-1.016-0.934c-0.298-0.323-0.569-0.641-0.815-0.944c-0.496-0.604-0.886-1.164-1.188-1.634
			c-0.304-0.469-0.515-0.853-0.662-1.11C399.166,418.904,399.088,418.766,399.088,418.766"/>
	</g>
	<g>
		<defs>
			<rect id="SVGID_155_" x="368.393" y="322.316" width="126.158" height="158.897"/>
		</defs>
		<clipPath id="SVGID_156_">
			<use xlink:href="#SVGID_155_"  overflow="visible"/>
		</clipPath>
		<path clip-path="url(#SVGID_156_)" fill="#33A938" d="M466.303,416.204c0,0,0.245,3.729-0.581,5.259
			c-0.687,1.273-14.629,14.554-29.873,13.482c0,0-2.5,0.249-2.416-2.057c0.068-1.835,0.092-1.835,0.092-4.026L466.303,416.204z"/>
	</g>
	<g>
		<defs>
			<rect id="SVGID_157_" x="368.393" y="322.316" width="126.158" height="158.897"/>
		</defs>
		<clipPath id="SVGID_158_">
			<use xlink:href="#SVGID_157_"  overflow="visible"/>
		</clipPath>
		<path clip-path="url(#SVGID_158_)" fill="#12100B" d="M465.723,421.463c0,0-0.059,0.134-0.217,0.363
			c-0.157,0.227-0.393,0.561-0.726,0.953c-0.329,0.398-0.742,0.872-1.241,1.39c-0.247,0.263-0.518,0.531-0.803,0.817
			c-0.287,0.284-0.633,0.532-0.972,0.814c-1.37,1.116-3.041,2.329-4.914,3.499c-0.943,0.574-1.926,1.155-2.957,1.688
			c-1.028,0.536-2.091,1.048-3.18,1.503c-1.082,0.47-2.196,0.863-3.297,1.231c-1.111,0.342-2.211,0.655-3.296,0.882
			c-0.271,0.058-0.54,0.114-0.806,0.171c-0.268,0.046-0.534,0.091-0.797,0.136c-0.524,0.098-1.042,0.164-1.546,0.222
			c-0.504,0.07-0.997,0.104-1.475,0.138c-0.476,0.044-0.939,0.057-1.382,0.064s-0.868,0.033-1.273,0.009
			c-0.407-0.035-0.781-0.069-1.149-0.117c-0.747-0.114-1.388-0.39-1.783-0.787c-0.404-0.399-0.481-0.855-0.494-1.126
			c-0.009-0.281,0.021-0.425,0.021-0.425s-0.001,0.149,0.058,0.413c0.06,0.26,0.218,0.641,0.604,0.919
			c0.381,0.28,0.97,0.43,1.639,0.426c0.35-0.014,0.724-0.03,1.119-0.046c0.197-0.004,0.398,0.018,0.606,0.016
			c0.207-0.005,0.419-0.009,0.634-0.015c0.434-0.008,0.884-0.02,1.35-0.063c0.466-0.032,0.947-0.064,1.439-0.134
			c0.493-0.057,0.999-0.121,1.512-0.215c0.257-0.045,0.517-0.089,0.779-0.133c0.26-0.056,0.523-0.113,0.788-0.169
			c1.062-0.221,2.141-0.529,3.229-0.862c1.08-0.363,2.173-0.747,3.235-1.21c1.069-0.445,2.114-0.95,3.126-1.477
			c1.014-0.524,1.981-1.096,2.911-1.661c1.844-1.153,3.49-2.348,4.839-3.445c0.347-0.263,0.636-0.565,0.96-0.796
			c0.317-0.239,0.62-0.464,0.896-0.686c0.557-0.438,1.034-0.833,1.418-1.168c0.385-0.334,0.678-0.608,0.869-0.804
			C465.638,421.587,465.723,421.463,465.723,421.463"/>
	</g>
	<g>
		<defs>
			<rect id="SVGID_159_" x="368.393" y="322.316" width="126.158" height="158.897"/>
		</defs>
		<clipPath id="SVGID_160_">
			<use xlink:href="#SVGID_159_"  overflow="visible"/>
		</clipPath>
		<polygon clip-path="url(#SVGID_160_)" fill="none" stroke="#12100B" stroke-width="2" stroke-miterlimit="10" points="
			441.153,439.013 441.153,454.457 453.995,454.457 453.995,438.646 		"/>
	</g>
	<g>
		<defs>
			<rect id="SVGID_161_" x="368.393" y="322.316" width="126.158" height="158.897"/>
		</defs>
		<clipPath id="SVGID_162_">
			<use xlink:href="#SVGID_161_"  overflow="visible"/>
		</clipPath>
		<polygon clip-path="url(#SVGID_162_)" fill="none" stroke="#12100B" stroke-width="2" stroke-miterlimit="10" points="
			411.451,439.472 411.298,455.065 424.69,454.79 424.231,439.227 		"/>
	</g>
	<g>
		<defs>
			<rect id="SVGID_163_" x="368.393" y="322.316" width="126.158" height="158.897"/>
		</defs>
		<clipPath id="SVGID_164_">
			<use xlink:href="#SVGID_163_"  overflow="visible"/>
		</clipPath>
		<polygon clip-path="url(#SVGID_164_)" fill="none" stroke="#12100B" stroke-width="2" stroke-miterlimit="10" points="
			411.925,439.608 418.27,447.88 423.847,439.237 		"/>
	</g>
	<g>
		<defs>
			<rect id="SVGID_165_" x="368.393" y="322.316" width="126.158" height="158.897"/>
		</defs>
		<clipPath id="SVGID_166_">
			<use xlink:href="#SVGID_165_"  overflow="visible"/>
		</clipPath>
		<polygon clip-path="url(#SVGID_166_)" fill="none" stroke="#12100B" stroke-width="2" stroke-miterlimit="10" points="
			441.693,439.124 448.386,446.947 453.706,438.784 		"/>
	</g>
	<g>
		<defs>
			<rect id="SVGID_167_" x="368.393" y="322.316" width="126.158" height="158.897"/>
		</defs>
		<clipPath id="SVGID_168_">
			<use xlink:href="#SVGID_167_"  overflow="visible"/>
		</clipPath>
		
			<line clip-path="url(#SVGID_168_)" fill="none" stroke="#12100B" stroke-width="2" stroke-miterlimit="10" x1="433.433" y1="430.345" x2="432.792" y2="467.218"/>
	</g>
	<g>
		<defs>
			<rect id="SVGID_169_" x="368.393" y="322.316" width="126.158" height="158.897"/>
		</defs>
		<clipPath id="SVGID_170_">
			<use xlink:href="#SVGID_169_"  overflow="visible"/>
		</clipPath>
		<path clip-path="url(#SVGID_170_)" fill="#F5DBB4" d="M479.878,392.232c-2.079,18.529-20.657,37.241-46.662,37.241
			s-44.575-17.733-48.366-37.241c-3.924-20.189,20.959-37.24,46.964-37.24S482.171,371.794,479.878,392.232"/>
	</g>
	<g>
		<defs>
			<rect id="SVGID_171_" x="368.393" y="322.316" width="126.158" height="158.897"/>
		</defs>
		<clipPath id="SVGID_172_">
			<use xlink:href="#SVGID_171_"  overflow="visible"/>
		</clipPath>
		<path clip-path="url(#SVGID_172_)" fill="#75B72B" d="M392.076,385.646c-5.171,11.738-11.995,20.102-17.645,17.605
			c-4.571-2.02-4.089-13.165,1.083-24.903c5.171-11.737,13.071-19.619,17.645-17.604
			C397.731,362.758,397.247,373.907,392.076,385.646"/>
	</g>
	<g>
		<defs>
			<rect id="SVGID_173_" x="368.393" y="322.316" width="126.158" height="158.897"/>
		</defs>
		<clipPath id="SVGID_174_">
			<use xlink:href="#SVGID_173_"  overflow="visible"/>
		</clipPath>
		<path clip-path="url(#SVGID_174_)" fill="#75B72B" d="M490.396,383.121c-3.979-11.092-10.188-20.923-16.012-18.861
			c-4.71,1.668-5.072,12.817-0.801,24.913c4.269,12.096,10.719,21.035,16.264,18.888
			C493.298,406.726,494.432,394.374,490.396,383.121"/>
	</g>
	<g>
		<defs>
			<rect id="SVGID_175_" x="368.393" y="322.316" width="126.158" height="158.897"/>
		</defs>
		<clipPath id="SVGID_176_">
			<use xlink:href="#SVGID_175_"  overflow="visible"/>
		</clipPath>
		<path clip-path="url(#SVGID_176_)" fill="#75B72B" d="M481.958,373.705c-18.468-2.813-62.907-12.598-97.519,0
			c3.18-7.705,0.039-35.104,6.404-44.763c3.547-5.382,25.129-0.813,42.946-0.606c19.177,0.221,43.276-2.941,46.239,3.907
			C484.727,343.104,479.145,358.617,481.958,373.705"/>
	</g>
	<g>
		<defs>
			<rect id="SVGID_177_" x="368.393" y="322.316" width="126.158" height="158.897"/>
		</defs>
		<clipPath id="SVGID_178_">
			<use xlink:href="#SVGID_177_"  overflow="visible"/>
		</clipPath>
		<path clip-path="url(#SVGID_178_)" fill="#33A938" d="M474.375,373.705c-23.696-5.963-49.379-8.989-80.908-2.747
			c-0.3-8.169,0.427-26.513,0.427-26.513l81.644,3.208C475.537,347.653,474.896,367.926,474.375,373.705"/>
	</g>
	<g>
		<defs>
			<rect id="SVGID_179_" x="368.393" y="322.316" width="126.158" height="158.897"/>
		</defs>
		<clipPath id="SVGID_180_">
			<use xlink:href="#SVGID_179_"  overflow="visible"/>
		</clipPath>
		
			<path clip-path="url(#SVGID_180_)" fill="none" stroke="#33A938" stroke-width="2" stroke-linecap="round" stroke-miterlimit="10" d="
			M481.184,366.608c-0.015-0.339-3.904-3.59-6.629-2.403"/>
	</g>
	<g>
		<defs>
			<rect id="SVGID_181_" x="368.393" y="322.316" width="126.158" height="158.897"/>
		</defs>
		<clipPath id="SVGID_182_">
			<use xlink:href="#SVGID_181_"  overflow="visible"/>
		</clipPath>
		
			<path clip-path="url(#SVGID_182_)" fill="none" stroke="#33A938" stroke-width="2" stroke-linecap="round" stroke-miterlimit="10" d="
			M385.991,363.073c0.664-0.697,3.34-2.974,7.534-2.143"/>
	</g>
	<g>
		<defs>
			<rect id="SVGID_183_" x="368.393" y="322.316" width="126.158" height="158.897"/>
		</defs>
		<clipPath id="SVGID_184_">
			<use xlink:href="#SVGID_183_"  overflow="visible"/>
		</clipPath>
		<path clip-path="url(#SVGID_184_)" fill="#FFFFFF" d="M461.319,386.82c0,8.588-4.205,13.117-12.446,13.117
			c-8.242,0-15.657-7.862-15.657-16.449c0-8.586,4.36-13.637,12.601-13.637S461.319,378.235,461.319,386.82"/>
	</g>
	<g>
		<defs>
			<rect id="SVGID_185_" x="368.393" y="322.316" width="126.158" height="158.897"/>
		</defs>
		<clipPath id="SVGID_186_">
			<use xlink:href="#SVGID_185_"  overflow="visible"/>
		</clipPath>
		<path clip-path="url(#SVGID_186_)" fill="#FFFFFF" d="M433.216,382.785c0,7.143-7.028,17.61-18.586,15.961
			c-7.613-1.088-9.723-6.708-9.723-13.852c0-7.143,7.338-16.145,17.979-15.685C430.569,369.54,433.216,375.642,433.216,382.785"/>
	</g>
	<g>
		<defs>
			<rect id="SVGID_187_" x="368.393" y="322.316" width="126.158" height="158.897"/>
		</defs>
		<clipPath id="SVGID_188_">
			<use xlink:href="#SVGID_187_"  overflow="visible"/>
		</clipPath>
		
			<path clip-path="url(#SVGID_188_)" fill="none" stroke="#12100B" stroke-width="3" stroke-linecap="round" stroke-miterlimit="10" d="
			M426.372,415.593c0,0,0.184,3.484,12.292,0.979"/>
	</g>
	<g>
		<defs>
			<rect id="SVGID_189_" x="368.393" y="322.316" width="126.158" height="158.897"/>
		</defs>
		<clipPath id="SVGID_190_">
			<use xlink:href="#SVGID_189_"  overflow="visible"/>
		</clipPath>
		<path clip-path="url(#SVGID_190_)" fill="#12100B" d="M428.757,385.14c0,1.014-0.794,1.835-1.773,1.835
			c-0.979,0-1.774-0.821-1.774-1.835c0-1.015,0.794-1.834,1.774-1.834C427.963,383.306,428.757,384.125,428.757,385.14"/>
	</g>
	<g>
		<defs>
			<rect id="SVGID_191_" x="368.393" y="322.316" width="126.158" height="158.897"/>
		</defs>
		<clipPath id="SVGID_192_">
			<use xlink:href="#SVGID_191_"  overflow="visible"/>
		</clipPath>
		<path clip-path="url(#SVGID_192_)" fill="#12100B" d="M458.108,386.24c0,1.014-0.793,1.834-1.772,1.834
			c-0.979,0-1.773-0.82-1.773-1.834s0.794-1.835,1.773-1.835C457.315,384.405,458.108,385.227,458.108,386.24"/>
	</g>
</g>
<g id="ship">
	
		<linearGradient id="SVGID_193_" gradientUnits="userSpaceOnUse" x1="236.6191" y1="18.7183" x2="239.2197" y2="-125.1729" gradientTransform="matrix(1 0 0 -1 69.04 453.3398)">
		<stop  offset="0" style="stop-color:#009FE3"/>
		<stop  offset="1" style="stop-color:#2D2E83"/>
	</linearGradient>
	<path fill="url(#SVGID_193_)" d="M-16.579,465.406c0,0,301.38-1.898,318.474-7.599c17.095-5.698,22.161-4.432,45.587-17.094
		c0,0,270.987-10.765,295.048-20.262c0,0,4.432,23.427-7.598,38.623c-12.031,15.195-120.299,86.107-170.951,85.474
		c0,0-438.774,28.492-493.857,12.663L-16.579,465.406z"/>
</g>
<g id="triside_1_">
	<g id="legs_1_">
		<g id="leg1">
			<path fill="#878395" d="M933.579,250.146c0,0,2.028-4.194-0.006-6.526c-2.032-2.331-3.23,1.141-3.23,1.141
				s2.544,4.355,1.342,5.386S933.579,250.146,933.579,250.146z"/>
			<path fill="#526077" d="M925.847,233.66c0,0-3.264,14.597,4.465,10.819c0,0,4.122-0.858,3.95-1.717c0,0-5.145-2.639-4.548-3.38
				c0.598-0.742-0.597-4.521,0-5.723S925.847,233.66,925.847,233.66z"/>
			<path fill="#878395" d="M931.857,252.286c0,0-0.152,23.448-5.486,34.438c0,0,2.415,7.042,0,7.899
				c-2.414,0.859,3.341,1.374,3.341,1.374s4.206-2.576,2.145-6.01c-2.061-3.436,5.495-36.407,3.777-37.095
				C933.918,252.207,931.857,252.286,931.857,252.286z"/>
			<path fill="#526077" d="M930.675,249.23c0,0,2.384,1.088,6.506-1.145c0,0-0.344,5.152-3.606,6.183c0,0,0.04,0.858-2.899-3.092
				C927.735,247.228,930.675,249.23,930.675,249.23z"/>
		</g>
		<g id="leg3">
			<path fill="#878395" d="M899.942,249.573h2.981c0,0,2.706,18.961-0.165,27.72c0,0-1.542,14.184-2.854,14.865
				s-2.516-2.166-2.516-2.166S903.646,255.794,899.942,249.573z"/>
			<path fill="#878395" d="M901.944,241.9c0,0,1.464,0.872,3.565,0.699c0,0-2.854,2.809-2.18,4.495l-3.274-1.299L901.944,241.9z"/>
			<path fill="#526077" d="M898.348,245.849l8.312,0.423c0.313-0.515-2.979,6.418-6.571,3.347
				C897.099,247.063,892.578,242.47,898.348,245.849z"/>
			<path fill="#526077" d="M906.661,230.73c0,0-8.243,8.099-4.637,11.52c3.606,3.42,6.249-3.92,6.249-3.92s2.773-5.024,2.258-5.883
				C910.016,231.588,906.661,230.73,906.661,230.73z"/>
		</g>
		<g id="leg2">
			<path fill="#878395" d="M917.484,252.998c10.75,11.85-7.831,40.7-7.487,40.014c0.344-0.688,4.658,0,4.658,0
				c1.224-3.95,8.506-14.254,8.506-14.254c5.145-4.488-1.969-26.411-1.744-25.689L917.484,252.998z"/>
			<path fill="#878395" d="M917.406,245.099c0,0,3.409,0,3.753,0s-5.495,2.294,0,4.495c5.495,2.202-7.438-0.875-4.465,0
				C919.668,250.469,913.651,245.099,917.406,245.099z"/>
			<path fill="#526077" d="M912.229,233.126h2.748c0,0,10.99,13.325,3.777,12.648C911.543,245.099,913.26,234.204,912.229,233.126z"
				/>
			<path fill="#526077" d="M915.728,249.226c0,0,7.364,1.064,8.201-1.617s-0.279,6.421-4.101,5.905
				C916.008,252.998,915.514,251.553,915.728,249.226z"/>
		</g>
	</g>
	<g id="middle_1_">
		<path fill="#878395" d="M903.674,229.719l25.588,0.344l2.253,4.293c0,0-26.628,0.859-27.326-4.636"/>
		<polygon fill="#526077" points="906.753,226.456 904.005,229.719 929.594,230.063 929.078,226.456 		"/>
	</g>
	<g id="laser_1_">
		
			<rect x="886.759" y="221.209" transform="matrix(-0.8154 0.5789 -0.5789 -0.8154 1747.2384 -107.597)" fill="#B1A3B6" width="8.029" height="7.095"/>
		
			<ellipse transform="matrix(-0.8355 0.5495 -0.5495 -0.8355 1753.7705 -70.9047)" fill="#CA1E18" cx="887.5" cy="227.082" rx="0.721" ry="3.474"/>
	</g>
	<g id="head_1_">
		<g id="core_3_">
			<path fill="#878395" d="M884.32,222.412c0,0,22.928-35.649,88.182-21.521c0,0,6.997,3.391-12.762,8.281
				c0,0-7.263,1.801-22.075,18.694c0,0-37.759-4.49-44.844,3.671C892.821,231.537,895.165,218.078,884.32,222.412z"/>
		</g>
		<g id="tophead">
			<path fill="#526077" d="M897.916,209.225c0,0,2.073-0.204,3.202,1.375c1.129,1.579,14.282-7.605,14.282-7.605
				s2.481-4.112-1.476-2.838C909.967,201.43,899.441,206.03,897.916,209.225z"/>
			<path fill="#526077" d="M922.197,213.625c0,0,5.37-6.471,8.94-4.695L922.197,213.625z"/>
			<path fill="#526077" d="M923.138,214.582c0,0,9.412-4.993,10.006-4.051c0.595,0.942,1.291,3.126,1.291,3.126
				s-4.769,2.802-11.241,1.608"/>
			<path fill="#526077" d="M935.633,213.559c1.804,1.59,13.251-6.513,13.251-6.513l-14.801,2.333L935.633,213.559z"/>
			<path fill="#526077" d="M931.026,207.561c0,0,16.815-4.822,17.78-1.456c0,0-15.663,2.314-16.498,2.642L931.026,207.561z"/>
		</g>
	</g>
</g>
<g id="text_vladimir_script">
	<g>
		<path fill="#F5F5F5" d="M351.212,458.683c0,1.238-0.913,2.688-2.735,4.352c-1.905,1.744-4.213,3.102-6.925,4.07
			c-2.573,0.914-5.211,1.369-7.912,1.369c-3.669,0-5.505-1.101-5.505-3.307c0-1.315,1.032-2.516,3.099-3.601
			c1.799-0.957,3.439-1.437,4.917-1.437c0.473,0,0.709,0.145,0.709,0.433c0,0.197-0.241,0.329-0.725,0.399
			c-1.405,0.219-2.763,0.623-4.077,1.21c-1.842,0.81-2.763,1.715-2.763,2.72c0,1.223,1.425,1.834,4.273,1.834
			c2.318,0,4.803-0.462,7.456-1.387c2.71-0.947,4.93-2.152,6.661-3.621c1.684-1.432,2.525-2.506,2.525-3.223
			c0-0.705-1.138-1.189-3.411-1.455c-3.764-0.438-5.87-0.71-6.319-0.814c-2.274-0.555-3.412-1.535-3.412-2.945
			c0-1.789,1.333-3.492,4-5.11c2.182-1.329,4.958-2.449,8.327-3.362c2.954-0.796,5.321-1.195,7.098-1.195
			c2.274,0,3.411,0.705,3.411,2.113c0,1.212-1.056,2.639-3.167,4.277c-2.043,1.581-3.711,2.369-5.004,2.369
			c-1.039,0-1.559-0.356-1.559-1.072c0-0.6,0.594-1.305,1.784-2.112c1.132-0.763,2.014-1.142,2.649-1.142
			c0.219,0,0.33,0.068,0.33,0.207l-1.785,0.969c-1.188,0.646-1.806,1.12-1.852,1.421c0.058,0.081,0.156,0.121,0.294,0.121
			c0.833,0,2.205-0.555,4.113-1.662c2.024-1.177,3.037-2.147,3.037-2.908c0-0.668-0.809-1.004-2.426-1.004
			c-1.848,0-4.453,0.531-7.814,1.596c-2.265,0.717-4.251,1.48-5.96,2.29c-2.958,1.388-4.437,2.641-4.437,3.762
			c0,0.718,0.936,1.249,2.805,1.596l5.557,0.717c2.17,0.323,3.491,0.797,3.964,1.422
			C350.953,457.274,351.212,457.979,351.212,458.683z"/>
		<path fill="#F5F5F5" d="M356.406,463.868c4.178-3.716,6.97-5.575,8.379-5.575c0.624,0,0.935,0.331,0.935,0.987
			c0,0.705-0.99,2.043-2.969,4.018c-1.98,1.973-2.97,3.132-2.97,3.479c0,0.324,0.317,0.486,0.953,0.486
			c0.162,0,0.243,0.092,0.243,0.275c0,0.221-0.284,0.331-0.848,0.331c-1.004,0-1.506-0.422-1.506-1.265
			c0-0.969,0.773-2.245,2.32-3.826c1.894-1.939,2.914-3.041,3.064-3.307c0.011-0.139-0.059-0.207-0.208-0.207
			c-0.634,0-2.251,1.103-4.847,3.307c-1.939,1.639-3.498,3.047-4.674,4.225c-0.475,0.473-0.86,0.818-1.162,1.037
			c-0.171,0-0.337-0.107-0.492-0.328c-0.157-0.219-0.235-0.422-0.235-0.605c0-0.267,0.791-1.402,2.372-3.411l2.753-3.463
			c-1.12,1.052-2.516,2.233-4.189,3.55L350,466.12c-1.673,1.143-2.96,1.715-3.861,1.715c-0.138,0-0.208-0.07-0.208-0.213
			c0-0.215,0.116-0.351,0.346-0.411c0.958-0.241,1.801-0.587,2.528-1.036c1.35-0.83,3.376-2.385,6.076-4.665l3.498-2.954
			c0.739-0.623,2.787-2.904,6.146-6.84c3.023-3.543,4.68-5.314,4.969-5.314c0.414,0,0.623,0.26,0.623,0.778
			c0,0.358-1.16,1.905-3.48,4.64L356.406,463.868z"/>
		<path fill="#F5F5F5" d="M367.072,464.192c-3.083,2.428-5.206,3.641-6.373,3.641c-0.137,0-0.207-0.078-0.207-0.232
			c0-0.213,0.137-0.343,0.415-0.391c1.084-0.174,2.585-1.01,4.501-2.51l2.233-1.75l3.584-2.856c1.639-1.131,3.041-1.696,4.207-1.696
			c0.865,0,1.352,0.434,1.455,1.301c0.451-0.428,0.763-0.643,0.935-0.643c0.381,0,0.571,0.156,0.571,0.471
			c0,0.404-0.885,1.641-2.656,3.709c-1.772,2.072-2.658,3.275-2.658,3.617c0,0.238,0.19,0.363,0.571,0.375
			c0.38,0.012,0.571,0.112,0.571,0.302c0,0.236-0.393,0.355-1.178,0.355c-0.772,0-1.159-0.341-1.159-1.023
			c0-0.543,0.312-1.319,0.936-2.324l-2.148,1.821c-1.05,0.787-1.888,1.18-2.51,1.18c-0.993,0-1.489-0.502-1.489-1.508
			C366.673,465.476,366.807,464.862,367.072,464.192z M375.675,459.107c-0.682,0-2.089,1.019-4.224,3.054
			c-2.136,2.037-3.203,3.395-3.203,4.077c0,0.313,0.15,0.47,0.451,0.47c0.657,0,2.068-0.998,4.233-2.994
			c2.163-1.994,3.245-3.34,3.245-4.034C376.177,459.299,376.01,459.107,375.675,459.107z"/>
		<path fill="#F5F5F5" d="M383.726,460.181c-0.059-0.381-0.088-0.611-0.088-0.692c0-0.312,0.373-0.8,1.116-1.464
			c0.745-0.664,1.255-0.994,1.533-0.994c0.266,0,0.398,0.12,0.398,0.363c0,0.207-0.145,0.555-0.433,1.039
			c1.304,0,1.956,0.518,1.956,1.555c0,0.817-0.84,2.122-2.519,3.913c-1.679,1.792-2.52,2.797-2.52,3.017
			c0,0.207,0.108,0.322,0.325,0.344l0.562-0.017c0.159,0,0.238,0.095,0.238,0.284c0,0.237-0.335,0.355-1.004,0.355
			c-0.854,0-1.281-0.381-1.281-1.142c0-0.751,0.425-1.686,1.277-2.805c0.527-0.704,1.315-1.575,2.363-2.614
			c0.851-0.843,1.276-1.305,1.276-1.385c0-0.174-0.097-0.26-0.292-0.26c-0.171,0-0.497,0.065-0.979,0.197
			c-0.481,0.133-0.768,0.24-0.857,0.32c-5.367,5.091-8.986,7.635-10.855,7.635c-0.139,0-0.208-0.076-0.208-0.231
			c0-0.201,0.157-0.331,0.468-0.392c0.381-0.068,0.884-0.248,1.506-0.534c0.936-0.415,2.33-1.398,4.189-2.952
			C381.549,462.352,382.825,461.171,383.726,460.181z"/>
		<path fill="#F5F5F5" d="M391.672,463.212l-3.566,2.717c-1.823,1.271-3.186,1.904-4.087,1.904c-0.138,0-0.207-0.07-0.207-0.213
			c0-0.225,0.116-0.362,0.347-0.41c0.704-0.127,1.304-0.328,1.8-0.604c0.865-0.473,2.274-1.48,4.225-3.024l4.569-3.749
			c0.878-0.771,1.414-1.157,1.61-1.157c0.291,0,0.611,0.163,0.961,0.485c0.667-0.508,1.259-0.762,1.778-0.762
			c0.781,0,1.173,0.421,1.173,1.264c0,1.258-1.005,2.973-3.013,5.142c-2.043,2.194-3.694,3.29-4.951,3.29
			c-1.178,0-1.766-0.617-1.766-1.854C390.547,465.595,390.922,464.585,391.672,463.212z M395.845,461.081
			c-2.355,2.061-3.531,3.74-3.531,5.037c0,0.556,0.265,0.833,0.795,0.833c0.866,0,2.217-1.049,4.052-3.147
			c-0.969-0.231-1.454-0.854-1.454-1.872C395.706,461.664,395.752,461.382,395.845,461.081z M397.541,463.247
			c0.427-0.406,0.854-0.957,1.283-1.652c0.473-0.799,0.709-1.437,0.709-1.912c0-0.441-0.191-0.662-0.571-0.662
			c-0.565,0-1.135,0.357-1.706,1.07c-0.57,0.713-0.856,1.358-0.856,1.939C396.398,462.679,396.779,463.085,397.541,463.247z"/>
		<path fill="#F5F5F5" d="M408.034,462.587c3.173-2.689,5.4-4.033,6.682-4.033c0.819,0,1.229,0.387,1.229,1.16
			c0,0.682-0.93,1.913-2.787,3.697c-1.859,1.783-2.787,2.859-2.787,3.229s0.209,0.568,0.632,0.597
			c0.421,0.03,0.632,0.13,0.632,0.304c0,0.231-0.418,0.346-1.255,0.346c-0.964,0-1.446-0.428-1.446-1.283
			c0-0.717,0.461-1.625,1.385-2.725c0.474-0.564,1.327-1.439,2.563-2.619c0.924-0.878,1.385-1.41,1.385-1.596
			c0-0.15-0.103-0.226-0.311-0.226c-0.658,0-2.089,0.879-4.293,2.638c-1.836,1.458-3.197,2.654-4.087,3.592
			c-1.131,1.191-1.817,1.787-2.06,1.787c-0.186,0-0.352-0.09-0.502-0.27c-0.15-0.178-0.225-0.365-0.225-0.562
			c0-0.267,0.796-1.339,2.389-3.22l2.856-3.377l-4.432,3.601l-3.271,2.51c-1.662,1.132-2.938,1.696-3.826,1.696
			c-0.149,0-0.226-0.068-0.226-0.206c0-0.208,0.162-0.347,0.485-0.416c0.438-0.08,0.952-0.254,1.541-0.52
			c0.843-0.37,2.562-1.604,5.158-3.705c2.331-1.892,4.011-3.341,5.039-4.345c0.173-0.174,0.444-0.381,0.813-0.625
			c0.185-0.068,0.381-0.103,0.589-0.103c0.196,0,0.396,0.065,0.597,0.198c0.202,0.133,0.305,0.293,0.305,0.477
			C410.803,458.796,409.879,460.13,408.034,462.587z"/>
	</g>
</g>
<g>
	<path fill="#FFFFFF" d="M127.198-15.324l3.213,25.156l8.032-24.097l3.521,0.205l3.828,25.908l6.938-25.532l9.468,0.957l-14.8,51.68
		l-4.341-0.308l-4.819-23.14l-7.28,22.456l-5.161-0.342l-7.212-53.218L127.198-15.324z"/>
	<path fill="#FFFFFF" d="M182.193,32.493l-2.358,5.332l-10.22-0.581l21.738-52.773l8.066,0.137L212.1,38.953l-11.006-0.444
		l-1.128-4.956L182.193,32.493z M194.019,1.561l-8.613,22.114l13.228,0.854L194.019,1.561z"/>
	<path fill="#FFFFFF" d="M224.2-15.803l19.653,1.06c1.185,0.091,2.125,0.183,2.82,0.273c0.695,0.091,1.287,0.205,1.777,0.342
		c0.49,0.137,0.945,0.313,1.367,0.53c0.421,0.217,0.94,0.439,1.555,0.667c2.552,1.025,4.489,2.678,5.811,4.956
		c0.319,0.57,0.592,1.333,0.82,2.29c0.228,0.957,0.393,1.96,0.496,3.008c0.103,1.048,0.165,2.097,0.188,3.145
		c0.022,1.048,0.011,1.971-0.034,2.769c-0.251,2.757-1.014,5.104-2.29,7.041c-1.276,1.937-3.02,3.464-5.229,4.58
		c-0.638,0.319-1.589,0.53-2.854,0.632s-2.478,0.245-3.64,0.427c0.137,0.228,0.45,0.729,0.94,1.504
		c0.49,0.775,1.259,2.022,2.307,3.743c1.048,1.721,2.438,4.039,4.17,6.956c1.731,2.917,3.896,6.688,6.494,11.313l-10.562-0.718
		l-9.434-15.244c-0.296-0.456-0.627-1.048-0.991-1.777c-0.365-0.729-0.747-1.453-1.145-2.17c-0.399-0.718-0.764-1.361-1.094-1.931
		c-0.331-0.569-0.587-0.945-0.769-1.128c-0.273-0.182-0.473-0.33-0.598-0.444c-0.125-0.114-0.234-0.182-0.325-0.205
		c-0.091-0.022-0.228-0.045-0.41-0.068c-0.183-0.022-0.433-0.034-0.752-0.034l-1.401-0.137l-1.982,20.986l-8.887-0.854L224.2-15.803
		z M238.624,5.184c0.182,0,0.541,0.017,1.077,0.051c0.535,0.034,1.133,0.051,1.794,0.051c0.638,0,1.321-0.017,2.051-0.051
		c0.729-0.034,1.344-0.097,1.846-0.188c1.048-0.091,1.965-0.541,2.751-1.35c0.786-0.809,1.225-1.783,1.316-2.922
		c0.045-0.456,0.08-0.872,0.103-1.248c0.022-0.376-0.012-0.763-0.103-1.162c-0.091-0.398-0.251-0.82-0.479-1.265
		c-0.228-0.444-0.604-0.94-1.128-1.487c-0.365-0.433-0.837-0.774-1.418-1.025c-0.581-0.25-1.213-0.444-1.897-0.581
		s-1.362-0.239-2.034-0.308c-0.672-0.068-1.293-0.137-1.863-0.205l-7.622-0.479l-0.991,11.758L238.624,5.184z"/>
	<path fill="#FFFFFF" d="M295.328-7.736c0.319-0.843,0.837-1.731,1.555-2.666c0.718-0.934,1.663-1.789,2.837-2.563
		c1.173-0.774,2.541-1.418,4.102-1.931c1.561-0.513,3.367-0.769,5.417-0.769c4.489,0,8.095,0.41,10.818,1.23
		c2.723,0.82,4.848,2.313,6.375,4.478c1.526,2.165,2.546,5.173,3.059,9.023c0.513,3.851,0.769,8.807,0.769,14.868
		c0,4.398-0.211,8.186-0.632,11.365c-0.422,3.179-1.356,5.793-2.803,7.844c-1.447,2.051-3.526,3.543-6.238,4.478
		c-2.712,0.935-6.357,1.333-10.938,1.196c-2.598,0.365-4.865,0.091-6.802-0.82c-1.937-0.911-3.572-2.244-4.905-3.999
		c-1.333-1.754-2.41-3.845-3.23-6.272s-1.413-4.99-1.777-7.69c-0.365-2.7-0.559-5.44-0.581-8.22
		c-0.023-2.78,0.091-5.417,0.342-7.913c0.25-2.495,0.609-4.734,1.077-6.716c0.467-1.982,0.985-3.532,1.555-4.648V-7.736z
		 M301.685,18.514c0.319,0.98,0.644,2.108,0.974,3.384c0.33,1.276,0.763,2.501,1.299,3.674c0.535,1.174,1.236,2.165,2.102,2.974
		c0.866,0.809,1.971,1.213,3.315,1.213c1.641,0,3.252-0.193,4.836-0.581c1.583-0.387,2.842-1.128,3.777-2.222
		c0.479-0.547,0.866-1.276,1.162-2.188c0.296-0.911,0.552-1.937,0.769-3.076c0.216-1.139,0.37-2.387,0.461-3.743
		c0.091-1.355,0.137-2.74,0.137-4.153c0-4.854-0.211-8.596-0.632-11.228c-0.422-2.632-1.088-4.557-2-5.776
		c-0.912-1.219-2.057-1.931-3.435-2.136c-1.379-0.205-3.025-0.308-4.939-0.308c-3.122,0-5.287,1.202-6.494,3.606
		c-1.208,2.404-1.812,6.192-1.812,11.365L301.685,18.514z"/>
	<path fill="#FFFFFF" d="M373.565-16.281l0.342,7.827L349.4-6.643l0.581,10.732l19.653-1.265l0.718,9.741l-19.893,1.538
		l1.196,24.541l-8.408,0.649l-2.666-53.423L373.565-16.281z"/>
	<path fill="#FFFFFF" d="M442.71-16.076l0.342,8.75l-13.569,0.991l2.871,44.57l-8.34,0.581L419.913-5.72l-12.954,1.47l-0.444-8.818
		L442.71-16.076z"/>
	<path fill="#FFFFFF" d="M463.492-14.948l1.812,21.978l14.8-1.265l-0.581-21.431l10.938-0.547l2.802,53.628l-10.937,0.547
		l-1.265-22.388L465.816,16.6l0.479,22.114l-9.81,0.103l-2.769-53.628L463.492-14.948z"/>
	<path fill="#FFFFFF" d="M535.508-15.939l-0.273,8.066l-21.498,0.137l1.4,17.192L532.5,8.055l0.582,8.477l-17.227-0.137
		l1.195,16.611l19.859-0.649l0.273,5.605l-31.617,0.684l-1.059-53.594L535.508-15.939z"/>
	<path fill="#FFFFFF" d="M579.977-15.324l3.213,25.156l8.031-24.097l3.521,0.205l3.828,25.908l6.938-25.532l9.469,0.957
		l-14.801,51.68l-4.34-0.308l-4.82-23.14l-7.279,22.456l-5.162-0.342l-7.211-53.218L579.977-15.324z"/>
	<path fill="#FFFFFF" d="M628.34-7.736c0.318-0.843,0.838-1.731,1.555-2.666c0.719-0.934,1.664-1.789,2.838-2.563
		c1.174-0.774,2.541-1.418,4.102-1.931s3.367-0.769,5.418-0.769c4.488,0,8.094,0.41,10.816,1.23s4.848,2.313,6.375,4.478
		c1.527,2.165,2.547,5.173,3.059,9.023c0.514,3.851,0.77,8.807,0.77,14.868c0,4.398-0.211,8.186-0.633,11.365
		s-1.355,5.793-2.803,7.844s-3.525,3.543-6.236,4.478c-2.713,0.935-6.357,1.333-10.938,1.196c-2.598,0.365-4.865,0.091-6.803-0.82
		c-1.938-0.911-3.572-2.244-4.904-3.999c-1.334-1.754-2.41-3.845-3.23-6.272s-1.412-4.99-1.777-7.69s-0.559-5.44-0.58-8.22
		c-0.023-2.78,0.09-5.417,0.342-7.913c0.25-2.495,0.609-4.734,1.076-6.716s0.984-3.532,1.555-4.648V-7.736z M634.697,18.514
		c0.318,0.98,0.645,2.108,0.975,3.384c0.33,1.276,0.764,2.501,1.299,3.674c0.535,1.174,1.236,2.165,2.102,2.974
		c0.865,0.809,1.971,1.213,3.316,1.213c1.641,0,3.252-0.193,4.836-0.581c1.584-0.387,2.842-1.128,3.777-2.222
		c0.479-0.547,0.865-1.276,1.162-2.188c0.295-0.911,0.551-1.937,0.768-3.076c0.217-1.139,0.371-2.387,0.463-3.743
		c0.09-1.355,0.137-2.74,0.137-4.153c0-4.854-0.211-8.596-0.633-11.228s-1.088-4.557-2-5.776c-0.912-1.219-2.057-1.931-3.436-2.136
		s-3.023-0.308-4.938-0.308c-3.123,0-5.287,1.202-6.494,3.606c-1.209,2.404-1.813,6.192-1.813,11.365L634.697,18.514z"/>
	<path fill="#FFFFFF" d="M677.252-15.803l19.652,1.06c1.186,0.091,2.125,0.183,2.82,0.273c0.695,0.091,1.287,0.205,1.777,0.342
		s0.945,0.313,1.367,0.53c0.422,0.217,0.939,0.439,1.555,0.667c2.553,1.025,4.488,2.678,5.811,4.956
		c0.318,0.57,0.592,1.333,0.82,2.29s0.393,1.96,0.496,3.008c0.102,1.048,0.164,2.097,0.188,3.145
		c0.023,1.048,0.012,1.971-0.033,2.769c-0.252,2.757-1.016,5.104-2.291,7.041c-1.275,1.937-3.02,3.464-5.229,4.58
		c-0.639,0.319-1.59,0.53-2.855,0.632c-1.264,0.103-2.477,0.245-3.639,0.427c0.137,0.228,0.449,0.729,0.939,1.504
		c0.49,0.775,1.258,2.022,2.307,3.743c1.049,1.721,2.438,4.039,4.17,6.956c1.732,2.917,3.896,6.688,6.494,11.313l-10.561-0.718
		l-9.434-15.244c-0.297-0.456-0.627-1.048-0.992-1.777c-0.365-0.729-0.746-1.453-1.145-2.17s-0.764-1.361-1.094-1.931
		c-0.33-0.569-0.588-0.945-0.77-1.128c-0.273-0.182-0.473-0.33-0.598-0.444c-0.125-0.114-0.234-0.182-0.324-0.205
		c-0.092-0.022-0.229-0.045-0.41-0.068c-0.184-0.022-0.434-0.034-0.752-0.034l-1.402-0.137l-1.982,20.986l-8.887-0.854
		L677.252-15.803z M691.676,5.184c0.182,0,0.541,0.017,1.076,0.051s1.133,0.051,1.795,0.051c0.637,0,1.32-0.017,2.051-0.051
		c0.729-0.034,1.344-0.097,1.846-0.188c1.047-0.091,1.965-0.541,2.75-1.35c0.787-0.809,1.225-1.783,1.316-2.922
		c0.045-0.456,0.08-0.872,0.104-1.248c0.021-0.376-0.012-0.763-0.104-1.162c-0.092-0.398-0.25-0.82-0.479-1.265
		s-0.604-0.94-1.127-1.487c-0.365-0.433-0.838-0.774-1.42-1.025c-0.58-0.25-1.213-0.444-1.896-0.581s-1.361-0.239-2.033-0.308
		s-1.293-0.137-1.863-0.205l-7.621-0.479l-0.992,11.758L691.676,5.184z"/>
	<path fill="#FFFFFF" d="M730.025-14.812l3.998,43.887l24.131-1.128l0.582,9.468l-35.205,1.606l-2.393-53.696L730.025-14.812z"/>
	<path fill="#FFFFFF" d="M782.217-16.076c2.256,0,4.199,0.114,5.828,0.342c1.629,0.228,3.064,0.598,4.307,1.111s2.33,1.179,3.264,2
		s1.857,1.812,2.77,2.974c0.889,1.117,1.566,2.609,2.033,4.478c0.467,1.869,0.809,3.857,1.025,5.964
		c0.217,2.108,0.324,4.233,0.324,6.375c0,2.142,0,4.079,0,5.811c0,1.345,0.012,2.495,0.035,3.452
		c0.021,0.957,0.01,1.948-0.035,2.974s-0.131,2.193-0.256,3.503c-0.125,1.311-0.324,2.991-0.598,5.042
		c-0.137,0.889-0.406,1.8-0.805,2.734c-0.398,0.935-0.934,1.823-1.605,2.666c-0.672,0.843-1.465,1.578-2.375,2.205
		c-0.912,0.627-1.949,1.1-3.111,1.418c-0.844,0.251-1.777,0.479-2.803,0.684s-2.051,0.399-3.076,0.581
		c-1.025,0.183-2.006,0.325-2.939,0.427s-1.754,0.154-2.461,0.154h-13.363v-54.893H782.217z M778.525,27.127
		c0.318-0.068,0.809-0.159,1.471-0.273c0.66-0.114,1.338-0.25,2.033-0.41c0.695-0.159,1.367-0.336,2.016-0.53
		c0.65-0.193,1.141-0.381,1.471-0.564c0.33-0.182,0.705-0.387,1.127-0.615c0.422-0.228,0.855-0.575,1.299-1.042
		c0.445-0.467,0.877-1.077,1.299-1.829s0.793-1.731,1.111-2.939c0.137-0.569,0.297-1.259,0.479-2.068
		c0.182-0.809,0.348-1.692,0.496-2.649s0.256-1.937,0.324-2.939c0.068-1.002,0.057-1.971-0.033-2.905
		c-0.229-2.21-0.463-3.999-0.701-5.366c-0.24-1.367-0.496-2.495-0.77-3.384s-0.576-1.601-0.906-2.136
		c-0.33-0.535-0.711-1.065-1.145-1.589c-0.41-0.456-1.059-0.814-1.947-1.077c-0.889-0.262-1.836-0.427-2.838-0.496
		s-1.971-0.091-2.904-0.068c-0.936,0.023-1.676,0.057-2.223,0.103L778.525,27.127z"/>
	<path fill="#FFFFFF" d="M821.592,25.862c0.092,0.593,0.193,1.065,0.309,1.418c0.113,0.354,0.238,0.672,0.375,0.957
		c0.137,0.285,0.303,0.53,0.496,0.735s0.404,0.467,0.633,0.786c0.41,0.524,0.848,0.889,1.314,1.094s0.969,0.331,1.504,0.376
		c0.535,0.046,1.135,0.046,1.795,0c0.66-0.045,1.355-0.068,2.086-0.068c1.139,0,2.17-0.222,3.092-0.667
		c0.924-0.444,1.738-0.991,2.445-1.641c0.705-0.649,1.258-1.361,1.656-2.136c0.398-0.774,0.6-1.504,0.6-2.188
		c0-0.342,0.01-0.769,0.033-1.282s0.023-1.025,0-1.538s-0.098-1.002-0.223-1.47c-0.125-0.467-0.324-0.837-0.598-1.111
		s-0.598-0.609-0.975-1.008c-0.375-0.398-0.854-0.786-1.436-1.162c-0.58-0.376-1.293-0.729-2.135-1.06
		c-0.844-0.33-1.893-0.564-3.145-0.701c-1.824-0.182-3.316-0.387-4.479-0.615c-1.162-0.228-2.143-0.518-2.939-0.872
		c-0.797-0.353-1.498-0.763-2.102-1.23c-0.604-0.467-1.26-1.031-1.965-1.692c-1.436-1.299-2.461-2.951-3.076-4.956
		c-0.615-2.005-0.924-3.987-0.924-5.947c0.092-1.914,0.244-3.794,0.461-5.64s0.814-3.48,1.795-4.905
		c0.98-1.424,2.529-2.558,4.648-3.401c2.119-0.843,5.115-1.242,8.99-1.196c2.984,0.251,5.41,0.587,7.279,1.008
		c1.869,0.422,3.373,1.083,4.512,1.982c1.139,0.9,2.027,2.136,2.666,3.708s1.186,3.589,1.641,6.05h-8.613
		c-0.318-1.299-0.803-2.335-1.453-3.11c-0.648-0.774-1.314-1.344-1.998-1.709C833.18-7.69,832.559-7.936,832-8.061
		c-0.559-0.125-0.883-0.21-0.975-0.256c-0.889-0.228-1.754-0.308-2.598-0.239s-1.623,0.234-2.342,0.496
		c-0.717,0.262-1.344,0.604-1.879,1.025c-0.535,0.422-0.951,0.86-1.248,1.316c-0.365,0.615-0.615,1.271-0.752,1.965
		c-0.137,0.695-0.229,1.379-0.273,2.051c-0.045,0.672-0.045,1.282,0,1.829s0.113,0.935,0.205,1.162
		c0.182,0.798,0.529,1.51,1.043,2.136c0.512,0.627,1.094,1.185,1.742,1.675c0.65,0.49,1.34,0.9,2.068,1.23
		c0.729,0.331,1.447,0.564,2.154,0.701c1.662,0.365,2.984,0.638,3.965,0.82c0.979,0.183,1.799,0.371,2.461,0.564
		c0.66,0.194,1.234,0.382,1.725,0.564c0.49,0.183,1.111,0.467,1.863,0.854c2.826,1.436,4.945,3.27,6.357,5.503
		c1.344,2.21,2.018,4.694,2.018,7.451c0,3.213-0.885,6.169-2.65,8.87s-4.266,4.757-7.502,6.169
		c-0.775,0.319-1.338,0.564-1.691,0.735s-0.695,0.279-1.025,0.325c-0.33,0.046-0.77,0.068-1.316,0.068c-0.57,0-1.459,0-2.666,0
		c-2.096,0-3.846-0.051-5.246-0.154c-1.402-0.103-2.604-0.279-3.605-0.53c-1.004-0.25-1.881-0.621-2.633-1.111
		c-0.752-0.49-1.549-1.133-2.393-1.931c-0.844-0.843-1.486-1.543-1.932-2.102c-0.443-0.558-0.779-1.139-1.008-1.743
		c-0.229-0.604-0.387-1.316-0.479-2.136s-0.182-1.857-0.273-3.11L821.592,25.862z"/>
	<path fill="#FFFFFF" d="M856.695,3.201h14.867v13.945h-14.867V3.201z M856.695,25.555h14.867V39.5h-14.867V25.555z"/>
</g>
<g>
	<path fill="#FFFFFF" d="M276.584,61.605l0.342,8.75l-13.569,0.991l2.871,44.57l-8.34,0.581l-4.102-44.536l-12.954,1.47
		l-0.444-8.818L276.584,61.605z"/>
	<path fill="#FFFFFF" d="M297.365,62.733l1.812,21.978l14.8-1.265l-0.581-21.431l10.938-0.547l2.803,53.628l-10.938,0.547
		l-1.265-22.388l-15.244,1.025l0.479,22.114l-9.81,0.103L287.59,62.87L297.365,62.733z"/>
	<path fill="#FFFFFF" d="M372.526,61.468l2.256,32.539c0.091,1.504,0.137,3.02,0.137,4.546c0,1.504-0.103,2.991-0.308,4.46
		s-0.553,2.871-1.042,4.204c-0.49,1.333-1.202,2.535-2.136,3.606c-0.479,0.501-0.872,0.906-1.179,1.213s-0.61,0.576-0.906,0.803
		c-0.296,0.228-0.621,0.427-0.974,0.598c-0.354,0.171-0.781,0.371-1.282,0.598c-0.752,0.273-1.293,0.479-1.624,0.615
		c-0.331,0.137-0.655,0.256-0.974,0.359c-0.319,0.103-0.752,0.211-1.299,0.325c-0.547,0.114-1.379,0.308-2.495,0.581
		c-0.593,0.137-1.123,0.268-1.589,0.393c-0.467,0.125-0.923,0.211-1.367,0.256c-0.444,0.046-0.935,0.08-1.47,0.103
		c-0.536,0.023-1.157,0.012-1.863-0.034c-1.458-0.091-2.626-0.222-3.503-0.393c-0.877-0.171-1.806-0.484-2.786-0.94
		c-0.98-0.433-1.812-0.86-2.495-1.282c-0.684-0.421-1.271-0.889-1.76-1.401c-0.49-0.513-0.912-1.105-1.265-1.777
		c-0.354-0.672-0.712-1.498-1.077-2.478c-0.273-0.752-0.53-1.697-0.769-2.837c-0.239-1.139-0.439-2.307-0.598-3.503
		c-0.16-1.196-0.296-2.318-0.41-3.367c-0.114-1.048-0.194-1.868-0.239-2.461l-1.914-32.3l9.331-0.615l2.529,36.128
		c0.182,2.803,0.82,4.876,1.914,6.221c1.094,1.345,2.996,1.926,5.708,1.743c2.643-0.137,4.677-1.008,6.101-2.615
		c1.424-1.606,2.045-3.811,1.863-6.614l-2.939-36.06L372.526,61.468z"/>
	<path fill="#FFFFFF" d="M398.229,62.083L408.381,87l2.324-23.994l10.425,0.889l-4.546,53.081l-8.203-1.606l-11.689-24.507
		l-2.222,24.233l-10.22-0.991l4.478-53.047L398.229,62.083z"/>
	<path fill="#FFFFFF" d="M446.525,61.605c2.256,0,4.198,0.114,5.828,0.342c1.629,0.228,3.064,0.598,4.307,1.111
		c1.242,0.513,2.33,1.179,3.264,2c0.934,0.82,1.857,1.812,2.769,2.974c0.889,1.117,1.566,2.609,2.034,4.478
		c0.467,1.869,0.809,3.857,1.025,5.964c0.216,2.108,0.325,4.233,0.325,6.375c0,2.142,0,4.079,0,5.811
		c0,1.345,0.011,2.495,0.034,3.452c0.022,0.957,0.011,1.948-0.034,2.974c-0.046,1.025-0.131,2.193-0.256,3.503
		c-0.125,1.311-0.325,2.991-0.598,5.042c-0.137,0.889-0.405,1.8-0.803,2.734c-0.399,0.935-0.935,1.823-1.606,2.666
		c-0.672,0.843-1.464,1.578-2.375,2.205c-0.912,0.627-1.948,1.1-3.11,1.418c-0.843,0.251-1.777,0.479-2.803,0.684
		s-2.051,0.399-3.076,0.581c-1.025,0.183-2.005,0.325-2.939,0.427c-0.935,0.103-1.755,0.154-2.461,0.154h-13.364V61.605H446.525z
		 M442.834,104.808c0.319-0.068,0.809-0.159,1.47-0.273c0.661-0.114,1.338-0.25,2.034-0.41c0.695-0.159,1.367-0.336,2.017-0.53
		c0.649-0.193,1.139-0.381,1.47-0.564c0.33-0.182,0.706-0.387,1.128-0.615c0.421-0.228,0.854-0.575,1.299-1.042
		c0.444-0.467,0.877-1.077,1.299-1.829c0.421-0.752,0.792-1.731,1.111-2.939c0.137-0.569,0.296-1.259,0.479-2.068
		c0.182-0.809,0.347-1.692,0.496-2.649c0.148-0.957,0.256-1.937,0.325-2.939c0.068-1.002,0.057-1.971-0.034-2.905
		c-0.228-2.21-0.461-3.999-0.701-5.366s-0.496-2.495-0.769-3.384s-0.576-1.601-0.906-2.136c-0.331-0.535-0.712-1.065-1.145-1.589
		c-0.41-0.456-1.06-0.814-1.948-1.077c-0.889-0.262-1.834-0.427-2.837-0.496c-1.003-0.068-1.971-0.091-2.905-0.068
		c-0.935,0.023-1.675,0.057-2.222,0.103L442.834,104.808z"/>
	<path fill="#FFFFFF" d="M508.767,61.742l-0.273,8.066l-21.499,0.137l1.401,17.192l17.363-1.401l0.581,8.477l-17.227-0.137
		l1.196,16.611l19.858-0.649l0.273,5.605l-31.616,0.684l-1.06-53.594L508.767,61.742z"/>
	<path fill="#FFFFFF" d="M524.66,61.878l19.653,1.06c1.185,0.091,2.124,0.183,2.819,0.273c0.695,0.091,1.287,0.205,1.777,0.342
		s0.945,0.313,1.367,0.53c0.422,0.217,0.94,0.439,1.556,0.667c2.552,1.025,4.489,2.678,5.811,4.956
		c0.319,0.57,0.593,1.333,0.82,2.29s0.394,1.96,0.495,3.008c0.104,1.048,0.166,2.097,0.188,3.145
		c0.022,1.048,0.011,1.971-0.034,2.769c-0.251,2.757-1.014,5.104-2.29,7.041c-1.276,1.937-3.02,3.464-5.229,4.58
		c-0.639,0.319-1.59,0.53-2.854,0.632c-1.266,0.103-2.479,0.245-3.641,0.427c0.137,0.228,0.449,0.729,0.939,1.504
		c0.49,0.775,1.26,2.022,2.308,3.743c1.048,1.721,2.438,4.039,4.17,6.956c1.731,2.917,3.896,6.688,6.494,11.313l-10.562-0.718
		l-9.434-15.244c-0.297-0.456-0.627-1.048-0.991-1.777c-0.364-0.729-0.747-1.453-1.146-2.17s-0.764-1.361-1.094-1.931
		c-0.33-0.569-0.586-0.945-0.769-1.128c-0.273-0.182-0.474-0.33-0.599-0.444c-0.125-0.114-0.233-0.182-0.324-0.205
		c-0.092-0.022-0.229-0.045-0.41-0.068c-0.183-0.022-0.434-0.034-0.752-0.034l-1.401-0.137l-1.982,20.986l-8.887-0.854
		L524.66,61.878z M539.084,82.865c0.182,0,0.541,0.017,1.076,0.051s1.134,0.051,1.795,0.051c0.638,0,1.321-0.017,2.051-0.051
		c0.729-0.034,1.344-0.097,1.846-0.188c1.048-0.091,1.965-0.541,2.752-1.35c0.785-0.809,1.225-1.783,1.315-2.922
		c0.046-0.456,0.079-0.872,0.103-1.248c0.022-0.376-0.012-0.763-0.103-1.162c-0.091-0.398-0.251-0.82-0.479-1.265
		s-0.604-0.94-1.128-1.487c-0.365-0.433-0.838-0.774-1.418-1.025c-0.582-0.25-1.214-0.444-1.897-0.581s-1.362-0.239-2.034-0.308
		s-1.293-0.137-1.862-0.205l-7.622-0.479l-0.991,11.758L539.084,82.865z"/>
	<path fill="#FFFFFF" d="M604.47,101.219c0.046,3.031-0.251,5.526-0.889,7.485c-0.638,1.96-1.669,3.515-3.093,4.666
		c-1.425,1.151-3.276,1.971-5.555,2.461c-2.279,0.49-5.104,0.758-8.477,0.803c-1.254,0-2.604-0.097-4.051-0.291
		c-1.447-0.193-2.859-0.513-4.238-0.957s-2.66-1.048-3.845-1.812c-1.185-0.763-2.153-1.726-2.905-2.888
		c-0.661-0.979-1.162-2.404-1.504-4.272c-0.342-1.868-0.598-3.879-0.77-6.033c-0.17-2.153-0.256-4.301-0.256-6.443
		c0-2.142,0-3.987,0-5.537c0.045-3.874,0.143-7.36,0.291-10.459c0.147-3.099,0.711-5.748,1.691-7.947
		c0.979-2.199,2.563-3.914,4.751-5.144s5.332-1.891,9.434-1.982c3.418-0.091,6.294-0.045,8.63,0.137
		c2.336,0.183,4.21,0.718,5.623,1.606c1.412,0.889,2.473,2.233,3.179,4.033c0.706,1.8,1.173,4.261,1.401,7.383l-8.818,0.205
		c-0.137-0.364-0.217-0.678-0.239-0.94c-0.022-0.262-0.068-0.507-0.137-0.735c-0.068-0.228-0.159-0.484-0.273-0.769
		c-0.114-0.285-0.342-0.632-0.684-1.042c-0.364-0.524-0.837-0.928-1.419-1.213c-0.58-0.285-1.646-0.427-3.195-0.427
		c-1.117,0-2.097,0.04-2.939,0.12c-0.844,0.08-1.59,0.211-2.238,0.393c-0.65,0.183-1.242,0.427-1.777,0.735
		c-0.536,0.308-1.043,0.689-1.521,1.145c-0.889,0.935-1.516,2.256-1.88,3.965s-0.599,3.543-0.7,5.503
		c-0.104,1.96-0.115,3.879-0.035,5.759s0.12,3.481,0.12,4.802c0,1.39,0.022,2.729,0.068,4.016c0.046,1.288,0.137,2.467,0.273,3.538
		c0.137,1.071,0.358,2.005,0.667,2.803c0.307,0.798,0.734,1.379,1.281,1.743c0.433,0.273,0.809,0.484,1.128,0.632
		c0.319,0.148,0.667,0.245,1.042,0.291c0.377,0.046,0.809,0.046,1.299,0c0.49-0.045,1.134-0.068,1.932-0.068
		c1.436,0,2.678,0.012,3.726,0.034c1.048,0.023,1.925-0.108,2.632-0.393c0.706-0.285,1.293-0.797,1.76-1.538
		c0.467-0.74,0.86-1.885,1.18-3.435L604.47,101.219z"/>
	<path fill="#FFFFFF" d="M624.465,62.733l1.812,21.978l14.8-1.265l-0.581-21.431l10.938-0.547l2.803,53.628l-10.938,0.547
		l-1.265-22.388l-15.244,1.025l0.479,22.114l-9.81,0.103l-2.769-53.628L624.465,62.733z"/>
	<path fill="#FFFFFF" d="M678.093,61.195l0.82,55.986h-12.1V61.195H678.093z"/>
	<path fill="#FFFFFF" d="M698.601,62.87l3.999,43.887l24.131-1.128l0.581,9.468l-35.205,1.606l-2.393-53.696L698.601,62.87z"/>
	<path fill="#FFFFFF" d="M750.793,61.605c2.256,0,4.198,0.114,5.828,0.342c1.628,0.228,3.063,0.598,4.307,1.111
		c1.241,0.513,2.329,1.179,3.264,2c0.934,0.82,1.856,1.812,2.769,2.974c0.889,1.117,1.566,2.609,2.034,4.478
		c0.466,1.869,0.808,3.857,1.025,5.964c0.216,2.108,0.324,4.233,0.324,6.375c0,2.142,0,4.079,0,5.811
		c0,1.345,0.011,2.495,0.034,3.452c0.022,0.957,0.011,1.948-0.034,2.974c-0.046,1.025-0.132,2.193-0.256,3.503
		c-0.126,1.311-0.325,2.991-0.599,5.042c-0.137,0.889-0.405,1.8-0.804,2.734c-0.398,0.935-0.935,1.823-1.605,2.666
		c-0.673,0.843-1.465,1.578-2.376,2.205c-0.912,0.627-1.948,1.1-3.11,1.418c-0.844,0.251-1.777,0.479-2.803,0.684
		s-2.051,0.399-3.076,0.581c-1.025,0.183-2.006,0.325-2.939,0.427c-0.935,0.103-1.755,0.154-2.461,0.154H736.95V61.605H750.793z
		 M747.102,104.808c0.318-0.068,0.809-0.159,1.47-0.273c0.66-0.114,1.338-0.25,2.034-0.41c0.694-0.159,1.367-0.336,2.016-0.53
		c0.65-0.193,1.14-0.381,1.471-0.564c0.329-0.182,0.705-0.387,1.127-0.615c0.422-0.228,0.855-0.575,1.299-1.042
		c0.445-0.467,0.877-1.077,1.299-1.829s0.792-1.731,1.111-2.939c0.137-0.569,0.296-1.259,0.479-2.068
		c0.182-0.809,0.347-1.692,0.496-2.649c0.147-0.957,0.256-1.937,0.324-2.939c0.068-1.002,0.057-1.971-0.034-2.905
		c-0.229-2.21-0.462-3.999-0.7-5.366c-0.24-1.367-0.496-2.495-0.77-3.384s-0.576-1.601-0.906-2.136
		c-0.33-0.535-0.712-1.065-1.145-1.589c-0.41-0.456-1.06-0.814-1.948-1.077c-0.889-0.262-1.835-0.427-2.837-0.496
		c-1.003-0.068-1.972-0.091-2.905-0.068c-0.935,0.023-1.675,0.057-2.222,0.103L747.102,104.808z"/>
</g>
</svg>
