<?xml version="1.0" encoding="utf-8"?>
<!-- Generator: Adobe Illustrator 15.1.0, SVG Export Plug-In . SVG Version: 6.00 Build 0)  -->
<!DOCTYPE svg PUBLIC "-//W3C//DTD SVG 1.1//EN" "http://www.w3.org/Graphics/SVG/1.1/DTD/svg11.dtd">
<svg version="1.1" xmlns="http://www.w3.org/2000/svg" xmlns:xlink="http://www.w3.org/1999/xlink" x="0px" y="0px" width="742px"
	 height="164px" viewBox="0 0 742 164" enable-background="new 0 0 742 164" xml:space="preserve">
<g id="bg">
</g>
<g id="tripod">
</g>
<g id="kenny">
</g>
<g id="kyle">
</g>
<g id="cartman">
</g>
<g id="stan">
</g>
<g id="boat">
</g>
<g id="text">
	<g>
		<path fill="#FFFFFF" d="M101.653,17.192l0.846,21.65l-33.574,2.453l7.104,110.279l-20.635,1.438L45.245,42.817l-32.052,3.636
			l-1.1-21.819L101.653,17.192z"/>
		<path fill="#FFFFFF" d="M153.072,19.983l4.482,54.378l36.619-3.129l-1.438-53.025l27.063-1.354l6.935,132.69l-27.062,1.354
			l-3.129-55.393l-37.718,2.537l1.184,54.716l-24.271,0.254l-6.85-132.69L153.072,19.983z"/>
		<path fill="#FFFFFF" d="M331.26,17.531l-0.677,19.958l-53.194,0.338l3.467,42.539l42.962-3.467l1.438,20.973l-42.623-0.338
			l2.96,41.101l49.135-1.607l0.677,13.87l-78.227,1.691l-2.622-132.605L331.26,17.531z"/>
		<path fill="#FFFFFF" d="M497.863,17.531l-0.677,19.958l-53.194,0.338l3.467,42.539l42.962-3.467l1.438,20.973l-42.623-0.338
			l2.96,41.101l49.135-1.607l0.677,13.87l-78.228,1.691l-2.621-132.605L497.863,17.531z"/>
		<path fill="#FFFFFF" d="M560.19,18.376l25.117,61.651l5.751-59.368l25.794,2.199l-11.248,131.336l-20.297-3.975l-28.923-60.636
			l-5.497,59.959l-25.286-2.452l11.078-131.252L560.19,18.376z"/>
		<path fill="#FFFFFF" d="M679.687,17.192c5.582,0,10.388,0.283,14.42,0.846c4.03,0.564,7.582,1.48,10.655,2.749
			c3.072,1.269,5.764,2.918,8.076,4.947c2.312,2.03,4.595,4.482,6.851,7.358c2.199,2.763,3.876,6.456,5.032,11.079
			c1.154,4.624,2,9.543,2.537,14.757c0.535,5.215,0.803,10.474,0.803,15.772c0,5.3,0,10.093,0,14.376
			c0,3.328,0.028,6.174,0.085,8.542c0.056,2.368,0.027,4.82-0.085,7.357c-0.113,2.537-0.325,5.427-0.634,8.668
			c-0.311,3.243-0.804,7.4-1.48,12.474c-0.338,2.199-1.001,4.454-1.987,6.766c-0.987,2.313-2.313,4.512-3.975,6.597
			c-1.664,2.086-3.623,3.904-5.878,5.455s-4.82,2.721-7.695,3.509c-2.087,0.621-4.397,1.185-6.935,1.691
			c-2.537,0.508-5.074,0.987-7.611,1.438s-4.962,0.803-7.273,1.057c-2.313,0.254-4.342,0.381-6.089,0.381h-33.066V17.192H679.687z
			 M670.554,124.089c0.788-0.169,2-0.394,3.636-0.677c1.635-0.281,3.312-0.62,5.032-1.015c1.719-0.394,3.383-0.831,4.989-1.311
			c1.607-0.478,2.819-0.943,3.637-1.395c0.816-0.451,1.747-0.958,2.791-1.522c1.043-0.563,2.114-1.423,3.214-2.58
			c1.1-1.155,2.17-2.664,3.214-4.524c1.042-1.86,1.958-4.284,2.748-7.273c0.338-1.409,0.732-3.114,1.184-5.116
			c0.451-2.001,0.859-4.187,1.227-6.554c0.366-2.368,0.635-4.792,0.804-7.273c0.169-2.48,0.14-4.876-0.085-7.188
			c-0.564-5.468-1.142-9.895-1.733-13.278s-1.227-6.173-1.903-8.372c-0.676-2.199-1.424-3.96-2.24-5.286
			c-0.818-1.324-1.763-2.635-2.834-3.933c-1.015-1.127-2.621-2.015-4.82-2.664c-2.198-0.647-4.539-1.057-7.019-1.226
			c-2.482-0.169-4.878-0.225-7.188-0.169c-2.313,0.057-4.145,0.142-5.497,0.254L670.554,124.089z"/>
	</g>
</g>
</svg>
