<?xml version="1.0" encoding="utf-8"?>
<!-- Generator: Adobe Illustrator 15.1.0, SVG Export Plug-In . SVG Version: 6.00 Build 0)  -->
<!DOCTYPE svg PUBLIC "-//W3C//DTD SVG 1.1//EN" "http://www.w3.org/Graphics/SVG/1.1/DTD/svg11.dtd">
<svg version="1.1" id="Layer_1" xmlns="http://www.w3.org/2000/svg" xmlns:xlink="http://www.w3.org/1999/xlink" x="0px" y="0px"
	 width="84.068px" height="78.305px" viewBox="0 0 84.068 78.305" enable-background="new 0 0 84.068 78.305" xml:space="preserve">
<polygon fill="#F39200" points="82.033,45.149 30.633,73.55 58.233,42.749 2.034,66.749 41.034,39.149 29.833,37.749 45.632,26.949 
	30.233,28.149 34.833,19.949 14.434,15.149 40.434,13.949 44.033,10.949 28.633,4.349 72.833,7.749 "/>
<polygon id="yellow" fill="#FFDE00" points="80.033,38.149 46.433,61.749 66.033,35.549 77.833,31.149 26.434,54.349 48.833,34.749 
	41.833,33.749 51.033,26.349 47.833,23.749 54.233,21.349 30.633,15.949 65.433,15.949 44.433,7.749 72.433,12.749 "/>
</svg>
