<?xml version="1.0" encoding="utf-8"?>
<!-- Generator: Adobe Illustrator 15.1.0, SVG Export Plug-In . SVG Version: 6.00 Build 0)  -->
<!DOCTYPE svg PUBLIC "-//W3C//DTD SVG 1.1//EN" "http://www.w3.org/Graphics/SVG/1.1/DTD/svg11.dtd">
<svg version="1.1" xmlns="http://www.w3.org/2000/svg" xmlns:xlink="http://www.w3.org/1999/xlink" x="0px" y="0px"
	 width="680.236px" height="575.39px" viewBox="0 0 680.236 575.39" enable-background="new 0 0 680.236 575.39"
	 xml:space="preserve">
<g id="Layer_1">
	<polygon fill="#F39200" points="-65.777,491.719 -38.178,460.918 -94.377,484.918 -55.377,457.318 -66.578,455.918 
		-50.778,445.118 -66.178,446.318 -61.578,438.118 -81.977,433.318 -55.977,432.118 -52.378,429.118 -67.777,422.518 
		-23.578,425.918 	"/>
	<polygon id="yellow" fill="#FFDE00" points="-23.578,551.012 -57.178,574.611 -37.578,548.411 -25.778,544.011 -77.177,567.211 
		-54.778,547.611 -61.777,546.611 -52.578,539.211 -55.778,536.611 -49.378,534.211 -72.978,528.811 -38.178,528.811 
		-59.178,520.611 -31.178,525.611 	"/>
</g>
<g id="explosion">
	<path fill="#E94E1B" d="M255.639,419.622l-93.584,142.977l55.889-166.37L13.874,526.206l145.578-192.368c0,0-15.601,2.6-24.693,0
		c-9.096-2.597,27.297-37.695,27.297-37.695H64.572l113.083-59.787L71.071,150.57l77.983,22.097L97.065,93.381L234.84,157.07
		L201.046,7.596l93.585,119.694l29.896-44.307l22.097,44.307l25.998-61.205c0,0,12.996,67.587,12.996,71.488
		c0,3.9,118.273-113.08,118.273-113.08l22.097,163.771l31.194-35.096v70.19l76.686,3.9l-89.264,74.086l77.569,70.187
		l-115.681,29.894l159.87,126.08l-168.969-77.989l10.401,25.994l-33.797,10.399l14.298,29.898c0,0-57.186-33.804-57.186-37.699
		c0-3.898,3.896,77.987,3.896,77.987l-53.294-135.172L368.716,550.9l-15.593-116.98l-25.994,51.989l-5.209-49.389l-32.491,131.273
		L255.639,419.622z"/>
</g>
</svg>
