<?xml version="1.0" encoding="utf-8"?>
<!-- Generator: Adobe Illustrator 15.1.0, SVG Export Plug-In . SVG Version: 6.00 Build 0)  -->
<!DOCTYPE svg PUBLIC "-//W3C//DTD SVG 1.1//EN" "http://www.w3.org/Graphics/SVG/1.1/DTD/svg11.dtd">
<svg version="1.1" xmlns="http://www.w3.org/2000/svg" xmlns:xlink="http://www.w3.org/1999/xlink" x="0px" y="0px"
	 width="158.016px" height="297px" viewBox="0 0 158.016 297" enable-background="new 0 0 158.016 297" xml:space="preserve">
<g id="gif" display="none">
</g>
<g id="legs">
	<path fill="#8F735A" d="M122.027,222.71c0,0-44.711,10.924-86.485-1.802c0,0,3.874,63.354,3.597,63.63s45.565-4.15,78.527,0
		L122.027,222.71z"/>
	<line fill="none" stroke="#000000" stroke-width="1.5" stroke-miterlimit="10" x1="78.765" y1="238.253" x2="78.897" y2="283.25"/>
	<ellipse fill="#131516" cx="79.034" cy="286.476" rx="48.61" ry="3.875"/>
</g>
<g id="body">
	<g id="shirt">
		<polygon fill="#EF9B3E" points="114.98,225.594 78.765,227.531 42.765,225.594 47.743,120.128 112.346,123.172 		"/>
	</g>
	<g id="arms">
		<path fill="#EF9B3E" d="M37.416,128.98c0,0,19.948,10.749-9.263,55.586c0,0,1.12-1.137-7.406,23.096c0,0-8.526-6.804-15.166,0
			c0,0,0.145-51.293,29.12-78.682H37.416z"/>
		<path fill="#F4DAB4" d="M16.37,210.399c0,0,8.576,8.853,0,11.481c0,0-15.314,7.596-12.449-11.481c0,0,2.213-8.878,12.172-4.992
			c0,0,5.813,1.77,4.088,4.716C20.182,210.123,13.683,206.729,16.37,210.399z"/>
		<path fill="#EF9B3E" d="M122.164,128.98c0,0-19.948,10.749,9.264,55.586c0,0-1.121-1.137,7.405,23.096c0,0,8.526-6.804,15.166,0
			c0,0-0.144-51.293-29.12-78.682H122.164z"/>
		<path fill="#F4DAB4" d="M143.209,210.869c0,0-8.576,8.853,0,11.48c0,0,15.315,7.596,12.449-11.48c0,0-2.212-8.879-12.171-4.992
			c0,0-5.813,1.769-4.088,4.715C139.398,210.592,145.897,207.198,143.209,210.869z"/>
	</g>
	<g id="vestCore">
		<path fill="#236757" d="M50.311,119.183c0,0,14.95,1.499,22.797,17.683c0,0,7.091,62.246,0,89.634c0,0-43.609,2.905-52.738-10.789
			c0,0-2.075-9.13,0-28.218c0,0,22.775-21.994,22.384-34.442c0,0,0.396-15.77-6.637-24.069c0,0-7.863-3.319-8.693-0.829
			C27.424,128.151,44.148,116.854,50.311,119.183z"/>
		<path fill="#236757" d="M110.2,119.183c0,0-14.951,1.499-22.798,17.683c0,0-7.091,62.246,0,89.634c0,0,43.608,2.905,52.738-10.789
			c0,0,2.075-9.13,0-28.218c0,0-22.775-21.994-22.385-34.442c0,0-0.396-15.77,6.638-24.069c0,0,7.862-3.319,8.692-0.829
			C133.086,128.151,116.362,116.854,110.2,119.183z"/>
	</g>
	<g id="pockets">
		
			<rect x="89.558" y="141.431" fill="none" stroke="#000000" stroke-width="1.5" stroke-miterlimit="10" width="16.806" height="26.973"/>
		
			<rect x="33.229" y="189.359" fill="none" stroke="#000000" stroke-width="1.5" stroke-miterlimit="10" width="16.806" height="26.973"/>
		
			<rect x="51.692" y="155.747" fill="none" stroke="#000000" stroke-width="1.5" stroke-miterlimit="10" width="16.807" height="24.69"/>
		
			<rect x="56.818" y="196.206" fill="none" stroke="#000000" stroke-width="1.5" stroke-miterlimit="10" width="12.993" height="19.089"/>
		
			<rect x="91.983" y="186.662" fill="none" stroke="#000000" stroke-width="1.5" stroke-miterlimit="10" width="11.062" height="36.518"/>
		
			<rect x="110.929" y="203.955" fill="none" stroke="#000000" stroke-width="1.5" stroke-miterlimit="10" width="18.374" height="10.926"/>
		
			<rect x="93.443" y="173.642" fill="none" stroke="#000000" stroke-width="1.5" stroke-miterlimit="10" width="15.826" height="10.925"/>
		
			<rect x="51.111" y="134.322" transform="matrix(0.0012 1 -1 0.0012 199.8396 86.4026)" fill="none" stroke="#000000" stroke-width="1.5" stroke-miterlimit="10" width="11.112" height="17.835"/>
		<circle cx="98.391" cy="149.763" r="0.956"/>
		<circle cx="56.793" cy="140.435" r="0.956"/>
		<circle cx="41.632" cy="196.207" r="0.956"/>
		<circle cx="97.514" cy="193.591" r="0.956"/>
		<circle cx="101.482" cy="176.413" r="0.955"/>
		<circle cx="121.072" cy="206.706" r="0.956"/>
		
			<line fill="none" stroke="#000000" stroke-width="1.5" stroke-miterlimit="10" x1="47.743" y1="137.694" x2="56.793" y2="144.252"/>
		
			<line fill="none" stroke="#000000" stroke-width="1.5" stroke-miterlimit="10" x1="56.793" y1="144.252" x2="65.578" y2="137.673"/>
		
			<line fill="none" stroke="#000000" stroke-width="1.5" stroke-miterlimit="10" x1="52.003" y1="164.834" x2="68.187" y2="164.834"/>
		
			<line fill="none" stroke="#000000" stroke-width="1.5" stroke-miterlimit="10" x1="56.667" y1="202.846" x2="69.811" y2="202.846"/>
		
			<line fill="none" stroke="#000000" stroke-width="1.5" stroke-miterlimit="10" x1="89.558" y1="141.431" x2="98.391" y2="156.701"/>
		
			<line fill="none" stroke="#000000" stroke-width="1.5" stroke-miterlimit="10" x1="98.391" y1="156.701" x2="106.364" y2="141.431"/>
		
			<line fill="none" stroke="#000000" stroke-width="1.5" stroke-miterlimit="10" x1="93.443" y1="173.642" x2="101.356" y2="179.104"/>
		
			<line fill="none" stroke="#000000" stroke-width="1.5" stroke-miterlimit="10" x1="101.356" y1="179.104" x2="109.269" y2="173.642"/>
		
			<line fill="none" stroke="#000000" stroke-width="1.5" stroke-miterlimit="10" x1="91.983" y1="186.662" x2="97.399" y2="205.75"/>
		
			<line fill="none" stroke="#000000" stroke-width="1.5" stroke-miterlimit="10" x1="97.399" y1="205.75" x2="103.045" y2="186.662"/>
		
			<line fill="none" stroke="#000000" stroke-width="1.5" stroke-miterlimit="10" x1="33.229" y1="191.559" x2="41.632" y2="203.955"/>
		
			<line fill="none" stroke="#000000" stroke-width="1.5" stroke-miterlimit="10" x1="41.632" y1="203.955" x2="50.035" y2="192.636"/>
		
			<line fill="none" stroke="#000000" stroke-width="1.5" stroke-miterlimit="10" x1="110.929" y1="203.955" x2="121.072" y2="210.481"/>
		
			<line fill="none" stroke="#000000" stroke-width="1.5" stroke-miterlimit="10" x1="121.072" y1="210.481" x2="129.303" y2="203.955"/>
	</g>
</g>
<g id="head">
	<g id="faceCore">
		<path fill="#F4DAB4" d="M37.493,63.236c0,0,34.844,2.669,73.436,1.009c0,0,4.979,52.287-3.735,56.437c0,0-4.149,1.245-14.524,2.49
			c0,0-39.007,0-46.892-1.66c0,0-8.285,1.659-8.285-28.309C37.493,63.236,37.493,63.236,37.493,63.236z"/>
	</g>
	<g id="eyes">
		
			<ellipse transform="matrix(0.8531 0.5218 -0.5218 0.8531 54.053 -33.6782)" fill="#FFFFFF" cx="86.833" cy="79.149" rx="11.975" ry="10.352"/>
		
			<ellipse transform="matrix(-0.8531 0.5218 -0.5218 -0.8531 159.0812 113.507)" fill="#FFFFFF" cx="63.561" cy="79.149" rx="11.975" ry="10.352"/>
		<circle cx="80.619" cy="79.132" r="1.854"/>
		<circle cx="68.188" cy="79.149" r="1.854"/>
	</g>
	<g id="faceLines">
		<line fill="none" stroke="#000000" stroke-width="1.5" stroke-miterlimit="10" x1="57.291" y1="62.143" x2="72.899" y2="69.812"/>
		<line fill="none" stroke="#000000" stroke-width="1.5" stroke-miterlimit="10" x1="94.527" y1="62.596" x2="78.588" y2="69.555"/>
		<path fill="none" stroke="#000000" stroke-width="1.5" stroke-miterlimit="10" d="M49.514,110.308
			c0-0.459,32.368,20.748,54.776-0.83"/>
		<path fill="none" stroke="#000000" stroke-width="1.5" stroke-miterlimit="10" d="M86.824,111.552"/>
		<path fill="none" stroke="#000000" stroke-width="1.5" stroke-miterlimit="10" d="M69.212,113.121c0,0,9.483-5.395,16.783,0"/>
	</g>
	<g id="ears">
		<path fill="#F4DAB4" d="M112.346,69.225c0,0,16.866-11.16,8.127,13.694c-8.739,24.854-7.853,7.503-8.127,14.109V69.225z"/>
		<path fill="#F4DAB4" d="M37.493,69.225c0,0-16.867-11.16-8.127,13.694c8.738,24.854,7.853,7.503,8.127,14.109V69.225z"/>
		<path fill="none" stroke="#000000" stroke-width="1.5" stroke-miterlimit="10" d="M117.666,72.545
			c0,6.651-1.179,12.034-2.635,12.034"/>
		<path fill="none" stroke="#000000" stroke-width="1.5" stroke-miterlimit="10" d="M30.767,71.715
			c0,6.651,1.179,12.034,2.635,12.034"/>
	</g>
	<path id="hatCore" fill="#EF9B3E" d="M34.16,15.279c0,0,0-4.149,22.408,0c0,0,9.544-3.735,26.144,0c0,0,3.319,6.04,25.728-0.922
		c0,0,9.96-7.792,5.395,16.691c0,0-4.149,6.64-2.075,29.463c0,0-35.688-1.245-73.865,0C37.894,60.511,33.33,28.558,34.16,15.279z"/>
	<g id="lines">
		<path fill="none" stroke="#000000" stroke-width="1.5" stroke-miterlimit="10" d="M49.514,25.56
			c0-0.458,21.786-11.111,45.232-0.83"/>
		<path fill="none" stroke="#000000" stroke-width="1.5" stroke-miterlimit="10" d="M62.414,47.531
			c2.49-14.409,29.191-0.363,23.657-2.789"/>
		<path fill="none" stroke="#000000" stroke-width="1.5" stroke-miterlimit="10" d="M45.778,60.511
			c0-0.459,35.212-17.844,58.512-0.83"/>
		<ellipse cx="76.072" cy="61.963" rx="46.477" ry="2.282"/>
	</g>
</g>
</svg>
