<?xml version="1.0" encoding="utf-8"?>
<!-- Generator: Adobe Illustrator 15.1.0, SVG Export Plug-In . SVG Version: 6.00 Build 0)  -->
<!DOCTYPE svg PUBLIC "-//W3C//DTD SVG 1.1//EN" "http://www.w3.org/Graphics/SVG/1.1/DTD/svg11.dtd">
<svg version="1.1" id="Layer_1" xmlns="http://www.w3.org/2000/svg" xmlns:xlink="http://www.w3.org/1999/xlink" x="0px" y="0px"
	 width="482.508px" height="906.903px" viewBox="0 -609.903 482.508 906.903" enable-background="new 0 -609.903 482.508 906.903"
	 xml:space="preserve">
<g id="gif" display="none">
</g>
<g id="legs">
	<path fill="#8F735A" d="M369.172,85.017c0,0-135.726,33.161-262.534-5.469c0,0,11.76,192.317,10.918,193.156
		s138.319-12.597,238.379,0L369.172,85.017z"/>
	
		<line fill="none" stroke="#000000" stroke-width="1.5" stroke-miterlimit="10" x1="237.846" y1="132.2" x2="238.245" y2="268.794"/>
	<ellipse fill="#131516" cx="238.664" cy="278.588" rx="147.559" ry="11.763"/>
</g>
<g id="body">
	<g id="shirt">
		<polygon fill="#EF9B3E" points="347.78,93.771 237.846,99.653 128.563,93.771 143.676,-226.383 339.784,-217.142 		"/>
	</g>
	<g id="arms">
		<path fill="#EF9B3E" d="M112.326-199.511c0,0,60.553,32.63-28.121,168.739c0,0,3.4-3.451-22.479,70.11c0,0-25.883-20.656-46.039,0
			c0,0,0.439-155.706,88.397-238.849H112.326L112.326-199.511z"/>
		<path fill="#F4DAB4" d="M48.439,47.644c0,0,26.031,26.876,0,34.854c0,0-46.489,23.06-37.791-34.854
			c0,0,6.717-26.947,36.949-15.151c0,0,17.647,5.372,12.409,14.315C60.01,46.809,40.281,36.504,48.439,47.644z"/>
		<path fill="#EF9B3E" d="M369.589-199.511c0,0-60.556,32.63,28.121,168.739c0,0-3.403-3.451,22.48,70.11
			c0,0,25.879-20.656,46.038,0c0,0-0.439-155.706-88.398-238.849H369.589L369.589-199.511z"/>
		<path fill="#F4DAB4" d="M433.474,49.073c0,0-26.034,26.876,0,34.851c0,0,46.489,23.058,37.791-34.851
			c0,0-6.717-26.953-36.949-15.154c0,0-17.645,5.372-12.409,14.313C421.904,48.231,441.632,37.93,433.474,49.073z"/>
	</g>
	<g id="vestCore">
		<path fill="#236757" d="M151.469-229.25c0,0,45.384,4.55,69.203,53.679c0,0,21.528,188.952,0,272.094
			c0,0-132.379,8.816-160.09-32.751c0,0-6.3-27.715,0-85.658c0,0,69.134-66.766,67.949-104.554c0,0,1.2-47.872-20.146-73.064
			c0,0-23.87-10.075-26.39-2.517C81.994-202.028,132.76-236.321,151.469-229.25z"/>
		<path fill="#236757" d="M333.272-229.25c0,0-45.387,4.55-69.209,53.679c0,0-21.524,188.952,0,272.094
			c0,0,132.379,8.816,160.094-32.751c0,0,6.3-27.715,0-85.658c0,0-69.138-66.766-67.952-104.554c0,0-1.203-47.872,20.149-73.064
			c0,0,23.867-10.075,26.388-2.517C402.744-202.028,351.975-236.321,333.272-229.25z"/>
	</g>
	<g id="pockets">
		
			<rect x="270.609" y="-161.714" fill="none" stroke="#000000" stroke-width="1.5" stroke-miterlimit="10" width="51.016" height="81.88"/>
		
			<rect x="99.615" y="-16.222" fill="none" stroke="#000000" stroke-width="1.5" stroke-miterlimit="10" width="51.019" height="81.879"/>
		
			<rect x="155.661" y="-118.256" fill="none" stroke="#000000" stroke-width="1.5" stroke-miterlimit="10" width="51.021" height="74.951"/>
		
			<rect x="171.221" y="4.562" fill="none" stroke="#000000" stroke-width="1.5" stroke-miterlimit="10" width="39.442" height="57.947"/>
		
			<rect x="277.97" y="-24.41" fill="none" stroke="#000000" stroke-width="1.5" stroke-miterlimit="10" width="33.581" height="110.854"/>
		
			<rect x="335.483" y="28.085" fill="none" stroke="#000000" stroke-width="1.5" stroke-miterlimit="10" width="55.777" height="33.167"/>
		
			<rect x="282.402" y="-63.933" fill="none" stroke="#000000" stroke-width="1.5" stroke-miterlimit="10" width="48.042" height="33.161"/>
		
			<rect x="153.902" y="-183.289" transform="matrix(-0.0011 -1 1 -0.0011 327.1793 14.3726)" fill="none" stroke="#000000" stroke-width="1.5" stroke-miterlimit="10" width="33.731" height="54.14"/>
		<path d="M297.422-139.323c1.604,0,2.902,1.297,2.902,2.904c0,1.601-1.299,2.899-2.902,2.899s-2.902-1.298-2.902-2.899
			C294.52-138.026,295.819-139.323,297.422-139.323z"/>
		<circle cx="171.148" cy="-164.738" r="2.902"/>
		<circle cx="125.124" cy="4.565" r="2.902"/>
		<circle cx="294.76" cy="-3.377" r="2.902"/>
		<circle cx="306.805" cy="-55.522" r="2.899"/>
		<circle cx="366.273" cy="36.436" r="2.902"/>
		
			<line fill="none" stroke="#000000" stroke-width="1.5" stroke-miterlimit="10" x1="143.676" y1="-173.059" x2="171.148" y2="-153.151"/>
		
			<line fill="none" stroke="#000000" stroke-width="1.5" stroke-miterlimit="10" x1="171.148" y1="-153.151" x2="197.816" y2="-173.123"/>
		
			<line fill="none" stroke="#000000" stroke-width="1.5" stroke-miterlimit="10" x1="156.607" y1="-90.672" x2="205.735" y2="-90.672"/>
		
			<line fill="none" stroke="#000000" stroke-width="1.5" stroke-miterlimit="10" x1="170.766" y1="24.717" x2="210.663" y2="24.717"/>
		
			<line fill="none" stroke="#000000" stroke-width="1.5" stroke-miterlimit="10" x1="270.609" y1="-161.714" x2="297.422" y2="-115.36"/>
		
			<line fill="none" stroke="#000000" stroke-width="1.5" stroke-miterlimit="10" x1="297.422" y1="-115.36" x2="321.624" y2="-161.714"/>
		
			<line fill="none" stroke="#000000" stroke-width="1.5" stroke-miterlimit="10" x1="282.402" y1="-63.933" x2="306.423" y2="-47.355"/>
		
			<line fill="none" stroke="#000000" stroke-width="1.5" stroke-miterlimit="10" x1="306.423" y1="-47.355" x2="330.444" y2="-63.933"/>
		<line fill="none" stroke="#000000" stroke-width="1.5" stroke-miterlimit="10" x1="277.97" y1="-24.41" x2="294.41" y2="33.533"/>
		
			<line fill="none" stroke="#000000" stroke-width="1.5" stroke-miterlimit="10" x1="294.41" y1="33.533" x2="311.551" y2="-24.41"/>
		
			<line fill="none" stroke="#000000" stroke-width="1.5" stroke-miterlimit="10" x1="99.615" y1="-9.546" x2="125.124" y2="28.085"/>
		
			<line fill="none" stroke="#000000" stroke-width="1.5" stroke-miterlimit="10" x1="125.124" y1="28.085" x2="150.633" y2="-6.273"/>
		
			<line fill="none" stroke="#000000" stroke-width="1.5" stroke-miterlimit="10" x1="335.483" y1="28.085" x2="366.273" y2="47.894"/>
		
			<line fill="none" stroke="#000000" stroke-width="1.5" stroke-miterlimit="10" x1="366.273" y1="47.894" x2="391.26" y2="28.085"/>
	</g>
</g>
<g id="head">
	<g id="faceCore">
		<path fill="#F4DAB4" d="M112.561-399.085c0,0,105.772,8.102,222.922,3.063c0,0,15.116,158.724-11.338,171.321
			c0,0-12.594,3.778-44.088,7.558c0,0-118.41,0-142.349-5.038c0,0-25.147,5.035-25.147-85.936
			C112.561-399.085,112.561-399.085,112.561-399.085z"/>
	</g>
	<g id="eyes">
		
			<ellipse transform="matrix(0.5218 -0.8531 0.8531 0.5218 424.6895 56.0408)" fill="#FFFFFF" cx="262.328" cy="-350.766" rx="31.425" ry="36.353"/>
		
			<ellipse transform="matrix(0.5218 0.8531 -0.8531 0.5218 -207.5708 -331.2586)" fill="#FFFFFF" cx="191.681" cy="-350.772" rx="31.426" ry="36.354"/>
		<circle cx="243.475" cy="-350.831" r="5.628"/>
		<path d="M205.737-356.407c3.11,0,5.63,2.52,5.63,5.628c0,3.108-2.52,5.628-5.63,5.628c-3.106,0-5.626-2.52-5.626-5.628
			C200.111-353.887,202.63-356.407,205.737-356.407z"/>
	</g>
	<g id="faceLines">
		<path fill="none" stroke="#000000" stroke-width="1.5" stroke-miterlimit="10" d="M149.05-256.192
			c0-1.393,98.258,62.983,166.28-2.52"/>
		<path fill="none" stroke="#000000" stroke-width="1.5" stroke-miterlimit="10" d="M262.312-252.417"/>
		<path fill="none" stroke="#000000" stroke-width="1.5" stroke-miterlimit="10" d="M259.794-254.931
			c-22.162,16.377-50.947,0-50.947,0"/>
		
			<line fill="none" stroke="#000000" stroke-width="1.5" stroke-miterlimit="10" x1="621.151" y1="-247.652" x2="668.53" y2="-224.373"/>
		
			<line fill="none" stroke="#000000" stroke-width="1.5" stroke-miterlimit="10" x1="734.183" y1="-246.277" x2="685.8" y2="-225.152"/>
	</g>
	<g id="ears">
		<path fill="#F4DAB4" d="M336.784-380.904c0,0,51.199-33.878,24.671,41.57c-26.529,75.447-23.838,22.775-24.671,42.829V-380.904z"
			/>
		<path fill="#F4DAB4" d="M112.561-380.904c0,0-51.202-33.878-24.67,41.57c26.522,75.447,23.837,22.775,24.67,42.829V-380.904z"/>
		<path fill="none" stroke="#000000" stroke-width="1.5" stroke-miterlimit="10" d="M353.935-370.826
			c0,20.19-3.58,36.531-8.001,36.531"/>
		<path fill="none" stroke="#000000" stroke-width="1.5" stroke-miterlimit="10" d="M92.142-373.346
			c0,20.191,3.578,36.531,7.998,36.531"/>
	</g>
	<path id="hatCore" fill="#EF9B3E" d="M102.443-540.664c0,0,0-12.595,68.021,0c0,0,28.972-11.338,79.364,0
		c0,0,10.077,18.335,78.1-2.799c0,0,30.234-23.653,16.379,50.667c0,0-12.597,20.157-6.3,89.438c0,0-108.337-3.778-224.227,0
		C113.777-403.357,99.924-500.354,102.443-540.664z"/>
	<g id="lines">
		<path fill="none" stroke="#000000" stroke-width="1.5" stroke-miterlimit="10" d="M149.05-509.454
			c0-1.391,66.135-33.729,137.309-2.52"/>
		<path fill="none" stroke="#000000" stroke-width="1.5" stroke-miterlimit="10" d="M188.211-442.758
			c7.557-43.741,88.611-1.103,71.812-8.466"/>
		<path fill="none" stroke="#000000" stroke-width="1.5" stroke-miterlimit="10" d="M137.708-403.357
			c0-1.394,106.894-54.167,177.622-2.519"/>
		<ellipse cx="229.669" cy="-398.949" rx="141.088" ry="6.927"/>
	</g>
</g>
</svg>
