<?xml version="1.0" encoding="utf-8"?>
<!-- Generator: Adobe Illustrator 15.1.0, SVG Export Plug-In . SVG Version: 6.00 Build 0)  -->
<svg version="1.2" baseProfile="tiny" id="Layer_1" xmlns="http://www.w3.org/2000/svg" xmlns:xlink="http://www.w3.org/1999/xlink"
	 x="0px" y="0px" width="322.31px" height="355.734px" viewBox="0 0 322.31 355.734" xml:space="preserve">
<g id="gif" display="none">
</g>
<g id="head">
	<g id="faceCore">
		<path fill="#F4DAB4" d="M46.221,160.382c0,0,108.824,8.336,229.356,3.151c0,0,15.553,163.304-11.665,176.265
			c0,0-12.959,3.889-45.363,7.779c0,0-121.827,0-146.455-5.184c0,0-25.874,5.18-25.874-88.42
			C46.221,160.382,46.221,160.382,46.221,160.382z"/>
	</g>
	<g id="eyes">
		<path fill="#FFFFFF" d="M217.179,182.513c17.627,10.779,24.357,31.865,15.038,47.098c-9.315,15.234-31.157,18.846-48.778,8.064
			c-17.621-10.775-24.352-31.861-15.032-47.094C177.722,175.347,199.56,171.736,217.179,182.513z"/>
		<path fill="#FFFFFF" d="M144.496,237.671c-17.622,10.779-39.461,7.166-48.778-8.066c-9.316-15.232-2.584-36.318,15.037-47.098
			c17.622-10.781,39.461-7.166,48.777,8.066C168.848,205.806,162.117,226.892,144.496,237.671z"/>
		<circle fill="#12100B" cx="180.912" cy="210.029" r="5.791"/>
		<path fill="#12100B" d="M142.085,204.291c3.202,0,5.794,2.594,5.794,5.791c0,3.199-2.593,5.791-5.794,5.791
			c-3.196,0-5.789-2.592-5.789-5.791C136.296,206.884,138.889,204.291,142.085,204.291z"/>
	</g>
	<g id="faceLines">
		<path fill="none" stroke="#101010" stroke-width="3" stroke-miterlimit="10" d="M83.764,307.4
			c0-1.434,101.094,64.803,171.078-2.594"/>
		<path fill="none" stroke="#101010" stroke-width="3" stroke-miterlimit="10" d="M200.293,311.285"/>
		<path fill="none" stroke="#101010" stroke-width="3" stroke-miterlimit="10" d="M197.706,308.697
			c-22.805,16.852-52.419,0-52.419,0"/>
	</g>
	<g id="ears">
		<path fill="#F4DAB4" d="M276.916,179.087c0,0,52.679-34.855,25.381,42.77c-27.292,77.625-24.524,23.434-25.381,44.066V179.087z"/>
		<path fill="#F4DAB4" d="M46.221,179.087c0,0-52.679-34.855-25.382,42.77c27.288,77.625,24.525,23.434,25.382,44.066V179.087z"/>
		<path fill="none" stroke="#12100B" stroke-width="3" stroke-miterlimit="10" d="M294.562,189.457
			c0,20.771-3.684,37.584-8.229,37.584"/>
		<path fill="none" stroke="#12100B" stroke-width="3" stroke-miterlimit="10" d="M25.212,186.863
			c0,20.775,3.683,37.586,8.229,37.586"/>
	</g>
	<path id="hatCore" fill="#EF9B3E" d="M35.81,14.717c0,0,0-12.958,69.984,0c0,0,29.808-11.667,81.656,0
		c0,0,10.367,18.863,80.351-2.879c0,0,31.107-24.335,16.851,52.13c0,0-12.959,20.737-6.479,92.019c0,0-111.463-3.888-230.698,0
		C47.471,155.987,33.219,56.192,35.81,14.717z"/>
	<g id="lines">
		<path fill="none" stroke="#101010" stroke-width="3" stroke-miterlimit="10" d="M83.764,46.827c0-1.43,68.042-34.7,141.271-2.593"
			/>
		<path fill="none" stroke="#101010" stroke-width="3" stroke-miterlimit="10" d="M124.055,115.448
			c7.773-45.003,91.168-1.134,73.883-8.711"/>
		<path fill="none" stroke="#101010" stroke-width="3" stroke-miterlimit="10" d="M72.094,155.987
			c0-1.433,109.98-55.729,182.748-2.591"/>
		<ellipse fill="#12100B" cx="166.71" cy="160.523" rx="145.157" ry="7.127"/>
	</g>
</g>
</svg>
