<?xml version="1.0" encoding="utf-8"?>
<!-- Generator: Adobe Illustrator 15.1.0, SVG Export Plug-In . SVG Version: 6.00 Build 0)  -->
<!DOCTYPE svg PUBLIC "-//W3C//DTD SVG 1.1//EN" "http://www.w3.org/Graphics/SVG/1.1/DTD/svg11.dtd">
<svg version="1.1" id="Layer_1" xmlns="http://www.w3.org/2000/svg" xmlns:xlink="http://www.w3.org/1999/xlink" x="0px" y="0px"
	 width="488px" height="542.754px" viewBox="-602.492 442.246 488 542.754" enable-background="new -602.492 442.246 488 542.754"
	 xml:space="preserve">
<g id="gif" display="none">
</g>
<g id="legs">
	<path fill="#8F735A" d="M-227.85,767.985c0,0-138.107,33.742-267.137-5.565c0,0,11.969,195.689,11.113,196.54
		c-0.858,0.856,140.74-12.816,242.554,0L-227.85,767.985z"/>
	
		<line fill="none" stroke="#000000" stroke-width="1.5" stroke-miterlimit="10" x1="-361.477" y1="815.994" x2="-361.069" y2="954.984"/>
	<path fill="#131516" d="M-360.645,952.981c82.922,0,150.144,5.354,150.144,11.968c0,6.61-67.222,11.969-150.144,11.969
		c-82.924,0-150.151-5.358-150.151-11.969C-510.797,958.335-443.57,952.981-360.645,952.981z"/>
</g>
<g id="body">
	<g id="shirt">
		<polygon fill="#EF9B3E" points="-249.621,776.893 -361.477,782.877 -472.677,776.893 -457.299,451.128 -257.753,460.532 		"/>
	</g>
	<g id="arms">
		<path fill="#EF9B3E" d="M-489.196,478.472c0,0,61.614,33.2-28.616,171.694c0,0,3.462-3.511-22.872,71.338
			c0,0-26.336-21.015-46.846,0c0,0,0.447-158.434,89.947-243.032H-489.196L-489.196,478.472z"/>
		<path fill="#F4DAB4" d="M-554.204,729.959c0,0,26.488,27.344,0,35.463c0,0-47.301,23.463-38.454-35.463
			c0,0,6.837-27.421,37.599-15.418c0,0,17.958,5.463,12.627,14.563C-542.432,729.104-562.507,718.622-554.204,729.959z"/>
		<path fill="#EF9B3E" d="M-227.426,478.472c0,0-61.617,33.2,28.61,171.694c0,0-3.459-3.511,22.875,71.338
			c0,0,26.334-21.015,46.849,0c0,0-0.45-158.434-89.95-243.032H-227.426L-227.426,478.472z"/>
		<path fill="#F4DAB4" d="M-162.423,731.413c0,0-26.492,27.347,0,35.457c0,0,47.303,23.465,38.454-35.457
			c0,0-6.835-27.426-37.596-15.42c0,0-17.956,5.464-12.628,14.562C-174.198,730.555-154.123,720.072-162.423,731.413z"/>
	</g>
	<g id="vestCore">
		<path fill="#236757" d="M-449.368,448.213c0,0,46.176,4.625,70.417,54.619c0,0,21.907,192.262,0,276.858
			c0,0-134.7,8.972-162.897-33.324c0,0-6.411-28.201,0-87.16c0,0,70.346-67.936,69.14-106.385c0,0,1.222-48.712-20.499-74.345
			c0,0-24.29-10.252-26.852-2.562C-520.06,475.913-468.407,441.017-449.368,448.213z"/>
		<path fill="#236757" d="M-264.378,448.213c0,0-46.185,4.625-70.425,54.619c0,0-21.901,192.262,0,276.858
			c0,0,134.7,8.972,162.903-33.324c0,0,6.411-28.201,0-87.16c0,0-70.352-67.936-69.148-106.385c0,0-1.225-48.712,20.504-74.345
			c0,0,24.288-10.252,26.852-2.562C-193.692,475.913-245.35,441.017-264.378,448.213z"/>
	</g>
	<g id="pockets">
		
			<rect x="-328.141" y="516.931" fill="none" stroke="#101010" stroke-width="3" stroke-miterlimit="10" width="51.91" height="83.314"/>
		
			<rect x="-502.133" y="664.974" fill="none" stroke="#101010" stroke-width="3" stroke-miterlimit="10" width="51.915" height="83.312"/>
		
			<rect x="-445.103" y="561.147" fill="none" stroke="#101010" stroke-width="3" stroke-miterlimit="10" width="51.917" height="76.264"/>
		
			<rect x="-429.27" y="686.118" fill="none" stroke="#101010" stroke-width="3" stroke-miterlimit="10" width="40.134" height="58.962"/>
		
			<rect x="-320.652" y="656.64" fill="none" stroke="#101010" stroke-width="3" stroke-miterlimit="10" width="34.173" height="112.797"/>
		
			<rect x="-262.128" y="710.056" fill="none" stroke="#101010" stroke-width="3" stroke-miterlimit="10" width="56.755" height="33.747"/>
		
			<rect x="-316.141" y="616.425" fill="none" stroke="#101010" stroke-width="3" stroke-miterlimit="10" width="48.884" height="33.741"/>
		
			<rect x="-446.894" y="494.978" transform="matrix(-0.0012 -1 1 -0.0012 -952.7731 93.4232)" fill="none" stroke="#101010" stroke-width="3" stroke-miterlimit="10" width="34.324" height="55.088"/>
		<path stroke="#101010" stroke-miterlimit="10" d="M-300.86,539.714c1.633,0,2.957,1.319,2.957,2.954
			c0,1.628-1.324,2.948-2.957,2.948c-1.628,0-2.952-1.32-2.952-2.948C-303.811,541.033-302.488,539.714-300.86,539.714z"/>
		<circle stroke="#101010" stroke-miterlimit="10" cx="-429.345" cy="513.852" r="2.953"/>
		<path stroke="#101010" stroke-miterlimit="10" d="M-476.176,683.172c1.633,0,2.954,1.322,2.954,2.949
			c0,1.63-1.321,2.957-2.954,2.957c-1.633,0-2.951-1.327-2.951-2.957C-479.127,684.494-477.809,683.172-476.176,683.172z"/>
		<path stroke="#101010" stroke-miterlimit="10" d="M-303.565,675.09c1.633,0,2.952,1.32,2.952,2.954
			c0,1.627-1.319,2.951-2.952,2.951s-2.957-1.324-2.957-2.951C-306.522,676.41-305.198,675.09-303.565,675.09z"/>
		<path stroke="#101010" stroke-miterlimit="10" d="M-291.309,622.031c1.628,0,2.947,1.324,2.947,2.952
			c0,1.63-1.319,2.948-2.947,2.948c-1.633,0-2.951-1.318-2.951-2.948C-294.26,623.355-292.942,622.031-291.309,622.031z"/>
		<path stroke="#101010" stroke-miterlimit="10" d="M-230.802,715.599c1.628,0,2.952,1.32,2.952,2.953
			c0,1.634-1.324,2.952-2.952,2.952c-1.627,0-2.952-1.318-2.952-2.952C-233.753,716.919-232.429,715.599-230.802,715.599z"/>
		
			<line fill="none" stroke="#101010" stroke-width="3" stroke-miterlimit="10" x1="-457.299" y1="505.386" x2="-429.345" y2="525.645"/>
		
			<line fill="none" stroke="#101010" stroke-width="3" stroke-miterlimit="10" x1="-429.345" y1="525.645" x2="-402.208" y2="505.32"/>
		
			<line fill="none" stroke="#101010" stroke-width="3" stroke-miterlimit="10" x1="-444.14" y1="589.219" x2="-394.154" y2="589.219"/>
		
			<line fill="none" stroke="#101010" stroke-width="3" stroke-miterlimit="10" x1="-429.733" y1="706.628" x2="-389.135" y2="706.628"/>
		
			<line fill="none" stroke="#101010" stroke-width="3" stroke-miterlimit="10" x1="-328.141" y1="516.931" x2="-300.86" y2="564.096"/>
		
			<line fill="none" stroke="#101010" stroke-width="3" stroke-miterlimit="10" x1="-300.86" y1="564.096" x2="-276.232" y2="516.931"/>
		
			<line fill="none" stroke="#101010" stroke-width="3" stroke-miterlimit="10" x1="-316.141" y1="616.425" x2="-291.697" y2="633.293"/>
		
			<line fill="none" stroke="#101010" stroke-width="3" stroke-miterlimit="10" x1="-291.697" y1="633.293" x2="-267.257" y2="616.425"/>
		
			<line fill="none" stroke="#101010" stroke-width="3" stroke-miterlimit="10" x1="-320.652" y1="656.64" x2="-303.927" y2="715.599"/>
		
			<line fill="none" stroke="#101010" stroke-width="3" stroke-miterlimit="10" x1="-303.927" y1="715.599" x2="-286.479" y2="656.64"/>
		
			<line fill="none" stroke="#101010" stroke-width="3" stroke-miterlimit="10" x1="-502.133" y1="671.764" x2="-476.176" y2="710.056"/>
		
			<line fill="none" stroke="#101010" stroke-width="3" stroke-miterlimit="10" x1="-476.176" y1="710.056" x2="-450.219" y2="675.094"/>
		
			<line fill="none" stroke="#101010" stroke-width="3" stroke-miterlimit="10" x1="-262.128" y1="710.056" x2="-230.802" y2="730.211"/>
		
			<line fill="none" stroke="#101010" stroke-width="3" stroke-miterlimit="10" x1="-230.802" y1="730.211" x2="-205.373" y2="710.056"/>
	</g>
</g>
</svg>
