<?xml version="1.0" encoding="utf-8"?>
<!-- Generator: Adobe Illustrator 15.1.0, SVG Export Plug-In . SVG Version: 6.00 Build 0)  -->
<!DOCTYPE svg PUBLIC "-//W3C//DTD SVG 1.1//EN" "http://www.w3.org/Graphics/SVG/1.1/DTD/svg11.dtd">
<svg version="1.1" id="Layer_1" xmlns="http://www.w3.org/2000/svg" xmlns:xlink="http://www.w3.org/1999/xlink" x="0px" y="0px"
	 width="306.922px" height="412.309px" viewBox="0 0 306.922 412.309" enable-background="new 0 0 306.922 412.309"
	 xml:space="preserve">
<g>
	<g>
		<defs>
			<rect id="SVGID_1_" y="0" width="306.922" height="412.309"/>
		</defs>
		<clipPath id="SVGID_2_">
			<use xlink:href="#SVGID_1_"  overflow="visible"/>
		</clipPath>
		<path clip-path="url(#SVGID_2_)" fill="#E65012" d="M32.001,329.885c0.5-13.25,13.206-47.325,25.098-62.787l196.758-3.102
			c0,0,22.628,32.889,24.878,65.889s-24.751,32.5-24.751,32.5s0.519,3.5,0.019,5.25s-126.232,25.5-192.232-4.25v-7.25
			L32.001,329.885z"/>
	</g>
	<g>
		<defs>
			<rect id="SVGID_3_" y="0" width="306.922" height="412.309"/>
		</defs>
		<clipPath id="SVGID_4_">
			<use xlink:href="#SVGID_3_"  overflow="visible"/>
		</clipPath>
		<polygon clip-path="url(#SVGID_4_)" fill="#E65012" points="70.769,397.135 70.769,363.135 241.769,362.302 241.769,396.135 		"/>
	</g>
	<g>
		<defs>
			<rect id="SVGID_5_" y="0" width="306.922" height="412.309"/>
		</defs>
		<clipPath id="SVGID_6_">
			<use xlink:href="#SVGID_5_"  overflow="visible"/>
		</clipPath>
		<path clip-path="url(#SVGID_6_)" fill="#12100B" d="M66.817,403.968c-4.208,0-5.5-6.29,0.292-7.666
			c7.333-1.741,169.875,0.666,179.875-1.167c5.058,0.563,5.5,8.167,0,8.167S101.733,402.885,66.817,403.968"/>
	</g>
	<g>
		<defs>
			<rect id="SVGID_7_" y="0" width="306.922" height="412.309"/>
		</defs>
		<clipPath id="SVGID_8_">
			<use xlink:href="#SVGID_7_"  overflow="visible"/>
		</clipPath>
		
			<line clip-path="url(#SVGID_8_)" fill="none" stroke="#12100B" stroke-width="3" stroke-miterlimit="10" x1="158.269" y1="305.231" x2="158.269" y2="379.231"/>
	</g>
	<g>
		<defs>
			<rect id="SVGID_9_" y="0" width="306.922" height="412.309"/>
		</defs>
		<clipPath id="SVGID_10_">
			<use xlink:href="#SVGID_9_"  overflow="visible"/>
		</clipPath>
		<path clip-path="url(#SVGID_10_)" fill="#12100B" d="M71.128,317.007c0,0-0.284,1.751-0.754,4.364
			c-0.447,2.619-1.085,6.1-1.747,9.564c-0.143,0.872-0.306,1.738-0.424,2.602c-0.12,0.861-0.263,1.703-0.433,2.508
			c-0.379,1.603-0.867,3.064-1.325,4.305c-0.461,1.238-0.897,2.269-1.201,2.973c-0.079,0.18-0.15,0.34-0.212,0.479
			c-0.05,0.13-0.091,0.238-0.126,0.327c-0.072,0.198-0.111,0.305-0.111,0.305l-0.026,0.071c-0.027,0.073-0.108,0.11-0.181,0.084
			c-0.04-0.015-0.07-0.047-0.084-0.084c0,0-0.042-0.114-0.122-0.331c-0.094-0.243-0.156-0.578-0.206-0.977
			c-0.068-0.417-0.099-0.909-0.114-1.466c-0.017-0.563-0.015-1.189,0.031-1.863c0.029-0.68,0.104-1.403,0.208-2.164
			c0.081-0.767,0.241-1.555,0.425-2.367c0.198-0.81,0.461-1.629,0.745-2.457c0.272-0.831,0.549-1.675,0.826-2.519
			c0.524-1.693,1.043-3.387,1.575-4.961c0.516-1.58,1.029-3.043,1.468-4.298c0.868-2.514,1.498-4.174,1.498-4.174
			c0.03-0.076,0.117-0.116,0.194-0.087C71.102,316.868,71.139,316.938,71.128,317.007"/>
	</g>
	<g>
		<defs>
			<rect id="SVGID_11_" y="0" width="306.922" height="412.309"/>
		</defs>
		<clipPath id="SVGID_12_">
			<use xlink:href="#SVGID_11_"  overflow="visible"/>
		</clipPath>
		<path clip-path="url(#SVGID_12_)" fill="#12100B" d="M242.133,318.454c0,0,0.332,1.585,0.832,3.962
			c0.525,2.37,1.215,5.525,1.973,8.638c0.21,0.773,0.415,1.547,0.652,2.296c0.242,0.749,0.47,1.48,0.652,2.195
			c0.174,0.717,0.327,1.406,0.438,2.069c0.129,0.655,0.237,1.278,0.343,1.846c0.114,0.564,0.2,1.093,0.313,1.532
			c0.045,0.23,0.098,0.439,0.156,0.62c0.049,0.198,0.1,0.367,0.16,0.509c0.055,0.157,0.104,0.289,0.166,0.39
			c0.057,0.106,0.105,0.215,0.159,0.27c0.112,0.139,0.176,0.213,0.176,0.213l0.042,0.051c0.051,0.063,0.042,0.153-0.021,0.204
			c-0.029,0.026-0.069,0.036-0.107,0.032c0,0-0.12-0.015-0.346-0.042c-0.131-0.009-0.248-0.067-0.401-0.138
			c-0.161-0.065-0.332-0.157-0.489-0.286c-0.356-0.238-0.703-0.59-1.051-1.015c-0.349-0.429-0.691-0.93-1.003-1.498
			c-0.323-0.566-0.614-1.194-0.88-1.869c-0.283-0.67-0.499-1.396-0.689-2.15c-0.168-0.759-0.283-1.553-0.367-2.361
			c-0.086-0.804-0.174-1.619-0.264-2.437c-0.188-1.625-0.359-3.246-0.455-4.771c-0.115-1.521-0.172-2.946-0.213-4.165
			c-0.096-2.437-0.072-4.063-0.072-4.063c0-0.084,0.069-0.15,0.152-0.149C242.06,318.334,242.118,318.385,242.133,318.454"/>
	</g>
	<g>
		<defs>
			<rect id="SVGID_13_" y="0" width="306.922" height="412.309"/>
		</defs>
		<clipPath id="SVGID_14_">
			<use xlink:href="#SVGID_13_"  overflow="visible"/>
		</clipPath>
		<path clip-path="url(#SVGID_14_)" fill="#6F401E" d="M64.65,347.469c0,12.381-9.729,20.083-22.5,20.083s-19.333-5.75-21.083-17.75
			c-1.787-12.251,9.895-23.167,22.666-23.167S64.65,335.088,64.65,347.469"/>
	</g>
	<g>
		<defs>
			<rect id="SVGID_15_" y="0" width="306.922" height="412.309"/>
		</defs>
		<clipPath id="SVGID_16_">
			<use xlink:href="#SVGID_15_"  overflow="visible"/>
		</clipPath>
		<path clip-path="url(#SVGID_16_)" fill="#6F401E" d="M289.484,350.468c0,11.599-6.448,19.042-18.875,19.042s-22.5-9.401-22.5-21
			c0-11.598,10.073-22,22.5-22S289.484,338.871,289.484,350.468"/>
	</g>
	<g>
		<defs>
			<rect id="SVGID_17_" y="0" width="306.922" height="412.309"/>
		</defs>
		<clipPath id="SVGID_18_">
			<use xlink:href="#SVGID_17_"  overflow="visible"/>
		</clipPath>
		<path clip-path="url(#SVGID_18_)" fill="#6F401E" d="M263.734,341.948c0,5.351-3.591,9.688-9.25,9.688
			c-5.662,0-10.25-4.337-10.25-9.688s4.588-9.688,10.25-9.688C260.144,332.259,263.734,336.597,263.734,341.948"/>
	</g>
	<g>
		<defs>
			<rect id="SVGID_19_" y="0" width="306.922" height="412.309"/>
		</defs>
		<clipPath id="SVGID_20_">
			<use xlink:href="#SVGID_19_"  overflow="visible"/>
		</clipPath>
		<path clip-path="url(#SVGID_20_)" fill="none" stroke="#12100B" stroke-miterlimit="10" d="M263.734,341.948
			c0,5.351-3.591,9.688-9.25,9.688c-5.662,0-10.25-4.337-10.25-9.688s4.588-9.688,10.25-9.688
			C260.144,332.259,263.734,336.597,263.734,341.948z"/>
	</g>
	<g>
		<defs>
			<rect id="SVGID_21_" y="0" width="306.922" height="412.309"/>
		</defs>
		<clipPath id="SVGID_22_">
			<use xlink:href="#SVGID_21_"  overflow="visible"/>
		</clipPath>
		<path clip-path="url(#SVGID_22_)" fill="#6F401E" d="M67.817,341.468c0,5.661-3.754,9-9,9c-5.247,0-10-3.339-10-9
			c0-5.66,4.65-9.315,9.896-9.315C63.961,332.152,67.817,335.807,67.817,341.468"/>
	</g>
	<g>
		<defs>
			<rect id="SVGID_23_" y="0" width="306.922" height="412.309"/>
		</defs>
		<clipPath id="SVGID_24_">
			<use xlink:href="#SVGID_23_"  overflow="visible"/>
		</clipPath>
		<path clip-path="url(#SVGID_24_)" fill="none" stroke="#12100B" stroke-miterlimit="10" d="M67.817,341.468c0,5.661-3.754,9-9,9
			c-5.247,0-10-3.339-10-9c0-5.66,4.65-9.315,9.896-9.315C63.961,332.152,67.817,335.807,67.817,341.468z"/>
	</g>
	<g>
		<defs>
			<rect id="SVGID_25_" y="0" width="306.922" height="412.309"/>
		</defs>
		<clipPath id="SVGID_26_">
			<use xlink:href="#SVGID_25_"  overflow="visible"/>
		</clipPath>
		
			<path clip-path="url(#SVGID_26_)" fill="none" stroke="#D43C17" stroke-width="2" stroke-linecap="round" stroke-miterlimit="10" d="
			M61.983,363.385c15.25,9,83.5,27,192.129,4.25"/>
	</g>
	<g>
		<defs>
			<rect id="SVGID_27_" y="0" width="306.922" height="412.309"/>
		</defs>
		<clipPath id="SVGID_28_">
			<use xlink:href="#SVGID_27_"  overflow="visible"/>
		</clipPath>
		<path clip-path="url(#SVGID_28_)" fill="#E65012" d="M298.651,161.879c0,79.347-67.001,141.884-145.334,141.884
			S10.983,242.147,10.983,162.801c0-84.332,65.501-148.665,143.834-148.665S298.651,82.535,298.651,161.879"/>
	</g>
	<g>
		<defs>
			<rect id="SVGID_29_" y="0" width="306.922" height="412.309"/>
		</defs>
		<clipPath id="SVGID_30_">
			<use xlink:href="#SVGID_29_"  overflow="visible"/>
		</clipPath>
		<path clip-path="url(#SVGID_30_)" fill="none" stroke="#12100B" stroke-width="3" stroke-miterlimit="10" d="M254.734,173.885
			c0,47.979-45.888,87.75-101.875,87.75c-55.989,0-101.375-38.896-101.375-86.875c0-47.979,41.511-92.375,97.5-92.375
			C210.984,82.385,254.734,125.906,254.734,173.885z"/>
	</g>
	<g>
		<defs>
			<rect id="SVGID_31_" y="0" width="306.922" height="412.309"/>
		</defs>
		<clipPath id="SVGID_32_">
			<use xlink:href="#SVGID_31_"  overflow="visible"/>
		</clipPath>
		<path clip-path="url(#SVGID_32_)" fill="#6F401E" d="M242.984,164.885c2,50.75-41.75,79.5-88.168,73.25
			c-66.494,3.625-90.523-27.105-93.833-70.75c-4-52.75,37.625-90.425,92.125-87.175C223.661,84.417,241.258,121.151,242.984,164.885
			"/>
	</g>
	<g>
		<defs>
			<rect id="SVGID_33_" y="0" width="306.922" height="412.309"/>
		</defs>
		<clipPath id="SVGID_34_">
			<use xlink:href="#SVGID_33_"  overflow="visible"/>
		</clipPath>
		<path clip-path="url(#SVGID_34_)" fill="#F5DBB4" d="M154.817,238.135c0,0-139.334-72-2.934-155.75
			C151.883,82.385,287.984,157.635,154.817,238.135"/>
	</g>
</g>
<g>
	<g>
		<defs>
			<path id="SVGID_35_" d="M154.817,238.135c133.167-80.5-2.934-155.75-2.934-155.75
				C15.484,166.135,154.817,238.135,154.817,238.135"/>
		</defs>
		<clipPath id="SVGID_36_">
			<use xlink:href="#SVGID_35_"  overflow="visible"/>
		</clipPath>
		<path clip-path="url(#SVGID_36_)" fill="#FFFFFF" d="M243.815,157.302c0,22.46-20.411,40.666-45.592,40.666
			c-25.18,0-45.592-18.206-45.592-40.666s5.519-46.001,45.592-40.667C223.185,119.958,243.815,134.843,243.815,157.302"/>
	</g>
	<g>
		<defs>
			<path id="SVGID_37_" d="M154.817,238.135c133.167-80.5-2.934-155.75-2.934-155.75
				C15.484,166.135,154.817,238.135,154.817,238.135"/>
		</defs>
		<clipPath id="SVGID_38_">
			<use xlink:href="#SVGID_37_"  overflow="visible"/>
		</clipPath>
		<path clip-path="url(#SVGID_38_)" fill="#FFFFFF" d="M151.884,155.219c-0.908,22.672-15.69,40.635-35.034,41.083
			c-43.033,1-35.033-18.394-35.033-41.083c0-22.688,15.651-39.583,35-39.583C136.165,115.635,153.108,124.635,151.884,155.219"/>
	</g>
	<g>
		<defs>
			<path id="SVGID_39_" d="M154.817,238.135c133.167-80.5-2.934-155.75-2.934-155.75
				C15.484,166.135,154.817,238.135,154.817,238.135"/>
		</defs>
		<clipPath id="SVGID_40_">
			<use xlink:href="#SVGID_39_"  overflow="visible"/>
		</clipPath>
	</g>
	<g>
		<defs>
			<path id="SVGID_41_" d="M154.817,238.135c133.167-80.5-2.934-155.75-2.934-155.75
				C15.484,166.135,154.817,238.135,154.817,238.135"/>
		</defs>
		<clipPath id="SVGID_42_">
			<use xlink:href="#SVGID_41_"  overflow="visible"/>
		</clipPath>
	</g>
</g>
<g>
	<g>
		<defs>
			<rect id="SVGID_43_" y="0" width="306.922" height="412.309"/>
		</defs>
		<clipPath id="SVGID_44_">
			<use xlink:href="#SVGID_43_"  overflow="visible"/>
		</clipPath>
		
			<path clip-path="url(#SVGID_44_)" fill="none" stroke="#12100B" stroke-width="3" stroke-linecap="round" stroke-miterlimit="10" d="
			M154.817,238.982c11.666,5.902-1.709,43.152,11.666,51.652"/>
	</g>
	<g>
		<defs>
			<rect id="SVGID_45_" y="0" width="306.922" height="412.309"/>
		</defs>
		<clipPath id="SVGID_46_">
			<use xlink:href="#SVGID_45_"  overflow="visible"/>
		</clipPath>
		
			<path clip-path="url(#SVGID_46_)" fill="none" stroke="#12100B" stroke-width="3" stroke-linecap="round" stroke-miterlimit="10" d="
			M142.233,280.885c7.203-8.231,3-26.75,12.584-41.902"/>
	</g>
	<g>
		<defs>
			<rect id="SVGID_47_" y="0" width="306.922" height="412.309"/>
		</defs>
		<clipPath id="SVGID_48_">
			<use xlink:href="#SVGID_47_"  overflow="visible"/>
		</clipPath>
		
			<path clip-path="url(#SVGID_48_)" fill="none" stroke="#D43C17" stroke-width="2" stroke-linecap="round" stroke-miterlimit="10" d="
			M57.153,267.097c3.564,9.038,101.33,77.37,196.73-3.102"/>
	</g>
</g>
</svg>
