<?xml version="1.0" encoding="utf-8"?>
<!-- Generator: Adobe Illustrator 15.1.0, SVG Export Plug-In . SVG Version: 6.00 Build 0)  -->
<!DOCTYPE svg PUBLIC "-//W3C//DTD SVG 1.1//EN" "http://www.w3.org/Graphics/SVG/1.1/DTD/svg11.dtd">
<svg version="1.1" id="Layer_1" xmlns="http://www.w3.org/2000/svg" xmlns:xlink="http://www.w3.org/1999/xlink" x="0px" y="0px"
	 width="306.922px" height="296.107px" viewBox="0 7.654 306.922 296.107" enable-background="new 0 7.654 306.922 296.107"
	 xml:space="preserve">
<g>
	<g>
		<defs>
			<rect id="SVGID_1_" width="306.922" height="412.308"/>
		</defs>
		<clipPath id="SVGID_2_">
			<use xlink:href="#SVGID_1_"  overflow="visible"/>
		</clipPath>
	</g>
	<g>
		<defs>
			<rect id="SVGID_3_" width="306.922" height="412.308"/>
		</defs>
		<clipPath id="SVGID_4_">
			<use xlink:href="#SVGID_3_"  overflow="visible"/>
		</clipPath>
	</g>
	<g>
		<defs>
			<rect id="SVGID_5_" width="306.922" height="412.308"/>
		</defs>
		<clipPath id="SVGID_6_">
			<use xlink:href="#SVGID_5_"  overflow="visible"/>
		</clipPath>
	</g>
	<g>
		<defs>
			<rect id="SVGID_7_" width="306.922" height="412.308"/>
		</defs>
		<clipPath id="SVGID_8_">
			<use xlink:href="#SVGID_7_"  overflow="visible"/>
		</clipPath>
	</g>
	<g>
		<defs>
			<rect id="SVGID_9_" width="306.922" height="412.308"/>
		</defs>
		<clipPath id="SVGID_10_">
			<use xlink:href="#SVGID_9_"  overflow="visible"/>
		</clipPath>
	</g>
	<g>
		<defs>
			<rect id="SVGID_11_" width="306.922" height="412.308"/>
		</defs>
		<clipPath id="SVGID_12_">
			<use xlink:href="#SVGID_11_"  overflow="visible"/>
		</clipPath>
	</g>
	<g>
		<defs>
			<rect id="SVGID_13_" width="306.922" height="412.308"/>
		</defs>
		<clipPath id="SVGID_14_">
			<use xlink:href="#SVGID_13_"  overflow="visible"/>
		</clipPath>
	</g>
	<g>
		<defs>
			<rect id="SVGID_15_" width="306.922" height="412.308"/>
		</defs>
		<clipPath id="SVGID_16_">
			<use xlink:href="#SVGID_15_"  overflow="visible"/>
		</clipPath>
	</g>
	<g>
		<defs>
			<rect id="SVGID_17_" width="306.922" height="412.308"/>
		</defs>
		<clipPath id="SVGID_18_">
			<use xlink:href="#SVGID_17_"  overflow="visible"/>
		</clipPath>
	</g>
	<g>
		<defs>
			<rect id="SVGID_19_" width="306.922" height="412.308"/>
		</defs>
		<clipPath id="SVGID_20_">
			<use xlink:href="#SVGID_19_"  overflow="visible"/>
		</clipPath>
	</g>
	<g>
		<defs>
			<rect id="SVGID_21_" width="306.922" height="412.308"/>
		</defs>
		<clipPath id="SVGID_22_">
			<use xlink:href="#SVGID_21_"  overflow="visible"/>
		</clipPath>
	</g>
	<g>
		<defs>
			<rect id="SVGID_23_" width="306.922" height="412.308"/>
		</defs>
		<clipPath id="SVGID_24_">
			<use xlink:href="#SVGID_23_"  overflow="visible"/>
		</clipPath>
	</g>
	<g>
		<defs>
			<rect id="SVGID_25_" width="306.922" height="412.308"/>
		</defs>
		<clipPath id="SVGID_26_">
			<use xlink:href="#SVGID_25_"  overflow="visible"/>
		</clipPath>
	</g>
	<g>
		<defs>
			<rect id="SVGID_27_" width="306.922" height="412.308"/>
		</defs>
		<clipPath id="SVGID_28_">
			<use xlink:href="#SVGID_27_"  overflow="visible"/>
		</clipPath>
		<path clip-path="url(#SVGID_28_)" fill="#E65012" d="M298.65,161.879c0,79.346-67,141.882-145.333,141.882
			S10.983,242.147,10.983,162.801c0-84.332,65.501-148.665,143.834-148.665S298.65,82.535,298.65,161.879"/>
	</g>
	<g>
		<defs>
			<rect id="SVGID_29_" width="306.922" height="412.308"/>
		</defs>
		<clipPath id="SVGID_30_">
			<use xlink:href="#SVGID_29_"  overflow="visible"/>
		</clipPath>
		<path clip-path="url(#SVGID_30_)" fill="none" stroke="#12100B" stroke-width="3" stroke-miterlimit="10" d="M254.734,173.885
			c0,47.98-45.888,87.75-101.875,87.75c-55.989,0-101.375-38.895-101.375-86.875c0-47.979,41.511-92.375,97.5-92.375
			C210.984,82.385,254.734,125.906,254.734,173.885z"/>
	</g>
	<g>
		<defs>
			<rect id="SVGID_31_" width="306.922" height="412.308"/>
		</defs>
		<clipPath id="SVGID_32_">
			<use xlink:href="#SVGID_31_"  overflow="visible"/>
		</clipPath>
		<path clip-path="url(#SVGID_32_)" fill="#6F401E" d="M242.984,164.885c2,50.75-41.75,79.5-88.168,73.25
			c-66.494,3.625-90.523-27.105-93.833-70.75c-4-52.75,37.625-90.425,92.125-87.175C223.661,84.417,241.258,121.151,242.984,164.885
			"/>
	</g>
	<g>
		<defs>
			<rect id="SVGID_33_" width="306.922" height="412.308"/>
		</defs>
		<clipPath id="SVGID_34_">
			<use xlink:href="#SVGID_33_"  overflow="visible"/>
		</clipPath>
		<path clip-path="url(#SVGID_34_)" fill="#F5DBB4" d="M154.817,238.134c0,0-139.334-72-2.934-155.75
			C151.883,82.385,287.984,157.635,154.817,238.134"/>
	</g>
</g>
<g>
	<g>
		<defs>
			<path id="SVGID_35_" d="M154.817,238.134c133.167-80.5-2.934-155.75-2.934-155.75
				C15.484,166.135,154.817,238.134,154.817,238.134"/>
		</defs>
		<clipPath id="SVGID_36_">
			<use xlink:href="#SVGID_35_"  overflow="visible"/>
		</clipPath>
		<path clip-path="url(#SVGID_36_)" fill="#FFFFFF" d="M243.815,157.303c0,22.459-20.411,40.666-45.592,40.666
			c-25.18,0-45.592-18.207-45.592-40.666c0-22.46,5.519-46.001,45.592-40.667C223.185,119.958,243.815,134.843,243.815,157.303"/>
	</g>
	<g>
		<defs>
			<path id="SVGID_37_" d="M154.817,238.134c133.167-80.5-2.934-155.75-2.934-155.75
				C15.484,166.135,154.817,238.134,154.817,238.134"/>
		</defs>
		<clipPath id="SVGID_38_">
			<use xlink:href="#SVGID_37_"  overflow="visible"/>
		</clipPath>
		<path clip-path="url(#SVGID_38_)" fill="#FFFFFF" d="M151.884,155.219c-0.908,22.671-15.69,40.634-35.034,41.083
			c-43.033,1-35.033-18.394-35.033-41.083c0-22.689,15.651-39.583,35-39.583C136.165,115.636,153.108,124.636,151.884,155.219"/>
	</g>
	<g>
		<defs>
			<path id="SVGID_39_" d="M154.817,238.134c133.167-80.5-2.934-155.75-2.934-155.75
				C15.484,166.135,154.817,238.134,154.817,238.134"/>
		</defs>
		<clipPath id="SVGID_40_">
			<use xlink:href="#SVGID_39_"  overflow="visible"/>
		</clipPath>
		<path clip-path="url(#SVGID_40_)" fill="#12100B" d="M132.983,155.51c0,3.037-2.406,5.5-5.375,5.5c-2.969,0-5.375-2.463-5.375-5.5
			c0-3.037,2.406-5.5,5.375-5.5C130.577,150.01,132.983,152.473,132.983,155.51"/>
	</g>
	<g>
		<defs>
			<path id="SVGID_41_" d="M154.817,238.134c133.167-80.5-2.934-155.75-2.934-155.75
				C15.484,166.135,154.817,238.134,154.817,238.134"/>
		</defs>
		<clipPath id="SVGID_42_">
			<use xlink:href="#SVGID_41_"  overflow="visible"/>
		</clipPath>
		<path clip-path="url(#SVGID_42_)" fill="#12100B" d="M184.609,153.942c0,3.068-2.521,5.557-5.625,5.557
			c-3.106,0-5.625-2.489-5.625-5.557s2.519-5.557,5.625-5.557C182.088,148.385,184.609,150.874,184.609,153.942"/>
	</g>
</g>
<g>
	<g>
		<defs>
			<rect id="SVGID_43_" width="306.922" height="412.308"/>
		</defs>
		<clipPath id="SVGID_44_">
			<use xlink:href="#SVGID_43_"  overflow="visible"/>
		</clipPath>
		
			<path clip-path="url(#SVGID_44_)" fill="none" stroke="#12100B" stroke-width="3" stroke-linecap="round" stroke-miterlimit="10" d="
			M154.817,238.982c11.666,5.902-1.709,43.152,11.666,51.652"/>
	</g>
	<g>
		<defs>
			<rect id="SVGID_45_" width="306.922" height="412.308"/>
		</defs>
		<clipPath id="SVGID_46_">
			<use xlink:href="#SVGID_45_"  overflow="visible"/>
		</clipPath>
		
			<path clip-path="url(#SVGID_46_)" fill="none" stroke="#12100B" stroke-width="3" stroke-linecap="round" stroke-miterlimit="10" d="
			M142.233,280.884c7.203-8.231,3-26.75,12.584-41.902"/>
	</g>
	<g>
		<defs>
			<rect id="SVGID_47_" width="306.922" height="412.308"/>
		</defs>
		<clipPath id="SVGID_48_">
			<use xlink:href="#SVGID_47_"  overflow="visible"/>
		</clipPath>
		
			<path clip-path="url(#SVGID_48_)" fill="none" stroke="#D43C17" stroke-width="2" stroke-linecap="round" stroke-miterlimit="10" d="
			M57.153,267.097c3.564,9.039,101.33,77.371,196.73-3.102"/>
	</g>
</g>
</svg>
