<?xml version="1.0" encoding="utf-8"?>
<!-- Generator: Adobe Illustrator 15.1.0, SVG Export Plug-In . SVG Version: 6.00 Build 0)  -->
<!DOCTYPE svg PUBLIC "-//W3C//DTD SVG 1.1//EN" "http://www.w3.org/Graphics/SVG/1.1/DTD/svg11.dtd">
<svg version="1.1" id="Layer_1" xmlns="http://www.w3.org/2000/svg" xmlns:xlink="http://www.w3.org/1999/xlink" x="0px" y="0px"
	 width="306.923px" height="412.308px" viewBox="0 0 306.923 412.308" enable-background="new 0 0 306.923 412.308"
	 xml:space="preserve">
<g>
	<defs>
		<rect id="SVGID_1_" width="306.923" height="412.308"/>
	</defs>
	<clipPath id="SVGID_2_">
		<use xlink:href="#SVGID_1_"  overflow="visible"/>
	</clipPath>
	<path clip-path="url(#SVGID_2_)" fill="#E65012" d="M32.001,329.885c0.5-13.25,13.206-47.326,25.098-62.788l196.758-3.101
		c0,0,22.628,32.889,24.878,65.889s-24.751,32.5-24.751,32.5s0.519,3.5,0.019,5.25s-126.233,25.5-192.233-4.25v-7.25L32.001,329.885
		z"/>
	<polygon clip-path="url(#SVGID_2_)" fill="#E65012" points="70.769,397.135 70.769,363.135 241.769,362.302 241.769,396.135 	"/>
	<path clip-path="url(#SVGID_2_)" fill="#12100B" d="M66.817,403.968c-4.208,0-5.5-6.29,0.292-7.666
		c7.333-1.742,169.875,0.666,179.875-1.167c5.058,0.563,5.5,8.167,0,8.167S101.733,402.885,66.817,403.968"/>
	
		<line clip-path="url(#SVGID_2_)" fill="none" stroke="#12100B" stroke-width="3" stroke-miterlimit="10" x1="158.269" y1="305.231" x2="158.269" y2="379.231"/>
	<path clip-path="url(#SVGID_2_)" fill="#12100B" d="M71.128,317.007c0,0-0.284,1.751-0.754,4.364
		c-0.447,2.619-1.085,6.099-1.747,9.564c-0.143,0.872-0.306,1.739-0.424,2.602c-0.12,0.861-0.263,1.703-0.433,2.508
		c-0.379,1.602-0.867,3.064-1.325,4.304c-0.461,1.239-0.897,2.269-1.201,2.973c-0.079,0.18-0.15,0.34-0.212,0.479
		c-0.05,0.129-0.091,0.238-0.126,0.327c-0.072,0.198-0.111,0.304-0.111,0.304l-0.026,0.072c-0.027,0.073-0.108,0.11-0.181,0.084
		c-0.04-0.015-0.07-0.047-0.084-0.084c0,0-0.042-0.115-0.122-0.331c-0.094-0.243-0.156-0.578-0.206-0.977
		c-0.068-0.417-0.099-0.909-0.114-1.466c-0.017-0.563-0.015-1.189,0.031-1.863c0.029-0.68,0.104-1.403,0.208-2.164
		c0.081-0.767,0.241-1.555,0.425-2.367c0.198-0.81,0.461-1.629,0.745-2.457c0.272-0.831,0.549-1.675,0.826-2.519
		c0.524-1.693,1.043-3.387,1.575-4.961c0.516-1.58,1.029-3.043,1.468-4.298c0.868-2.513,1.498-4.173,1.498-4.173
		c0.03-0.077,0.117-0.117,0.194-0.087C71.102,316.868,71.139,316.938,71.128,317.007"/>
	<path clip-path="url(#SVGID_2_)" fill="#12100B" d="M242.133,318.454c0,0,0.333,1.585,0.833,3.962
		c0.524,2.37,1.214,5.525,1.972,8.637c0.21,0.774,0.415,1.547,0.653,2.296c0.241,0.749,0.469,1.481,0.652,2.196
		c0.174,0.716,0.327,1.406,0.438,2.069c0.129,0.655,0.238,1.278,0.343,1.846c0.114,0.564,0.2,1.092,0.312,1.532
		c0.046,0.23,0.098,0.439,0.157,0.62c0.048,0.198,0.099,0.367,0.16,0.509c0.055,0.157,0.104,0.289,0.166,0.389
		c0.056,0.107,0.105,0.215,0.159,0.27c0.113,0.139,0.176,0.213,0.176,0.213l0.042,0.051c0.05,0.062,0.042,0.153-0.021,0.204
		c-0.03,0.026-0.07,0.036-0.108,0.032c0,0-0.12-0.015-0.346-0.042c-0.131-0.009-0.248-0.067-0.401-0.138
		c-0.162-0.065-0.332-0.157-0.49-0.286c-0.356-0.238-0.703-0.59-1.05-1.014c-0.349-0.429-0.692-0.93-1.003-1.499
		c-0.324-0.566-0.615-1.194-0.88-1.869c-0.283-0.67-0.499-1.396-0.689-2.15c-0.168-0.759-0.284-1.553-0.367-2.361
		c-0.087-0.804-0.175-1.62-0.264-2.437c-0.189-1.625-0.359-3.246-0.456-4.771c-0.114-1.522-0.171-2.947-0.213-4.165
		c-0.095-2.437-0.072-4.064-0.072-4.064c0.001-0.084,0.07-0.15,0.153-0.149C242.06,318.334,242.118,318.386,242.133,318.454"/>
	<path clip-path="url(#SVGID_2_)" fill="#6F401E" d="M64.65,347.469c0,12.38-9.729,20.083-22.5,20.083s-19.333-5.75-21.083-17.75
		c-1.787-12.251,9.895-23.167,22.666-23.167S64.65,335.088,64.65,347.469"/>
	<path clip-path="url(#SVGID_2_)" fill="#6F401E" d="M289.484,350.468c0,11.598-6.449,19.042-18.875,19.042
		c-12.427,0-22.5-9.402-22.5-21s10.073-22,22.5-22C283.035,326.51,289.484,338.871,289.484,350.468"/>
	<path clip-path="url(#SVGID_2_)" fill="#6F401E" d="M263.734,341.948c0,5.351-3.591,9.688-9.25,9.688
		c-5.662,0-10.25-4.337-10.25-9.688s4.588-9.688,10.25-9.688C260.144,332.259,263.734,336.597,263.734,341.948"/>
	<path clip-path="url(#SVGID_2_)" fill="none" stroke="#12100B" stroke-miterlimit="10" d="M263.734,341.948
		c0,5.351-3.591,9.688-9.25,9.688c-5.662,0-10.25-4.337-10.25-9.688s4.588-9.688,10.25-9.688
		C260.144,332.259,263.734,336.597,263.734,341.948z"/>
	<path clip-path="url(#SVGID_2_)" fill="#6F401E" d="M67.817,341.468c0,5.661-3.754,9-9,9c-5.247,0-10-3.339-10-9
		s4.65-9.316,9.896-9.316C63.961,332.152,67.817,335.807,67.817,341.468"/>
	<path clip-path="url(#SVGID_2_)" fill="none" stroke="#12100B" stroke-miterlimit="10" d="M67.817,341.468c0,5.661-3.754,9-9,9
		c-5.247,0-10-3.339-10-9s4.65-9.316,9.896-9.316C63.961,332.152,67.817,335.807,67.817,341.468z"/>
	
		<path clip-path="url(#SVGID_2_)" fill="none" stroke="#D43C17" stroke-width="2" stroke-linecap="round" stroke-miterlimit="10" d="
		M61.983,363.385c15.25,9,83.5,27,192.129,4.25"/>
	<path clip-path="url(#SVGID_2_)" fill="#E65012" d="M298.65,161.879c0,79.346-67,141.883-145.333,141.883
		c-78.333,0-142.334-61.615-142.334-140.961c0-84.332,65.501-148.665,143.834-148.665C233.15,14.136,298.65,82.535,298.65,161.879"
		/>
	<path clip-path="url(#SVGID_2_)" fill="none" stroke="#12100B" stroke-width="3" stroke-miterlimit="10" d="M254.734,173.885
		c0,47.979-45.888,87.75-101.875,87.75c-55.989,0-101.375-38.896-101.375-86.875c0-47.979,41.511-92.375,97.5-92.375
		C210.984,82.385,254.734,125.906,254.734,173.885z"/>
	<path clip-path="url(#SVGID_2_)" fill="#6F401E" d="M242.984,164.885c2,50.75-41.75,79.5-88.168,73.25
		c-66.494,3.625-90.523-27.106-93.833-70.75c-4-52.75,37.625-90.425,92.125-87.175C223.66,84.417,241.259,121.151,242.984,164.885"
		/>
	<path clip-path="url(#SVGID_2_)" fill="#F5DBB4" d="M154.817,238.135c0,0-139.334-72-2.934-155.75
		C151.883,82.385,287.984,157.635,154.817,238.135"/>
</g>
<g>
	<defs>
		<path id="SVGID_3_" d="M154.817,238.135c133.167-80.5-2.934-155.75-2.934-155.75C15.484,166.135,154.817,238.135,154.817,238.135"
			/>
	</defs>
	<clipPath id="SVGID_4_">
		<use xlink:href="#SVGID_3_"  overflow="visible"/>
	</clipPath>
	<path clip-path="url(#SVGID_4_)" fill="#FFFFFF" d="M243.815,157.303c0,22.459-20.411,40.666-45.592,40.666
		c-25.18,0-45.592-18.207-45.592-40.666c0-22.46,5.519-46.001,45.592-40.667C223.185,119.958,243.815,134.843,243.815,157.303"/>
	<path clip-path="url(#SVGID_4_)" fill="#FFFFFF" d="M151.884,155.219c-0.908,22.671-15.69,40.634-35.034,41.083
		c-43.033,1-35.033-18.394-35.033-41.083s15.651-39.583,35-39.583C136.165,115.636,153.108,124.636,151.884,155.219"/>
	<path clip-path="url(#SVGID_4_)" fill="#12100B" d="M132.983,155.51c0,3.037-2.406,5.5-5.375,5.5c-2.969,0-5.375-2.463-5.375-5.5
		s2.406-5.5,5.375-5.5C130.577,150.01,132.983,152.473,132.983,155.51"/>
	<path clip-path="url(#SVGID_4_)" fill="#12100B" d="M184.609,153.942c0,3.068-2.521,5.557-5.625,5.557
		c-3.107,0-5.625-2.489-5.625-5.557s2.518-5.557,5.625-5.557C182.089,148.385,184.609,150.874,184.609,153.942"/>
</g>
<g>
	<defs>
		<rect id="SVGID_5_" width="306.923" height="412.308"/>
	</defs>
	<clipPath id="SVGID_6_">
		<use xlink:href="#SVGID_5_"  overflow="visible"/>
	</clipPath>
	
		<path clip-path="url(#SVGID_6_)" fill="none" stroke="#12100B" stroke-width="3" stroke-linecap="round" stroke-miterlimit="10" d="
		M154.817,238.982c11.666,5.903-1.709,43.153,11.666,51.653"/>
	
		<path clip-path="url(#SVGID_6_)" fill="none" stroke="#12100B" stroke-width="3" stroke-linecap="round" stroke-miterlimit="10" d="
		M142.233,280.885c7.203-8.232,3-26.75,12.584-41.903"/>
	
		<path clip-path="url(#SVGID_6_)" fill="none" stroke="#D43C17" stroke-width="2" stroke-linecap="round" stroke-miterlimit="10" d="
		M57.153,267.097c3.564,9.039,101.33,77.371,196.731-3.101"/>
</g>
</svg>
