<?xml version="1.0" encoding="utf-8"?>
<!-- Generator: Adobe Illustrator 15.1.0, SVG Export Plug-In . SVG Version: 6.00 Build 0)  -->
<!DOCTYPE svg PUBLIC "-//W3C//DTD SVG 1.1//EN" "http://www.w3.org/Graphics/SVG/1.1/DTD/svg11.dtd">
<svg version="1.1" id="Layer_1" xmlns="http://www.w3.org/2000/svg" xmlns:xlink="http://www.w3.org/1999/xlink" x="0px" y="0px"
	 width="276px" height="138.212px" viewBox="17.961 265.035 276 138.212" enable-background="new 17.961 265.035 276 138.212"
	 xml:space="preserve">
<g>
	<g>
		<defs>
			<rect id="SVGID_1_" width="306.922" height="412.308"/>
		</defs>
		<clipPath id="SVGID_2_">
			<use xlink:href="#SVGID_1_"  overflow="visible"/>
		</clipPath>
		<path clip-path="url(#SVGID_2_)" fill="#E65012" d="M32.001,329.884c0.5-13.25,13.206-47.325,25.098-62.787l196.758-3.102
			c0,0,22.628,32.889,24.878,65.889s-24.751,32.5-24.751,32.5s0.519,3.5,0.019,5.25s-126.232,25.5-192.232-4.25v-7.25
			L32.001,329.884z"/>
	</g>
	<g>
		<defs>
			<rect id="SVGID_3_" width="306.922" height="412.308"/>
		</defs>
		<clipPath id="SVGID_4_">
			<use xlink:href="#SVGID_3_"  overflow="visible"/>
		</clipPath>
		<polygon clip-path="url(#SVGID_4_)" fill="#E65012" points="70.769,397.134 70.769,363.134 241.769,362.302 241.769,396.134 		"/>
	</g>
	<g>
		<defs>
			<rect id="SVGID_5_" width="306.922" height="412.308"/>
		</defs>
		<clipPath id="SVGID_6_">
			<use xlink:href="#SVGID_5_"  overflow="visible"/>
		</clipPath>
		<path clip-path="url(#SVGID_6_)" fill="#12100B" d="M66.817,403.968c-4.208,0-5.5-6.291,0.292-7.666
			c7.333-1.742,169.875,0.666,179.875-1.168c5.058,0.564,5.5,8.168,0,8.168S101.733,402.884,66.817,403.968"/>
	</g>
	<g>
		<defs>
			<rect id="SVGID_7_" width="306.922" height="412.308"/>
		</defs>
		<clipPath id="SVGID_8_">
			<use xlink:href="#SVGID_7_"  overflow="visible"/>
		</clipPath>
		
			<line clip-path="url(#SVGID_8_)" fill="none" stroke="#12100B" stroke-width="3" stroke-miterlimit="10" x1="158.269" y1="305.232" x2="158.269" y2="379.232"/>
	</g>
	<g>
		<defs>
			<rect id="SVGID_9_" width="306.922" height="412.308"/>
		</defs>
		<clipPath id="SVGID_10_">
			<use xlink:href="#SVGID_9_"  overflow="visible"/>
		</clipPath>
		<path clip-path="url(#SVGID_10_)" fill="#12100B" d="M71.128,317.007c0,0-0.284,1.75-0.754,4.363
			c-0.447,2.619-1.085,6.1-1.747,9.564c-0.143,0.871-0.306,1.738-0.424,2.602c-0.12,0.861-0.263,1.703-0.433,2.508
			c-0.379,1.602-0.867,3.064-1.325,4.305c-0.461,1.238-0.897,2.27-1.201,2.973c-0.079,0.18-0.15,0.34-0.212,0.479
			c-0.05,0.129-0.091,0.238-0.126,0.328c-0.072,0.197-0.111,0.303-0.111,0.303l-0.026,0.072c-0.027,0.074-0.108,0.111-0.181,0.084
			c-0.04-0.014-0.07-0.047-0.084-0.084c0,0-0.042-0.115-0.122-0.33c-0.094-0.244-0.156-0.578-0.206-0.977
			c-0.068-0.418-0.099-0.91-0.114-1.467c-0.017-0.563-0.015-1.189,0.031-1.863c0.029-0.68,0.104-1.402,0.208-2.164
			c0.081-0.768,0.241-1.555,0.425-2.367c0.198-0.809,0.461-1.629,0.745-2.457c0.272-0.83,0.549-1.674,0.826-2.518
			c0.524-1.693,1.043-3.389,1.575-4.963c0.516-1.578,1.029-3.043,1.468-4.297c0.868-2.514,1.498-4.174,1.498-4.174
			c0.03-0.076,0.117-0.117,0.194-0.086C71.102,316.869,71.139,316.937,71.128,317.007"/>
	</g>
	<g>
		<defs>
			<rect id="SVGID_11_" width="306.922" height="412.308"/>
		</defs>
		<clipPath id="SVGID_12_">
			<use xlink:href="#SVGID_11_"  overflow="visible"/>
		</clipPath>
		<path clip-path="url(#SVGID_12_)" fill="#12100B" d="M242.133,318.455c0,0,0.332,1.584,0.832,3.961
			c0.525,2.371,1.215,5.525,1.973,8.637c0.21,0.775,0.415,1.547,0.652,2.297c0.242,0.748,0.47,1.48,0.652,2.195
			c0.174,0.717,0.327,1.406,0.438,2.07c0.129,0.654,0.237,1.277,0.343,1.846c0.114,0.564,0.2,1.092,0.313,1.531
			c0.045,0.23,0.098,0.439,0.156,0.621c0.049,0.197,0.1,0.367,0.16,0.508c0.055,0.158,0.104,0.289,0.166,0.389
			c0.057,0.107,0.105,0.215,0.159,0.271c0.112,0.139,0.176,0.213,0.176,0.213l0.042,0.051c0.051,0.063,0.042,0.152-0.021,0.203
			c-0.029,0.027-0.069,0.037-0.107,0.033c0,0-0.12-0.016-0.346-0.043c-0.131-0.008-0.248-0.066-0.401-0.139
			c-0.161-0.064-0.332-0.156-0.489-0.285c-0.356-0.238-0.703-0.59-1.051-1.014c-0.349-0.43-0.691-0.93-1.003-1.5
			c-0.323-0.564-0.614-1.193-0.88-1.869c-0.283-0.67-0.499-1.395-0.689-2.148c-0.168-0.76-0.283-1.553-0.367-2.361
			c-0.086-0.805-0.174-1.621-0.264-2.438c-0.188-1.625-0.359-3.246-0.455-4.771c-0.115-1.521-0.172-2.947-0.213-4.164
			c-0.096-2.438-0.072-4.064-0.072-4.064c0-0.084,0.069-0.15,0.152-0.148C242.06,318.333,242.118,318.386,242.133,318.455"/>
	</g>
	<g>
		<defs>
			<rect id="SVGID_13_" width="306.922" height="412.308"/>
		</defs>
		<clipPath id="SVGID_14_">
			<use xlink:href="#SVGID_13_"  overflow="visible"/>
		</clipPath>
		<path clip-path="url(#SVGID_14_)" fill="#6F401E" d="M64.65,347.468c0,12.381-9.729,20.084-22.5,20.084s-19.333-5.75-21.083-17.75
			c-1.787-12.252,9.895-23.168,22.666-23.168S64.65,335.087,64.65,347.468"/>
	</g>
	<g>
		<defs>
			<rect id="SVGID_15_" width="306.922" height="412.308"/>
		</defs>
		<clipPath id="SVGID_16_">
			<use xlink:href="#SVGID_15_"  overflow="visible"/>
		</clipPath>
		<path clip-path="url(#SVGID_16_)" fill="#6F401E" d="M289.484,350.468c0,11.598-6.448,19.041-18.875,19.041s-22.5-9.4-22.5-21
			c0-11.598,10.073-22,22.5-22S289.484,338.871,289.484,350.468"/>
	</g>
	<g>
		<defs>
			<rect id="SVGID_17_" width="306.922" height="412.308"/>
		</defs>
		<clipPath id="SVGID_18_">
			<use xlink:href="#SVGID_17_"  overflow="visible"/>
		</clipPath>
		<path clip-path="url(#SVGID_18_)" fill="#6F401E" d="M263.734,341.949c0,5.35-3.591,9.688-9.25,9.688
			c-5.661,0-10.25-4.338-10.25-9.688c0-5.352,4.589-9.689,10.25-9.689C260.144,332.259,263.734,336.597,263.734,341.949"/>
	</g>
	<g>
		<defs>
			<rect id="SVGID_19_" width="306.922" height="412.308"/>
		</defs>
		<clipPath id="SVGID_20_">
			<use xlink:href="#SVGID_19_"  overflow="visible"/>
		</clipPath>
		<path clip-path="url(#SVGID_20_)" fill="none" stroke="#12100B" stroke-miterlimit="10" d="M263.734,341.949
			c0,5.35-3.591,9.688-9.25,9.688c-5.661,0-10.25-4.338-10.25-9.688c0-5.352,4.589-9.689,10.25-9.689
			C260.144,332.259,263.734,336.597,263.734,341.949z"/>
	</g>
	<g>
		<defs>
			<rect id="SVGID_21_" width="306.922" height="412.308"/>
		</defs>
		<clipPath id="SVGID_22_">
			<use xlink:href="#SVGID_21_"  overflow="visible"/>
		</clipPath>
		<path clip-path="url(#SVGID_22_)" fill="#6F401E" d="M67.817,341.468c0,5.66-3.754,9-9,9c-5.247,0-10-3.34-10-9
			c0-5.662,4.65-9.316,9.896-9.316C63.961,332.152,67.817,335.806,67.817,341.468"/>
	</g>
	<g>
		<defs>
			<rect id="SVGID_23_" width="306.922" height="412.308"/>
		</defs>
		<clipPath id="SVGID_24_">
			<use xlink:href="#SVGID_23_"  overflow="visible"/>
		</clipPath>
		<path clip-path="url(#SVGID_24_)" fill="none" stroke="#12100B" stroke-miterlimit="10" d="M67.817,341.468c0,5.66-3.754,9-9,9
			c-5.247,0-10-3.34-10-9c0-5.662,4.65-9.316,9.896-9.316C63.961,332.152,67.817,335.806,67.817,341.468z"/>
	</g>
	<g>
		<defs>
			<rect id="SVGID_25_" width="306.922" height="412.308"/>
		</defs>
		<clipPath id="SVGID_26_">
			<use xlink:href="#SVGID_25_"  overflow="visible"/>
		</clipPath>
		
			<path clip-path="url(#SVGID_26_)" fill="none" stroke="#D43C17" stroke-width="2" stroke-linecap="round" stroke-miterlimit="10" d="
			M61.983,363.384c15.25,9,83.5,27,192.129,4.25"/>
	</g>
	<g>
		<defs>
			<rect id="SVGID_27_" width="306.922" height="412.308"/>
		</defs>
		<clipPath id="SVGID_28_">
			<use xlink:href="#SVGID_27_"  overflow="visible"/>
		</clipPath>
	</g>
	<g>
		<defs>
			<rect id="SVGID_29_" width="306.922" height="412.308"/>
		</defs>
		<clipPath id="SVGID_30_">
			<use xlink:href="#SVGID_29_"  overflow="visible"/>
		</clipPath>
	</g>
	<g>
		<defs>
			<rect id="SVGID_31_" width="306.922" height="412.308"/>
		</defs>
		<clipPath id="SVGID_32_">
			<use xlink:href="#SVGID_31_"  overflow="visible"/>
		</clipPath>
	</g>
	<g>
		<defs>
			<rect id="SVGID_33_" width="306.922" height="412.308"/>
		</defs>
		<clipPath id="SVGID_34_">
			<use xlink:href="#SVGID_33_"  overflow="visible"/>
		</clipPath>
	</g>
</g>
<g>
	<g>
		<defs>
			<rect id="SVGID_35_" width="306.922" height="412.308"/>
		</defs>
		<clipPath id="SVGID_36_">
			<use xlink:href="#SVGID_35_"  overflow="visible"/>
		</clipPath>
	</g>
	<g>
		<defs>
			<rect id="SVGID_37_" width="306.922" height="412.308"/>
		</defs>
		<clipPath id="SVGID_38_">
			<use xlink:href="#SVGID_37_"  overflow="visible"/>
		</clipPath>
		
			<path clip-path="url(#SVGID_38_)" fill="none" stroke="#12100B" stroke-width="3" stroke-linecap="round" stroke-miterlimit="10" d="
			M154.817,238.982"/>
		
			<path clip-path="url(#SVGID_38_)" fill="none" stroke="#12100B" stroke-width="3" stroke-linecap="round" stroke-miterlimit="10" d="
			M142.233,280.884"/>
	</g>
	<g>
		<defs>
			<rect id="SVGID_39_" width="306.922" height="412.308"/>
		</defs>
		<clipPath id="SVGID_40_">
			<use xlink:href="#SVGID_39_"  overflow="visible"/>
		</clipPath>
	</g>
</g>
</svg>
