<?xml version="1.0" encoding="utf-8"?>
<!-- Generator: Adobe Illustrator 15.1.0, SVG Export Plug-In . SVG Version: 6.00 Build 0)  -->
<!DOCTYPE svg PUBLIC "-//W3C//DTD SVG 1.1//EN" "http://www.w3.org/Graphics/SVG/1.1/DTD/svg11.dtd">
<svg version="1.1" id="Layer_1" xmlns="http://www.w3.org/2000/svg" xmlns:xlink="http://www.w3.org/1999/xlink" x="0px" y="0px"
	 width="273px" height="173px" viewBox="33.423 253.039 273 173" enable-background="new 33.423 253.039 273 173"
	 xml:space="preserve">
<rect x="86.308" y="381.154" fill="#326C2E" width="176" height="37"/>
<g>
	<g>
		<defs>
			<rect id="SVGID_1_" x="0" width="343.846" height="433.078"/>
		</defs>
		<clipPath id="SVGID_2_">
			<use xlink:href="#SVGID_1_"  overflow="visible"/>
		</clipPath>
		<path clip-path="url(#SVGID_2_)" fill="#E65012" d="M89.272,259.365c0,0-43,46.443-44.5,102.443c23.5,40.25,240,49,253,4
			c3.563-38.119-17-73.75-36.573-102.654C225.071,283.516,153.68,302.025,89.272,259.365"/>
	</g>
	<g>
		<defs>
			<rect id="SVGID_3_" x="0" width="343.846" height="433.078"/>
		</defs>
		<clipPath id="SVGID_4_">
			<use xlink:href="#SVGID_3_"  overflow="visible"/>
		</clipPath>
		<path clip-path="url(#SVGID_4_)" fill="#12100B" d="M77.583,415.599c6.087-1.752,87.772-5.873,199.605,1.627
			c2.474,0.166,2.834,5.188-1,5.354c-3.832,0.168-198.013-0.783-199.595-1.08C73.584,420.933,71.646,417.308,77.583,415.599"/>
	</g>
	<g>
		<defs>
			<rect id="SVGID_5_" x="0" width="343.846" height="433.078"/>
		</defs>
		<clipPath id="SVGID_6_">
			<use xlink:href="#SVGID_5_"  overflow="visible"/>
		</clipPath>
		<path clip-path="url(#SVGID_6_)" fill="#12100B" d="M89.741,322.343c0,0-0.157,0.52-0.434,1.426
			c-0.271,0.904-0.653,2.201-1.079,3.768c-0.453,1.555-0.867,3.402-1.398,5.354c-0.229,0.984-0.463,2.002-0.701,3.037
			c-0.228,1.037-0.503,2.078-0.686,3.143c-0.192,1.059-0.385,2.117-0.574,3.158c-0.191,1.043-0.366,2.068-0.518,3.063
			c-0.178,0.99-0.366,1.943-0.582,2.842c-0.199,0.902-0.432,1.75-0.571,2.541c-0.624,3.158-1.326,5.271-1.326,5.271l-0.199-0.018
			c0,0-0.195-2.188-0.059-5.477c0.005-0.826,0.128-1.703,0.247-2.635c0.109-0.932,0.267-1.908,0.443-2.916
			c0.102-0.504,0.189-1.016,0.313-1.527c0.139-0.508,0.278-1.021,0.421-1.539c0.28-1.035,0.565-2.088,0.85-3.139
			c0.259-1.059,0.609-2.092,0.91-3.117c0.312-1.023,0.62-2.031,0.917-3.006c0.657-1.93,1.243-3.736,1.837-5.254
			c0.568-1.525,1.051-2.793,1.424-3.668c0.368-0.875,0.578-1.375,0.578-1.375L89.741,322.343z"/>
	</g>
	<g>
		<defs>
			<rect id="SVGID_7_" x="0" width="343.846" height="433.078"/>
		</defs>
		<clipPath id="SVGID_8_">
			<use xlink:href="#SVGID_7_"  overflow="visible"/>
		</clipPath>
		<path clip-path="url(#SVGID_8_)" fill="#12100B" d="M257.371,321.791c0,0,0.572,2.563,1.354,6.42
			c0.803,3.857,1.719,9.027,2.518,14.227c0.387,2.602,0.816,5.203,1.056,7.666c0.091,1.234,0.194,2.424,0.188,3.564
			c0.018,1.139,0.037,2.211-0.028,3.209c-0.048,0.996-0.087,1.904-0.206,2.715c-0.115,0.811-0.178,1.508-0.329,2.082
			c-0.27,1.146-0.457,1.777-0.457,1.777l-0.197-0.035c0,0-0.039-0.67-0.047-1.803c-0.008-0.564-0.101-1.264-0.139-2.051
			c-0.026-0.783-0.151-1.68-0.226-2.648c-0.069-0.967-0.204-2.02-0.303-3.131c-0.104-1.113-0.217-2.287-0.332-3.502
			c-0.084-1.219-0.17-2.48-0.259-3.762c-0.076-1.281-0.205-2.584-0.31-3.887c-0.481-5.209-1.155-10.404-1.619-14.309
			c-0.484-3.902-0.861-6.498-0.861-6.498L257.371,321.791z"/>
	</g>
	<g>
		<defs>
			<rect id="SVGID_9_" x="0" width="343.846" height="433.078"/>
		</defs>
		<clipPath id="SVGID_10_">
			<use xlink:href="#SVGID_9_"  overflow="visible"/>
		</clipPath>
		<path clip-path="url(#SVGID_10_)" fill="#75B72B" d="M85.272,363.246c0,12.047-10.446,22.438-22.562,22.438
			c-12.116,0-21.938-10.391-21.938-22.438s10.761-22.438,22.875-22.438C75.762,340.808,85.272,351.199,85.272,363.246"/>
	</g>
	<g>
		<defs>
			<rect id="SVGID_11_" x="0" width="343.846" height="433.078"/>
		</defs>
		<clipPath id="SVGID_12_">
			<use xlink:href="#SVGID_11_"  overflow="visible"/>
		</clipPath>
		<path clip-path="url(#SVGID_12_)" fill="#75B72B" d="M89.022,356.558c0,5.455-4.226,9.875-9.438,9.875
			c-5.211,0-9.438-4.42-9.438-9.875c0-5.453,4.227-8.406,9.438-8.406C84.796,348.15,89.022,351.103,89.022,356.558"/>
	</g>
	<g>
		<defs>
			<rect id="SVGID_13_" x="0" width="343.846" height="433.078"/>
		</defs>
		<clipPath id="SVGID_14_">
			<use xlink:href="#SVGID_13_"  overflow="visible"/>
		</clipPath>
		<path clip-path="url(#SVGID_14_)" fill="none" stroke="#33A938" stroke-miterlimit="10" d="M89.022,356.558
			c0,5.455-4.226,9.875-9.438,9.875c-5.211,0-9.438-4.42-9.438-9.875c0-5.453,4.227-8.406,9.438-8.406
			C84.796,348.15,89.022,351.103,89.022,356.558z"/>
	</g>
	<g>
		<defs>
			<rect id="SVGID_15_" x="0" width="343.846" height="433.078"/>
		</defs>
		<clipPath id="SVGID_16_">
			<use xlink:href="#SVGID_15_"  overflow="visible"/>
		</clipPath>
		<path clip-path="url(#SVGID_16_)" fill="#75B72B" d="M303.688,369.558c0,11.807-11.106,22.918-22.957,22.918
			c-11.852,0-20.709-9.57-20.709-21.375s6.916-23.459,20.709-21.375C292.448,351.496,303.688,357.753,303.688,369.558"/>
	</g>
	<g>
		<defs>
			<rect id="SVGID_17_" x="0" width="343.846" height="433.078"/>
		</defs>
		<clipPath id="SVGID_18_">
			<use xlink:href="#SVGID_17_"  overflow="visible"/>
		</clipPath>
		<path clip-path="url(#SVGID_18_)" fill="#75B72B" d="M274.272,363.892c0,5.479-4.196,9.916-9.375,9.916
			c-5.178,0-8.625-4.438-8.625-9.916c0-5.477,3.322-9.25,8.5-9.25C269.95,354.642,274.272,358.416,274.272,363.892"/>
	</g>
	<g>
		<defs>
			<rect id="SVGID_19_" x="0" width="343.846" height="433.078"/>
		</defs>
		<clipPath id="SVGID_20_">
			<use xlink:href="#SVGID_19_"  overflow="visible"/>
		</clipPath>
		<path clip-path="url(#SVGID_20_)" fill="none" stroke="#33A938" stroke-miterlimit="10" d="M274.272,363.892
			c0,5.479-4.196,9.916-9.375,9.916c-5.178,0-8.625-4.438-8.625-9.916c0-5.477,3.322-9.25,8.5-9.25
			C269.95,354.642,274.272,358.416,274.272,363.892z"/>
	</g>
	<g>
		<defs>
			<rect id="SVGID_21_" x="0" width="343.846" height="433.078"/>
		</defs>
		<clipPath id="SVGID_22_">
			<use xlink:href="#SVGID_21_"  overflow="visible"/>
		</clipPath>
		<path clip-path="url(#SVGID_22_)" fill="#33A938" d="M82.331,254.059c-6.393,5.306,17.99,39.61,81.154,52.417
			c13.156,2.666,13.821-6.25,13.821-6.25v-9.167L82.331,254.059z"/>
	</g>
	<g>
		<defs>
			<rect id="SVGID_23_" x="0" width="343.846" height="433.078"/>
		</defs>
		<clipPath id="SVGID_24_">
			<use xlink:href="#SVGID_23_"  overflow="visible"/>
		</clipPath>
		<path clip-path="url(#SVGID_24_)" fill="#12100B" d="M83.659,262.875c0,0,0.272,0.336,0.785,0.963
			c0.508,0.633,1.261,1.551,2.245,2.684c0.99,1.127,2.242,2.443,3.747,3.872c0.753,0.715,1.574,1.453,2.466,2.196
			c0.897,0.738,1.725,1.642,2.71,2.451c3.846,3.349,8.741,6.803,14.277,10.031c2.757,1.635,5.699,3.168,8.71,4.682
			c3.024,1.49,6.138,2.922,9.293,4.264c3.151,1.352,6.345,2.605,9.505,3.799c1.588,0.574,3.164,1.146,4.722,1.709
			c1.566,0.535,3.114,1.064,4.638,1.586c1.532,0.496,3.038,0.98,4.512,1.459c1.482,0.453,2.933,0.895,4.344,1.328
			c2.819,0.863,5.479,1.564,7.97,1.955c0.621,0.107,1.229,0.176,1.825,0.246c0.593,0.039,1.173,0.076,1.737,0.111
			c1.123,0.111,2.191,0.16,3.181,0.082c1.981-0.133,3.616-0.809,4.659-1.777c1.043-0.975,1.552-2.07,1.863-2.803
			c0.296-0.754,0.455-1.154,0.455-1.154s-0.089,0.424-0.254,1.219c-0.196,0.777-0.481,2.01-1.501,3.268
			c-1.002,1.26-2.806,2.326-4.985,2.787c-1.087,0.24-2.261,0.377-3.491,0.4c-1.229-0.023-2.498-0.207-3.807-0.404
			c-2.619-0.41-5.387-1.145-8.226-2.014c-1.42-0.438-2.879-0.883-4.37-1.338c-1.484-0.479-3-0.971-4.542-1.469
			c-1.534-0.523-3.093-1.057-4.672-1.596c-1.568-0.568-3.156-1.143-4.758-1.723c-3.186-1.203-6.407-2.469-9.59-3.833
			c-3.186-1.354-6.335-2.803-9.396-4.312c-3.049-1.531-6.03-3.086-8.832-4.746c-5.623-3.281-10.622-6.805-14.576-10.245
			c-0.973-0.874-1.979-1.64-2.77-2.546c-0.812-0.879-1.551-1.744-2.222-2.571c-1.352-1.649-2.414-3.175-3.236-4.454
			c-0.83-1.277-1.402-2.324-1.804-3.027C83.872,263.251,83.659,262.875,83.659,262.875"/>
	</g>
	<g>
		<defs>
			<rect id="SVGID_25_" x="0" width="343.846" height="433.078"/>
		</defs>
		<clipPath id="SVGID_26_">
			<use xlink:href="#SVGID_25_"  overflow="visible"/>
		</clipPath>
		<path clip-path="url(#SVGID_26_)" fill="#33A938" d="M266.854,255.892c0,0,0.668,10.167-1.582,14.334
			c-1.871,3.469-39.871,39.666-81.418,36.748c0,0-6.813,0.678-6.583-5.607c0.185-5,0.25-5,0.25-10.975L266.854,255.892z"/>
	</g>
	<g>
		<defs>
			<rect id="SVGID_27_" x="0" width="343.846" height="433.078"/>
		</defs>
		<clipPath id="SVGID_28_">
			<use xlink:href="#SVGID_27_"  overflow="visible"/>
		</clipPath>
		<path clip-path="url(#SVGID_28_)" fill="#12100B" d="M265.272,270.226c0,0-0.161,0.361-0.589,0.99
			c-0.43,0.619-1.07,1.527-1.979,2.6c-0.896,1.084-2.021,2.374-3.382,3.784c-0.673,0.715-1.412,1.448-2.188,2.229
			c-0.782,0.775-1.726,1.449-2.649,2.221c-3.734,3.041-8.288,6.346-13.395,9.535c-2.569,1.564-5.249,3.148-8.059,4.601
			c-2.804,1.463-5.7,2.858-8.667,4.097c-2.948,1.283-5.985,2.352-8.986,3.357c-3.027,0.932-6.028,1.787-8.985,2.402
			c-0.737,0.158-1.471,0.313-2.194,0.469c-0.731,0.123-1.455,0.248-2.173,0.369c-1.43,0.268-2.841,0.445-4.217,0.602
			c-1.372,0.193-2.717,0.283-4.018,0.377c-1.298,0.117-2.559,0.154-3.768,0.176c-1.209,0.02-2.367,0.088-3.47,0.025
			c-1.108-0.098-2.128-0.189-3.133-0.32c-2.037-0.314-3.783-1.064-4.858-2.146c-1.1-1.088-1.312-2.332-1.347-3.068
			c-0.024-0.766,0.056-1.158,0.056-1.158s-0.003,0.408,0.157,1.127c0.164,0.707,0.596,1.744,1.646,2.504
			c1.04,0.764,2.644,1.172,4.468,1.162c0.955-0.039,1.975-0.082,3.048-0.127c0.537-0.012,1.088,0.049,1.652,0.045
			c0.563-0.014,1.143-0.027,1.73-0.043c1.182-0.02,2.409-0.053,3.677-0.17c1.271-0.09,2.582-0.18,3.924-0.367
			c1.344-0.154,2.723-0.328,4.12-0.588c0.7-0.119,1.408-0.24,2.123-0.361c0.709-0.15,1.427-0.305,2.147-0.459
			c2.893-0.602,5.833-1.439,8.8-2.352c2.943-0.988,5.923-2.035,8.818-3.295c2.913-1.217,5.762-2.589,8.519-4.027
			c2.765-1.426,5.4-2.985,7.933-4.526c5.025-3.142,9.513-6.397,13.188-9.392c0.946-0.715,1.735-1.541,2.619-2.166
			c0.862-0.651,1.688-1.267,2.441-1.869c1.519-1.194,2.818-2.27,3.864-3.184c1.051-0.912,1.848-1.66,2.37-2.189
			C265.041,270.562,265.272,270.226,265.272,270.226"/>
	</g>
	<g>
		<defs>
			<rect id="SVGID_29_" x="0" width="343.846" height="433.078"/>
		</defs>
		<clipPath id="SVGID_30_">
			<use xlink:href="#SVGID_29_"  overflow="visible"/>
		</clipPath>
		<polygon clip-path="url(#SVGID_30_)" fill="none" stroke="#12100B" stroke-width="2" stroke-miterlimit="10" points="
			198.308,318.058 198.308,360.154 233.308,360.154 233.308,317.058 		"/>
	</g>
	<g>
		<defs>
			<rect id="SVGID_31_" x="0" width="343.846" height="433.078"/>
		</defs>
		<clipPath id="SVGID_32_">
			<use xlink:href="#SVGID_31_"  overflow="visible"/>
		</clipPath>
		<polygon clip-path="url(#SVGID_32_)" fill="none" stroke="#12100B" stroke-width="2" stroke-miterlimit="10" points="
			117.355,319.308 116.939,361.808 153.439,361.058 152.189,318.642 		"/>
	</g>
	<g>
		<defs>
			<rect id="SVGID_33_" x="0" width="343.846" height="433.078"/>
		</defs>
		<clipPath id="SVGID_34_">
			<use xlink:href="#SVGID_33_"  overflow="visible"/>
		</clipPath>
		<polygon clip-path="url(#SVGID_34_)" fill="none" stroke="#12100B" stroke-width="2" stroke-miterlimit="10" points="
			118.647,319.683 135.939,342.226 151.141,318.669 		"/>
	</g>
	<g>
		<defs>
			<rect id="SVGID_35_" x="0" width="343.846" height="433.078"/>
		</defs>
		<clipPath id="SVGID_36_">
			<use xlink:href="#SVGID_35_"  overflow="visible"/>
		</clipPath>
		<polygon clip-path="url(#SVGID_36_)" fill="none" stroke="#12100B" stroke-width="2" stroke-miterlimit="10" points="
			199.78,318.361 218.022,339.683 232.522,317.435 		"/>
	</g>
	<g>
		<defs>
			<rect id="SVGID_37_" x="0" width="343.846" height="433.078"/>
		</defs>
		<clipPath id="SVGID_38_">
			<use xlink:href="#SVGID_37_"  overflow="visible"/>
		</clipPath>
		
			<line clip-path="url(#SVGID_38_)" fill="none" stroke="#12100B" stroke-width="2" stroke-miterlimit="10" x1="177.266" y1="294.434" x2="175.522" y2="394.933"/>
	</g>
	<g>
		<defs>
			<rect id="SVGID_39_" x="0" width="343.846" height="433.078"/>
		</defs>
		<clipPath id="SVGID_40_">
			<use xlink:href="#SVGID_39_"  overflow="visible"/>
		</clipPath>
	</g>
	<g>
		<defs>
			<rect id="SVGID_41_" x="0" width="343.846" height="433.078"/>
		</defs>
		<clipPath id="SVGID_42_">
			<use xlink:href="#SVGID_41_"  overflow="visible"/>
		</clipPath>
	</g>
	<g>
		<defs>
			<rect id="SVGID_43_" x="0" width="343.846" height="433.078"/>
		</defs>
		<clipPath id="SVGID_44_">
			<use xlink:href="#SVGID_43_"  overflow="visible"/>
		</clipPath>
	</g>
	<g>
		<defs>
			<rect id="SVGID_45_" x="0" width="343.846" height="433.078"/>
		</defs>
		<clipPath id="SVGID_46_">
			<use xlink:href="#SVGID_45_"  overflow="visible"/>
		</clipPath>
	</g>
	<g>
		<defs>
			<rect id="SVGID_47_" x="0" width="343.846" height="433.078"/>
		</defs>
		<clipPath id="SVGID_48_">
			<use xlink:href="#SVGID_47_"  overflow="visible"/>
		</clipPath>
	</g>
	<g>
		<defs>
			<rect id="SVGID_49_" x="0" width="343.846" height="433.078"/>
		</defs>
		<clipPath id="SVGID_50_">
			<use xlink:href="#SVGID_49_"  overflow="visible"/>
		</clipPath>
	</g>
	<g>
		<defs>
			<rect id="SVGID_51_" x="0" width="343.846" height="433.078"/>
		</defs>
		<clipPath id="SVGID_52_">
			<use xlink:href="#SVGID_51_"  overflow="visible"/>
		</clipPath>
	</g>
	<g>
		<defs>
			<rect id="SVGID_53_" x="0" width="343.846" height="433.078"/>
		</defs>
		<clipPath id="SVGID_54_">
			<use xlink:href="#SVGID_53_"  overflow="visible"/>
		</clipPath>
	</g>
	<g>
		<defs>
			<rect id="SVGID_55_" x="0" width="343.846" height="433.078"/>
		</defs>
		<clipPath id="SVGID_56_">
			<use xlink:href="#SVGID_55_"  overflow="visible"/>
		</clipPath>
	</g>
	<g>
		<defs>
			<rect id="SVGID_57_" x="0" width="343.846" height="433.078"/>
		</defs>
		<clipPath id="SVGID_58_">
			<use xlink:href="#SVGID_57_"  overflow="visible"/>
		</clipPath>
	</g>
	<g>
		<defs>
			<rect id="SVGID_59_" x="0" width="343.846" height="433.078"/>
		</defs>
		<clipPath id="SVGID_60_">
			<use xlink:href="#SVGID_59_"  overflow="visible"/>
		</clipPath>
	</g>
	<g>
		<defs>
			<rect id="SVGID_61_" x="0" width="343.846" height="433.078"/>
		</defs>
		<clipPath id="SVGID_62_">
			<use xlink:href="#SVGID_61_"  overflow="visible"/>
		</clipPath>
	</g>
</g>
</svg>
