<?xml version="1.0" encoding="utf-8"?>
<!-- Generator: Adobe Illustrator 15.1.0, SVG Export Plug-In . SVG Version: 6.00 Build 0)  -->
<!DOCTYPE svg PUBLIC "-//W3C//DTD SVG 1.1//EN" "http://www.w3.org/Graphics/SVG/1.1/DTD/svg11.dtd">
<svg version="1.1" id="Layer_1" xmlns="http://www.w3.org/2000/svg" xmlns:xlink="http://www.w3.org/1999/xlink" x="0px" y="0px"
	 width="343.846px" height="284.901px" viewBox="0 7.039 343.846 284.901" enable-background="new 0 7.039 343.846 284.901"
	 xml:space="preserve">
<g>
	<g>
		<defs>
			<rect id="SVGID_1_" x="0" width="343.846" height="433.078"/>
		</defs>
		<clipPath id="SVGID_2_">
			<use xlink:href="#SVGID_1_"  overflow="visible"/>
		</clipPath>
	</g>
	<g>
		<defs>
			<rect id="SVGID_3_" x="0" width="343.846" height="433.078"/>
		</defs>
		<clipPath id="SVGID_4_">
			<use xlink:href="#SVGID_3_"  overflow="visible"/>
		</clipPath>
	</g>
	<g>
		<defs>
			<rect id="SVGID_5_" x="0" width="343.846" height="433.078"/>
		</defs>
		<clipPath id="SVGID_6_">
			<use xlink:href="#SVGID_5_"  overflow="visible"/>
		</clipPath>
	</g>
	<g>
		<defs>
			<rect id="SVGID_7_" x="0" width="343.846" height="433.078"/>
		</defs>
		<clipPath id="SVGID_8_">
			<use xlink:href="#SVGID_7_"  overflow="visible"/>
		</clipPath>
	</g>
	<g>
		<defs>
			<rect id="SVGID_9_" x="0" width="343.846" height="433.078"/>
		</defs>
		<clipPath id="SVGID_10_">
			<use xlink:href="#SVGID_9_"  overflow="visible"/>
		</clipPath>
	</g>
	<g>
		<defs>
			<rect id="SVGID_11_" x="0" width="343.846" height="433.078"/>
		</defs>
		<clipPath id="SVGID_12_">
			<use xlink:href="#SVGID_11_"  overflow="visible"/>
		</clipPath>
	</g>
	<g>
		<defs>
			<rect id="SVGID_13_" x="0" width="343.846" height="433.078"/>
		</defs>
		<clipPath id="SVGID_14_">
			<use xlink:href="#SVGID_13_"  overflow="visible"/>
		</clipPath>
	</g>
	<g>
		<defs>
			<rect id="SVGID_15_" x="0" width="343.846" height="433.078"/>
		</defs>
		<clipPath id="SVGID_16_">
			<use xlink:href="#SVGID_15_"  overflow="visible"/>
		</clipPath>
	</g>
	<g>
		<defs>
			<rect id="SVGID_17_" x="0" width="343.846" height="433.078"/>
		</defs>
		<clipPath id="SVGID_18_">
			<use xlink:href="#SVGID_17_"  overflow="visible"/>
		</clipPath>
	</g>
	<g>
		<defs>
			<rect id="SVGID_19_" x="0" width="343.846" height="433.078"/>
		</defs>
		<clipPath id="SVGID_20_">
			<use xlink:href="#SVGID_19_"  overflow="visible"/>
		</clipPath>
	</g>
	<g>
		<defs>
			<rect id="SVGID_21_" x="0" width="343.846" height="433.078"/>
		</defs>
		<clipPath id="SVGID_22_">
			<use xlink:href="#SVGID_21_"  overflow="visible"/>
		</clipPath>
	</g>
	<g>
		<defs>
			<rect id="SVGID_23_" x="0" width="343.846" height="433.078"/>
		</defs>
		<clipPath id="SVGID_24_">
			<use xlink:href="#SVGID_23_"  overflow="visible"/>
		</clipPath>
	</g>
	<g>
		<defs>
			<rect id="SVGID_25_" x="0" width="343.846" height="433.078"/>
		</defs>
		<clipPath id="SVGID_26_">
			<use xlink:href="#SVGID_25_"  overflow="visible"/>
		</clipPath>
	</g>
	<g>
		<defs>
			<rect id="SVGID_27_" x="0" width="343.846" height="433.078"/>
		</defs>
		<clipPath id="SVGID_28_">
			<use xlink:href="#SVGID_27_"  overflow="visible"/>
		</clipPath>
	</g>
	<g>
		<defs>
			<rect id="SVGID_29_" x="0" width="343.846" height="433.078"/>
		</defs>
		<clipPath id="SVGID_30_">
			<use xlink:href="#SVGID_29_"  overflow="visible"/>
		</clipPath>
	</g>
	<g>
		<defs>
			<rect id="SVGID_31_" x="0" width="343.846" height="433.078"/>
		</defs>
		<clipPath id="SVGID_32_">
			<use xlink:href="#SVGID_31_"  overflow="visible"/>
		</clipPath>
	</g>
	<g>
		<defs>
			<rect id="SVGID_33_" x="0" width="343.846" height="433.078"/>
		</defs>
		<clipPath id="SVGID_34_">
			<use xlink:href="#SVGID_33_"  overflow="visible"/>
		</clipPath>
	</g>
	<g>
		<defs>
			<rect id="SVGID_35_" x="0" width="343.846" height="433.078"/>
		</defs>
		<clipPath id="SVGID_36_">
			<use xlink:href="#SVGID_35_"  overflow="visible"/>
		</clipPath>
	</g>
	<g>
		<defs>
			<rect id="SVGID_37_" x="0" width="343.846" height="433.078"/>
		</defs>
		<clipPath id="SVGID_38_">
			<use xlink:href="#SVGID_37_"  overflow="visible"/>
		</clipPath>
	</g>
	<g>
		<defs>
			<rect id="SVGID_39_" x="0" width="343.846" height="433.078"/>
		</defs>
		<clipPath id="SVGID_40_">
			<use xlink:href="#SVGID_39_"  overflow="visible"/>
		</clipPath>
		<path clip-path="url(#SVGID_40_)" fill="#F5DBB4" d="M303.854,190.559c-5.666,50.5-56.301,101.5-127.177,101.5
			c-70.877,0-121.489-48.333-131.823-101.5c-10.694-55.027,57.125-101.5,128.001-101.5S310.104,134.852,303.854,190.559"/>
	</g>
	<g>
		<defs>
			<rect id="SVGID_41_" x="0" width="343.846" height="433.078"/>
		</defs>
		<clipPath id="SVGID_42_">
			<use xlink:href="#SVGID_41_"  overflow="visible"/>
		</clipPath>
		<path clip-path="url(#SVGID_42_)" fill="#75B72B" d="M64.547,172.604c-14.095,31.993-32.692,54.788-48.091,47.985
			c-12.46-5.503-11.144-35.879,2.951-67.873c14.095-31.992,35.626-53.475,48.091-47.984
			C79.962,110.224,78.642,140.611,64.547,172.604"/>
	</g>
	<g>
		<defs>
			<rect id="SVGID_43_" x="0" width="343.846" height="433.078"/>
		</defs>
		<clipPath id="SVGID_44_">
			<use xlink:href="#SVGID_43_"  overflow="visible"/>
		</clipPath>
		<path clip-path="url(#SVGID_44_)" fill="#75B72B" d="M332.522,165.726c-10.846-30.233-27.771-57.027-43.641-51.408
			c-12.839,4.547-13.822,34.935-2.184,67.901c11.636,32.966,29.217,57.332,44.327,51.48
			C340.431,230.059,343.522,196.392,332.522,165.726"/>
	</g>
	<g>
		<defs>
			<rect id="SVGID_45_" x="0" width="343.846" height="433.078"/>
		</defs>
		<clipPath id="SVGID_46_">
			<use xlink:href="#SVGID_45_"  overflow="visible"/>
		</clipPath>
		<path clip-path="url(#SVGID_46_)" fill="#75B72B" d="M309.522,140.059c-50.334-7.667-171.453-34.333-265.786,0
			c8.667-21,0.104-95.674,17.453-122c9.666-14.667,68.488-2.214,117.049-1.652c52.266,0.603,117.95-8.015,126.026,10.652
			C317.069,56.659,301.854,98.938,309.522,140.059"/>
	</g>
	<g>
		<defs>
			<rect id="SVGID_47_" x="0" width="343.846" height="433.078"/>
		</defs>
		<clipPath id="SVGID_48_">
			<use xlink:href="#SVGID_47_"  overflow="visible"/>
		</clipPath>
		<path clip-path="url(#SVGID_48_)" fill="#33A938" d="M288.856,140.059c-64.584-16.25-134.584-24.5-220.518-7.486
			c-0.816-22.264,1.163-72.26,1.163-72.26l222.521,8.746C292.022,69.059,290.272,124.309,288.856,140.059"/>
	</g>
	<g>
		<defs>
			<rect id="SVGID_49_" x="0" width="343.846" height="433.078"/>
		</defs>
		<clipPath id="SVGID_50_">
			<use xlink:href="#SVGID_49_"  overflow="visible"/>
		</clipPath>
		
			<path clip-path="url(#SVGID_50_)" fill="none" stroke="#33A938" stroke-width="2" stroke-linecap="round" stroke-miterlimit="10" d="
			M307.409,120.72c-0.037-0.924-10.638-9.786-18.063-6.552"/>
	</g>
	<g>
		<defs>
			<rect id="SVGID_51_" x="0" width="343.846" height="433.078"/>
		</defs>
		<clipPath id="SVGID_52_">
			<use xlink:href="#SVGID_51_"  overflow="visible"/>
		</clipPath>
		
			<path clip-path="url(#SVGID_52_)" fill="none" stroke="#33A938" stroke-width="2" stroke-linecap="round" stroke-miterlimit="10" d="
			M47.963,111.082c1.809-1.898,9.103-8.102,20.534-5.837"/>
	</g>
	<g>
		<defs>
			<rect id="SVGID_53_" x="0" width="343.846" height="433.078"/>
		</defs>
		<clipPath id="SVGID_54_">
			<use xlink:href="#SVGID_53_"  overflow="visible"/>
		</clipPath>
		<path clip-path="url(#SVGID_54_)" fill="#FFFFFF" d="M253.272,175.809c0,23.403-11.461,35.75-33.922,35.75
			c-22.463,0-42.673-21.43-42.673-44.833s11.882-37.167,34.345-37.167C233.483,129.559,253.272,152.406,253.272,175.809"/>
	</g>
	<g>
		<defs>
			<rect id="SVGID_55_" x="0" width="343.846" height="433.078"/>
		</defs>
		<clipPath id="SVGID_56_">
			<use xlink:href="#SVGID_55_"  overflow="visible"/>
		</clipPath>
		<path clip-path="url(#SVGID_56_)" fill="#FFFFFF" d="M176.677,164.809c0,19.468-19.155,48-50.655,43.5
			c-20.75-2.964-26.5-18.282-26.5-37.75c0-19.468,20-44,49-42.75C169.462,128.71,176.677,145.341,176.677,164.809"/>
	</g>
	<g>
		<defs>
			<rect id="SVGID_57_" x="0" width="343.846" height="433.078"/>
		</defs>
		<clipPath id="SVGID_58_">
			<use xlink:href="#SVGID_57_"  overflow="visible"/>
		</clipPath>
		
			<path clip-path="url(#SVGID_58_)" fill="none" stroke="#12100B" stroke-width="3" stroke-linecap="round" stroke-miterlimit="10" d="
			M158.022,254.226c0,0,0.5,9.499,33.5,2.666"/>
	</g>
	<g>
		<defs>
			<rect id="SVGID_59_" x="0" width="343.846" height="433.078"/>
		</defs>
		<clipPath id="SVGID_60_">
			<use xlink:href="#SVGID_59_"  overflow="visible"/>
		</clipPath>
		<path clip-path="url(#SVGID_60_)" fill="#12100B" d="M164.523,171.226c0,2.762-2.164,5-4.833,5c-2.67,0-4.834-2.238-4.834-5
			c0-2.762,2.164-5,4.834-5C162.359,166.226,164.523,168.463,164.523,171.226"/>
	</g>
	<g>
		<defs>
			<rect id="SVGID_61_" x="0" width="343.846" height="433.078"/>
		</defs>
		<clipPath id="SVGID_62_">
			<use xlink:href="#SVGID_61_"  overflow="visible"/>
		</clipPath>
		<path clip-path="url(#SVGID_62_)" fill="#12100B" d="M244.522,174.226c0,2.762-2.164,5-4.832,5c-2.67,0-4.834-2.238-4.834-5
			c0-2.762,2.164-5,4.834-5C242.358,169.226,244.522,171.463,244.522,174.226"/>
	</g>
</g>
</svg>
