<?xml version="1.0" encoding="utf-8"?>
<!-- Generator: Adobe Illustrator 15.1.0, SVG Export Plug-In . SVG Version: 6.00 Build 0)  -->
<!DOCTYPE svg PUBLIC "-//W3C//DTD SVG 1.1//EN" "http://www.w3.org/Graphics/SVG/1.1/DTD/svg11.dtd">
<svg version="1.1" id="Layer_1" xmlns="http://www.w3.org/2000/svg" xmlns:xlink="http://www.w3.org/1999/xlink" x="0px" y="0px"
	 width="343.846px" height="433.078px" viewBox="0 0 343.846 433.078" enable-background="new 0 0 343.846 433.078"
	 xml:space="preserve">
<rect x="81.538" y="381.154" fill="#326C2E" width="176" height="37"/>
<g>
	<g>
		<defs>
			<rect id="SVGID_1_" x="0" y="0.6" width="343.846" height="433.077"/>
		</defs>
		<clipPath id="SVGID_2_">
			<use xlink:href="#SVGID_1_"  overflow="visible"/>
		</clipPath>
		<path clip-path="url(#SVGID_2_)" fill="#E65012" d="M254.574,259.964c-64.408,42.66-135.799,24.152-171.927,3.789
			c-19.573,28.904-40.137,64.535-36.573,102.654c13,45,229.5,36.25,253-4C297.574,306.408,254.574,259.964,254.574,259.964"/>
	</g>
	<g>
		<defs>
			<rect id="SVGID_3_" x="0" y="0.6" width="343.846" height="433.077"/>
		</defs>
		<clipPath id="SVGID_4_">
			<use xlink:href="#SVGID_3_"  overflow="visible"/>
		</clipPath>
		<path clip-path="url(#SVGID_4_)" fill="#12100B" d="M266.263,416.199c5.938,1.709,3.999,5.334,0.989,5.9
			c-1.582,0.297-195.763,1.248-199.595,1.08c-3.834-0.166-3.474-5.188-1-5.354C178.49,410.326,260.176,414.447,266.263,416.199"/>
	</g>
	<g>
		<defs>
			<rect id="SVGID_5_" x="0" y="0.6" width="343.846" height="433.077"/>
		</defs>
		<clipPath id="SVGID_6_">
			<use xlink:href="#SVGID_5_"  overflow="visible"/>
		</clipPath>
		<path clip-path="url(#SVGID_6_)" fill="#12100B" d="M254.292,322.875c0,0,0.21,0.5,0.578,1.375
			c0.373,0.875,0.855,2.143,1.424,3.668c0.594,1.518,1.18,3.324,1.837,5.254c0.297,0.975,0.605,1.982,0.917,3.006
			c0.301,1.025,0.651,2.059,0.91,3.117c0.284,1.051,0.569,2.104,0.85,3.139c0.143,0.518,0.282,1.031,0.421,1.539
			c0.123,0.512,0.211,1.023,0.313,1.527c0.177,1.008,0.334,1.984,0.443,2.916c0.119,0.932,0.242,1.809,0.247,2.635
			c0.137,3.289-0.059,5.477-0.059,5.477l-0.199,0.018c0,0-0.702-2.113-1.326-5.271c-0.14-0.791-0.372-1.639-0.571-2.541
			c-0.216-0.898-0.404-1.852-0.582-2.842c-0.151-0.994-0.326-2.02-0.518-3.063c-0.189-1.041-0.382-2.1-0.574-3.158
			c-0.183-1.064-0.458-2.105-0.686-3.143c-0.238-1.035-0.473-2.053-0.701-3.037c-0.531-1.951-0.945-3.799-1.398-5.354
			c-0.426-1.566-0.808-2.863-1.079-3.768c-0.276-0.906-0.434-1.426-0.434-1.426L254.292,322.875z"/>
	</g>
	<g>
		<defs>
			<rect id="SVGID_7_" x="0" y="0.6" width="343.846" height="433.077"/>
		</defs>
		<clipPath id="SVGID_8_">
			<use xlink:href="#SVGID_7_"  overflow="visible"/>
		</clipPath>
		<path clip-path="url(#SVGID_8_)" fill="#12100B" d="M86.672,322.425c0,0-0.377,2.596-0.861,6.498
			c-0.464,3.904-1.138,9.1-1.619,14.309c-0.104,1.303-0.233,2.605-0.31,3.887c-0.089,1.281-0.175,2.543-0.259,3.762
			c-0.115,1.215-0.228,2.389-0.332,3.502c-0.099,1.111-0.233,2.164-0.303,3.131c-0.074,0.969-0.199,1.865-0.226,2.648
			c-0.038,0.787-0.131,1.486-0.139,2.051c-0.008,1.133-0.047,1.803-0.047,1.803l-0.197,0.035c0,0-0.188-0.631-0.457-1.777
			c-0.151-0.574-0.214-1.271-0.329-2.082c-0.119-0.811-0.158-1.719-0.206-2.715c-0.065-0.998-0.046-2.07-0.028-3.209
			c-0.007-1.141,0.097-2.33,0.188-3.564c0.239-2.463,0.669-5.064,1.056-7.666c0.799-5.199,1.715-10.369,2.518-14.227
			c0.782-3.857,1.354-6.42,1.354-6.42L86.672,322.425z"/>
	</g>
	<g>
		<defs>
			<rect id="SVGID_9_" x="0" y="0.6" width="343.846" height="433.077"/>
		</defs>
		<clipPath id="SVGID_10_">
			<use xlink:href="#SVGID_9_"  overflow="visible"/>
		</clipPath>
		<path clip-path="url(#SVGID_10_)" fill="#75B72B" d="M258.574,363.845c0-12.047,9.51-22.438,21.625-22.438
			c12.114,0,22.875,10.391,22.875,22.438s-9.822,22.438-21.938,22.438C269.021,386.283,258.574,375.892,258.574,363.845"/>
	</g>
	<g>
		<defs>
			<rect id="SVGID_11_" x="0" y="0.6" width="343.846" height="433.077"/>
		</defs>
		<clipPath id="SVGID_12_">
			<use xlink:href="#SVGID_11_"  overflow="visible"/>
		</clipPath>
		<path clip-path="url(#SVGID_12_)" fill="#75B72B" d="M254.824,357.158c0-5.455,4.226-8.408,9.438-8.406
			c5.211,0,9.438,2.953,9.438,8.406c0,5.455-4.227,9.875-9.438,9.875C259.05,367.033,254.824,362.613,254.824,357.158"/>
	</g>
	<g>
		<defs>
			<rect id="SVGID_13_" x="0" y="0.6" width="343.846" height="433.077"/>
		</defs>
		<clipPath id="SVGID_14_">
			<use xlink:href="#SVGID_13_"  overflow="visible"/>
		</clipPath>
		<path clip-path="url(#SVGID_14_)" fill="none" stroke="#33A938" stroke-miterlimit="10" d="M264.262,348.751
			c5.211,0,9.438,2.953,9.438,8.406c0,5.455-4.227,9.875-9.438,9.875c-5.212,0-9.438-4.42-9.438-9.875
			S259.05,348.75,264.262,348.751z"/>
	</g>
	<g>
		<defs>
			<rect id="SVGID_15_" x="0" y="0.6" width="343.846" height="433.077"/>
		</defs>
		<clipPath id="SVGID_16_">
			<use xlink:href="#SVGID_15_"  overflow="visible"/>
		</clipPath>
		<path clip-path="url(#SVGID_16_)" fill="#75B72B" d="M40.158,370.158c0-11.805,11.239-18.063,22.957-19.832
			c13.793-2.084,20.709,9.57,20.709,21.375s-8.857,21.375-20.709,21.375C51.265,393.076,40.158,381.964,40.158,370.158"/>
	</g>
	<g>
		<defs>
			<rect id="SVGID_17_" x="0" y="0.6" width="343.846" height="433.077"/>
		</defs>
		<clipPath id="SVGID_18_">
			<use xlink:href="#SVGID_17_"  overflow="visible"/>
		</clipPath>
		<path clip-path="url(#SVGID_18_)" fill="#75B72B" d="M69.574,364.492c0-5.477,4.321-9.25,9.5-9.25c5.178,0,8.5,3.773,8.5,9.25
			c0,5.479-3.447,9.916-8.625,9.916C73.771,374.408,69.574,369.97,69.574,364.492"/>
	</g>
	<g>
		<defs>
			<rect id="SVGID_19_" x="0" y="0.6" width="343.846" height="433.077"/>
		</defs>
		<clipPath id="SVGID_20_">
			<use xlink:href="#SVGID_19_"  overflow="visible"/>
		</clipPath>
		<path clip-path="url(#SVGID_20_)" fill="none" stroke="#33A938" stroke-miterlimit="10" d="M79.074,355.242
			c5.178,0,8.5,3.773,8.5,9.25c0,5.479-3.447,9.916-8.625,9.916c-5.179,0-9.375-4.438-9.375-9.916
			C69.574,359.015,73.896,355.242,79.074,355.242z"/>
	</g>
	<g>
		<defs>
			<rect id="SVGID_21_" x="0" y="0.6" width="343.846" height="433.077"/>
		</defs>
		<clipPath id="SVGID_22_">
			<use xlink:href="#SVGID_21_"  overflow="visible"/>
		</clipPath>
		<path clip-path="url(#SVGID_22_)" fill="#33A938" d="M166.539,291.66v9.166c0,0,0.665,8.916,13.821,6.25
			c63.164-12.807,87.547-47.111,81.154-52.416L166.539,291.66z"/>
	</g>
	<g>
		<defs>
			<rect id="SVGID_23_" x="0" y="0.6" width="343.846" height="433.077"/>
		</defs>
		<clipPath id="SVGID_24_">
			<use xlink:href="#SVGID_23_"  overflow="visible"/>
		</clipPath>
		<path clip-path="url(#SVGID_24_)" fill="#12100B" d="M260.187,263.474c0,0-0.213,0.377-0.613,1.08
			c-0.401,0.703-0.974,1.75-1.804,3.027c-0.822,1.279-1.885,2.805-3.236,4.455c-0.671,0.826-1.41,1.691-2.222,2.57
			c-0.79,0.906-1.797,1.672-2.77,2.547c-3.954,3.439-8.953,6.963-14.576,10.244c-2.802,1.66-5.783,3.215-8.832,4.746
			c-3.061,1.51-6.21,2.957-9.396,4.313c-3.183,1.363-6.404,2.629-9.59,3.832c-1.602,0.58-3.189,1.154-4.758,1.723
			c-1.579,0.539-3.138,1.072-4.672,1.596c-1.542,0.498-3.058,0.99-4.542,1.469c-1.491,0.455-2.95,0.9-4.37,1.338
			c-2.839,0.869-5.606,1.604-8.226,2.014c-1.309,0.197-2.578,0.381-3.807,0.404c-1.23-0.023-2.404-0.16-3.491-0.4
			c-2.18-0.461-3.983-1.527-4.985-2.787c-1.02-1.258-1.305-2.49-1.501-3.268c-0.165-0.795-0.254-1.219-0.254-1.219
			s0.159,0.4,0.455,1.154c0.312,0.732,0.82,1.828,1.863,2.803c1.043,0.969,2.678,1.645,4.659,1.777
			c0.989,0.078,2.058,0.029,3.181-0.082c0.564-0.035,1.145-0.072,1.737-0.111c0.596-0.07,1.204-0.139,1.825-0.246
			c2.491-0.391,5.15-1.092,7.97-1.955c1.411-0.434,2.861-0.875,4.344-1.328c1.474-0.479,2.979-0.963,4.512-1.459
			c1.523-0.521,3.071-1.051,4.638-1.586c1.558-0.563,3.134-1.135,4.722-1.709c3.16-1.193,6.354-2.447,9.505-3.799
			c3.155-1.342,6.269-2.773,9.293-4.264c3.011-1.514,5.953-3.047,8.71-4.682c5.536-3.229,10.432-6.682,14.277-10.031
			c0.985-0.809,1.813-1.713,2.71-2.451c0.892-0.742,1.713-1.48,2.466-2.195c1.505-1.43,2.757-2.746,3.747-3.873
			c0.984-1.133,1.737-2.051,2.245-2.684C259.914,263.81,260.187,263.474,260.187,263.474"/>
	</g>
	<g>
		<defs>
			<rect id="SVGID_25_" x="0" y="0.6" width="343.846" height="433.077"/>
		</defs>
		<clipPath id="SVGID_26_">
			<use xlink:href="#SVGID_25_"  overflow="visible"/>
		</clipPath>
		<path clip-path="url(#SVGID_26_)" fill="#33A938" d="M166.325,290.992c0,5.975,0.065,5.975,0.25,10.975
			c0.229,6.285-6.583,5.607-6.583,5.607c-41.547,2.918-79.547-33.279-81.418-36.748c-2.25-4.166-1.582-14.334-1.582-14.334
			L166.325,290.992z"/>
	</g>
	<g>
		<defs>
			<rect id="SVGID_27_" x="0" y="0.6" width="343.846" height="433.077"/>
		</defs>
		<clipPath id="SVGID_28_">
			<use xlink:href="#SVGID_27_"  overflow="visible"/>
		</clipPath>
		<path clip-path="url(#SVGID_28_)" fill="#12100B" d="M78.574,270.826c0,0,0.23,0.336,0.754,0.863
			c0.522,0.529,1.319,1.277,2.37,2.189c1.046,0.914,2.346,1.99,3.864,3.184c0.753,0.604,1.579,1.219,2.441,1.869
			c0.884,0.625,1.673,1.451,2.619,2.166c3.676,2.994,8.163,6.25,13.188,9.393c2.532,1.541,5.168,3.1,7.933,4.525
			c2.757,1.439,5.605,2.811,8.519,4.027c2.896,1.26,5.875,2.307,8.818,3.295c2.967,0.912,5.907,1.75,8.8,2.352
			c0.721,0.154,1.438,0.309,2.147,0.459c0.715,0.121,1.423,0.242,2.123,0.361c1.397,0.26,2.776,0.434,4.12,0.588
			c1.342,0.188,2.653,0.277,3.924,0.367c1.268,0.117,2.496,0.15,3.677,0.17c0.588,0.016,1.167,0.029,1.73,0.043
			c0.564,0.004,1.115-0.057,1.652-0.045c1.073,0.045,2.093,0.088,3.048,0.127c1.824,0.01,3.428-0.398,4.468-1.162
			c1.051-0.76,1.482-1.797,1.646-2.504c0.16-0.719,0.157-1.127,0.157-1.127s0.08,0.393,0.056,1.158
			c-0.035,0.736-0.247,1.98-1.347,3.068c-1.075,1.082-2.821,1.832-4.858,2.146c-1.005,0.131-2.024,0.223-3.133,0.32
			c-1.103,0.063-2.261-0.006-3.47-0.025c-1.209-0.021-2.47-0.059-3.768-0.176c-1.301-0.094-2.646-0.184-4.018-0.377
			c-1.376-0.156-2.787-0.334-4.217-0.602c-0.718-0.121-1.441-0.246-2.173-0.369c-0.724-0.156-1.456-0.311-2.194-0.469
			c-2.957-0.615-5.958-1.471-8.985-2.402c-3.001-1.006-6.038-2.074-8.986-3.357c-2.967-1.238-5.863-2.633-8.667-4.096
			c-2.81-1.453-5.489-3.037-8.059-4.602c-5.105-3.189-9.66-6.494-13.395-9.535c-0.924-0.771-1.867-1.445-2.649-2.221
			c-0.776-0.781-1.516-1.514-2.188-2.229c-1.36-1.41-2.485-2.701-3.382-3.785c-0.908-1.072-1.549-1.98-1.979-2.6
			C78.736,271.187,78.574,270.826,78.574,270.826"/>
	</g>
	<g>
		<defs>
			<rect id="SVGID_29_" x="0" y="0.6" width="343.846" height="433.077"/>
		</defs>
		<clipPath id="SVGID_30_">
			<use xlink:href="#SVGID_29_"  overflow="visible"/>
		</clipPath>
		<polygon clip-path="url(#SVGID_30_)" fill="none" stroke="#12100B" stroke-width="2" stroke-miterlimit="10" points="
			110.538,317.658 110.538,360.753 145.538,360.753 145.538,318.658 		"/>
	</g>
	<g>
		<defs>
			<rect id="SVGID_31_" x="0" y="0.6" width="343.846" height="433.077"/>
		</defs>
		<clipPath id="SVGID_32_">
			<use xlink:href="#SVGID_31_"  overflow="visible"/>
		</clipPath>
		<polygon clip-path="url(#SVGID_32_)" fill="none" stroke="#12100B" stroke-width="2" stroke-miterlimit="10" points="
			191.657,319.242 190.407,361.658 226.907,362.408 226.491,319.908 		"/>
	</g>
	<g>
		<defs>
			<rect id="SVGID_33_" x="0" y="0.6" width="343.846" height="433.077"/>
		</defs>
		<clipPath id="SVGID_34_">
			<use xlink:href="#SVGID_33_"  overflow="visible"/>
		</clipPath>
		<polygon clip-path="url(#SVGID_34_)" fill="none" stroke="#12100B" stroke-width="2" stroke-miterlimit="10" points="
			192.705,319.269 207.907,342.826 225.199,320.283 		"/>
	</g>
	<g>
		<defs>
			<rect id="SVGID_35_" x="0" y="0.6" width="343.846" height="433.077"/>
		</defs>
		<clipPath id="SVGID_36_">
			<use xlink:href="#SVGID_35_"  overflow="visible"/>
		</clipPath>
		<polygon clip-path="url(#SVGID_36_)" fill="none" stroke="#12100B" stroke-width="2" stroke-miterlimit="10" points="
			111.324,318.035 125.824,340.283 144.067,318.96 		"/>
	</g>
	<g>
		<defs>
			<rect id="SVGID_37_" x="0" y="0.6" width="343.846" height="433.077"/>
		</defs>
		<clipPath id="SVGID_38_">
			<use xlink:href="#SVGID_37_"  overflow="visible"/>
		</clipPath>
		
			<line clip-path="url(#SVGID_38_)" fill="none" stroke="#12100B" stroke-width="2" stroke-miterlimit="10" x1="168.324" y1="395.533" x2="166.58" y2="295.035"/>
	</g>
	<g>
		<defs>
			<rect id="SVGID_39_" x="0" y="0.6" width="343.846" height="433.077"/>
		</defs>
		<clipPath id="SVGID_40_">
			<use xlink:href="#SVGID_39_"  overflow="visible"/>
		</clipPath>
		<path clip-path="url(#SVGID_40_)" fill="#F5DBB4" d="M39.992,191.159c-6.25-55.707,60.123-101.5,130.999-101.5
			s138.695,46.473,128.001,101.5c-10.334,53.167-60.946,101.5-131.823,101.5C96.293,292.66,45.658,241.66,39.992,191.159"/>
	</g>
	<g>
		<defs>
			<rect id="SVGID_41_" x="0" y="0.6" width="343.846" height="433.077"/>
		</defs>
		<clipPath id="SVGID_42_">
			<use xlink:href="#SVGID_41_"  overflow="visible"/>
		</clipPath>
		<path clip-path="url(#SVGID_42_)" fill="#75B72B" d="M279.299,173.204c-14.095-31.993-15.415-62.38-2.951-67.871
			c12.465-5.491,33.996,15.992,48.091,47.984c14.095,31.993,15.411,62.369,2.951,67.872
			C311.991,227.992,293.394,205.197,279.299,173.204"/>
	</g>
	<g>
		<defs>
			<rect id="SVGID_43_" x="0" y="0.6" width="343.846" height="433.077"/>
		</defs>
		<clipPath id="SVGID_44_">
			<use xlink:href="#SVGID_43_"  overflow="visible"/>
		</clipPath>
		<path clip-path="url(#SVGID_44_)" fill="#75B72B" d="M11.324,166.326c-11,30.666-7.909,64.333,1.497,67.972
			c15.11,5.852,32.691-18.513,44.327-51.479c11.639-32.966,10.655-63.354-2.184-67.901C39.095,109.299,22.17,136.093,11.324,166.326
			"/>
	</g>
	<g>
		<defs>
			<rect id="SVGID_45_" x="0" y="0.6" width="343.846" height="433.077"/>
		</defs>
		<clipPath id="SVGID_46_">
			<use xlink:href="#SVGID_45_"  overflow="visible"/>
		</clipPath>
		<path clip-path="url(#SVGID_46_)" fill="#75B72B" d="M34.324,140.659c7.668-41.121-7.547-83.4,5.258-113
			c8.076-18.667,73.761-10.049,126.026-10.652c48.561-0.562,107.383-13.015,117.049,1.652c17.35,26.326,8.786,101,17.453,122
			C205.778,106.326,84.658,132.992,34.324,140.659"/>
	</g>
	<g>
		<defs>
			<rect id="SVGID_47_" x="0" y="0.6" width="343.846" height="433.077"/>
		</defs>
		<clipPath id="SVGID_48_">
			<use xlink:href="#SVGID_47_"  overflow="visible"/>
		</clipPath>
		<path clip-path="url(#SVGID_48_)" fill="#33A938" d="M54.99,140.659c-1.416-15.75-3.166-71-3.166-71l222.521-8.746
			c0,0,1.979,49.996,1.163,72.26C189.574,116.159,119.574,124.409,54.99,140.659"/>
	</g>
	<g>
		<defs>
			<rect id="SVGID_49_" x="0" y="0.6" width="343.846" height="433.077"/>
		</defs>
		<clipPath id="SVGID_50_">
			<use xlink:href="#SVGID_49_"  overflow="visible"/>
		</clipPath>
		
			<path clip-path="url(#SVGID_50_)" fill="none" stroke="#33A938" stroke-width="2" stroke-linecap="round" stroke-miterlimit="10" d="
			M54.499,114.768c-7.425-3.234-18.025,5.628-18.063,6.552"/>
	</g>
	<g>
		<defs>
			<rect id="SVGID_51_" x="0" y="0.6" width="343.846" height="433.077"/>
		</defs>
		<clipPath id="SVGID_52_">
			<use xlink:href="#SVGID_51_"  overflow="visible"/>
		</clipPath>
		
			<path clip-path="url(#SVGID_52_)" fill="none" stroke="#33A938" stroke-width="2" stroke-linecap="round" stroke-miterlimit="10" d="
			M275.349,105.845c11.432-2.265,18.726,3.939,20.534,5.837"/>
	</g>
	<g>
		<defs>
			<rect id="SVGID_53_" x="0" y="0.6" width="343.846" height="433.077"/>
		</defs>
		<clipPath id="SVGID_54_">
			<use xlink:href="#SVGID_53_"  overflow="visible"/>
		</clipPath>
		<path clip-path="url(#SVGID_54_)" fill="#FFFFFF" d="M90.574,176.409c0-23.403,19.789-46.25,42.25-46.25
			c22.463,0,34.345,13.764,34.345,37.167s-20.21,44.833-42.673,44.833C102.035,212.159,90.574,199.812,90.574,176.409"/>
	</g>
	<g>
		<defs>
			<rect id="SVGID_55_" x="0" y="0.6" width="343.846" height="433.077"/>
		</defs>
		<clipPath id="SVGID_56_">
			<use xlink:href="#SVGID_55_"  overflow="visible"/>
		</clipPath>
		<path clip-path="url(#SVGID_56_)" fill="#FFFFFF" d="M167.169,165.409c0-19.468,7.215-36.099,28.155-37
			c29-1.25,49,23.282,49,42.75c0,19.468-5.75,34.786-26.5,37.75C186.324,213.409,167.169,184.877,167.169,165.409"/>
	</g>
	<g>
		<defs>
			<rect id="SVGID_57_" x="0" y="0.6" width="343.846" height="433.077"/>
		</defs>
		<clipPath id="SVGID_58_">
			<use xlink:href="#SVGID_57_"  overflow="visible"/>
		</clipPath>
	</g>
	<g>
		<defs>
			<rect id="SVGID_59_" x="0" y="0.6" width="343.846" height="433.077"/>
		</defs>
		<clipPath id="SVGID_60_">
			<use xlink:href="#SVGID_59_"  overflow="visible"/>
		</clipPath>
		<path clip-path="url(#SVGID_60_)" fill="#12100B" d="M172.323,172.285c0-2.763,2.164-5,4.833-5c2.67,0,4.834,2.238,4.834,5
			c0,2.762-2.164,5-4.834,5C174.488,177.285,172.323,175.046,172.323,172.285"/>
	</g>
	<g>
		<defs>
			<rect id="SVGID_61_" x="0" y="0.6" width="343.846" height="433.077"/>
		</defs>
		<clipPath id="SVGID_62_">
			<use xlink:href="#SVGID_61_"  overflow="visible"/>
		</clipPath>
		<path clip-path="url(#SVGID_62_)" fill="#12100B" d="M95.725,173.026c0-2.763,2.164-5,4.832-5c2.67,0,4.834,2.238,4.834,5
			c0,2.762-2.164,5-4.834,5C97.889,178.026,95.725,175.788,95.725,173.026"/>
	</g>
</g>
<line fill="none" stroke="#12100B" stroke-width="3" stroke-linecap="round" stroke-miterlimit="10" x1="248.24" y1="136.267" x2="192.64" y2="117.402"/>
<line fill="none" stroke="#12100B" stroke-width="3" stroke-linecap="round" stroke-miterlimit="10" x1="91.68" y1="139.147" x2="145.381" y2="117.402"/>
<ellipse fill="#070707" cx="169.538" cy="255.642" rx="28.167" ry="6.618"/>
</svg>
