<?xml version="1.0" encoding="utf-8"?>
<!-- Generator: Adobe Illustrator 15.1.0, SVG Export Plug-In . SVG Version: 6.00 Build 0)  -->
<!DOCTYPE svg PUBLIC "-//W3C//DTD SVG 1.1//EN" "http://www.w3.org/Graphics/SVG/1.1/DTD/svg11.dtd">
<svg version="1.1" id="Layer_1" xmlns="http://www.w3.org/2000/svg" xmlns:xlink="http://www.w3.org/1999/xlink" x="0px" y="0px"
	 width="343.846px" height="433.077px" viewBox="0 0 343.846 433.077" enable-background="new 0 0 343.846 433.077"
	 xml:space="preserve">
<rect x="86.308" y="381.154" fill="#326C2E" width="176" height="37"/>
<g>
	<defs>
		<rect id="SVGID_1_" width="343.846" height="433.077"/>
	</defs>
	<clipPath id="SVGID_2_">
		<use xlink:href="#SVGID_1_"  overflow="visible"/>
	</clipPath>
	<path clip-path="url(#SVGID_2_)" fill="#E65012" d="M89.272,259.364c0,0-43,46.444-44.5,102.444c23.5,40.25,240,49,253,4
		c3.563-38.12-17-73.75-36.574-102.654C225.071,283.516,153.68,302.025,89.272,259.364"/>
	<path clip-path="url(#SVGID_2_)" fill="#12100B" d="M77.583,415.6c6.087-1.753,87.773-5.874,199.606,1.626
		c2.473,0.166,2.834,5.188-1,5.354c-3.832,0.167-198.013-0.784-199.595-1.081C73.584,420.934,71.646,417.309,77.583,415.6"/>
	<path clip-path="url(#SVGID_2_)" fill="#12100B" d="M89.741,322.344c0,0-0.157,0.518-0.433,1.425
		c-0.272,0.905-0.653,2.201-1.079,3.767c-0.453,1.555-0.867,3.403-1.399,5.354c-0.228,0.984-0.463,2.003-0.701,3.037
		c-0.227,1.037-0.503,2.079-0.685,3.142c-0.193,1.059-0.385,2.118-0.575,3.16c-0.191,1.042-0.366,2.067-0.517,3.062
		c-0.178,0.989-0.366,1.943-0.582,2.842c-0.199,0.902-0.432,1.749-0.572,2.541c-0.624,3.158-1.326,5.27-1.326,5.27l-0.199-0.016
		c0,0-0.195-2.188-0.059-5.478c0.005-0.826,0.128-1.703,0.248-2.634c0.109-0.932,0.266-1.909,0.443-2.917
		c0.101-0.502,0.189-1.015,0.312-1.526c0.139-0.508,0.279-1.021,0.421-1.54c0.281-1.035,0.566-2.087,0.85-3.139
		c0.259-1.058,0.609-2.09,0.91-3.117c0.312-1.023,0.62-2.03,0.917-3.005c0.657-1.93,1.243-3.736,1.837-5.255
		c0.568-1.525,1.051-2.793,1.424-3.668c0.368-0.874,0.578-1.374,0.578-1.374L89.741,322.344z"/>
	<path clip-path="url(#SVGID_2_)" fill="#12100B" d="M257.371,321.791c0,0,0.573,2.562,1.355,6.42
		c0.803,3.856,1.719,9.027,2.517,14.227c0.387,2.601,0.817,5.202,1.056,7.666c0.091,1.233,0.194,2.423,0.188,3.564
		c0.017,1.138,0.037,2.21-0.029,3.209c-0.048,0.996-0.087,1.904-0.206,2.715c-0.115,0.809-0.178,1.507-0.329,2.081
		c-0.269,1.147-0.457,1.778-0.457,1.778l-0.197-0.035c0,0-0.039-0.671-0.047-1.803c-0.008-0.564-0.101-1.264-0.139-2.05
		c-0.026-0.785-0.151-1.68-0.225-2.649c-0.07-0.968-0.204-2.02-0.303-3.132c-0.105-1.113-0.217-2.287-0.332-3.501
		c-0.084-1.219-0.17-2.48-0.259-3.761c-0.076-1.283-0.205-2.584-0.309-3.888c-0.482-5.209-1.156-10.403-1.62-14.309
		c-0.484-3.902-0.861-6.498-0.861-6.498L257.371,321.791z"/>
	<path clip-path="url(#SVGID_2_)" fill="#75B72B" d="M85.272,363.246c0,12.047-10.447,22.437-22.562,22.437
		c-12.116,0-21.938-10.39-21.938-22.437s10.76-22.438,22.875-22.438C75.762,340.809,85.272,351.199,85.272,363.246"/>
	<path clip-path="url(#SVGID_2_)" fill="#75B72B" d="M89.022,356.559c0,5.454-4.226,9.875-9.438,9.875
		c-5.211,0-9.437-4.421-9.437-9.875s4.226-8.408,9.437-8.408C84.796,348.15,89.022,351.104,89.022,356.559"/>
	<path clip-path="url(#SVGID_2_)" fill="none" stroke="#33A938" stroke-miterlimit="10" d="M89.022,356.559
		c0,5.454-4.226,9.875-9.438,9.875c-5.211,0-9.437-4.421-9.437-9.875s4.226-8.408,9.437-8.408
		C84.796,348.15,89.022,351.104,89.022,356.559z"/>
	<path clip-path="url(#SVGID_2_)" fill="#75B72B" d="M303.688,369.559c0,11.805-11.107,22.917-22.957,22.917
		c-11.852,0-20.709-9.57-20.709-21.375s6.916-23.459,20.709-21.375C292.448,351.496,303.688,357.754,303.688,369.559"/>
	<path clip-path="url(#SVGID_2_)" fill="#75B72B" d="M274.272,363.893c0,5.477-4.197,9.916-9.375,9.916s-8.625-4.439-8.625-9.916
		c0-5.478,3.322-9.251,8.5-9.251S274.272,358.415,274.272,363.893"/>
	<path clip-path="url(#SVGID_2_)" fill="none" stroke="#33A938" stroke-miterlimit="10" d="M274.272,363.893
		c0,5.477-4.197,9.916-9.375,9.916s-8.625-4.439-8.625-9.916c0-5.478,3.322-9.251,8.5-9.251S274.272,358.415,274.272,363.893z"/>
	<path clip-path="url(#SVGID_2_)" fill="#33A938" d="M82.331,254.059c-6.392,5.306,17.991,39.611,81.155,52.417
		c13.156,2.667,13.821-6.25,13.821-6.25v-9.167L82.331,254.059z"/>
	<path clip-path="url(#SVGID_2_)" fill="#12100B" d="M83.659,262.875c0,0,0.273,0.335,0.786,0.963
		c0.507,0.632,1.26,1.55,2.245,2.683c0.99,1.127,2.242,2.444,3.747,3.872c0.753,0.715,1.574,1.453,2.466,2.197
		c0.897,0.738,1.724,1.641,2.71,2.451c3.845,3.348,8.741,6.802,14.277,10.031c2.757,1.634,5.699,3.168,8.71,4.681
		c3.024,1.49,6.138,2.922,9.293,4.264c3.151,1.352,6.345,2.605,9.505,3.799c1.588,0.575,3.164,1.146,4.721,1.709
		c1.567,0.535,3.115,1.064,4.638,1.586c1.532,0.495,3.038,0.981,4.512,1.458c1.482,0.453,2.932,0.896,4.344,1.328
		c2.819,0.864,5.478,1.566,7.969,1.956c0.621,0.107,1.23,0.176,1.825,0.247c0.593,0.038,1.173,0.075,1.738,0.111
		c1.123,0.11,2.191,0.16,3.18,0.082c1.982-0.134,3.617-0.809,4.66-1.778c1.043-0.974,1.551-2.071,1.863-2.803
		c0.296-0.753,0.455-1.154,0.455-1.154s-0.089,0.424-0.254,1.219c-0.196,0.777-0.481,2.009-1.501,3.267
		c-1.002,1.261-2.806,2.327-4.985,2.787c-1.087,0.24-2.261,0.378-3.491,0.401c-1.229-0.023-2.499-0.208-3.807-0.405
		c-2.619-0.409-5.387-1.144-8.226-2.014c-1.42-0.436-2.879-0.881-4.37-1.337c-1.484-0.479-3-0.97-4.542-1.468
		c-1.534-0.524-3.093-1.058-4.672-1.597c-1.568-0.568-3.156-1.142-4.757-1.723c-3.186-1.203-6.408-2.468-9.59-3.832
		c-3.186-1.355-6.335-2.803-9.396-4.312c-3.049-1.531-6.03-3.086-8.832-4.746c-5.623-3.281-10.622-6.805-14.576-10.245
		c-0.973-0.874-1.98-1.639-2.77-2.545c-0.811-0.88-1.55-1.745-2.221-2.572c-1.352-1.649-2.414-3.175-3.237-4.454
		c-0.83-1.277-1.402-2.324-1.803-3.027C83.872,263.251,83.659,262.875,83.659,262.875"/>
	<path clip-path="url(#SVGID_2_)" fill="#33A938" d="M266.854,255.892c0,0,0.668,10.167-1.582,14.334
		c-1.871,3.469-39.871,39.666-81.418,36.748c0,0-6.813,0.677-6.583-5.608c0.184-4.999,0.25-4.999,0.25-10.974L266.854,255.892z"/>
	<path clip-path="url(#SVGID_2_)" fill="#12100B" d="M265.272,270.226c0,0-0.161,0.361-0.589,0.991
		c-0.43,0.619-1.07,1.526-1.979,2.599c-0.896,1.084-2.021,2.374-3.382,3.784c-0.672,0.715-1.412,1.449-2.188,2.229
		c-0.782,0.776-1.726,1.45-2.649,2.221c-3.735,3.041-8.289,6.346-13.395,9.535c-2.569,1.565-5.249,3.149-8.059,4.601
		c-2.803,1.463-5.7,2.858-8.667,4.097c-2.948,1.283-5.985,2.352-8.986,3.358c-3.027,0.931-6.028,1.786-8.985,2.401
		c-0.738,0.158-1.471,0.313-2.195,0.469c-0.731,0.124-1.455,0.248-2.172,0.37c-1.43,0.266-2.841,0.444-4.217,0.601
		c-1.372,0.193-2.717,0.284-4.018,0.376c-1.298,0.119-2.558,0.156-3.767,0.176c-1.209,0.021-2.368,0.088-3.47,0.026
		c-1.108-0.098-2.128-0.19-3.133-0.321c-2.037-0.314-3.783-1.063-4.858-2.146c-1.1-1.088-1.312-2.332-1.347-3.069
		c-0.024-0.765,0.056-1.157,0.056-1.157s-0.003,0.407,0.157,1.127c0.164,0.706,0.596,1.744,1.646,2.504
		c1.04,0.763,2.644,1.172,4.468,1.162c0.955-0.04,1.975-0.082,3.048-0.127c0.537-0.012,1.088,0.048,1.652,0.045
		c0.564-0.014,1.143-0.028,1.731-0.043c1.181-0.019,2.409-0.054,3.677-0.171c1.27-0.09,2.582-0.178,3.923-0.367
		c1.344-0.153,2.723-0.327,4.121-0.587c0.7-0.12,1.408-0.24,2.123-0.361c0.709-0.151,1.426-0.305,2.147-0.459
		c2.893-0.602,5.833-1.44,8.8-2.352c2.943-0.989,5.923-2.035,8.818-3.296c2.913-1.216,5.762-2.588,8.519-4.027
		c2.764-1.426,5.4-2.985,7.932-4.526c5.026-3.142,9.513-6.397,13.189-9.391c0.946-0.716,1.735-1.542,2.619-2.167
		c0.862-0.651,1.688-1.266,2.441-1.868c1.519-1.195,2.819-2.27,3.865-3.184c1.05-0.912,1.847-1.661,2.37-2.189
		C265.041,270.562,265.272,270.226,265.272,270.226"/>
	<polygon clip-path="url(#SVGID_2_)" fill="none" stroke="#12100B" stroke-width="2" stroke-miterlimit="10" points="
		198.308,318.059 198.308,360.154 233.308,360.154 233.308,317.059 	"/>
	<polygon clip-path="url(#SVGID_2_)" fill="none" stroke="#12100B" stroke-width="2" stroke-miterlimit="10" points="
		117.355,319.309 116.939,361.809 153.439,361.059 152.189,318.642 	"/>
	<polygon clip-path="url(#SVGID_2_)" fill="none" stroke="#12100B" stroke-width="2" stroke-miterlimit="10" points="
		118.647,319.684 135.939,342.226 151.141,318.669 	"/>
	<polygon clip-path="url(#SVGID_2_)" fill="none" stroke="#12100B" stroke-width="2" stroke-miterlimit="10" points="
		199.78,318.361 218.022,339.684 232.522,317.435 	"/>
	
		<line clip-path="url(#SVGID_2_)" fill="none" stroke="#12100B" stroke-width="2" stroke-miterlimit="10" x1="177.266" y1="294.434" x2="175.522" y2="394.934"/>
	<path clip-path="url(#SVGID_2_)" fill="#F5DBB4" d="M303.854,190.559c-5.666,50.5-56.301,101.5-127.177,101.5
		c-70.877,0-121.489-48.333-131.823-101.5c-10.695-55.027,57.125-101.5,128.001-101.5S310.104,134.852,303.854,190.559"/>
	<path clip-path="url(#SVGID_2_)" fill="#75B72B" d="M64.547,172.604c-14.095,31.993-32.692,54.788-48.091,47.986
		c-12.46-5.504-11.143-35.88,2.951-67.873c14.095-31.992,35.626-53.475,48.091-47.984C79.962,110.224,78.642,140.611,64.547,172.604
		"/>
	<path clip-path="url(#SVGID_2_)" fill="#75B72B" d="M332.522,165.726c-10.846-30.233-27.771-57.027-43.641-51.408
		c-12.839,4.547-13.822,34.935-2.184,67.901c11.636,32.966,29.217,57.331,44.328,51.48
		C340.431,230.059,343.522,196.392,332.522,165.726"/>
	<path clip-path="url(#SVGID_2_)" fill="#75B72B" d="M309.522,140.059c-50.334-7.667-171.453-34.333-265.786,0
		c8.667-21,0.103-95.674,17.453-122c9.666-14.667,68.488-2.214,117.049-1.652c52.265,0.603,117.95-8.015,126.026,10.652
		C317.069,56.659,301.854,98.938,309.522,140.059"/>
	<path clip-path="url(#SVGID_2_)" fill="#33A938" d="M288.856,140.059c-64.584-16.25-134.584-24.5-220.518-7.486
		c-0.816-22.264,1.163-72.26,1.163-72.26l222.521,8.746C292.022,69.059,290.272,124.309,288.856,140.059"/>
	
		<path clip-path="url(#SVGID_2_)" fill="none" stroke="#33A938" stroke-width="2" stroke-linecap="round" stroke-miterlimit="10" d="
		M307.409,120.72c-0.037-0.924-10.637-9.786-18.062-6.552"/>
	
		<path clip-path="url(#SVGID_2_)" fill="none" stroke="#33A938" stroke-width="2" stroke-linecap="round" stroke-miterlimit="10" d="
		M47.963,111.082c1.809-1.898,9.103-8.102,20.534-5.837"/>
	<path clip-path="url(#SVGID_2_)" fill="#FFFFFF" d="M253.272,175.809c0,23.403-11.461,35.75-33.922,35.75
		c-22.463,0-42.673-21.43-42.673-44.833s11.882-37.167,34.345-37.167C233.483,129.559,253.272,152.406,253.272,175.809"/>
	<path clip-path="url(#SVGID_2_)" fill="#FFFFFF" d="M176.677,164.809c0,19.468-19.155,48-50.655,43.5
		c-20.75-2.964-26.5-18.282-26.5-37.75s20-44,49-42.75C169.462,128.71,176.677,145.341,176.677,164.809"/>
	
		<path clip-path="url(#SVGID_2_)" fill="none" stroke="#12100B" stroke-width="3" stroke-linecap="round" stroke-miterlimit="10" d="
		M158.022,254.226c0,0,0.5,9.499,33.5,2.666"/>
	<path clip-path="url(#SVGID_2_)" fill="#12100B" d="M164.523,171.226c0,2.762-2.164,5-4.833,5c-2.67,0-4.834-2.238-4.834-5
		s2.164-5,4.834-5C162.359,166.226,164.523,168.463,164.523,171.226"/>
	<path clip-path="url(#SVGID_2_)" fill="#12100B" d="M244.522,174.226c0,2.762-2.164,5-4.832,5c-2.67,0-4.834-2.238-4.834-5
		s2.164-5,4.834-5C242.358,169.226,244.522,171.463,244.522,174.226"/>
</g>
</svg>
