<?xml version="1.0" encoding="utf-8"?>
<!-- Generator: Adobe Illustrator 15.1.0, SVG Export Plug-In . SVG Version: 6.00 Build 0)  -->
<!DOCTYPE svg PUBLIC "-//W3C//DTD SVG 1.1//EN" "http://www.w3.org/Graphics/SVG/1.1/DTD/svg11.dtd">
<svg version="1.1" xmlns="http://www.w3.org/2000/svg" xmlns:xlink="http://www.w3.org/1999/xlink" x="0px" y="0px" width="338px"
	 height="583.706px" viewBox="0 0 338 583.706" enable-background="new 0 0 338 583.706" xml:space="preserve">
<g id="jpg" display="none">
	<g id="svDniS_1_" display="inline" opacity="0.3">
		
			<image overflow="visible" width="256" height="192" id="svDniS_3_" xlink:href="235A7E38.jpg"  transform="matrix(1 0 0 1 53.625 112.0884)">
		</image>
	</g>
	<g id="svDniS_2_" display="inline">
		
			<image overflow="visible" width="256" height="192" id="svDniS_4_" xlink:href="235A7E39.jpg"  transform="matrix(1 0 0 1 415.625 129.4219)">
		</image>
	</g>
</g>
<g id="legs">
	<polyline fill="#40ABB1" points="125.24,433.206 125.24,566.211 166.175,566.211 166.199,460.113 170.683,460.113 170.683,566.211 
		208.951,566.211 208.951,433.206 	"/>
</g>
<g id="body">
	<path fill="#F6DBB4" d="M245.823,408.076c0,0,10.962,13.172,7.374,17.955s-3.063-4.783-3.325,0s2.326,5.978-4.049,16.144
		c0,0-11.069,10.181-19.533-8.969c0,0-2.964-5.907-4.771-17.304C219.713,404.506,245.823,408.076,245.823,408.076z"/>
	<polygon fill="#253326" stroke="#2B382E" stroke-miterlimit="10" points="217.92,433.206 217.92,285.524 114.477,279.2 
		114.477,432.011 	"/>
	<path fill="#253326" stroke="#2A372E" stroke-miterlimit="10" d="M241.787,272.207c0,0,20.577,66.32,10.41,131.494l-35.277,11.36
		c0,0-4.064-126.77-2.032-129.153C216.92,283.524,241.787,272.207,241.787,272.207"/>
	<polygon fill="#253326" stroke="#2B382E" stroke-miterlimit="10" points="115.073,282.124 98.929,277.775 92.95,355.671 
		115.073,355.671 	"/>
</g>
<g id="Head">
	<ellipse id="headitself" fill="#F6DBB4" cx="167.328" cy="162.292" rx="152.137" ry="128.866"/>
	<g id="stripe">
		<polygon fill="#261A26" points="36.341,97.463 293.525,94.284 304.5,111.007 24.326,118.69 		"/>
	</g>
	<g id="moustache">
		<path fill="#624C3F" d="M164.681,216.155c0,0-28.767,2.99-27.526,23.917c0,0,15.74-11.36,22.839-11.958h4.688V216.155z"/>
		<path fill="#624C3F" d="M170.663,216.155c0,0,28.764,2.99,27.525,23.917c0,0-15.738-11.36-22.84-11.958h-4.686V216.155z"/>
		<path fill="#A48257" d="M184.446,249.339c0,1.816-7.513,3.29-16.772,3.29c-9.265,0-16.776-1.473-16.776-3.29
			c0-1.816,7.512-3.288,16.776-3.288C176.934,246.051,184.446,247.523,184.446,249.339z"/>
		<path fill="#624C3F" d="M159.993,269.969c0,0,6.5-11.361,16.667-3.588c10.165,7.773,0,33.485,0,33.485s-8.416-0.725-11.979-8.734
			C161.115,283.124,157.151,273.373,159.993,269.969z"/>
	</g>
	<g id="hair">
		<path fill="#5B4F53" d="M319.465,97.162c0,0,10.273,47.238-27.398,22.722c0,0-46.641-45.442-58.6-26.308
			c0,0-13.754-8.971-12.558,30.494c0,0-37.07-44.844-34.081-27.504c0,0-4.917,13.153-19.499,1.792c0,0-6.214-17.938-13.985,16.743
			c0,0-46.64-52.619-46.64-40.66c0,0,2.988,5.381-9.568,31.691c0,0-12.555-38.866-19.73-29.897c0,0-3.588,13.753-15.547,31.69
			c0,0-14.982-33.317-18.553-20.246c0,0,0.615,14.267-23.303,21.441c0,0-8.37-30.493,0-48.432c0,0,32.887-24.516,67.568-12.557
			c0,0,12.853-34.968,33.483-23.918c0,0,66.97-23.32,130.351,14.351C251.404,38.564,305.605,56.502,319.465,97.162z"/>
	</g>
	<g id="glasses">
		<polygon fill="#5A361C" points="19.035,133.389 97.135,162.294 97.135,156.958 20.994,126.941 		"/>
		<polygon fill="#5A361C" points="315.6,133.389 236.498,158.153 235.498,152.772 313.64,126.941 		"/>
		<rect x="137.154" y="155.763" fill="#5A361C" width="58.043" height="5.381"/>
		<ellipse fill="#857D92" cx="215.887" cy="157.856" rx="20.689" ry="24.814"/>
		<path fill="#857D92" d="M137.319,160.845c0,13.704-9.265,24.814-20.69,24.814c-11.427,0-20.689-11.111-20.689-24.814
			c0-13.704,9.263-24.815,20.689-24.815c9.162,0.001,16.935,7.144,19.655,17.039C136.955,155.515,137.32,158.129,137.319,160.845z"
			/>
	</g>
</g>
</svg>
