<?xml version="1.0" encoding="utf-8"?>
<!-- Generator: Adobe Illustrator 15.1.0, SVG Export Plug-In . SVG Version: 6.00 Build 0)  -->
<!DOCTYPE svg PUBLIC "-//W3C//DTD SVG 1.1//EN" "http://www.w3.org/Graphics/SVG/1.1/DTD/svg11.dtd">
<svg version="1.1" id="Layer_1" xmlns="http://www.w3.org/2000/svg" xmlns:xlink="http://www.w3.org/1999/xlink" x="0px" y="0px"
	 width="297px" height="516.354px" viewBox="-235.5 67.353 297 516.354" enable-background="new -235.5 67.353 297 516.354"
	 xml:space="preserve">
<g id="jpg" display="none">
	<g id="svDniS_1_" display="inline" opacity="0.3">
	</g>
	<g id="svDniS_2_" display="inline">
	</g>
</g>
<g id="legs">
	<polyline fill="#40ABB1" points="-173.857,349.806 -173.857,576.913 -102.598,576.913 -102.557,395.748 -94.75,395.748 
		-94.75,576.913 -28.134,576.913 -28.134,349.806 	"/>
</g>
<g id="body">
	<path fill="#F6DBB4" d="M36.053,306.895c0,0,19.082,22.488,12.836,30.659c-6.245,8.166-5.333-8.171-5.789,0
		c-0.456,8.166,4.049,10.205-7.047,27.565c0,0-19.27,17.385-34.003-15.313c0,0-5.16-10.089-8.304-29.549
		C-9.4,300.797,36.053,306.895,36.053,306.895z"/>
	<polygon fill="#253326" stroke="#2B382E" stroke-miterlimit="10" points="-12.521,349.806 -12.521,97.634 -192.594,86.834 
		-192.594,347.765 	"/>
	<path fill="#253326" stroke="#2A372E" stroke-miterlimit="10" d="M29.027,74.895c0,0,35.82,113.242,18.121,224.529l-61.411,19.396
		c0,0-7.075-216.463-3.536-220.532C-14.262,94.219,29.027,74.895,29.027,74.895"/>
	<polygon fill="#253326" stroke="#2B382E" stroke-miterlimit="10" points="-191.556,91.828 -219.659,84.402 -230.067,217.412 
		-191.556,217.412 	"/>
</g>
</svg>
