<?xml version="1.0" encoding="utf-8"?>
<!-- Generator: Adobe Illustrator 15.1.0, SVG Export Plug-In . SVG Version: 6.00 Build 0)  -->
<svg version="1.2" baseProfile="tiny" id="Layer_1" xmlns="http://www.w3.org/2000/svg" xmlns:xlink="http://www.w3.org/1999/xlink"
	 x="0px" y="0px" width="399px" height="360.24px" viewBox="-234.5 9.353 399 360.24" xml:space="preserve">
<g id="jpg" display="none">
	<g id="svDniS_1_" display="inline">
	</g>
	<g id="svDniS_2_" display="inline">
	</g>
</g>
<g id="Head">
	<ellipse id="headitself" fill="#F6DBB4" cx="-32.926" cy="197.008" rx="190.855" ry="161.662"/>
	<g id="stripe">
		<polygon fill="#261A26" points="-197.248,115.68 125.388,111.692 139.157,132.67 -212.32,142.31 		"/>
	</g>
	<g id="moustache">
		<path fill="#624C3F" d="M-36.244,264.579c0,0-36.089,3.75-34.533,30.001c0,0,19.747-14.25,28.651-15h5.882V264.579
			L-36.244,264.579z"/>
		<path fill="#624C3F" d="M-28.741,264.579c0,0,36.083,3.75,34.527,30.001c0,0-19.741-14.25-28.651-15h-5.878v-15.002H-28.741z"/>
		<path fill="#A48257" d="M-11.452,306.208c0,2.276-9.423,4.128-21.04,4.128c-11.622,0-21.045-1.849-21.045-4.128
			c0-2.278,9.424-4.126,21.045-4.126C-20.875,302.082-11.452,303.929-11.452,306.208z"/>
		<path fill="#624C3F" d="M-42.126,332.086c0,0,8.155-14.252,20.908-4.502c12.752,9.753,0,42.009,0,42.009
			s-10.558-0.911-15.026-10.956C-40.719,348.589-45.692,336.357-42.126,332.086z"/>
	</g>
	<g id="hair">
		<path fill="#5B4F53" d="M157.929,115.303c0,0,12.887,59.259-34.371,28.502c0,0-58.51-57.006-73.513-33.002
			c0,0-17.254-11.254-15.754,38.254c0,0-46.505-56.256-42.754-34.502c0,0-6.168,16.5-24.46,2.248c0,0-7.796-22.502-17.544,21.005
			c0,0-58.51-66.012-58.51-51.01c0,0,3.749,6.752-12.003,39.756c0,0-15.75-48.757-24.751-37.505c0,0-4.5,17.254-19.504,39.754
			c0,0-18.794-41.795-23.273-25.397c0,0,0.771,17.898-29.234,26.898c0,0-10.5-38.254,0-60.759c0,0,41.257-30.755,84.764-15.752
			c0,0,16.124-43.866,42.004-30.005c0,0,84.012-29.254,163.523,18.003C72.548,41.792,140.543,64.294,157.929,115.303z"/>
	</g>
	<g id="glasses">
		<polygon fill="#5A361C" points="-218.957,160.748 -120.982,197.009 -120.982,190.316 -216.499,152.659 		"/>
		<polygon fill="#5A361C" points="153.082,160.748 53.849,191.815 52.592,185.064 150.623,152.659 		"/>
		<rect x="-70.778" y="188.816" fill="#5A361C" width="72.815" height="6.752"/>
		<ellipse fill="#857D92" cx="27.991" cy="191.442" rx="25.955" ry="31.128"/>
		<path fill="#857D92" d="M-70.572,195.191c0,17.193-11.622,31.129-25.955,31.129c-14.334,0-25.955-13.938-25.955-31.129
			c0-17.19,11.623-31.129,25.955-31.129c11.493,0,21.245,8.961,24.659,21.375C-71.027,188.506-70.571,191.786-70.572,195.191z"/>
	</g>
</g>
</svg>
