<?xml version="1.0" encoding="utf-8"?>
<!-- Generator: Adobe Illustrator 15.1.0, SVG Export Plug-In . SVG Version: 6.00 Build 0)  -->
<!DOCTYPE svg PUBLIC "-//W3C//DTD SVG 1.1//EN" "http://www.w3.org/Graphics/SVG/1.1/DTD/svg11.dtd">
<svg version="1.1" id="Layer_1" xmlns="http://www.w3.org/2000/svg" xmlns:xlink="http://www.w3.org/1999/xlink" x="0px" y="0px"
	 width="980px" height="500px" viewBox="0 0 980 500" enable-background="new 0 0 980 500" xml:space="preserve">
<g id="sky">
	<rect y="-0.8" fill="#6FBFD0" width="980" height="500"/>
</g>
<g id="sea">
	<rect y="220" fill="#60708D" width="980" height="280"/>
	<g>
		<g>
			<path fill="#4F4797" d="M47.564,282.419c20.709-12.604,48.683-14.571,68.769,0c-0.23-0.167,0.245-1.321,0-1.5
				c-20.086-14.571-48.059-12.604-68.769,0C47.334,281.059,47.778,282.289,47.564,282.419L47.564,282.419z"/>
		</g>
	</g>
	<g>
		<g>
			<path fill="#4F4797" d="M354.041,291.912c23.121-11.176,54.294-14.441,75.959,1.301c-0.269-0.195,0.286-1.542,0-1.75
				c-21.665-15.743-52.838-12.477-75.959-1.301C353.802,290.277,354.259,291.807,354.041,291.912L354.041,291.912z"/>
		</g>
	</g>
	<g>
		<g>
			<path fill="#4F4797" d="M822.51,344.781c15.771-12.127,39.349-7.012,55.334,1.301c-0.261-0.137,0.284-1.852,0-2
				c-15.985-8.313-39.563-13.428-55.334-1.301C822.179,343.036,822.822,344.541,822.51,344.781L822.51,344.781z"/>
		</g>
	</g>
	<g>
		<g>
			<path fill="#4F4797" d="M286.054,421.857c16.007-14.207,39.278-10.392,55.333,1.301c-0.461-0.336,0.49-2.643,0-3
				c-16.056-11.691-39.326-15.508-55.333-1.301C285.545,419.309,286.537,421.429,286.054,421.857L286.054,421.857z"/>
		</g>
	</g>
	<g>
		<g>
			<path fill="#4F4797" d="M933.148,249.324c4.396-5.936,10.595-10.924,17.292-13.975c15.454-7.04,29.104,3.019,38.042,15.275
				c-0.195-0.268,0.2-0.974,0-1.25c-9.179-12.587-22.35-21.887-38.042-15.275c-6.698,2.822-12.968,8.137-17.292,13.975
				C932.946,248.348,933.345,249.06,933.148,249.324L933.148,249.324z"/>
		</g>
	</g>
	<g>
		<g>
			<path fill="#4F4797" d="M578,315.786c24.203-11.206,57.934-16.61,80.787,0c-0.292-0.212,0.311-1.675,0-1.899
				c-22.854-16.609-56.584-11.205-80.787,0C577.747,314.003,578.229,315.68,578,315.786L578,315.786z"/>
		</g>
	</g>
	<g>
		<g>
			<path fill="#4F4797" d="M486.701,259.993c16.008-14.207,39.277-10.391,55.334,1.301c-0.192-0.14,0.204-1.103,0-1.25
				c-16.057-11.691-39.326-15.507-55.334-1.301C486.489,258.932,486.903,259.814,486.701,259.993L486.701,259.993z"/>
		</g>
	</g>
	<g>
		<g>
			<path fill="#4F4797" d="M326.374,345.031c2.968-3.45,7.904-5.313,12.156-6.411c14.466-3.74,30.174,1.678,43.177,7.712
				c-0.302-0.141,0.333-2.346,0-2.5c-13.043-6.053-27.898-10.941-42.39-7.896c-4.488,0.942-9.847,2.996-12.944,6.597
				C325.954,343.02,326.778,344.563,326.374,345.031L326.374,345.031z"/>
		</g>
	</g>
	<g>
		<g>
			<path fill="#4F4797" d="M749.789,281.243c4.004-2.951,9.329-4.349,14.121-5.237c13.964-2.591,28.396,1.102,41.213,6.538
				c-0.198-0.084,0.221-1.655,0-1.75c-13.001-5.515-27.089-8.88-41.213-6.538c-4.769,0.79-10.157,2.314-14.121,5.237
				C749.502,279.705,750.059,281.044,749.789,281.243L749.789,281.243z"/>
		</g>
	</g>
	<g>
		<g>
			<path fill="#4F4797" d="M668.563,417.824c22.719-11.772,53.771-15.737,75.438-0.001c-0.46-0.335,0.49-2.644,0-3
				c-21.666-15.736-52.72-11.771-75.438,0.001C668.137,415.045,668.953,417.622,668.563,417.824L668.563,417.824z"/>
		</g>
	</g>
	<g>
		<g>
			<path fill="#4F4797" d="M507.041,370.618c16.008-14.206,39.278-10.392,55.334,1.301c-0.384-0.278,0.408-2.202,0-2.5
				c-16.056-11.69-39.326-15.507-55.334-1.301C506.617,368.494,507.444,370.261,507.041,370.618L507.041,370.618z"/>
		</g>
	</g>
	<g>
		<g>
			<path fill="#4F4797" d="M928,478.586c0.967-2.935,3.99-4.933,6.692-6.021c10.603-4.271,24.181,1.699,33.683,6.021
				c-0.298-0.136,0.329-2.351,0-2.5c-9.771-4.443-22.211-9.674-33.104-6.229c-2.914,0.922-6.262,3.16-7.271,6.229
				C927.751,476.843,928.246,477.84,928,478.586L928,478.586z"/>
		</g>
	</g>
	<g>
		<g>
			<path fill="#4F4797" d="M240.458,309.25c16.008-14.206,39.278-10.391,55.333,1.301c-0.323-0.234,0.343-1.85,0-2.1
				c-16.056-11.691-39.326-15.508-55.333-1.301C240.102,307.467,240.796,308.95,240.458,309.25L240.458,309.25z"/>
		</g>
	</g>
	<g>
		<g>
			<path fill="#4F4797" d="M134.758,355.066c23.272-9.099,52.962-11.188,75.242,1.302c-0.341-0.191,0.37-2.293,0-2.5
				c-22.28-12.489-51.97-10.399-75.242-1.302C134.459,352.686,135.024,354.963,134.758,355.066L134.758,355.066z"/>
		</g>
	</g>
	<g>
		<g>
			<path fill="#4F4797" d="M17.129,448.595C35.22,438.18,59.487,440.552,78,447.974c-0.543-0.218,0.608-4.756,0-5
				c-18.513-7.422-42.78-9.794-60.871,0.621C16.38,444.025,17.821,448.196,17.129,448.595L17.129,448.595z"/>
		</g>
	</g>
</g>
<g id="mountains">
	<path id="core_2_" fill="#79664F" d="M1,99.026c0,0,30.723-20.519,71.684-23.712c40.962-3.193,55.042-15.96,72.963-21.89
		c0,0,35.842,16.871,80.004,29.641c0,0,25.601,32.378,105.605,48.339c0,0,13.44,14.592,75.522,0
		c62.083-14.591,88.276-23.258,88.276-23.258s26.931-13.122,63.412-12.49c0,0,17.283,16.591,88.324,3.824
		c0,0,62.08-5.015,179.207-43.777c0,0,16-9.123,51.201,10.031c35.203,19.154,81.74,40.129,103.043,40.129V217.59H1V111.34V99.026z"
		/>
	<path id="darker1_2_" fill="#62513F" d="M1.002,110.884c0,0,36.479,12.312,27.52,17.784c0,0,104.326,35.572,30.082,30.555
		c0,0-37.76,5.473-12.8,11.4c0,0,30.729,1.824,44.166,20.064c0,0,14.716,5.472,28.797,5.928c0,0-12.16,8.664,10.24,9.121
		l20.482,10.49H1.002V110.884z"/>
	<path id="darker2_2_" fill="#62513F" d="M217.329,216.227h138.248c0,0-22.402-13.682-27.522-23.258
		c-5.121-9.577-1.278-17.328-38.401-31.465c0,0-28.161-13.225-26.881-16.417c0,0,14.719,3.647,23.68-2.736
		c8.962-6.385-19.2-20.522-19.2-20.522s-12.8-6.386,3.201-7.296c16-0.911-23.041-10.945-23.041-10.945l-26.882-14.224l-45.436-6.753
		c0,0,4.487-17.787-15.041,0c0,0,80.957,59.288,33.595,65.672c-3.57,0.481-21.888,12.474-16,27.362
		C184.961,194.131,217.329,216.227,217.329,216.227z"/>
	<path id="darker3_2_" fill="#62513F" d="M889.994,216.227c0,0-130.564-44.238-129.924-48.798
		c0.64-4.56-31.361-29.183-66.564-39.217c0,0-7.68-4.103-2.559-13.68c0,0-23.043-6.384-41.604,0c0,0-8.961,3.903-12.158-2.837
		c-3.2-6.74-71.043,5.166-71.043,5.166s7.041,17.277,19.843,18.646c0,0-21.765,32.953-94.727,27.422c0,0-14.08,7.691,19.841,15.901
		c0,0,31.361,5.927,10.881,14.137c0,0,32.642,7.752,13.438,10.034c-19.199,2.28-20.48,13.227-20.48,13.227L889.994,216.227
		L889.994,216.227z"/>
	<path id="darker4_2_" fill="#62513F" d="M893.195,216.227c0,0,16.643-19.157-16.642-32.381c0,0-31.358-26.905-52.481-33.289
		c0,0,76.166,2.28,73.285-2.281c0,0-15.043-8.664-28.484-13.68c0,0,37.764,2.507,2.564-24.968c0,0,6.145-19.379-8.326-20.635
		c-14.463-1.256,52.481-5.012,52.481-5.012l63.365,21.799l3.842,110.446L893.195,216.227L893.195,216.227z"/>
	<path id="white_2_" fill="#FFFFFF" d="M89.969,77.959h69.764c0,0,18.561-13.678,15.36,3.65c0,0,44.796,11.033,50.557,1.456
		c0,0-67.816-23.942-79.004-30.641l-45.822,18.471c0,0,7.067,2.417,8.346-0.275C110.45,67.928,98.929,73.399,89.969,77.959z"/>
	<path id="white2_2_" fill="#FFFFFF" d="M495.055,108.147c0,0,56.154-23.836,72.261-8.042c0,0,23.086,5.675,84.776-1.196
		c0,0-8.51,13.34-37.313,16.533c-28.799,3.193-78.724,0-78.724,0s3.841-5.93-14.721-2.737c0,0-14.078,4.56-23.041,2.28
		c0,0,24.445-6.834,7.682-5.927L495.055,108.147z"/>
	<g id="white3">
		<path fill="#FFFFFF" d="M717.182,83.981l115.41-30.556c0,0,18.355-7.292,83.002,30.556c0,0-21.76,5.476-32.637,0
			c-10.883-5.476-1.924,5.012-1.924,5.012l-12.799-2.736c0,0,1.916,4.104-5.123,2.736c-7.039-1.368-14.72-5.928-14.72-5.928
			s1.925,6.847-3.2,11.632c-5.117,4.786-40.961-5.705-40.961-5.705s-56.322,0.458-60.16-0.911
			C740.227,86.713,717.174,89.913,717.182,83.981z"/>
	</g>
</g>
<g id="grass">
	<path fill="#006633" d="M0,217.333v-13.792c0,0,4.312,5.398,6.467,6.896c2.156,1.499,7.546,6.895,7.546,6.895v-6.895l8.623,6.895
		c0,0,3.231-13.792,8.622-13.792c5.391,0,7.546,10.793,7.546,10.793l8.623-7.195l5.391,10.194l8.623-13.792
		c0,0-2.155,5.997,6.467,10.194c8.622,4.197,18.323,3.598,18.323,3.598l11.857-2.999l17.246,3.029h31.259v-6.911l6.468,6.911
		c0,0,2.156-7.196,6.467-6.911c4.311,0.285,7.543,6.911,7.543,6.911s3.234-16.821,7.546-13.822s7.545,10.194,7.545,10.194
		l11.856-10.552v7.09l5.39-4.332l4.311,4.332v-9.729c0,0,2.156,11.391,11.856,11.991c9.7,0.6,12.935,4.828,12.935,4.828
		l36.647-2.428c0,0,24.791-3.598,29.103-1.799c4.313,1.799,5.389-9.595,8.623-9.595c3.233,0,9.701,9.595,9.701,9.595l8.623-19.188
		l5.389,16.789c0,0,2.155-4.764,8.622-5.081c6.468-0.316,4.313,8.678,4.313,8.678s12.936-8.362,7.546-8.678
		c-5.392-0.316,8.622,6.28,8.622,6.28s15.089,2.997,18.322,0.599c3.234-2.398,0-6.879,0-6.879s24.793,8.111,30.182,5.396
		c5.388-2.714-8.623-17.105,59.283,3.882c0,0,41.942,2.398,36.602-1.2c-5.344-3.598-4.266-8.079-4.266-8.079l15.089,5.081
		l7.547,4.198v-9.279l21.558,11.707c0,0-5.391-7.793,5.391-11.707l15.089,7.48l7.545-7.48l15.092,8.678l9.7-12.592
		c0,0,6.468,10.194,9.7,6.597c3.233-3.598,5.391-9.593,5.391-9.593l20.479,14.391l18.323,0.599c0,0,6.466-6.565,0-8.079
		c-6.468-1.514,18.322,8.079,18.322,8.079l126.11-1.2l6.468-6.879l6.467,8.079l7.544-8.079l6.468,8.678
		c0,0,17.248-7.194,8.623-13.79c-8.623-6.597,10.778,11.392,10.778,11.392l8.625-11.993c0,0-3.232,12.594,11.856,13.193
		c15.088,0.599,54.972,4.227,54.972,4.227s3.234-15.02,9.7-15.02c6.468,0,21.556,15.02,21.556,15.02l7.549-11.707l10.776,7.48
		c0,0,19.405-5.997,11.856-11.394c-7.547-5.396,9.701,15.621,9.701,15.621v2.368H0V217.333z"/>
</g>
</svg>
