<?xml version="1.0" encoding="utf-8"?>
<!-- Generator: Adobe Illustrator 15.1.0, SVG Export Plug-In . SVG Version: 6.00 Build 0)  -->
<!DOCTYPE svg PUBLIC "-//W3C//DTD SVG 1.1//EN" "http://www.w3.org/Graphics/SVG/1.1/DTD/svg11.dtd">
<svg version="1.1" xmlns="http://www.w3.org/2000/svg" xmlns:xlink="http://www.w3.org/1999/xlink" x="0px" y="0px" width="800px"
	 height="282px" viewBox="0 0 800 282" enable-background="new 0 0 800 282" xml:space="preserve">
<g id="jpg">
</g>
<g id="handrails">
	<path fill="#553E39" d="M228.318,159.985c0,0-38.712-27.757-37.982-28.487c0.73-0.729-158.502,0-160.693,0s0,5.113,0,5.113h9.496
		l0.021,25.444h6.553l1.461-25.444h13.878v25.257h6.574v-25.257h23.374v25.006h6.574v-25.006h88.381l32.139,24.104L228.318,159.985z
		"/>
</g>
<g id="hq">
	<polygon id="core_1_" fill="#FFFFFF" points="285.292,18.283 498.575,18.283 469.357,114.699 468.628,171.449 285.292,175.203 	"/>
	<rect id="top_1_" x="258.996" y="10.979" fill="#FFFFFF" width="249.805" height="7.304"/>
	<g id="window">
		<path opacity="0.5" fill="#A0B7C3" stroke="#000000" stroke-width="2" stroke-miterlimit="10" d="M458.401,83.291
			c0,9.681-7.477,17.529-16.698,17.529H313.678c-9.224,0-16.7-7.848-16.7-17.529V44.578c0-9.682,7.476-17.53,16.7-17.53h152.859
			c5.328,0,0.63,9.31,0.63,18.991L458.401,83.291z"/>
	</g>
</g>
<g id="ship">
	<linearGradient id="SVGID_1_" gradientUnits="userSpaceOnUse" x1="398.7705" y1="126.6621" x2="401.7706" y2="292.6602">
		<stop  offset="0" style="stop-color:#009FE3"/>
		<stop  offset="1" style="stop-color:#2D2E83"/>
	</linearGradient>
	<path fill="url(#SVGID_1_)" d="M27.025,162.177c0,0,347.682-2.191,367.402-8.766c19.722-6.574,25.565-5.112,52.591-19.721
		c0,0,312.62-12.418,340.377-23.374c0,0,5.113,27.026-8.766,44.556c-13.878,17.53-138.78,99.337-197.214,98.607
		c0,0-506.184,32.869-569.73,14.608L27.025,162.177z"/>
</g>
<g id="text_vladimir_script">
	<g>
		<path fill="#F5F5F5" d="M451.321,154.42c0,1.427-1.052,3.099-3.155,5.019c-2.197,2.013-4.86,3.578-7.989,4.697
			c-2.969,1.054-6.012,1.58-9.127,1.58c-4.234,0-6.352-1.271-6.352-3.815c0-1.518,1.191-2.902,3.575-4.154
			c2.077-1.104,3.968-1.657,5.672-1.657c0.546,0,0.819,0.167,0.819,0.499c0,0.227-0.279,0.38-0.837,0.46
			c-1.621,0.253-3.188,0.719-4.703,1.397c-2.125,0.933-3.188,1.978-3.188,3.136c0,1.412,1.644,2.117,4.93,2.117
			c2.674,0,5.541-0.533,8.601-1.599c3.127-1.093,5.688-2.485,7.684-4.178c1.942-1.652,2.913-2.892,2.913-3.718
			c0-0.813-1.312-1.372-3.935-1.679c-4.341-0.506-6.771-0.819-7.29-0.939c-2.623-0.64-3.935-1.772-3.935-3.398
			c0-2.065,1.538-4.03,4.614-5.896c2.517-1.533,5.719-2.825,9.606-3.878c3.408-0.919,6.138-1.379,8.188-1.379
			c2.623,0,3.935,0.813,3.935,2.437c0,1.398-1.218,3.043-3.654,4.934c-2.357,1.824-4.281,2.735-5.772,2.735
			c-1.198,0-1.798-0.412-1.798-1.238c0-0.691,0.686-1.504,2.058-2.437c1.305-0.879,2.323-1.317,3.056-1.317
			c0.253,0,0.38,0.079,0.38,0.239l-2.058,1.118c-1.371,0.746-2.084,1.292-2.137,1.638c0.066,0.094,0.18,0.14,0.34,0.14
			c0.961,0,2.543-0.639,4.745-1.917c2.335-1.358,3.503-2.477,3.503-3.355c0-0.771-0.933-1.158-2.799-1.158
			c-2.132,0-5.137,0.613-9.015,1.841c-2.612,0.827-4.904,1.707-6.876,2.641c-3.412,1.601-5.118,3.047-5.118,4.341
			c0,0.827,1.079,1.44,3.236,1.841l6.411,0.826c2.503,0.373,4.027,0.92,4.573,1.64C451.022,152.795,451.321,153.607,451.321,154.42z
			"/>
		<path fill="#F5F5F5" d="M457.313,160.403c4.82-4.288,8.042-6.432,9.667-6.432c0.719,0,1.078,0.38,1.078,1.139
			c0,0.813-1.142,2.356-3.425,4.634c-2.284,2.276-3.426,3.614-3.426,4.014c0,0.373,0.366,0.56,1.099,0.56
			c0.187,0,0.28,0.106,0.28,0.319c0,0.253-0.327,0.38-0.979,0.38c-1.158,0-1.737-0.486-1.737-1.458c0-1.118,0.892-2.59,2.677-4.414
			c2.184-2.237,3.361-3.508,3.535-3.814c0.013-0.16-0.067-0.24-0.24-0.24c-0.732,0-2.597,1.272-5.592,3.815
			c-2.237,1.891-4.035,3.515-5.393,4.873c-0.547,0.546-0.992,0.945-1.339,1.198c-0.199,0-0.389-0.126-0.569-0.38
			c-0.18-0.252-0.27-0.485-0.27-0.698c0-0.307,0.912-1.618,2.736-3.935l3.176-3.995c-1.292,1.212-2.902,2.577-4.833,4.095
			l-3.835,2.936c-1.931,1.318-3.415,1.978-4.454,1.978c-0.159,0-0.239-0.082-0.239-0.246c0-0.247,0.133-0.404,0.399-0.473
			c1.105-0.279,2.077-0.678,2.916-1.196c1.558-0.957,3.895-2.75,7.01-5.382l4.035-3.408c0.852-0.719,3.215-3.349,7.09-7.89
			c3.488-4.087,5.399-6.131,5.732-6.131c0.479,0,0.719,0.299,0.719,0.898c0,0.413-1.338,2.197-4.015,5.353L457.313,160.403z"/>
		<path fill="#F5F5F5" d="M469.617,160.775c-3.556,2.801-6.005,4.201-7.351,4.201c-0.159,0-0.239-0.089-0.239-0.268
			c0-0.246,0.159-0.396,0.479-0.451c1.251-0.2,2.982-1.165,5.192-2.896l2.576-2.017l4.135-3.296
			c1.891-1.305,3.508-1.957,4.854-1.957c0.998,0,1.558,0.5,1.678,1.501c0.52-0.495,0.879-0.742,1.078-0.742
			c0.439,0,0.659,0.181,0.659,0.542c0,0.467-1.021,1.894-3.065,4.281c-2.044,2.389-3.066,3.778-3.066,4.172
			c0,0.274,0.22,0.419,0.659,0.433c0.439,0.013,0.659,0.129,0.659,0.348c0,0.273-0.453,0.41-1.358,0.41
			c-0.892,0-1.338-0.394-1.338-1.181c0-0.627,0.359-1.521,1.079-2.681l-2.477,2.102c-1.212,0.907-2.178,1.36-2.896,1.36
			c-1.146,0-1.718-0.58-1.718-1.74C469.157,162.256,469.311,161.549,469.617,160.775z M479.543,154.91
			c-0.786,0-2.41,1.175-4.873,3.523c-2.464,2.349-3.695,3.917-3.695,4.704c0,0.36,0.173,0.541,0.52,0.541
			c0.759,0,2.387-1.151,4.884-3.453c2.496-2.302,3.744-3.854,3.744-4.654C480.122,155.131,479.929,154.91,479.543,154.91z"/>
		<path fill="#F5F5F5" d="M488.83,156.148c-0.067-0.439-0.101-0.705-0.101-0.799c0-0.359,0.43-0.922,1.288-1.688
			c0.859-0.766,1.448-1.148,1.768-1.148c0.307,0,0.46,0.14,0.46,0.42c0,0.239-0.167,0.639-0.499,1.198
			c1.504,0,2.257,0.598,2.257,1.794c0,0.943-0.969,2.448-2.906,4.515s-2.906,3.226-2.906,3.479c0,0.239,0.125,0.372,0.374,0.398
			l0.649-0.02c0.184,0,0.274,0.109,0.274,0.327c0,0.274-0.386,0.411-1.158,0.411c-0.985,0-1.478-0.439-1.478-1.317
			c0-0.866,0.49-1.944,1.473-3.236c0.61-0.812,1.519-1.817,2.727-3.016c0.981-0.972,1.473-1.504,1.473-1.598
			c0-0.2-0.112-0.3-0.337-0.3c-0.198,0-0.574,0.077-1.129,0.229c-0.555,0.153-0.885,0.277-0.99,0.37
			c-6.191,5.872-10.366,8.808-12.523,8.808c-0.159,0-0.239-0.089-0.239-0.268c0-0.232,0.18-0.383,0.539-0.451
			c0.439-0.08,1.019-0.286,1.737-0.618c1.079-0.478,2.689-1.613,4.834-3.406C486.319,158.652,487.791,157.291,488.83,156.148z"/>
		<path fill="#F5F5F5" d="M497.997,159.644l-4.114,3.136c-2.104,1.465-3.675,2.197-4.714,2.197c-0.159,0-0.239-0.082-0.239-0.246
			c0-0.261,0.133-0.418,0.399-0.473c0.813-0.146,1.505-0.379,2.077-0.697c0.998-0.545,2.623-1.708,4.873-3.489l5.272-4.325
			c1.012-0.89,1.631-1.335,1.857-1.335c0.336,0,0.706,0.187,1.109,0.56c0.77-0.586,1.453-0.879,2.051-0.879
			c0.902,0,1.354,0.486,1.354,1.458c0,1.451-1.159,3.429-3.476,5.932c-2.356,2.53-4.261,3.795-5.712,3.795
			c-1.358,0-2.037-0.712-2.037-2.138C496.699,162.394,497.132,161.229,497.997,159.644z M502.811,157.188
			c-2.717,2.377-4.074,4.313-4.074,5.809c0,0.642,0.306,0.962,0.918,0.962c0.999,0,2.557-1.21,4.674-3.631
			c-1.118-0.267-1.678-0.986-1.678-2.16C502.65,157.86,502.704,157.534,502.811,157.188z M504.768,159.686
			c0.492-0.469,0.985-1.104,1.479-1.906c0.546-0.923,0.818-1.658,0.818-2.206c0-0.509-0.22-0.763-0.659-0.763
			c-0.652,0-1.308,0.411-1.967,1.233c-0.659,0.823-0.989,1.568-0.989,2.237C503.449,159.029,503.889,159.498,504.768,159.686z"/>
		<path fill="#F5F5F5" d="M516.872,158.925c3.661-3.103,6.231-4.653,7.709-4.653c0.945,0,1.418,0.446,1.418,1.338
			c0,0.786-1.072,2.207-3.216,4.265c-2.144,2.057-3.215,3.299-3.215,3.725s0.242,0.656,0.729,0.688
			c0.486,0.034,0.729,0.15,0.729,0.35c0,0.267-0.482,0.399-1.447,0.399c-1.112,0-1.669-0.493-1.669-1.48
			c0-0.827,0.532-1.875,1.598-3.143c0.546-0.653,1.531-1.661,2.956-3.021c1.065-1.014,1.598-1.628,1.598-1.842
			c0-0.173-0.119-0.26-0.359-0.26c-0.759,0-2.41,1.014-4.953,3.042c-2.117,1.682-3.688,3.063-4.714,4.144
			c-1.305,1.374-2.097,2.062-2.376,2.062c-0.214,0-0.406-0.103-0.579-0.31c-0.174-0.206-0.26-0.423-0.26-0.649
			c0-0.306,0.919-1.544,2.756-3.715l3.296-3.895l-5.113,4.154l-3.774,2.896c-1.918,1.305-3.389,1.957-4.414,1.957
			c-0.173,0-0.26-0.08-0.26-0.239c0-0.24,0.187-0.399,0.559-0.479c0.507-0.093,1.099-0.293,1.778-0.6
			c0.972-0.426,2.956-1.851,5.951-4.274c2.689-2.183,4.627-3.854,5.813-5.013c0.199-0.199,0.513-0.439,0.938-0.719
			c0.213-0.08,0.439-0.12,0.679-0.12c0.227,0,0.456,0.077,0.689,0.229c0.232,0.153,0.35,0.337,0.35,0.55
			C520.067,154.551,519.002,156.089,516.872,158.925z"/>
	</g>
</g>
</svg>
