<?xml version="1.0" encoding="utf-8"?>
<!-- Generator: Adobe Illustrator 15.1.0, SVG Export Plug-In . SVG Version: 6.00 Build 0)  -->
<!DOCTYPE svg PUBLIC "-//W3C//DTD SVG 1.1//EN" "http://www.w3.org/Graphics/SVG/1.1/DTD/svg11.dtd">
<svg version="1.1" id="Layer_1" xmlns="http://www.w3.org/2000/svg" xmlns:xlink="http://www.w3.org/1999/xlink" x="0px" y="0px"
	 width="299.23px" height="318.635px" viewBox="0 6.5 299.23 318.635" enable-background="new 0 6.5 299.23 318.635"
	 xml:space="preserve">
<g>
	<g>
		<defs>
			<rect id="SVGID_1_" x="-0.001" width="299.23" height="460"/>
		</defs>
		<clipPath id="SVGID_2_">
			<use xlink:href="#SVGID_1_"  overflow="visible"/>
		</clipPath>
	</g>
	<g>
		<defs>
			<rect id="SVGID_3_" x="-0.001" width="299.23" height="460"/>
		</defs>
		<clipPath id="SVGID_4_">
			<use xlink:href="#SVGID_3_"  overflow="visible"/>
		</clipPath>
	</g>
	<g>
		<defs>
			<rect id="SVGID_5_" x="-0.001" width="299.23" height="460"/>
		</defs>
		<clipPath id="SVGID_6_">
			<use xlink:href="#SVGID_5_"  overflow="visible"/>
		</clipPath>
	</g>
	<g>
		<defs>
			<rect id="SVGID_7_" x="-0.001" width="299.23" height="460"/>
		</defs>
		<clipPath id="SVGID_8_">
			<use xlink:href="#SVGID_7_"  overflow="visible"/>
		</clipPath>
	</g>
	<g>
		<defs>
			<rect id="SVGID_9_" x="-0.001" width="299.23" height="460"/>
		</defs>
		<clipPath id="SVGID_10_">
			<use xlink:href="#SVGID_9_"  overflow="visible"/>
		</clipPath>
	</g>
	<g>
		<defs>
			<rect id="SVGID_11_" x="-0.001" width="299.23" height="460"/>
		</defs>
		<clipPath id="SVGID_12_">
			<use xlink:href="#SVGID_11_"  overflow="visible"/>
		</clipPath>
	</g>
	<g>
		<defs>
			<rect id="SVGID_13_" x="-0.001" width="299.23" height="460"/>
		</defs>
		<clipPath id="SVGID_14_">
			<use xlink:href="#SVGID_13_"  overflow="visible"/>
		</clipPath>
	</g>
	<g>
		<defs>
			<rect id="SVGID_15_" x="-0.001" width="299.23" height="460"/>
		</defs>
		<clipPath id="SVGID_16_">
			<use xlink:href="#SVGID_15_"  overflow="visible"/>
		</clipPath>
	</g>
	<g>
		<defs>
			<rect id="SVGID_17_" x="-0.001" width="299.23" height="460"/>
		</defs>
		<clipPath id="SVGID_18_">
			<use xlink:href="#SVGID_17_"  overflow="visible"/>
		</clipPath>
	</g>
	<g>
		<defs>
			<rect id="SVGID_19_" x="-0.001" width="299.23" height="460"/>
		</defs>
		<clipPath id="SVGID_20_">
			<use xlink:href="#SVGID_19_"  overflow="visible"/>
		</clipPath>
	</g>
	<g>
		<defs>
			<rect id="SVGID_21_" x="-0.001" width="299.23" height="460"/>
		</defs>
		<clipPath id="SVGID_22_">
			<use xlink:href="#SVGID_21_"  overflow="visible"/>
		</clipPath>
		<path clip-path="url(#SVGID_22_)" fill="#CB1528" d="M155.17,325.135l85.188-34.68"/>
	</g>
	<g>
		<defs>
			<rect id="SVGID_23_" x="-0.001" width="299.23" height="460"/>
		</defs>
		<clipPath id="SVGID_24_">
			<use xlink:href="#SVGID_23_"  overflow="visible"/>
		</clipPath>
	</g>
	<g>
		<defs>
			<rect id="SVGID_25_" x="-0.001" width="299.23" height="460"/>
		</defs>
		<clipPath id="SVGID_26_">
			<use xlink:href="#SVGID_25_"  overflow="visible"/>
		</clipPath>
	</g>
	<g>
		<defs>
			<rect id="SVGID_27_" x="-0.001" width="299.23" height="460"/>
		</defs>
		<clipPath id="SVGID_28_">
			<use xlink:href="#SVGID_27_"  overflow="visible"/>
		</clipPath>
	</g>
	<g>
		<defs>
			<rect id="SVGID_29_" x="-0.001" width="299.23" height="460"/>
		</defs>
		<clipPath id="SVGID_30_">
			<use xlink:href="#SVGID_29_"  overflow="visible"/>
		</clipPath>
	</g>
	<g>
		<defs>
			<rect id="SVGID_31_" x="-0.001" width="299.23" height="460"/>
		</defs>
		<clipPath id="SVGID_32_">
			<use xlink:href="#SVGID_31_"  overflow="visible"/>
		</clipPath>
	</g>
	<g>
		<defs>
			<rect id="SVGID_33_" x="-0.001" width="299.23" height="460"/>
		</defs>
		<clipPath id="SVGID_34_">
			<use xlink:href="#SVGID_33_"  overflow="visible"/>
		</clipPath>
		<path clip-path="url(#SVGID_34_)" fill="#F5DBB4" d="M11.837,187.469c0,75.387,62.63,137.666,137.833,137.666
			c75.202,0,136.166-61.113,136.166-136.5s-63.797-145.833-139-145.833C71.634,42.802,11.837,112.082,11.837,187.469"/>
	</g>
	<g>
		<defs>
			<rect id="SVGID_35_" x="-0.001" width="299.23" height="460"/>
		</defs>
		<clipPath id="SVGID_36_">
			<use xlink:href="#SVGID_35_"  overflow="visible"/>
		</clipPath>
		
			<path clip-path="url(#SVGID_36_)" fill="none" stroke="#12100B" stroke-width="3" stroke-linecap="round" stroke-miterlimit="10" d="
			M169.003,284.802c-7.5,6.335-40.334,3.501-40.334,0.835"/>
	</g>
	<g>
		<defs>
			<rect id="SVGID_37_" x="-0.001" width="299.23" height="460"/>
		</defs>
		<clipPath id="SVGID_38_">
			<use xlink:href="#SVGID_37_"  overflow="visible"/>
		</clipPath>
		<path clip-path="url(#SVGID_38_)" fill="#FFFFFF" d="M72.17,204.58c-2.455,22.741,12.682,44.99,33.24,41.055
			c20.454-3.914,40.594-21,42.407-41.416c0.331-33.917-16.749-46.293-42.407-41.417C85.252,166.633,74.504,182.968,72.17,204.58"/>
	</g>
	<g>
		<defs>
			<rect id="SVGID_39_" x="-0.001" width="299.23" height="460"/>
		</defs>
		<clipPath id="SVGID_40_">
			<use xlink:href="#SVGID_39_"  overflow="visible"/>
		</clipPath>
		<path clip-path="url(#SVGID_40_)" fill="#FFFFFF" d="M146.837,196.635c0,20.389,23.408,47.167,45.499,47.167
			s30.333-14.75,30.333-44.167c0-20.388-24.35-39.208-46.439-39.208C154.138,160.427,146.837,176.247,146.837,196.635"/>
	</g>
	<g>
		<defs>
			<rect id="SVGID_41_" x="-0.001" width="299.23" height="460"/>
		</defs>
		<clipPath id="SVGID_42_">
			<use xlink:href="#SVGID_41_"  overflow="visible"/>
		</clipPath>
		<path clip-path="url(#SVGID_42_)" fill="#12100B" d="M158.943,203.879c0,2.442,1.937,4.423,4.323,4.423s4.323-1.981,4.323-4.423
			c0-2.443-1.937-4.424-4.323-4.424S158.943,201.436,158.943,203.879"/>
	</g>
	<g>
		<defs>
			<rect id="SVGID_43_" x="-0.001" width="299.23" height="460"/>
		</defs>
		<clipPath id="SVGID_44_">
			<use xlink:href="#SVGID_43_"  overflow="visible"/>
		</clipPath>
		<path clip-path="url(#SVGID_44_)" fill="#12100B" d="M83.943,204.879c0,2.442,1.937,4.423,4.323,4.423s4.323-1.981,4.323-4.423
			c0-2.443-1.937-4.424-4.323-4.424S83.943,202.436,83.943,204.879"/>
	</g>
	<g>
		<defs>
			<rect id="SVGID_45_" x="-0.001" width="299.23" height="460"/>
		</defs>
		<clipPath id="SVGID_46_">
			<use xlink:href="#SVGID_45_"  overflow="visible"/>
		</clipPath>
		<path clip-path="url(#SVGID_46_)" fill="#485F99" d="M17.432,147.616C33.938,89.331,85.208,42.802,146.836,42.802
			c59.751,0,115.667,40.666,131.369,100.559C154.67,106.334,47.747,137.12,17.432,147.616"/>
	</g>
	<g>
		<defs>
			<rect id="SVGID_47_" x="-0.001" width="299.23" height="460"/>
		</defs>
		<clipPath id="SVGID_48_">
			<use xlink:href="#SVGID_47_"  overflow="visible"/>
		</clipPath>
		<path clip-path="url(#SVGID_48_)" fill="none" stroke="#485F99" stroke-miterlimit="10" d="M17.432,147.616
			C33.938,89.331,85.208,42.802,146.836,42.802c59.751,0,115.667,40.666,131.369,100.559
			C154.67,106.334,47.747,137.12,17.432,147.616z"/>
	</g>
	<g>
		<defs>
			<rect id="SVGID_49_" x="-0.001" width="299.23" height="460"/>
		</defs>
		<clipPath id="SVGID_50_">
			<use xlink:href="#SVGID_49_"  overflow="visible"/>
		</clipPath>
		<path clip-path="url(#SVGID_50_)" fill="#CB1528" d="M288.17,146.469l-1.396,29.271c0,0-133.604-45.605-276.271,6.062
			c-2-13.667-1.667-31-1.667-31S137.503,97.136,288.17,146.469"/>
	</g>
	<g>
		<defs>
			<rect id="SVGID_51_" x="-0.001" width="299.23" height="460"/>
		</defs>
		<clipPath id="SVGID_52_">
			<use xlink:href="#SVGID_51_"  overflow="visible"/>
		</clipPath>
		<path clip-path="url(#SVGID_52_)" fill="#CB1528" d="M129.771,23.815c-1.327,1.401-1.27,3.617,0.134,4.947l42.092,39.904
			c1.399,1.33,3.616,1.272,4.945-0.132c1.33-1.404,1.271-3.618-0.131-4.948L134.72,23.682
			C133.318,22.353,131.101,22.412,129.771,23.815"/>
	</g>
	<g>
		<defs>
			<rect id="SVGID_53_" x="-0.001" width="299.23" height="460"/>
		</defs>
		<clipPath id="SVGID_54_">
			<use xlink:href="#SVGID_53_"  overflow="visible"/>
		</clipPath>
		<path clip-path="url(#SVGID_54_)" fill="none" stroke="#552618" stroke-miterlimit="10" d="M129.771,23.815
			c-1.327,1.401-1.27,3.617,0.134,4.947l42.092,39.904c1.399,1.33,3.616,1.272,4.945-0.132c1.33-1.404,1.271-3.618-0.131-4.948
			L134.72,23.682C133.318,22.353,131.101,22.412,129.771,23.815z"/>
	</g>
	<g>
		<defs>
			<rect id="SVGID_55_" x="-0.001" width="299.23" height="460"/>
		</defs>
		<clipPath id="SVGID_56_">
			<use xlink:href="#SVGID_55_"  overflow="visible"/>
		</clipPath>
		<path clip-path="url(#SVGID_56_)" fill="#CB1528" d="M138.915,18.841c-1.751,0.817-2.512,2.899-1.692,4.65l24.511,52.568
			c0.817,1.751,2.899,2.51,4.651,1.692c1.753-0.816,2.51-2.898,1.693-4.651l-24.514-52.566
			C142.75,18.782,140.667,18.025,138.915,18.841"/>
	</g>
	<g>
		<defs>
			<rect id="SVGID_57_" x="-0.001" width="299.23" height="460"/>
		</defs>
		<clipPath id="SVGID_58_">
			<use xlink:href="#SVGID_57_"  overflow="visible"/>
		</clipPath>
		<path clip-path="url(#SVGID_58_)" fill="none" stroke="#552618" stroke-miterlimit="10" d="M138.915,18.841
			c-1.751,0.817-2.512,2.899-1.692,4.65l24.511,52.568c0.817,1.751,2.899,2.51,4.651,1.692c1.753-0.816,2.51-2.898,1.693-4.651
			l-24.514-52.566C142.75,18.782,140.667,18.025,138.915,18.841z"/>
	</g>
	<g>
		<defs>
			<rect id="SVGID_59_" x="-0.001" width="299.23" height="460"/>
		</defs>
		<clipPath id="SVGID_60_">
			<use xlink:href="#SVGID_59_"  overflow="visible"/>
		</clipPath>
		<path clip-path="url(#SVGID_60_)" fill="#CB1528" d="M153.383,13.675c-1.932-0.001-3.498,1.565-3.498,3.501v57.997
			c0,1.936,1.565,3.502,3.499,3.502s3.5-1.567,3.5-3.501V17.175C156.884,15.241,155.317,13.675,153.383,13.675"/>
	</g>
	<g>
		<defs>
			<rect id="SVGID_61_" x="-0.001" width="299.23" height="460"/>
		</defs>
		<clipPath id="SVGID_62_">
			<use xlink:href="#SVGID_61_"  overflow="visible"/>
		</clipPath>
		<path clip-path="url(#SVGID_62_)" fill="none" stroke="#552618" stroke-miterlimit="10" d="M153.383,13.675
			c-1.932-0.001-3.498,1.565-3.498,3.501v57.997c0,1.936,1.565,3.502,3.499,3.502s3.5-1.567,3.5-3.501V17.175
			C156.884,15.241,155.317,13.675,153.383,13.675z"/>
	</g>
	<g>
		<defs>
			<rect id="SVGID_63_" x="-0.001" width="299.23" height="460"/>
		</defs>
		<clipPath id="SVGID_64_">
			<use xlink:href="#SVGID_63_"  overflow="visible"/>
		</clipPath>
		<path clip-path="url(#SVGID_64_)" fill="#CB1528" d="M186.537,45.563c0.079,1.932-1.422,3.562-3.354,3.64l-57.954,2.35
			c-1.93,0.079-3.56-1.424-3.638-3.354c-0.078-1.931,1.424-3.562,3.354-3.64l57.953-2.35
			C184.829,42.131,186.46,43.632,186.537,45.563"/>
	</g>
	<g>
		<defs>
			<rect id="SVGID_65_" x="-0.001" width="299.23" height="460"/>
		</defs>
		<clipPath id="SVGID_66_">
			<use xlink:href="#SVGID_65_"  overflow="visible"/>
		</clipPath>
		<path clip-path="url(#SVGID_66_)" fill="none" stroke="#552618" stroke-miterlimit="10" d="M186.537,45.563
			c0.079,1.932-1.422,3.562-3.354,3.64l-57.954,2.35c-1.93,0.079-3.56-1.424-3.638-3.354c-0.078-1.931,1.424-3.562,3.354-3.64
			l57.953-2.35C184.829,42.131,186.46,43.632,186.537,45.563z"/>
	</g>
	<g>
		<defs>
			<rect id="SVGID_67_" x="-0.001" width="299.23" height="460"/>
		</defs>
		<clipPath id="SVGID_68_">
			<use xlink:href="#SVGID_67_"  overflow="visible"/>
		</clipPath>
		<path clip-path="url(#SVGID_68_)" fill="#CB1528" d="M183.276,57.759c-0.646,1.822-2.646,2.773-4.471,2.126l-54.654-19.41
			c-1.821-0.647-2.772-2.649-2.127-4.471c0.646-1.82,2.648-2.772,4.47-2.126l54.655,19.41
			C182.969,53.936,183.923,55.938,183.276,57.759"/>
	</g>
	<g>
		<defs>
			<rect id="SVGID_69_" x="-0.001" width="299.23" height="460"/>
		</defs>
		<clipPath id="SVGID_70_">
			<use xlink:href="#SVGID_69_"  overflow="visible"/>
		</clipPath>
		<path clip-path="url(#SVGID_70_)" fill="none" stroke="#552618" stroke-miterlimit="10" d="M183.276,57.759
			c-0.646,1.822-2.646,2.773-4.471,2.126l-54.654-19.41c-1.821-0.647-2.772-2.649-2.127-4.471c0.646-1.82,2.648-2.772,4.47-2.126
			l54.655,19.41C182.969,53.936,183.923,55.938,183.276,57.759z"/>
	</g>
	<g>
		<defs>
			<rect id="SVGID_71_" x="-0.001" width="299.23" height="460"/>
		</defs>
		<clipPath id="SVGID_72_">
			<use xlink:href="#SVGID_71_"  overflow="visible"/>
		</clipPath>
		<path clip-path="url(#SVGID_72_)" fill="#CB1528" d="M162.769,16.944c-1.822-0.643-3.82,0.312-4.464,2.135l-19.323,54.686
			c-0.643,1.824,0.313,3.823,2.136,4.468c1.822,0.643,3.821-0.312,4.466-2.136l19.32-54.686
			C165.547,19.59,164.593,17.589,162.769,16.944"/>
	</g>
	<g>
		<defs>
			<rect id="SVGID_73_" x="-0.001" width="299.23" height="460"/>
		</defs>
		<clipPath id="SVGID_74_">
			<use xlink:href="#SVGID_73_"  overflow="visible"/>
		</clipPath>
		<path clip-path="url(#SVGID_74_)" fill="none" stroke="#552618" stroke-miterlimit="10" d="M162.769,16.944
			c-1.822-0.643-3.82,0.312-4.464,2.135l-19.323,54.686c-0.643,1.824,0.313,3.823,2.136,4.468c1.822,0.643,3.821-0.312,4.466-2.136
			l19.32-54.686C165.547,19.59,164.593,17.589,162.769,16.944z"/>
	</g>
	<g>
		<defs>
			<rect id="SVGID_75_" x="-0.001" width="299.23" height="460"/>
		</defs>
		<clipPath id="SVGID_76_">
			<use xlink:href="#SVGID_75_"  overflow="visible"/>
		</clipPath>
		<path clip-path="url(#SVGID_76_)" fill="#CB1528" d="M176.424,23.279c-1.361-1.371-3.578-1.379-4.949-0.018l-41.167,40.86
			c-1.37,1.359-1.379,3.576-0.017,4.948c1.36,1.372,3.578,1.38,4.949,0.019l41.163-40.859
			C177.776,26.868,177.785,24.651,176.424,23.279"/>
	</g>
	<g>
		<defs>
			<rect id="SVGID_77_" x="-0.001" width="299.23" height="460"/>
		</defs>
		<clipPath id="SVGID_78_">
			<use xlink:href="#SVGID_77_"  overflow="visible"/>
		</clipPath>
		<path clip-path="url(#SVGID_78_)" fill="none" stroke="#552618" stroke-miterlimit="10" d="M176.424,23.279
			c-1.361-1.371-3.578-1.379-4.949-0.018l-41.167,40.86c-1.37,1.359-1.379,3.576-0.017,4.948c1.36,1.372,3.578,1.38,4.949,0.019
			l41.163-40.859C177.776,26.868,177.785,24.651,176.424,23.279z"/>
	</g>
	<g>
		<defs>
			<rect id="SVGID_79_" x="-0.001" width="299.23" height="460"/>
		</defs>
		<clipPath id="SVGID_80_">
			<use xlink:href="#SVGID_79_"  overflow="visible"/>
		</clipPath>
		<path clip-path="url(#SVGID_80_)" fill="#CB1528" d="M182.494,33.193c-0.855-1.734-2.955-2.442-4.688-1.588l-52,25.691
			c-1.733,0.856-2.445,2.955-1.587,4.688c0.856,1.732,2.955,2.443,4.688,1.588l52-25.691
			C182.641,37.026,183.352,34.926,182.494,33.193"/>
	</g>
	<g>
		<defs>
			<rect id="SVGID_81_" x="-0.001" width="299.23" height="460"/>
		</defs>
		<clipPath id="SVGID_82_">
			<use xlink:href="#SVGID_81_"  overflow="visible"/>
		</clipPath>
		<path clip-path="url(#SVGID_82_)" fill="none" stroke="#552618" stroke-miterlimit="10" d="M182.494,33.193
			c-0.855-1.734-2.955-2.442-4.688-1.588l-52,25.691c-1.733,0.856-2.445,2.955-1.587,4.688c0.856,1.732,2.955,2.443,4.688,1.588
			l52-25.691C182.641,37.026,183.352,34.926,182.494,33.193z"/>
	</g>
</g>
</svg>
