<?xml version="1.0" encoding="utf-8"?>
<!-- Generator: Adobe Illustrator 15.1.0, SVG Export Plug-In . SVG Version: 6.00 Build 0)  -->
<!DOCTYPE svg PUBLIC "-//W3C//DTD SVG 1.1//EN" "http://www.w3.org/Graphics/SVG/1.1/DTD/svg11.dtd">
<svg version="1.1" id="Layer_1" xmlns="http://www.w3.org/2000/svg" xmlns:xlink="http://www.w3.org/1999/xlink" x="0px" y="0px"
	 width="299.23px" height="460px" viewBox="0 0 299.23 460" enable-background="new 0 0 299.23 460" xml:space="preserve">
<polygon fill="#485F99" points="51.846,410.135 51.846,442.135 243.286,444.469 243.893,413.107 "/>
<g>
	<g>
		<defs>
			<rect id="SVGID_1_" x="-0.001" width="299.23" height="460"/>
		</defs>
		<clipPath id="SVGID_2_">
			<use xlink:href="#SVGID_1_"  overflow="visible"/>
		</clipPath>
		<path clip-path="url(#SVGID_2_)" fill="#12100B" d="M260.67,448.802c-3,1-153.667-3.833-224.333,1.167
			c-7.936,0.563-3.251-6.499,26.708-8.333c29.958-1.834,76.927-4.264,86.191,0.118C191.141,431.136,267.503,442.136,260.67,448.802"
			/>
	</g>
	<g>
		<defs>
			<rect id="SVGID_3_" x="-0.001" width="299.23" height="460"/>
		</defs>
		<clipPath id="SVGID_4_">
			<use xlink:href="#SVGID_3_"  overflow="visible"/>
		</clipPath>
		<path clip-path="url(#SVGID_4_)" fill="#9B5B45" d="M246.305,284.802c0,0,36.025,58.083,35.114,88.833
			c-0.909,30.75-23.25,29-23.25,29l-0.5,5.75c0,0-83.332,33.583-207.499,2.25c-33.5-11.5-20.75-36-20.75-36
			s-2.567-34.803,32.049-81.902C96.082,245.631,246.305,284.802,246.305,284.802"/>
	</g>
	<g>
		<defs>
			<rect id="SVGID_5_" x="-0.001" width="299.23" height="460"/>
		</defs>
		<clipPath id="SVGID_6_">
			<use xlink:href="#SVGID_5_"  overflow="visible"/>
		</clipPath>
		<path clip-path="url(#SVGID_6_)" fill="#12100B" d="M70.65,344.778c0,0-0.2,0.56-0.557,1.539c-0.36,0.979-0.813,2.397-1.355,4.103
			c-0.563,1.699-1.122,3.707-1.731,5.861c-0.276,1.084-0.563,2.204-0.853,3.342c-0.28,1.142-0.605,2.294-0.846,3.465
			c-0.268,1.166-0.538,2.333-0.804,3.48c-0.133,0.574-0.267,1.146-0.398,1.709c-0.112,0.566-0.188,1.134-0.273,1.688
			c-0.145,1.116-0.258,2.197-0.311,3.229c-0.065,1.027-0.13,1.999-0.076,2.907c0.09,3.625,0.573,6.025,0.573,6.025l0.3,0.016
			c0,0,0.86-2.332,1.516-5.804c0.151-0.87,0.38-1.807,0.569-2.801c0.214-0.991,0.376-2.043,0.521-3.135
			c0.116-1.098,0.234-2.231,0.354-3.385c0.13-1.153,0.261-2.326,0.392-3.5c0.125-1.175,0.336-2.337,0.506-3.486
			c0.18-1.15,0.357-2.282,0.528-3.378c0.421-2.175,0.718-4.231,1.067-5.975c0.323-1.75,0.625-3.199,0.831-4.218l0.333-1.601
			L70.65,344.778z"/>
	</g>
	<g>
		<defs>
			<rect id="SVGID_7_" x="-0.001" width="299.23" height="460"/>
		</defs>
		<clipPath id="SVGID_8_">
			<use xlink:href="#SVGID_7_"  overflow="visible"/>
		</clipPath>
		<path clip-path="url(#SVGID_8_)" fill="#12100B" d="M247.984,381.486c0,0.001-0.213-2.557-0.614-6.381
			c-0.201-1.912-0.417-4.146-0.722-6.529c-0.295-2.386-0.607-4.93-0.924-7.476c-0.151-1.273-0.304-2.549-0.453-3.804
			c-0.128-1.258-0.305-2.491-0.511-3.678c-0.224-1.184-0.463-2.322-0.746-3.393c-0.254-1.071-0.58-2.084-0.872-3.008
			c-0.289-0.928-0.593-1.768-0.859-2.511c-0.271-0.742-0.608-1.395-0.854-1.912c-0.51-1.041-0.845-1.592-0.845-1.592l-0.281,0.106
			c0,0,0.008,0.682,0.097,1.799c0.03,0.566,0.131,1.207,0.175,1.991c0.055,0.783,0.113,1.664,0.222,2.615
			c0.053,0.476,0.105,0.97,0.165,1.481c0.073,0.507,0.146,1.034,0.206,1.581c0.119,1.093,0.306,2.232,0.521,3.407
			c0.231,1.174,0.525,2.373,0.816,3.601c0.281,1.227,0.567,2.474,0.854,3.719c1.074,5.007,2.148,10.013,2.955,13.767
			c0.824,3.756,1.373,6.26,1.373,6.26L247.984,381.486z"/>
	</g>
	<g>
		<defs>
			<rect id="SVGID_9_" x="-0.001" width="299.23" height="460"/>
		</defs>
		<clipPath id="SVGID_10_">
			<use xlink:href="#SVGID_9_"  overflow="visible"/>
		</clipPath>
		<path clip-path="url(#SVGID_10_)" fill="#CB1528" d="M23.045,390.51c0,11.599,10.073,21,22.5,21s22.5-9.401,22.5-21
			c0-11.598-10.073-22-22.5-22S23.045,378.912,23.045,390.51"/>
	</g>
	<g>
		<defs>
			<rect id="SVGID_11_" x="-0.001" width="299.23" height="460"/>
		</defs>
		<clipPath id="SVGID_12_">
			<use xlink:href="#SVGID_11_"  overflow="visible"/>
		</clipPath>
		<path clip-path="url(#SVGID_12_)" fill="#CB1528" d="M52.42,383.947c0,5.351,3.59,9.688,9.25,9.688
			c5.661,0,10.25-4.338,10.25-9.688c0-5.351-4.589-9.688-10.25-9.688C56.01,374.26,52.42,378.597,52.42,383.947"/>
	</g>
	<g>
		<defs>
			<rect id="SVGID_13_" x="-0.001" width="299.23" height="460"/>
		</defs>
		<clipPath id="SVGID_14_">
			<use xlink:href="#SVGID_13_"  overflow="visible"/>
		</clipPath>
		<path clip-path="url(#SVGID_14_)" fill="none" stroke="#541F21" stroke-miterlimit="10" d="M52.42,383.947
			c0,5.351,3.59,9.688,9.25,9.688c5.661,0,10.25-4.338,10.25-9.688c0-5.351-4.589-9.688-10.25-9.688
			C56.01,374.26,52.42,378.597,52.42,383.947z"/>
	</g>
	<g>
		<defs>
			<rect id="SVGID_15_" x="-0.001" width="299.23" height="460"/>
		</defs>
		<clipPath id="SVGID_16_">
			<use xlink:href="#SVGID_15_"  overflow="visible"/>
		</clipPath>
		<path clip-path="url(#SVGID_16_)" fill="#CB1528" d="M241.503,382.469c0,12.38,9.729,20.083,22.5,20.083
			c12.771,0,19.333-5.75,21.083-17.75c1.787-12.251-9.896-23.167-22.666-23.167C249.648,361.635,241.503,370.088,241.503,382.469"/>
	</g>
	<g>
		<defs>
			<rect id="SVGID_17_" x="-0.001" width="299.23" height="460"/>
		</defs>
		<clipPath id="SVGID_18_">
			<use xlink:href="#SVGID_17_"  overflow="visible"/>
		</clipPath>
		<path clip-path="url(#SVGID_18_)" fill="#CB1528" d="M238.336,376.468c0,5.661,3.753,9,9,9s10-3.339,10-9s-4.65-9.315-9.896-9.315
			C242.192,367.151,238.336,370.807,238.336,376.468"/>
	</g>
	<g>
		<defs>
			<rect id="SVGID_19_" x="-0.001" width="299.23" height="460"/>
		</defs>
		<clipPath id="SVGID_20_">
			<use xlink:href="#SVGID_19_"  overflow="visible"/>
		</clipPath>
		<path clip-path="url(#SVGID_20_)" fill="none" stroke="#541F21" stroke-miterlimit="10" d="M238.336,376.468c0,5.661,3.753,9,9,9
			s10-3.339,10-9s-4.65-9.315-9.896-9.315C242.192,367.151,238.336,370.807,238.336,376.468z"/>
	</g>
	<g>
		<defs>
			<rect id="SVGID_21_" x="-0.001" width="299.23" height="460"/>
		</defs>
		<clipPath id="SVGID_22_">
			<use xlink:href="#SVGID_21_"  overflow="visible"/>
		</clipPath>
		<path clip-path="url(#SVGID_22_)" fill="#CB1528" d="M240.359,290.455c2.646,12.847-58.188,54.347-85.021,46.347
			c-5.8-1.729-3.333-11.667-0.167-11.667L240.359,290.455z"/>
	</g>
	<g>
		<defs>
			<rect id="SVGID_23_" x="-0.001" width="299.23" height="460"/>
		</defs>
		<clipPath id="SVGID_24_">
			<use xlink:href="#SVGID_23_"  overflow="visible"/>
		</clipPath>
		<path clip-path="url(#SVGID_24_)" fill="#CB1528" d="M63.312,294.254c-13.143,9.881,39.857,49.381,84.513,44.548
			c3.229-0.35,7.318-6.166,0-13C140.503,318.968,63.312,294.254,63.312,294.254"/>
	</g>
	<g>
		<defs>
			<rect id="SVGID_25_" x="-0.001" width="299.23" height="460"/>
		</defs>
		<clipPath id="SVGID_26_">
			<use xlink:href="#SVGID_25_"  overflow="visible"/>
		</clipPath>
		<path clip-path="url(#SVGID_26_)" fill="#12100B" d="M158.67,346.822c0,2.104,1.649,3.813,3.688,3.813
			c2.036,0,3.688-1.708,3.688-3.813s-1.651-3.813-3.688-3.813C160.32,343.01,158.67,344.718,158.67,346.822"/>
	</g>
	<g>
		<defs>
			<rect id="SVGID_27_" x="-0.001" width="299.23" height="460"/>
		</defs>
		<clipPath id="SVGID_28_">
			<use xlink:href="#SVGID_27_"  overflow="visible"/>
		</clipPath>
		<path clip-path="url(#SVGID_28_)" fill="#12100B" d="M160.67,374.822c0,2.104,1.649,3.813,3.688,3.813
			c2.036,0,3.688-1.708,3.688-3.813s-1.651-3.813-3.688-3.813C162.32,371.01,160.67,372.718,160.67,374.822"/>
	</g>
	<g>
		<defs>
			<rect id="SVGID_29_" x="-0.001" width="299.23" height="460"/>
		</defs>
		<clipPath id="SVGID_30_">
			<use xlink:href="#SVGID_29_"  overflow="visible"/>
		</clipPath>
		<path clip-path="url(#SVGID_30_)" fill="#12100B" d="M161.67,404.822c0,2.104,1.649,3.813,3.688,3.813
			c2.036,0,3.688-1.708,3.688-3.813s-1.651-3.813-3.688-3.813C163.32,401.01,161.67,402.718,161.67,404.822"/>
	</g>
	<g>
		<defs>
			<rect id="SVGID_31_" x="-0.001" width="299.23" height="460"/>
		</defs>
		<clipPath id="SVGID_32_">
			<use xlink:href="#SVGID_31_"  overflow="visible"/>
		</clipPath>
		
			<path clip-path="url(#SVGID_32_)" fill="none" stroke="#12100B" stroke-width="3" stroke-linecap="round" stroke-miterlimit="10" d="
			M154.237,421.635c0,0-4.191-81.125-4.191-85.375"/>
	</g>
	<g>
		<defs>
			<rect id="SVGID_33_" x="-0.001" width="299.23" height="460"/>
		</defs>
		<clipPath id="SVGID_34_">
			<use xlink:href="#SVGID_33_"  overflow="visible"/>
		</clipPath>
	</g>
	<g>
		<defs>
			<rect id="SVGID_35_" x="-0.001" width="299.23" height="460"/>
		</defs>
		<clipPath id="SVGID_36_">
			<use xlink:href="#SVGID_35_"  overflow="visible"/>
		</clipPath>
	</g>
	<g>
		<defs>
			<rect id="SVGID_37_" x="-0.001" width="299.23" height="460"/>
		</defs>
		<clipPath id="SVGID_38_">
			<use xlink:href="#SVGID_37_"  overflow="visible"/>
		</clipPath>
	</g>
	<g>
		<defs>
			<rect id="SVGID_39_" x="-0.001" width="299.23" height="460"/>
		</defs>
		<clipPath id="SVGID_40_">
			<use xlink:href="#SVGID_39_"  overflow="visible"/>
		</clipPath>
	</g>
	<g>
		<defs>
			<rect id="SVGID_41_" x="-0.001" width="299.23" height="460"/>
		</defs>
		<clipPath id="SVGID_42_">
			<use xlink:href="#SVGID_41_"  overflow="visible"/>
		</clipPath>
	</g>
	<g>
		<defs>
			<rect id="SVGID_43_" x="-0.001" width="299.23" height="460"/>
		</defs>
		<clipPath id="SVGID_44_">
			<use xlink:href="#SVGID_43_"  overflow="visible"/>
		</clipPath>
	</g>
	<g>
		<defs>
			<rect id="SVGID_45_" x="-0.001" width="299.23" height="460"/>
		</defs>
		<clipPath id="SVGID_46_">
			<use xlink:href="#SVGID_45_"  overflow="visible"/>
		</clipPath>
	</g>
	<g>
		<defs>
			<rect id="SVGID_47_" x="-0.001" width="299.23" height="460"/>
		</defs>
		<clipPath id="SVGID_48_">
			<use xlink:href="#SVGID_47_"  overflow="visible"/>
		</clipPath>
	</g>
	<g>
		<defs>
			<rect id="SVGID_49_" x="-0.001" width="299.23" height="460"/>
		</defs>
		<clipPath id="SVGID_50_">
			<use xlink:href="#SVGID_49_"  overflow="visible"/>
		</clipPath>
	</g>
	<g>
		<defs>
			<rect id="SVGID_51_" x="-0.001" width="299.23" height="460"/>
		</defs>
		<clipPath id="SVGID_52_">
			<use xlink:href="#SVGID_51_"  overflow="visible"/>
		</clipPath>
	</g>
	<g>
		<defs>
			<rect id="SVGID_53_" x="-0.001" width="299.23" height="460"/>
		</defs>
		<clipPath id="SVGID_54_">
			<use xlink:href="#SVGID_53_"  overflow="visible"/>
		</clipPath>
	</g>
	<g>
		<defs>
			<rect id="SVGID_55_" x="-0.001" width="299.23" height="460"/>
		</defs>
		<clipPath id="SVGID_56_">
			<use xlink:href="#SVGID_55_"  overflow="visible"/>
		</clipPath>
	</g>
	<g>
		<defs>
			<rect id="SVGID_57_" x="-0.001" width="299.23" height="460"/>
		</defs>
		<clipPath id="SVGID_58_">
			<use xlink:href="#SVGID_57_"  overflow="visible"/>
		</clipPath>
	</g>
	<g>
		<defs>
			<rect id="SVGID_59_" x="-0.001" width="299.23" height="460"/>
		</defs>
		<clipPath id="SVGID_60_">
			<use xlink:href="#SVGID_59_"  overflow="visible"/>
		</clipPath>
	</g>
	<g>
		<defs>
			<rect id="SVGID_61_" x="-0.001" width="299.23" height="460"/>
		</defs>
		<clipPath id="SVGID_62_">
			<use xlink:href="#SVGID_61_"  overflow="visible"/>
		</clipPath>
	</g>
	<g>
		<defs>
			<rect id="SVGID_63_" x="-0.001" width="299.23" height="460"/>
		</defs>
		<clipPath id="SVGID_64_">
			<use xlink:href="#SVGID_63_"  overflow="visible"/>
		</clipPath>
	</g>
	<g>
		<defs>
			<rect id="SVGID_65_" x="-0.001" width="299.23" height="460"/>
		</defs>
		<clipPath id="SVGID_66_">
			<use xlink:href="#SVGID_65_"  overflow="visible"/>
		</clipPath>
	</g>
	<g>
		<defs>
			<rect id="SVGID_67_" x="-0.001" width="299.23" height="460"/>
		</defs>
		<clipPath id="SVGID_68_">
			<use xlink:href="#SVGID_67_"  overflow="visible"/>
		</clipPath>
	</g>
	<g>
		<defs>
			<rect id="SVGID_69_" x="-0.001" width="299.23" height="460"/>
		</defs>
		<clipPath id="SVGID_70_">
			<use xlink:href="#SVGID_69_"  overflow="visible"/>
		</clipPath>
	</g>
	<g>
		<defs>
			<rect id="SVGID_71_" x="-0.001" width="299.23" height="460"/>
		</defs>
		<clipPath id="SVGID_72_">
			<use xlink:href="#SVGID_71_"  overflow="visible"/>
		</clipPath>
	</g>
	<g>
		<defs>
			<rect id="SVGID_73_" x="-0.001" width="299.23" height="460"/>
		</defs>
		<clipPath id="SVGID_74_">
			<use xlink:href="#SVGID_73_"  overflow="visible"/>
		</clipPath>
	</g>
	<g>
		<defs>
			<rect id="SVGID_75_" x="-0.001" width="299.23" height="460"/>
		</defs>
		<clipPath id="SVGID_76_">
			<use xlink:href="#SVGID_75_"  overflow="visible"/>
		</clipPath>
	</g>
	<g>
		<defs>
			<rect id="SVGID_77_" x="-0.001" width="299.23" height="460"/>
		</defs>
		<clipPath id="SVGID_78_">
			<use xlink:href="#SVGID_77_"  overflow="visible"/>
		</clipPath>
	</g>
	<g>
		<defs>
			<rect id="SVGID_79_" x="-0.001" width="299.23" height="460"/>
		</defs>
		<clipPath id="SVGID_80_">
			<use xlink:href="#SVGID_79_"  overflow="visible"/>
		</clipPath>
	</g>
	<g>
		<defs>
			<rect id="SVGID_81_" x="-0.001" width="299.23" height="460"/>
		</defs>
		<clipPath id="SVGID_82_">
			<use xlink:href="#SVGID_81_"  overflow="visible"/>
		</clipPath>
	</g>
</g>
</svg>
