<?xml version="1.0" encoding="utf-8"?>
<!-- Generator: Adobe Illustrator 15.1.0, SVG Export Plug-In . SVG Version: 6.00 Build 0)  -->
<!DOCTYPE svg PUBLIC "-//W3C//DTD SVG 1.1//EN" "http://www.w3.org/Graphics/SVG/1.1/DTD/svg11.dtd">
<svg version="1.1" id="Layer_1" xmlns="http://www.w3.org/2000/svg" xmlns:xlink="http://www.w3.org/1999/xlink" x="0px" y="0px"
	 width="791px" height="177px" viewBox="0 0 791 177" enable-background="new 0 0 791 177" xml:space="preserve">
<g id="boat">
	
		<linearGradient id="boat_bottom_part_2_" gradientUnits="userSpaceOnUse" x1="616.8232" y1="-240.1284" x2="617.8253" y2="-143.9283" gradientTransform="matrix(1 0 0 -1 -220.96 -69.6602)">
		<stop  offset="0" style="stop-color:#A31A2A"/>
		<stop  offset="0.0301" style="stop-color:#A41B2A"/>
		<stop  offset="0.3599" style="stop-color:#A92223"/>
		<stop  offset="0.6856" style="stop-color:#AB261E"/>
		<stop  offset="1" style="stop-color:#AC281D"/>
	</linearGradient>
	<path id="boat_bottom_part_1_" fill="url(#boat_bottom_part_2_)" d="M17.504,92.676L15.5,139.773
		c0,0,600.257,67.142,735.541-18.539c0,0,30.03-16.392,26.056-43.59C773.12,50.444,27.525,79.647,17.504,92.676z"/>
	<g id="boat_upper_part">
		
			<linearGradient id="SVGID_1_" gradientUnits="userSpaceOnUse" x1="237.4629" y1="-143.293" x2="997.0547" y2="-143.293" gradientTransform="matrix(1 0 0 -1 -220.96 -69.6602)">
			<stop  offset="0" style="stop-color:#A31A2A"/>
			<stop  offset="0.0301" style="stop-color:#A41B2A"/>
			<stop  offset="0.3599" style="stop-color:#A92223"/>
			<stop  offset="0.6856" style="stop-color:#AB261E"/>
			<stop  offset="1" style="stop-color:#AC281D"/>
		</linearGradient>
		<path fill="url(#SVGID_1_)" d="M31.536,67.621c0,0,200.42-5.344,297.958-9.352c0,0,246.182-4.678,252.192-4.678
			c6.015,0,167.353,4.009,171.36,7.014l13.027,7.016l10.021,11.023c0,0-717.504-5.011-759.592,15.031L31.536,67.621z"/>
	</g>
	<g>
		<g>
			<path fill="#27201E" d="M18.506,94.176c31.479-2.396,62.993-4.396,94.503-6.327c75.429-4.622,150.913-8.389,226.433-11.164
				c90.863-3.339,181.818-5.306,272.745-4.276c55.008,0.623,110.065,2.305,164.909,6.736c1.931,0.156,1.915-2.846,0-3
				c-85.139-6.879-170.776-7.559-256.145-6.796c-88.962,0.796-177.902,3.764-266.767,7.89c-63.958,2.97-127.889,6.574-191.773,10.85
				c-14.638,0.979-29.277,1.976-43.906,3.088C16.59,91.32,16.576,94.322,18.506,94.176L18.506,94.176z"/>
		</g>
	</g>
	<g id="spray">
	</g>
</g>
<g id="windshield">
	<path opacity="0.49" fill="#8D8F8F" enable-background="new    " d="M489.994,11.501l63.132,40.084c0,0-186.195,5.296-185.89,1.002
		C367.543,48.294,387.78,21.021,489.994,11.501z"/>
	<path fill="#27201E" d="M326.665,59.426c0,0,82.66-48.927,165.334-47.924c0,0-131.275,23.048-120.754,39.082
		c0,0,91.191,4.509,183.886-1.001l5.511,5.01L326.665,59.426z"/>
</g>
<g id="text">
	<g>
		<path fill="#E48F10" d="M370.391,116.95l0.775,0.587c-0.204,0.438-0.399,0.822-0.587,1.15s-0.415,0.729-0.681,1.197
			s-0.47,0.822-0.61,1.059c-1.174,2.051-2.278,3.076-3.312,3.076c-0.438,0-0.814-0.172-1.127-0.518
			c-0.313-0.345-0.47-0.814-0.47-1.409c0-0.846,0.301-2.004,0.904-3.476c0.603-1.473,1.535-3.284,2.795-5.438
			c1.26-2.152,2.846-4.593,4.756-7.316c1.91-2.725,4.063-5.598,6.459-8.619c-1.378-0.203-3.015-0.307-4.909-0.307
			c-2.176,0-4.6,0.244-7.269,0.729c-2.669,0.485-4.995,1.045-6.976,1.679c-1.981,0.635-2.971,1.102-2.971,1.397
			c0,0.11,0.039,0.185,0.117,0.224c0.078,0.039,0.208,0.07,0.388,0.094c0.18,0.023,0.411,0.051,0.693,0.082
			c1.832,0.252,2.748,0.532,2.748,0.846c0,0.156-0.399,0.232-1.198,0.224c-0.798-0.008-1.761-0.012-2.889-0.012
			c-0.893,0-1.539-0.035-1.938-0.104c-0.399-0.07-0.666-0.203-0.799-0.4c-0.133-0.194-0.2-0.496-0.2-0.903
			c0-0.267,0.078-0.847,0.235-1.737c0.297-1.66,0.755-2.99,1.374-3.992c0.619-1.002,1.566-1.82,2.842-2.455s3.034-1.14,5.273-1.516
			c3.758-0.642,6.866-0.963,9.324-0.963c1.816,0,3.249,0.075,4.298,0.225c1.049,0.147,1.82,0.363,2.313,0.646
			s0.806,0.562,0.939,0.834c0.133,0.274,0.309,0.748,0.528,1.421l0.728,2.161c0.047,0.142,0.086,0.255,0.117,0.34
			c0.031,0.087,0.059,0.177,0.083,0.271c0.024,0.095,0.035,0.182,0.035,0.26c0,0.609-0.137,1.158-0.411,1.645
			c-0.274,0.485-0.775,1.213-1.503,2.184c-0.728,0.972-1.265,1.73-1.609,2.279C374.618,108.949,371.862,113.803,370.391,116.95z"/>
		<path fill="#E48F10" d="M396.086,114.227v1.479c-1.362,1.395-2.541,2.533-3.535,3.418c-0.995,0.885-1.864,1.554-2.607,2.008
			c-0.744,0.454-1.374,0.682-1.891,0.682c-1.222,0-1.832-0.721-1.832-2.16c0-1.159,0.379-2.502,1.139-4.028
			c0.759-1.526,1.851-3.323,3.276-5.39c-0.705,0.392-1.371,0.842-1.997,1.35c-0.626,0.51-1.183,1.042-1.667,1.598
			c-0.485,0.557-0.893,1.029-1.221,1.422c-1.018,1.144-1.997,2.313-2.936,3.51c-0.939,1.199-1.574,1.979-1.902,2.338
			c-0.329,0.361-0.642,0.541-0.939,0.541c-1.221,0-1.832-1.504-1.832-4.51c0-0.986,0.148-2.074,0.446-3.266
			c0.297-1.189,1.096-2.764,2.396-4.721c2.74-4.104,5.085-7.457,7.034-10.064c1.95-2.605,3.566-4.58,4.851-5.918
			c1.283-1.339,2.145-1.992,2.583-1.962c0.548,0.048,0.989,0.157,1.327,0.329c0.337,0.174,0.505,0.368,0.505,0.587
			c0,0.392-0.271,1.038-0.812,1.938c-0.54,0.9-1.468,2.307-2.783,4.216c-1.425,2.021-2.435,3.44-3.029,4.264
			c-0.595,0.821-1.484,1.988-2.666,3.499c-1.182,1.512-2.263,2.857-3.241,4.04s-2.094,2.462-3.347,3.841v2.817
			c2.098-2.333,3.914-4.243,5.449-5.729c1.535-1.487,2.834-2.611,3.899-3.371c1.064-0.76,1.848-1.14,2.349-1.14
			c0.47,0,0.908,0.278,1.315,0.834c0.407,0.556,0.61,1.015,0.61,1.374c0,0.156-0.078,0.354-0.234,0.588
			c-1.128,1.346-2.024,2.463-2.689,3.346c-0.666,0.886-1.178,1.677-1.539,2.373c-0.36,0.697-0.54,1.295-0.54,1.797
			c0,0.736,0.353,1.104,1.057,1.104C391.834,117.256,393.502,116.245,396.086,114.227z"/>
		<path fill="#E48F10" d="M407.146,112.629c-2.271,3.006-3.996,5.145-5.18,6.411c-1.182,1.269-2.148,1.903-2.9,1.903
			c-0.594,0-1.143-0.248-1.644-0.74c-0.502-0.493-0.889-1.158-1.163-1.996c-0.274-0.838-0.411-1.734-0.411-2.689
			c0-0.625,0.059-1.188,0.176-1.69c0.117-0.501,0.341-1.054,0.67-1.655c0.328-0.602,0.764-1.257,1.304-1.961
			c0.54-0.705,1.201-1.504,1.983-2.396c0.471-0.547,0.865-1.01,1.188-1.385c0.32-0.375,0.635-0.631,0.939-0.764s0.802-0.2,1.49-0.2
			c0.502,0,0.979,0.067,1.434,0.2c0.453,0.133,0.681,0.27,0.681,0.411c0,0.28-0.229,0.79-0.692,1.526
			c-0.461,0.735-1.205,1.631-2.23,2.688s-2.212,2.095-3.559,3.11c-0.297,0.926-0.445,1.63-0.445,2.115
			c0,0.672,0.258,1.01,0.773,1.01c0.188,0,0.502-0.16,0.939-0.481c0.438-0.319,1.18-0.938,2.221-1.854s1.977-1.728,2.807-2.432
			c0.609-0.531,1.318-1.326,2.125-2.384s1.461-1.853,1.962-2.384c1.157-1.223,1.948-2.018,2.372-2.385
			c0.423-0.367,0.83-0.553,1.222-0.553c0.375,0,0.63,0.118,0.763,0.354c0.133,0.234,0.2,0.713,0.2,1.433
			c0,0.329-0.032,0.597-0.095,0.8c-0.063,0.202-0.191,0.465-0.387,0.786c-0.196,0.32-0.592,0.912-1.188,1.772
			c-0.595,0.861-1.3,1.879-2.113,3.054c-0.438,0.626-0.822,1.312-1.15,2.056c-0.329,0.743-0.493,1.303-0.493,1.68
			c0,0.813,0.319,1.222,0.963,1.222c0.532,0,1.151-0.22,1.854-0.658c0.705-0.438,1.785-1.229,3.242-2.372v1.573
			c-1.832,1.69-3.188,2.921-4.063,3.688c-0.877,0.768-1.636,1.347-2.278,1.738c-0.643,0.391-1.253,0.586-1.832,0.586
			c-1.314,0-1.973-0.781-1.973-2.349c0-0.595,0.195-1.397,0.587-2.407S406.27,114.539,407.146,112.629z"/>
		<path fill="#E48F10" d="M430.423,109.975c-2.756,3.069-4.134,5.207-4.134,6.412c0,0.674,0.272,1.01,0.822,1.01
			c0.454,0,1.045-0.237,1.771-0.717c0.729-0.478,1.867-1.326,3.418-2.548v1.62c-2.224,2.191-3.931,3.773-5.12,4.745
			c-1.189,0.971-2.161,1.456-2.912,1.456c-1.283,0-1.927-0.846-1.927-2.537c0-0.501,0.078-0.994,0.235-1.479
			c0.156-0.485,0.372-0.99,0.646-1.516c0.274-0.523,0.693-1.275,1.257-2.255c0.564-0.979,1.214-2.086,1.949-3.323
			c-0.893,0.454-2.012,1.354-3.357,2.701c-0.877,0.846-1.62,1.646-2.231,2.407c-0.609,0.76-1.265,1.604-1.961,2.536
			c-0.697,0.932-1.206,1.559-1.525,1.879c-0.321,0.32-0.646,0.48-0.976,0.48c-0.502,0-0.963-0.523-1.386-1.572
			c-0.424-1.049-0.635-2.271-0.635-3.664c0-0.86,0.098-1.534,0.293-2.021c0.195-0.485,0.584-1.175,1.162-2.067
			c1.082-1.658,2.013-2.877,2.795-3.651c0.783-0.774,1.535-1.162,2.256-1.162c0.501,0,0.903,0.086,1.21,0.259
			c0.306,0.172,0.458,0.438,0.458,0.799c0,0.156-0.047,0.32-0.142,0.492c-0.095,0.174-0.199,0.329-0.316,0.471
			s-0.364,0.414-0.74,0.821c-2.474,2.74-3.711,4.519-3.711,5.332c0,0.454,0.149,0.681,0.446,0.681c0.188,0,0.552-0.301,1.093-0.903
			c0.54-0.603,1.235-1.394,2.09-2.372s1.863-2,3.03-3.064c1.166-1.064,2.493-2.091,3.979-3.076c0.83-0.58,1.52-0.869,2.067-0.869
			c0.25,0,0.496,0.345,0.739,1.033c0.242,0.688,0.363,1.386,0.363,2.09C431.433,108.745,431.096,109.27,430.423,109.975z"/>
		<path fill="#E48F10" d="M442.895,114.271c-1.378,1.566-2.61,2.897-3.698,3.994c-1.089,1.096-1.974,1.914-2.654,2.453
			c-0.681,0.54-1.147,0.811-1.397,0.811c-0.406,0-0.864-0.328-1.374-0.985c-0.509-0.657-0.942-1.495-1.304-2.515
			c-0.359-1.018-0.54-2.051-0.54-3.1c0-1.519,0.736-3.05,2.208-4.592c1.473-1.542,3.147-2.822,5.026-3.84
			c1.879-1.02,3.288-1.527,4.228-1.527c0.768,0,1.52,0.485,2.255,1.456c1.205-2.521,2.354-4.76,3.44-6.717s2-3.413,2.736-4.368
			c0.734-0.955,1.26-1.433,1.572-1.433c0.346,0,0.662,0.168,0.951,0.505c0.29,0.337,0.436,0.716,0.436,1.139
			c0,0.814-0.596,2.213-1.784,4.192c-1.19,1.981-2.365,3.909-3.523,5.789s-2.152,3.731-2.981,5.555
			c-0.83,1.824-1.245,3.513-1.245,5.062c0,1.41,0.454,2.115,1.362,2.115c0.548,0,1.235-0.311,2.065-0.929s2.012-1.655,3.547-3.112
			v1.715c-3.382,4.369-5.988,6.554-7.82,6.554c-0.736,0-1.266-0.282-1.585-0.847c-0.321-0.563-0.481-1.4-0.481-2.513
			C442.331,117.631,442.519,116.012,442.895,114.271z M444.633,108.542c-1.395,0.47-3.03,1.226-4.909,2.267
			s-3.015,1.758-3.404,2.148c-0.346,0.313-0.65,0.9-0.916,1.762c-0.268,0.861-0.399,1.512-0.399,1.949
			c0,0.268,0.078,0.486,0.234,0.658c0.155,0.172,0.353,0.258,0.588,0.258c0.219,0,0.47-0.094,0.751-0.281
			c0.282-0.188,0.731-0.556,1.351-1.104c0.618-0.549,1.021-0.899,1.21-1.057c0.267-0.234,0.857-0.74,1.773-1.516
			s1.585-1.382,2.008-1.82c0.423-0.438,0.782-0.928,1.08-1.468S444.507,109.199,444.633,108.542z"/>
		<path fill="#E48F10" d="M455.977,115.07v0.588c0,0.924,0.228,1.645,0.682,2.16c0.454,0.517,1.049,0.774,1.785,0.774
			c0.768,0,1.563-0.18,2.384-0.54c0.822-0.359,1.641-0.837,2.455-1.433c0.813-0.595,1.808-1.394,2.981-2.396v1.433
			c-1.77,2.13-3.429,3.762-4.979,4.897c-1.55,1.135-3.123,1.701-4.722,1.701c-1.394,0-2.496-0.54-3.312-1.619
			c-0.815-1.08-1.222-2.562-1.222-4.439c0-1.645,0.384-3.135,1.15-4.475c0.768-1.339,2.021-2.752,3.758-4.238
			c1.189-1.019,2.372-1.785,3.548-2.303c1.174-0.517,2.223-0.774,3.146-0.774c0.736,0,1.319,0.169,1.75,0.505
			c0.431,0.337,0.646,0.842,0.646,1.515c0,0.987-0.367,1.97-1.104,2.948s-1.858,1.949-3.37,2.912
			C460.043,113.251,458.185,114.18,455.977,115.07z M456.211,113.545c1.409-0.548,2.615-1.229,3.617-2.044
			c1.002-0.813,1.742-1.593,2.22-2.337c0.479-0.743,0.716-1.287,0.716-1.632c0-0.36-0.164-0.54-0.493-0.54
			c-0.28,0-0.738,0.18-1.373,0.54s-1.276,0.829-1.927,1.409c-0.649,0.578-1.231,1.261-1.749,2.043
			C456.704,111.768,456.367,112.621,456.211,113.545z"/>
		<path fill="#E48F10" d="M466.028,116.034v-1.526c0.846-1.002,1.486-1.855,1.926-2.561c-0.501-0.172-0.865-0.383-1.092-0.635
			c-0.229-0.25-0.342-0.625-0.342-1.127c0-0.563,0.235-1.275,0.705-2.138c0.471-0.862,1.05-1.668,1.738-2.419
			c0.688-0.752,1.314-1.236,1.879-1.456c0.219-0.108,0.431-0.165,0.634-0.165c0.313,0,0.471,0.149,0.471,0.446
			c0,0.267-0.243,0.807-0.729,1.621c3.227-0.501,5.262-0.752,6.107-0.752c0.328,0,0.555,0.03,0.681,0.094
			c0.267,0.142,0.485,0.47,0.657,0.985c0.173,0.518,0.259,1.035,0.259,1.552c0,0.328-0.145,0.685-0.435,1.067
			s-0.787,0.943-1.491,1.681c-0.83,0.892-1.526,1.862-2.091,2.912c-0.563,1.049-0.846,1.84-0.846,2.372
			c0,0.736,0.453,1.104,1.361,1.104c0.955,0,2.615-0.971,4.979-2.912v1.573c-1.301,1.362-2.372,2.437-3.219,3.218
			c-0.846,0.783-1.629,1.406-2.349,1.867c-0.72,0.462-1.362,0.693-1.926,0.693c-0.657,0-1.206-0.303-1.645-0.904
			c-0.438-0.604-0.657-1.477-0.657-2.619c0-0.673,0.172-1.439,0.517-2.302c0.345-0.86,0.85-1.797,1.515-2.808
			c0.666-1.01,1.413-2.016,2.243-3.018c-0.438,0.094-0.932,0.191-1.479,0.293c-0.549,0.104-1.127,0.208-1.738,0.316
			c-0.61,0.109-1.08,0.197-1.409,0.26C469.285,112.691,467.876,114.453,466.028,116.034z"/>
		<path fill="#E48F10" d="M523.078,114.132v1.526c-2.631,2.929-5.046,5.344-7.246,7.246s-4.349,3.365-6.447,4.392
			c-2.098,1.026-4.126,1.538-6.083,1.538c-1.689,0-3.144-0.337-4.355-1.01c-1.214-0.674-2.13-1.655-2.748-2.947
			c-0.619-1.292-0.928-2.822-0.928-4.592c0-1.395,0.223-2.869,0.669-4.428c0.445-1.559,1.093-3.131,1.938-4.722
			c0.845-1.589,1.882-3.229,3.111-4.92c1.229-1.69,2.674-3.468,4.334-5.332c1.722-1.926,3.421-3.589,5.096-4.989
			c1.676-1.401,3.194-2.502,4.557-3.301s2.628-1.394,3.794-1.785s2.134-0.586,2.9-0.586c0.782,0,1.447,0.188,1.996,0.563
			c0.548,0.376,0.971,0.924,1.269,1.645s0.446,1.551,0.446,2.489c0,1.771-0.604,3.738-1.809,5.906
			c-1.206,2.169-2.709,4.264-4.511,6.282c-1.801,2.02-3.52,3.668-5.154,4.943c-1.638,1.276-2.814,1.915-3.535,1.915
			c-0.485,0-0.937-0.192-1.352-0.575c-0.415-0.384-0.622-0.817-0.622-1.304c0-0.894,0.475-1.974,1.422-3.241
			c0.946-1.269,1.979-2.432,3.101-3.488c1.119-1.057,1.788-1.584,2.008-1.584c0.109,0,0.164,0.047,0.164,0.141
			c0,0.141-0.082,0.384-0.246,0.729c-0.164,0.344-0.247,0.557-0.247,0.635c0,0.125,0.048,0.188,0.143,0.188
			c0.266,0,1.033-0.712,2.302-2.137c1.268-1.426,2.431-2.995,3.487-4.709c1.057-1.715,1.586-3.12,1.586-4.217
			c0-0.453-0.1-0.803-0.294-1.045c-0.196-0.242-0.489-0.363-0.881-0.363c-1.097,0-2.761,0.889-4.991,2.665s-4.519,4.04-6.857,6.788
			c-2.342,2.748-4.295,5.586-5.859,8.514c-1.565,2.93-2.35,5.504-2.35,7.729c0,1.283,0.191,2.355,0.575,3.218
			c0.384,0.86,0.947,1.526,1.691,1.995c0.742,0.471,1.64,0.705,2.688,0.705c2.271,0,4.846-0.885,7.728-2.653
			C516.446,120.184,519.617,117.576,523.078,114.132z"/>
		<path fill="#E48F10" d="M540.435,114.227v1.479c-1.361,1.395-2.541,2.533-3.534,3.418c-0.994,0.885-1.863,1.554-2.607,2.008
			c-0.743,0.454-1.374,0.682-1.891,0.682c-1.222,0-1.832-0.721-1.832-2.16c0-1.159,0.38-2.502,1.14-4.028
			c0.759-1.526,1.853-3.323,3.276-5.39c-0.705,0.392-1.37,0.842-1.996,1.35c-0.627,0.51-1.183,1.042-1.668,1.598
			c-0.485,0.557-0.894,1.029-1.222,1.422c-1.019,1.144-1.996,2.313-2.937,3.51c-0.938,1.199-1.573,1.979-1.902,2.338
			c-0.328,0.361-0.643,0.541-0.938,0.541c-1.222,0-1.832-1.504-1.832-4.51c0-0.986,0.148-2.074,0.446-3.266
			c0.297-1.189,1.096-2.764,2.396-4.721c2.74-4.104,5.085-7.457,7.034-10.064c1.949-2.605,3.565-4.58,4.851-5.918
			c1.283-1.339,2.146-1.992,2.583-1.962c0.548,0.048,0.99,0.157,1.327,0.329c0.337,0.174,0.505,0.368,0.505,0.587
			c0,0.392-0.271,1.038-0.811,1.938s-1.468,2.307-2.783,4.216c-1.425,2.021-2.435,3.44-3.029,4.264
			c-0.596,0.821-1.482,1.988-2.666,3.499c-1.183,1.512-2.263,2.857-3.24,4.04c-0.979,1.183-2.095,2.462-3.348,3.841v2.817
			c2.099-2.333,3.914-4.243,5.449-5.729c1.534-1.487,2.834-2.611,3.898-3.371c1.063-0.76,1.848-1.14,2.349-1.14
			c0.47,0,0.908,0.278,1.315,0.834c0.406,0.556,0.609,1.015,0.609,1.374c0,0.156-0.078,0.354-0.233,0.588
			c-1.129,1.346-2.024,2.463-2.689,3.346c-0.666,0.886-1.179,1.677-1.538,2.373c-0.36,0.697-0.54,1.295-0.54,1.797
			c0,0.736,0.353,1.104,1.057,1.104C536.183,117.256,537.851,116.245,540.435,114.227z"/>
		<path fill="#E48F10" d="M551.661,114.227v1.715c-1.52,1.957-2.937,3.433-4.251,4.427c-1.315,0.995-2.437,1.491-3.358,1.491
			c-1.283,0-2.238-0.674-2.865-2.021s-0.939-2.817-0.939-4.415c0-0.611,0.063-1.193,0.188-1.75c0.125-0.556,0.273-1.014,0.446-1.374
			c0.172-0.36,0.493-0.924,0.963-1.69c2.224-3.461,4.259-5.19,6.106-5.19c0.955,0,1.433,0.368,1.433,1.104
			c0,0.5-0.31,1.283-0.928,2.349c-0.619,1.063-1.171,1.823-1.656,2.278c-1.36,1.313-2.251,2.229-2.665,2.746
			c-0.415,0.519-0.623,1.104-0.623,1.763c0,0.563,0.212,1.032,0.636,1.409c0.423,0.375,0.971,0.563,1.644,0.563
			c0.736,0,1.546-0.27,2.432-0.811C549.104,116.281,550.252,115.416,551.661,114.227z M550.063,103.729
			c-0.392,0-0.764-0.149-1.115-0.446c-0.354-0.298-0.528-0.675-0.528-1.128c0-0.688,0.329-1.456,0.986-2.303
			c0.657-0.846,1.339-1.268,2.043-1.268c0.47,0,0.86,0.145,1.175,0.434c0.313,0.291,0.47,0.709,0.47,1.258
			c0,0.674-0.32,1.416-0.963,2.23S550.8,103.729,550.063,103.729z"/>
		<path fill="#E48F10" d="M562.677,113.968v1.737c-3.271,4.338-5.935,6.506-7.984,6.506c-1.112,0-1.984-0.605-2.619-1.82
			c-0.634-1.213-0.951-2.807-0.951-4.779c0-1.596,0.376-3.494,1.128-5.694c0.751-2.2,1.757-4.431,3.018-6.692
			c1.261-2.264,2.567-4.236,3.923-5.92c1.354-1.684,2.61-2.861,3.771-3.535c0.47-0.281,0.837-0.422,1.104-0.422
			c0.328,0,0.548,0.146,0.656,0.435c0.109,0.29,0.165,0.786,0.165,1.491c0,2.177-0.885,4.851-2.653,8.021
			c-1.771,3.17-4.235,6.408-7.398,9.712c-0.156,0.813-0.234,1.439-0.234,1.879c0,1.002,0.216,1.816,0.646,2.442
			s1.029,0.938,1.797,0.938c0.391,0,0.813-0.152,1.269-0.457c0.453-0.307,0.932-0.686,1.434-1.141
			C560.242,116.215,561.221,115.314,562.677,113.968z M555.654,109.74c0.813-0.799,1.601-1.707,2.359-2.725
			c0.759-1.019,1.477-2.106,2.149-3.266s1.201-2.2,1.585-3.124s0.575-1.621,0.575-2.091c0-0.359-0.125-0.54-0.376-0.54
			c-0.095,0-0.273,0.087-0.54,0.259c-0.955,0.783-2.027,2.313-3.218,4.592C557.001,105.125,556.155,107.423,555.654,109.74z"/>
		<path fill="#E48F10" d="M573.198,114.271c-1.378,1.566-2.611,2.897-3.699,3.994c-1.089,1.096-1.973,1.914-2.654,2.453
			c-0.681,0.54-1.146,0.811-1.396,0.811c-0.407,0-0.865-0.328-1.374-0.985s-0.943-1.495-1.304-2.515
			c-0.36-1.018-0.54-2.051-0.54-3.1c0-1.519,0.735-3.05,2.208-4.592c1.472-1.542,3.146-2.822,5.025-3.84
			c1.879-1.02,3.288-1.527,4.229-1.527c0.767,0,1.519,0.485,2.255,1.456c1.205-2.521,2.353-4.76,3.439-6.717s2-3.413,2.736-4.368
			c0.735-0.955,1.26-1.433,1.573-1.433c0.345,0,0.662,0.168,0.951,0.505c0.29,0.337,0.435,0.716,0.435,1.139
			c0,0.814-0.595,2.213-1.784,4.192c-1.189,1.981-2.365,3.909-3.522,5.789c-1.159,1.88-2.153,3.731-2.982,5.555
			c-0.83,1.824-1.245,3.513-1.245,5.062c0,1.41,0.454,2.115,1.362,2.115c0.548,0,1.236-0.311,2.065-0.929
			c0.83-0.618,2.013-1.655,3.548-3.112v1.715c-3.383,4.369-5.989,6.554-7.821,6.554c-0.736,0-1.265-0.282-1.585-0.847
			c-0.321-0.563-0.481-1.4-0.481-2.513C572.635,117.631,572.822,116.012,573.198,114.271z M574.937,108.542
			c-1.395,0.47-3.029,1.226-4.908,2.267s-3.016,1.758-3.405,2.148c-0.345,0.313-0.65,0.9-0.916,1.762
			c-0.267,0.861-0.399,1.512-0.399,1.949c0,0.268,0.078,0.486,0.234,0.658s0.354,0.258,0.588,0.258c0.219,0,0.47-0.094,0.751-0.281
			c0.282-0.188,0.732-0.556,1.352-1.104c0.617-0.549,1.021-0.899,1.21-1.057c0.266-0.234,0.856-0.74,1.772-1.516
			s1.585-1.382,2.008-1.82c0.423-0.438,0.782-0.928,1.08-1.468S574.811,109.199,574.937,108.542z"/>
	</g>
	
		<text transform="matrix(1 0 0 1 311.2021 245.624)" display="none" fill="#E48F10" enable-background="new    " font-family="'BrushScriptMT'" font-size="48.1008">Thunder Child</text>
</g>
</svg>
