<?xml version="1.0" encoding="utf-8"?>
<!-- Generator: Adobe Illustrator 15.1.0, SVG Export Plug-In . SVG Version: 6.00 Build 0)  -->
<!DOCTYPE svg PUBLIC "-//W3C//DTD SVG 1.1//EN" "http://www.w3.org/Graphics/SVG/1.1/DTD/svg11.dtd">
<svg version="1.1" id="Layer_1" xmlns="http://www.w3.org/2000/svg" xmlns:xlink="http://www.w3.org/1999/xlink" x="0px" y="0px"
	 width="356px" height="367px" viewBox="0 0 356 367" enable-background="new 0 0 356 367" xml:space="preserve">
<g id="triside_1_">
	<g id="legs_1_">
		<g id="leg1">
			<path fill="#878395" d="M196.24,213.241c0,0,7.861-16.259-0.021-25.3c-7.883-9.041-12.525,4.42-12.525,4.42
				s9.863,16.885,5.201,20.88C184.234,217.236,196.24,213.241,196.24,213.241z"/>
			<path fill="#526077" d="M166.26,149.328c0,0-12.649,56.59,17.311,41.943c0,0,15.979-3.328,15.313-6.658
				c0,0-19.941-10.227-17.627-13.102s-2.314-17.522,0-22.183C183.568,144.667,166.26,149.328,166.26,149.328z"/>
			<path fill="#878395" d="M189.563,221.536c0,0-0.586,90.903-21.266,133.513c0,0,9.36,27.297,0,30.625
				c-9.36,3.33,12.949,5.326,12.949,5.326s16.305-9.986,8.314-23.301c-7.988-13.316,21.306-141.143,14.646-143.807
				C197.551,221.23,189.563,221.536,189.563,221.536z"/>
			<path fill="#526077" d="M184.98,209.691c0,0,9.24,4.216,25.22-4.439c0,0-1.331,19.973-13.979,23.969
				c0,0,0.157,3.328-11.24-11.984C173.584,201.925,184.98,209.691,184.98,209.691z"/>
		</g>
		<g id="leg3">
			<path fill="#878395" d="M65.836,211.02h11.558c0,0,10.491,73.508-0.638,107.464c0,0-5.979,54.983-11.067,57.627
				c-5.087,2.643-9.754-8.394-9.754-8.394S80.195,235.135,65.836,211.02z"/>
			<path fill="#878395" d="M73.599,181.276c0,0,5.673,3.378,13.822,2.709c0,0-11.068,10.886-8.45,17.425l-12.695-5.035
				L73.599,181.276z"/>
			<path fill="#526077" d="M59.653,196.58l32.222,1.641c1.212-1.998-11.546,24.879-25.474,12.973
				C54.812,201.285,37.287,183.483,59.653,196.58z"/>
			<path fill="#526077" d="M91.884,137.968c0,0-31.957,31.398-17.976,44.66c13.981,13.261,24.225-15.195,24.225-15.195
				s10.751-19.479,8.754-22.808C104.89,141.296,91.884,137.968,91.884,137.968z"/>
		</g>
		<g id="leg2">
			<path fill="#878395" d="M133.843,224.297c41.677,45.938-30.358,157.785-29.027,155.123c1.332-2.664,18.059,0,18.059,0
				c4.745-15.313,32.974-55.258,32.974-55.258c19.944-17.402-7.63-102.389-6.76-99.594L133.843,224.297z"/>
			<path fill="#878395" d="M133.538,193.672c0,0,13.221,0,14.553,0c1.331,0-21.305,8.893,0,17.428
				c21.304,8.537-28.835-3.393-17.31,0C142.306,214.493,118.985,193.672,133.538,193.672z"/>
			<path fill="#526077" d="M113.471,147.256h10.652c0,0,42.608,51.657,14.646,49.036
				C110.808,193.672,117.465,151.439,113.471,147.256z"/>
			<path fill="#526077" d="M127.034,209.674c0,0,28.55,4.125,31.794-6.271c3.243-10.396-1.084,24.89-15.897,22.893
				C128.118,224.297,126.201,218.693,127.034,209.674z"/>
		</g>
	</g>
	<g id="middle_1_">
		<path fill="#878395" d="M80.302,134.049l99.199,1.332l8.733,16.645c0,0-103.228,3.329-105.936-17.976"/>
		<polygon fill="#526077" points="92.24,121.399 81.588,134.049 180.787,135.38 178.79,121.399 		"/>
	</g>
	<g id="laser_1_">
		
			<rect x="14.725" y="101.056" transform="matrix(0.8155 -0.5788 0.5788 0.8155 -60.861 38.7137)" fill="#B1A3B6" width="31.123" height="27.506"/>
		
			<ellipse transform="matrix(-0.5498 -0.8353 0.8353 -0.5498 -76.1542 206.6004)" fill="#CA1E18" cx="17.598" cy="123.822" rx="13.466" ry="2.793"/>
	</g>
	<g id="head_1_">
		<g id="core_2_">
			<path fill="#878395" d="M5.273,105.72c0,0,88.885-138.204,341.861-83.431c0,0,27.13,13.143-49.475,32.106
				c0,0-28.152,6.981-85.582,72.47c0,0-146.379-17.407-173.849,14.233C38.229,141.098,47.317,88.918,5.273,105.72z"/>
		</g>
		<g id="tophead">
			<path fill="#526077" d="M57.982,54.596c0,0,8.035-0.788,12.413,5.332c4.379,6.119,55.368-29.483,55.368-29.483
				s9.622-15.941-5.721-11.005C104.7,24.377,63.895,42.21,57.982,54.596z"/>
			<path fill="#526077" d="M152.115,71.655c0,0,20.817-25.084,34.66-18.202L152.115,71.655z"/>
			<path fill="#526077" d="M155.759,75.364c0,0,36.49-19.357,38.793-15.703c2.306,3.654,5.003,12.118,5.003,12.118
				s-18.484,10.865-43.578,6.239"/>
			<path fill="#526077" d="M204.198,71.399c6.997,6.164,51.372-25.251,51.372-25.251l-57.377,9.043L204.198,71.399z"/>
			<path fill="#526077" d="M186.342,48.145c0,0,65.189-18.697,68.93-5.643c0,0-60.721,8.971-63.957,10.242L186.342,48.145z"/>
		</g>
	</g>
</g>
</svg>
