<?xml version="1.0" encoding="utf-8"?>
<!-- Generator: Adobe Illustrator 15.1.0, SVG Export Plug-In . SVG Version: 6.00 Build 0)  -->
<!DOCTYPE svg PUBLIC "-//W3C//DTD SVG 1.1//EN" "http://www.w3.org/Graphics/SVG/1.1/DTD/svg11.dtd">
<svg version="1.1" id="Layer_1" xmlns="http://www.w3.org/2000/svg" xmlns:xlink="http://www.w3.org/1999/xlink" x="0px" y="0px"
	 width="500px" height="400px" viewBox="0 0 500 400" enable-background="new 0 0 500 400" xml:space="preserve">
<g id="tripod">
	<g id="legs">
		<path id="core" fill="#B1A3B6" d="M329.287,318.375c0,0,42.361-17.375,82.037,9.625c0,0,9.676,7-3.824,72H153.646
			c0,0-3.646-37.127,7.354-43.563c11-6.437,0.355-11.299,55.178-24.367"/>
		<g id="top">
			<path fill="#878395" d="M167.059,400c0,0-2.721-50.048,6.868-54.34c9.589-4.292,28.073-8.662,28.073-8.662S185,386,189,393v7
				H167.059z"/>
			<path fill="#878395" d="M213.841,336.998h25.98c0,0-18.841,29.002-16.831,33.502c2.01,4.5,0,29.5,0,29.5H202v-29.5
				L213.841,336.998z"/>
			<path fill="#878395" d="M243.5,336.998H268c0,0-15.754,57.002-7.377,63.002s-18.86,1.917-18.86,1.917L235.98,370.5L243.5,336.998
				z"/>
			<path fill="#878395" d="M272,400h17c0,0,12-51.002,1-63.002h-18c0,0,0,55.002,0,59.002"/>
			<polygon fill="#878395" points="303.5,335.699 321,336.998 331,370.5 334,400 305,400 307,371.459 			"/>
			<path fill="#878395" d="M341,321c0,0,29,9.996,28,15.998S376.051,384,369.025,392c-7.026,8-24.025,8-24.025,8l3-39.5L341,321z"/>
		</g>
		<g id="lines">
			<line fill="none" x1="373.801" y1="383.2" x2="410.563" y2="384.063"/>
			<line fill="none" x1="371.932" y1="360.5" x2="411.801" y2="361.8"/>
			<line fill="none" x1="371.932" y1="343.2" x2="413" y2="345"/>
			<line fill="none" x1="370.4" y1="334.399" x2="414.221" y2="336.998"/>
			<line fill="none" x1="363.4" y1="327.8" x2="411.801" y2="329.399"/>
			<line fill="none" x1="361.2" y1="322.2" x2="399.014" y2="321"/>
			<line fill="none" x1="348.801" y1="319.2" x2="381.544" y2="315.056"/>
		</g>
	</g>
	<g id="head">
		<g id="core_1_">
			<path fill="#434547" d="M461.065,233.243c-69.316-30.998-112.732,2.422-112.732,2.422l-23.334,101.333h-106
				c0,0-35.333-60.393-36.667-83.196c-0.65-11.114-33.29-26.303-65.333-24.802c-33.693,1.578-66.926,20.253-70.001,24.665l0,0
				c0,0-48-116.48,17.333-108.573c0,0,165.333-98.761,354-18.76c0,0,56.035,32.003,26.685,73.668"/>
		</g>
		<g id="eye">
			<ellipse id="mideye_3_" fill="#878395" cx="221.068" cy="155.521" rx="63.932" ry="53.621"/>
			<ellipse id="mideye_2_" fill="#526077" cx="216.178" cy="157.521" rx="62.531" ry="49.082"/>
			<ellipse id="mideye_1_" fill="#CA1E18" cx="213.841" cy="156.41" rx="46.782" ry="37.827"/>
		</g>
		<g id="middle">
			<path fill="#B1A3B6" d="M444.999,207.665c0,0,10.667,30,26.667,30s12-42,12-42s-9.333-64.667-35.333-85.333
				c0,0-33.333-39.333-38-39.333s-184.001-104.667-365.334,50c0,0-33.333,42.667-26,85.333c0,0,13.333,44.666,28,47.333
				s-4.667-34.667-4.667-34.667s-24-56,30.667-70s136-45.334,280-26.667c0,0,79.767-0.161,87.334,46
				S444.999,207.665,444.999,207.665z"/>
		</g>
		<path id="top_2_" fill="#878395" d="M236.667,11c0,0-12.667-12.667-66,36c0,0-71.666,0.667-122.667,69.333
			c0,0,4,22.666,56.667,45.333c0,0,5.333-50.667,142-30c0,0,15.334,7.333,17.334,14c0,0,67.999-9.333,148.666-71.333
			c0,0-18-34.667-104-40.667C308.667,33.667,271.42,0.123,236.667,11z"/>
		<g id="overtop">
			<path fill="#526077" d="M180.43,59.546c0,0,57.597-1.333,70.597,0c0,0,24.736-26,42.736-36.667c0,0-29.695-19.335-66.515-12.001
				c0,0-44.819,24.001-44.819,39.334C182.43,50.213,174.43,54.88,180.43,59.546z"/>
		</g>
	</g>
	<g id="guns">
		<g id="biggestcircles">
			<ellipse fill="#878395" cx="74.187" cy="214.093" rx="28.227" ry="26.15"/>
			<circle fill="#878395" cx="411.324" cy="192.345" r="31.824"/>
		</g>
		<g id="circles">
			<circle fill="#ADA3B5" cx="408.5" cy="191" r="22.5"/>
			<ellipse fill="#ADA3B5" cx="70.546" cy="214.68" rx="21.454" ry="21.987"/>
		</g>
		<g id="laser">
			<ellipse fill="#FFEA25" cx="68" cy="214.254" rx="13" ry="12.914"/>
			<circle fill="#FFEA25" cx="407.5" cy="190" r="15.5"/>
		</g>
	</g>
</g>
</svg>
