<?xml version="1.0" encoding="utf-8"?>
<!-- Generator: Adobe Illustrator 15.1.0, SVG Export Plug-In . SVG Version: 6.00 Build 0)  -->
<!DOCTYPE svg PUBLIC "-//W3C//DTD SVG 1.1//EN" "http://www.w3.org/Graphics/SVG/1.1/DTD/svg11.dtd">
<svg version="1.1" xmlns="http://www.w3.org/2000/svg" xmlns:xlink="http://www.w3.org/1999/xlink" x="0px" y="0px" width="781px"
	 height="652px" viewBox="0 0 781 652" enable-background="new 0 0 781 652" xml:space="preserve">
<g id="sketch" display="none">
	
		<image display="inline" overflow="visible" width="2259" height="2303" xlink:href="../../sketches/enemy.jpg"  transform="matrix(0.2509 0 0 0.2509 -572.8462 45.0005)">
	</image>
</g>
<g id="barbarafront" display="none">
	
		<image display="inline" overflow="visible" width="480" height="360" xlink:href="../tripod/ep112.jpg"  transform="matrix(1 0 0 1 1107.4189 -170.1123)">
	</image>
</g>
<g id="barbaraside" display="none">
	
		<image display="inline" overflow="visible" width="720" height="540" xlink:href="../tripod/1x12-Mecha-Streisand-south-park-18905521-720-540.jpg"  transform="matrix(0.6373 0 0 0.6373 1628.7051 -224.5293)">
	</image>
</g>
<g id="barbarahead" display="none">
	
		<image display="inline" overflow="visible" width="400" height="300" xlink:href="../tripod/mecha-streiasnd.jpg"  transform="matrix(1 0 0 1 569.4189 -61.1367)">
	</image>
</g>
<g id="triside" display="none">
	
		<image display="inline" overflow="visible" width="750" height="1000" xlink:href="../tripod/Tripod.jpg"  transform="matrix(1 0 0 1 -870.4229 -248)">
	</image>
</g>
<g id="trihead" display="none">
	
		<image display="inline" overflow="visible" opacity="0.4" width="900" height="692" xlink:href="../tripod/Frount.jpg"  transform="matrix(0.6327 0 0 0.6327 -29.0039 233.0869)">
	</image>
</g>
<g id="tripod">
	<g id="legs">
		<path id="core" fill="#B1A3B6" d="M515.373,516.299c0,0,68.896-28.259,133.424,15.652c0,0,15.736,11.385-6.22,117.101H229.714
			c0,0-5.931-60.383,11.959-70.852c17.891-10.468,0.578-18.374,89.74-39.63"/>
		<g id="top">
			<path fill="#878395" d="M251.528,649.052c0,0-4.426-81.397,11.169-88.377c15.595-6.981,45.657-14.089,45.657-14.089
				s-27.648,79.696-21.143,91.081v11.385H251.528z"/>
			<path fill="#878395" d="M327.612,546.586h42.254c0,0-30.642,47.169-27.373,54.488c3.269,7.317,0,47.978,0,47.978h-34.139v-47.978
				L327.612,546.586z"/>
			<path fill="#878395" d="M375.851,546.586h39.846c0,0-25.621,92.708-11.997,102.466c13.624,9.759-30.675,3.118-30.675,3.118
				l-9.404-51.096L375.851,546.586z"/>
			<path fill="#878395" d="M422.202,649.052h27.648c0,0,19.517-82.948,1.627-102.466h-29.275c0,0,0,89.455,0,95.96"/>
			<polygon fill="#878395" points="473.434,544.475 501.895,546.586 518.158,601.074 523.038,649.052 475.873,649.052 
				479.126,602.633 			"/>
			<path fill="#878395" d="M534.423,520.567c0,0,47.166,16.258,45.539,26.019c-1.627,9.762,11.468,76.444,0.041,89.455
				c-11.426,13.011-39.074,13.011-39.074,13.011l4.879-64.242L534.423,520.567z"/>
		</g>
		<g id="lines">
			<line fill="none" stroke="#000000" stroke-miterlimit="10" x1="587.77" y1="621.729" x2="647.559" y2="623.133"/>
			<line fill="none" stroke="#000000" stroke-miterlimit="10" x1="584.729" y1="584.81" x2="649.573" y2="586.924"/>
			<line fill="none" stroke="#000000" stroke-miterlimit="10" x1="584.729" y1="556.674" x2="651.523" y2="559.601"/>
			<line fill="none" stroke="#000000" stroke-miterlimit="10" x1="582.239" y1="542.36" x2="653.508" y2="546.586"/>
			<line fill="none" stroke="#000000" stroke-miterlimit="10" x1="570.854" y1="531.627" x2="649.573" y2="534.228"/>
			<line fill="none" stroke="#000000" stroke-miterlimit="10" x1="567.276" y1="522.52" x2="628.776" y2="520.567"/>
			<line fill="none" stroke="#000000" stroke-miterlimit="10" x1="547.11" y1="517.641" x2="600.363" y2="510.899"/>
		</g>
	</g>
	<g id="head">
		<g id="core_1_">
			<path fill="#434547" d="M729.695,377.841C616.96,327.426,546.35,381.78,546.35,381.78l-37.95,164.806H336.002
				c0,0-57.465-98.222-59.634-135.309c-1.057-18.078-54.143-42.778-106.256-40.337c-54.798,2.566-108.847,32.939-113.849,40.115l0,0
				c0,0-78.066-189.441,28.19-176.582c0,0,268.896-160.624,575.741-30.512c0,0,91.135,52.05,43.398,119.813"/>
		</g>
		<g id="eye">
			<path id="mideye_3_" fill="#878395" d="M443.345,251.436c0,48.163-46.551,87.208-103.979,87.208
				c-57.425,0-103.978-39.045-103.978-87.208c0-48.161,46.553-87.204,103.978-87.204
				C396.794,164.231,443.345,203.275,443.345,251.436z"/>
			<ellipse id="mideye_2_" fill="#526077" cx="331.414" cy="254.688" rx="101.7" ry="79.826"/>
			<ellipse id="mideye_1_" fill="#CA1E18" cx="327.614" cy="252.88" rx="76.085" ry="61.521"/>
		</g>
		<g id="middle">
			<path fill="#B1A3B6" d="M703.565,336.241c0,0,17.35,48.792,43.371,48.792c26.022,0,19.517-68.309,19.517-68.309
				s-15.18-105.173-57.465-138.785c0,0-54.213-63.971-61.804-63.971c-7.59,0-299.256-170.228-594.174,81.319
				c0,0-54.213,69.395-42.286,138.786c0,0,21.685,72.645,45.539,76.982s-7.589-56.382-7.589-56.382S9.64,263.596,98.549,240.827
				c88.91-22.77,221.189-73.73,455.389-43.371c0,0,129.73-0.261,142.038,74.814S703.565,336.241,703.565,336.241z"/>
		</g>
		<path id="top_1_" fill="#878395" d="M364.737,16.388c0,0-20.602-20.6-107.342,58.55c0,0-116.557,1.085-199.503,112.763
			c0,0,6.504,36.864,92.162,73.729c0,0,8.673-82.404,230.947-48.792c0,0,24.938,11.926,28.192,22.769
			c0,0,110.592-15.179,241.788-116.015c0,0-29.275-56.382-169.145-66.14C481.837,53.253,421.258-1.303,364.737,16.388z"/>
		<g id="overtop">
			<path fill="#526077" d="M273.273,95.343c0,0,93.675-2.169,114.819,0c0,0,40.229-42.287,69.504-59.635
				c0,0-48.296-31.447-108.178-19.518c0,0-72.893,39.035-72.893,63.973C276.526,80.163,263.516,87.753,273.273,95.343z"/>
		</g>
	</g>
	<g id="guns">
		<g id="biggestcircles">
			<path fill="#878395" d="M146.391,346.695c0,23.492-20.559,42.53-45.909,42.53c-25.351,0-45.908-19.038-45.908-42.53
				c0-23.486,20.557-42.529,45.908-42.529C125.832,304.166,146.391,323.209,146.391,346.695z"/>
			<circle fill="#878395" cx="648.797" cy="311.325" r="51.758"/>
		</g>
		<g id="circles">
			<circle fill="#ADA3B5" cx="644.204" cy="309.138" r="36.594"/>
			<path fill="#ADA3B5" d="M129.453,347.649c0,19.752-15.625,35.76-34.893,35.76c-19.267,0-34.891-16.008-34.891-35.76
				c0-19.747,15.624-35.757,34.891-35.757C113.828,311.892,129.453,327.902,129.453,347.649z"/>
		</g>
		<g id="laser">
			<ellipse fill="#FFEA25" cx="90.42" cy="346.957" rx="21.143" ry="21.003"/>
			<circle fill="#FFEA25" cx="642.578" cy="307.512" r="25.209"/>
		</g>
	</g>
</g>
</svg>
