<?xml version="1.0" encoding="utf-8"?>
<!-- Generator: Adobe Illustrator 15.1.0, SVG Export Plug-In . SVG Version: 6.00 Build 0)  -->
<!DOCTYPE svg PUBLIC "-//W3C//DTD SVG 1.1//EN" "http://www.w3.org/Graphics/SVG/1.1/DTD/svg11.dtd">
<svg version="1.1" id="tripod" xmlns="http://www.w3.org/2000/svg" xmlns:xlink="http://www.w3.org/1999/xlink" x="0px" y="0px"
	 width="1118px" height="932.415px" viewBox="0 0 1118 932.415" enable-background="new 0 0 1118 932.415" xml:space="preserve">
<g id="legs">
	<path id="core" fill="#B1A3B6" d="M748.354,737.849c0,0,100.702-41.305,195.02,22.881c0,0,23,16.641-9.092,171.157H330.823
		c0,0-8.668-88.259,17.48-103.559c26.149-15.3,0.846-26.857,131.167-57.926"/>
	<g id="top">
		<path fill="#878395" d="M362.708,931.887c0,0-6.469-118.973,16.325-129.177c22.795-10.201,66.736-20.592,66.736-20.592
			s-40.412,116.488-30.904,133.129v16.64H362.708z"/>
		<path fill="#878395" d="M473.917,782.118h61.761c0,0-44.788,68.944-40.011,79.642s0,70.127,0,70.127h-49.898V861.76
			L473.917,782.118z"/>
		<path fill="#878395" d="M544.422,782.118h58.241c0,0-37.45,135.505-17.536,149.769s-44.836,4.558-44.836,4.558l-13.745-74.685
			L544.422,782.118z"/>
		<path fill="#878395" d="M612.172,931.887h40.413c0,0,28.525-121.241,2.376-149.769h-42.789c0,0,0,130.752,0,140.26"/>
		<polygon fill="#878395" points="687.053,779.032 728.654,782.118 752.427,861.76 759.558,931.887 690.619,931.887 
			695.374,864.039 		"/>
		<path fill="#878395" d="M776.198,744.088c0,0,68.938,23.763,66.562,38.03c-2.378,14.268,16.762,111.733,0.062,130.752
			c-16.701,19.017-57.114,19.017-57.114,19.017l7.131-93.899L776.198,744.088z"/>
	</g>
	<g id="lines">
		<line fill="#434547" x1="854.173" y1="891.95" x2="941.563" y2="894.002"/>
		<line fill="#434547" x1="849.729" y1="837.987" x2="944.506" y2="841.077"/>
		<line fill="#434547" x1="849.729" y1="796.862" x2="947.357" y2="801.141"/>
		<line fill="#434547" x1="846.09" y1="775.942" x2="950.259" y2="782.118"/>
		<line fill="#434547" x1="829.449" y1="760.253" x2="944.506" y2="764.055"/>
		<line fill="#434547" x1="824.219" y1="746.942" x2="914.109" y2="744.088"/>
		<line fill="#434547" x1="794.742" y1="739.81" x2="872.58" y2="729.959"/>
	</g>
</g>
<g id="head">
	<g id="core_1_">
		<path fill="#434547" d="M1061.617,535.475c-164.778-73.689-267.987,5.755-267.987,5.755l-55.469,240.889H486.179
			c0,0-83.994-143.563-87.164-197.773c-1.545-26.422-79.137-62.527-155.309-58.958c-80.094,3.752-159.095,48.146-166.405,58.634l0,0
			c0,0-114.105-276.896,41.206-258.1c0,0,393.027-234.773,841.525-44.596c0,0,133.206,76.077,63.435,175.124"/>
	</g>
	<g id="eye">
		<path id="mideye_3_" fill="#878395" d="M643.075,350.714c0,70.396-68.042,127.466-151.979,127.466
			c-83.937,0-151.979-57.07-151.979-127.466c0-70.393,68.042-127.461,151.979-127.461
			C575.033,223.253,643.075,280.321,643.075,350.714z"/>
		<ellipse id="mideye_2_" fill="#526077" cx="479.472" cy="355.469" rx="148.649" ry="116.676"/>
	</g>
	<g id="middle">
		<path fill="#B1A3B6" d="M1023.425,474.669c0,0,25.357,71.316,63.393,71.316c38.034,0,28.525-99.844,28.525-99.844
			s-22.187-153.725-83.992-202.854c0,0-79.239-93.502-90.335-93.502c-11.094,0-437.405-248.813-868.469,118.86
			c0,0-79.24,101.43-61.807,202.853c0,0,31.695,106.18,66.561,112.521c34.866,6.34-11.093-82.411-11.093-82.411
			s-57.054-133.12,72.9-166.402c129.955-33.28,323.299-107.768,665.614-63.393c0,0,189.621-0.381,207.61,109.35
			C1030.322,490.897,1023.425,474.669,1023.425,474.669z"/>
	</g>
	<path id="top_1_" fill="#878395" d="M528.178,7.16c0,0-30.11-30.112-156.894,85.578c0,0-170.363,1.586-291.603,164.82
		c0,0,9.508,53.881,134.708,107.766c0,0,12.677-120.446,337.562-71.317c0,0,36.451,17.433,41.206,33.281
		c0,0,161.646-22.186,353.408-169.572c0,0-42.789-82.411-247.229-96.674C699.337,61.042,610.794-18.7,528.178,7.16z"/>
	<g id="overtop">
		<path fill="#526077" d="M394.492,122.562c0,0,136.918-3.169,167.824,0c0,0,58.801-61.807,101.59-87.164
			c0,0-70.592-45.964-158.117-28.528c0,0-106.543,57.055-106.543,93.505C399.246,100.375,380.229,111.469,394.492,122.562z"/>
	</g>
</g>
<g id="guns">
	<g id="biggestcircles">
		<path fill="#878395" d="M209.034,489.948c0,34.337-30.049,62.167-67.102,62.167c-37.054,0-67.101-27.829-67.101-62.167
			c0-34.328,30.047-62.16,67.101-62.16C178.985,427.788,209.034,455.621,209.034,489.948z"/>
		<circle fill="#878395" cx="943.373" cy="438.25" r="75.651"/>
	</g>
	<g id="circles">
		<circle fill="#ADA3B5" cx="936.66" cy="435.054" r="53.487"/>
		<path fill="#ADA3B5" d="M184.277,491.345c0,28.869-22.837,52.268-51,52.268c-28.162,0-50.999-23.399-50.999-52.268
			c0-28.863,22.836-52.264,50.999-52.264C161.44,439.081,184.277,462.482,184.277,491.345z"/>
	</g>
	<g id="laser">
		<ellipse fill="#FFEA25" cx="127.225" cy="490.332" rx="30.903" ry="30.699"/>
		<circle fill="#FFEA25" cx="934.281" cy="432.677" r="36.847"/>
	</g>
</g>
</svg>
